<?xml version="1.0" encoding="UTF-8" standalone="no"?>
<!DOCTYPE svg PUBLIC "-//W3C//DTD SVG 1.1//EN" "http://www.w3.org/Graphics/SVG/1.1/DTD/svg11.dtd">
<svg width="100%" height="100%" viewBox="0 0 120 380" version="1.1" xmlns="http://www.w3.org/2000/svg" xmlns:xlink="http://www.w3.org/1999/xlink" xml:space="preserve" xmlns:serif="http://www.serif.com/" style="fill-rule:evenodd;clip-rule:evenodd;stroke-linejoin:round;stroke-miterlimit:1.41421;">
    <g id="Layer-1" serif:id="Layer 1" transform="matrix(1,0,0,1,15,-742.52)">
        <g id="background" transform="matrix(1.33333,0,0,1,-15,0.181716)">
            <rect x="0" y="742.52" width="90" height="380" style="fill:rgb(240,240,240);"/>
        </g>
        <g id="logo" transform="matrix(0.419307,0,0,0.419307,-348.208,425.174)">
            <path d="M854.15,841.185C856.843,843.947 857.074,845.318 857.006,845.845C856.912,846.603 855.804,847.093 854.896,847.371C851.488,848.407 846.987,848.229 842.502,847.446C841.466,847.833 839.069,848.695 837.324,849.319C841.223,850.321 845.458,851.014 849.328,851.014C851.498,851.051 853.662,850.771 855.751,850.184C857.496,849.653 859.64,848.533 859.931,846.204C860.164,844.332 859.062,842.084 856.497,839.369C855.771,839.984 854.989,840.59 854.15,841.185" style="fill-rule:nonzero;"/>
            <path d="M861.632,824.021C861.82,819.218 859.372,814.757 854.35,810.731C858.448,807.07 860.227,804.22 859.934,801.839C859.647,799.517 857.502,798.381 855.754,797.85C849.275,795.881 839.589,797.722 832.501,800.157C825.41,797.722 815.725,795.881 809.245,797.85C807.566,798.359 805.506,799.448 805.231,801.733C805.044,803.225 805.543,805.379 809.064,808.974C810.842,810.716 812.728,812.352 814.701,813.874C815.153,814.224 815.626,814.582 816.121,814.951L816.539,815.263C819.879,817.732 824.167,820.613 829.648,824.002C822.525,828.344 816.914,832.161 812.931,835.37C808.353,831.859 806.147,828.098 806.314,824.083L806.314,823.955C806.168,820.653 807.657,817.509 810.774,814.523C809.962,813.853 809.224,813.207 808.552,812.585C804.947,816.112 803.205,819.941 803.358,824.021C803.17,828.821 805.617,833.282 810.64,837.308C806.542,840.969 804.763,843.819 805.056,846.203C805.343,848.535 807.488,849.659 809.236,850.189C815.478,852.089 824.714,850.442 831.724,848.138L832.476,847.885L832.492,847.885L833.481,847.53C834.833,847.084 836.059,846.646 837.252,846.203L838.004,845.923L838.391,845.779C843.835,843.706 848.245,841.531 851.772,839.183L851.906,839.093C852.762,838.557 853.577,837.96 854.346,837.304C859.375,833.279 861.819,828.819 861.632,824.021M854.896,800.668C855.81,800.946 856.916,801.436 857.006,802.197C857.087,802.849 856.719,804.766 851.912,808.948L851.778,808.858C847.989,806.336 843.182,804.014 837.161,801.801C843.176,800.141 850.111,799.205 854.896,800.668M852.068,835.361C848.631,832.577 844.006,829.393 838.148,825.732L835.336,827.455C841.241,831.104 846.004,834.347 849.544,837.131C845.316,839.836 839.637,842.376 832.508,844.75C826.832,842.856 822.073,840.859 818.235,838.757C817.336,839.437 816.504,840.095 815.738,840.729C819.612,842.909 823.666,844.752 827.855,846.238C821.825,847.896 814.887,848.832 810.105,847.371C809.191,847.093 808.084,846.603 807.992,845.841C807.91,845.192 808.279,843.298 812.986,839.174C813.611,838.612 814.297,838.006 815.483,837.129C819.466,833.98 825.044,830.237 832.075,825.983C833.495,825.13 834.129,824.797 835.374,824.026C841.161,820.486 845.952,817.306 849.678,814.512C848.846,813.944 847.954,813.382 847.003,812.826C843.205,815.607 838.357,818.778 832.524,822.299C824.584,817.473 819.224,813.722 815.588,810.829C818.876,808.748 823.03,806.761 828.051,804.867C826.453,804.384 824.733,803.906 823.332,803.572C819.804,805.012 816.418,806.78 813.22,808.853C808.48,804.686 808.066,802.773 808.15,802.09C808.234,801.406 809.258,800.922 810.103,800.666C811.929,800.156 813.825,799.914 815.72,799.948C819.071,800.005 822.403,800.439 825.654,801.243L825.718,801.262C826.062,801.343 826.406,801.427 826.744,801.514C828.41,801.899 830.054,802.377 831.666,802.947L833.052,803.437L833.052,803.478C839.919,805.802 845.417,808.282 849.548,810.916C850.486,811.494 851.388,812.129 852.248,812.817C852.95,813.363 853.597,813.919 854.183,814.477L854.22,814.511C857.342,817.498 858.843,820.651 858.699,823.959L858.699,824.087C858.86,828.076 856.645,831.843 852.068,835.361" style="fill-rule:nonzero;"/>
        </g>
        <g transform="matrix(1,0,0,1,-9,740.52)">
            <path d="M11.048,98.866L11.048,99.856L7.228,99.856L7.228,98.866L8.648,98.866L8.648,95.376C8.588,95.456 8.494,95.539 8.368,95.626C8.241,95.713 8.101,95.793 7.948,95.866C7.794,95.939 7.634,96.001 7.468,96.051C7.301,96.101 7.154,96.126 7.028,96.126L7.028,95.096C7.161,95.096 7.316,95.056 7.493,94.976C7.669,94.896 7.839,94.803 8.003,94.696C8.166,94.589 8.309,94.483 8.433,94.376C8.556,94.269 8.628,94.193 8.648,94.146L9.778,94.146L9.778,98.866L11.048,98.866Z" style="fill-rule:nonzero;"/>
        </g>
        <g transform="matrix(1,0,0,1,-9,776.52)">
            <path d="M6.978,99.856C6.978,99.576 7.001,99.316 7.048,99.076C7.094,98.836 7.178,98.611 7.298,98.401C7.418,98.191 7.581,97.991 7.788,97.801C7.994,97.611 8.261,97.426 8.588,97.246C8.821,97.119 9.041,97.003 9.248,96.896C9.454,96.789 9.636,96.684 9.793,96.581C9.949,96.478 10.074,96.368 10.168,96.251C10.261,96.134 10.308,95.999 10.308,95.846C10.308,95.633 10.216,95.441 10.033,95.271C9.849,95.101 9.584,95.016 9.238,95.016C9.058,95.016 8.893,95.041 8.743,95.091C8.593,95.141 8.456,95.204 8.333,95.281C8.209,95.358 8.101,95.443 8.008,95.536C7.914,95.629 7.831,95.719 7.758,95.806L7.058,94.996C7.124,94.923 7.229,94.831 7.373,94.721C7.516,94.611 7.689,94.506 7.893,94.406C8.096,94.306 8.328,94.221 8.588,94.151C8.848,94.081 9.131,94.046 9.438,94.046C9.758,94.046 10.046,94.088 10.303,94.171C10.559,94.254 10.776,94.369 10.953,94.516C11.129,94.663 11.264,94.838 11.358,95.041C11.451,95.244 11.498,95.463 11.498,95.696C11.498,95.943 11.448,96.163 11.348,96.356C11.248,96.549 11.124,96.719 10.978,96.866C10.831,97.013 10.671,97.138 10.498,97.241C10.324,97.344 10.164,97.433 10.018,97.506C9.878,97.573 9.719,97.651 9.543,97.741C9.366,97.831 9.194,97.934 9.028,98.051C8.861,98.168 8.711,98.293 8.578,98.426C8.444,98.559 8.351,98.706 8.298,98.866L11.608,98.866L11.608,99.856L6.978,99.856Z" style="fill-rule:nonzero;"/>
        </g>
        <g transform="matrix(1,0,0,1,-9,812.52)">
            <path d="M10.268,97.496C10.474,97.536 10.664,97.608 10.838,97.711C11.011,97.814 11.158,97.943 11.278,98.096C11.398,98.249 11.491,98.426 11.558,98.626C11.624,98.826 11.658,99.043 11.658,99.276C11.658,99.589 11.599,99.871 11.483,100.121C11.366,100.371 11.199,100.586 10.983,100.766C10.766,100.946 10.504,101.084 10.198,101.181C9.891,101.278 9.548,101.326 9.168,101.326C8.661,101.326 8.214,101.238 7.828,101.061C7.441,100.884 7.131,100.629 6.898,100.296L7.568,99.536C7.728,99.783 7.934,99.976 8.188,100.116C8.441,100.256 8.761,100.326 9.148,100.326C9.588,100.326 9.926,100.233 10.163,100.046C10.399,99.859 10.518,99.579 10.518,99.206C10.518,98.819 10.384,98.516 10.118,98.296C9.851,98.076 9.458,97.966 8.938,97.966L8.668,97.966L8.668,97.106L8.968,97.106C9.414,97.106 9.758,97.001 9.998,96.791C10.238,96.581 10.358,96.316 10.358,95.996C10.358,95.676 10.251,95.441 10.038,95.291C9.824,95.141 9.548,95.066 9.208,95.066C8.868,95.066 8.568,95.139 8.308,95.286C8.048,95.433 7.841,95.643 7.688,95.916L6.998,95.166C7.091,95.006 7.218,94.861 7.378,94.731C7.538,94.601 7.719,94.488 7.923,94.391C8.126,94.294 8.346,94.221 8.583,94.171C8.819,94.121 9.064,94.096 9.318,94.096C9.644,94.096 9.943,94.139 10.213,94.226C10.483,94.313 10.716,94.433 10.913,94.586C11.109,94.739 11.261,94.926 11.368,95.146C11.474,95.366 11.528,95.609 11.528,95.876C11.528,96.076 11.498,96.266 11.438,96.446C11.378,96.626 11.293,96.789 11.183,96.936C11.073,97.083 10.941,97.204 10.788,97.301C10.634,97.398 10.461,97.463 10.268,97.496Z" style="fill-rule:nonzero;"/>
        </g>
        <g transform="matrix(1,0,0,1,-9,847.52)">
            <path d="M9.868,101.126L9.868,99.536L6.798,99.536L6.798,98.556L10.218,94.146L10.968,94.146L10.968,98.536L11.848,98.536L11.848,99.536L10.968,99.536L10.968,101.126L9.868,101.126ZM7.918,98.536L9.988,98.536L9.988,95.826L7.918,98.536Z" style="fill-rule:nonzero;"/>
        </g>
        <g transform="matrix(1,0,0,1,-9,883.52)">
            <path d="M9.428,96.686C9.761,96.686 10.069,96.743 10.353,96.856C10.636,96.969 10.883,97.126 11.093,97.326C11.303,97.526 11.466,97.766 11.583,98.046C11.699,98.326 11.758,98.633 11.758,98.966C11.758,99.319 11.693,99.643 11.563,99.936C11.433,100.229 11.253,100.481 11.023,100.691C10.793,100.901 10.521,101.063 10.208,101.176C9.894,101.289 9.558,101.346 9.198,101.346C8.684,101.346 8.224,101.231 7.818,101.001C7.411,100.771 7.101,100.459 6.888,100.066L7.548,99.436C7.734,99.716 7.974,99.943 8.268,100.116C8.561,100.289 8.874,100.376 9.208,100.376C9.621,100.376 9.961,100.249 10.228,99.996C10.494,99.743 10.628,99.406 10.628,98.986C10.628,98.786 10.593,98.604 10.523,98.441C10.453,98.278 10.358,98.138 10.238,98.021C10.118,97.904 9.976,97.813 9.813,97.746C9.649,97.679 9.471,97.646 9.278,97.646C9.024,97.646 8.788,97.701 8.568,97.811C8.348,97.921 8.168,98.083 8.028,98.296L7.058,98.296C7.064,98.269 7.079,98.189 7.103,98.056C7.126,97.923 7.158,97.756 7.198,97.556C7.238,97.356 7.281,97.133 7.328,96.886C7.374,96.639 7.424,96.389 7.478,96.136C7.598,95.543 7.728,94.879 7.868,94.146L11.338,94.146L11.338,95.156L8.668,95.156L8.308,97.096C8.421,96.969 8.573,96.869 8.763,96.796C8.953,96.723 9.174,96.686 9.428,96.686Z" style="fill-rule:nonzero;"/>
        </g>
        <g transform="matrix(1,0,0,1,-10,921.52)">
            <path d="M12.218,97.496C12.218,97.836 12.153,98.156 12.023,98.456C11.893,98.756 11.713,99.018 11.483,99.241C11.253,99.464 10.981,99.639 10.668,99.766C10.354,99.893 10.018,99.956 9.658,99.956C9.264,99.956 8.908,99.884 8.588,99.741C8.268,99.598 7.994,99.391 7.768,99.121C7.541,98.851 7.366,98.521 7.243,98.131C7.119,97.741 7.058,97.299 7.058,96.806C7.058,96.126 7.123,95.531 7.253,95.021C7.383,94.511 7.564,94.084 7.798,93.741C8.031,93.398 8.314,93.139 8.648,92.966C8.981,92.793 9.354,92.706 9.768,92.706C10.221,92.706 10.636,92.809 11.013,93.016C11.389,93.223 11.694,93.516 11.928,93.896L11.278,94.576C11.124,94.296 10.913,94.074 10.643,93.911C10.373,93.748 10.074,93.666 9.748,93.666C9.248,93.666 8.849,93.878 8.553,94.301C8.256,94.724 8.101,95.319 8.088,96.086C8.234,95.786 8.454,95.549 8.748,95.376C9.041,95.203 9.378,95.116 9.758,95.116C10.104,95.116 10.428,95.178 10.728,95.301C11.028,95.424 11.288,95.593 11.508,95.806C11.728,96.019 11.901,96.271 12.028,96.561C12.154,96.851 12.218,97.163 12.218,97.496ZM9.658,99.016C9.864,99.016 10.059,98.976 10.243,98.896C10.426,98.816 10.586,98.706 10.723,98.566C10.859,98.426 10.968,98.264 11.048,98.081C11.128,97.898 11.168,97.703 11.168,97.496C11.168,97.289 11.128,97.096 11.048,96.916C10.968,96.736 10.859,96.578 10.723,96.441C10.586,96.304 10.426,96.196 10.243,96.116C10.059,96.036 9.864,95.996 9.658,95.996C9.451,95.996 9.256,96.036 9.073,96.116C8.889,96.196 8.729,96.304 8.593,96.441C8.456,96.578 8.348,96.736 8.268,96.916C8.188,97.096 8.148,97.289 8.148,97.496C8.148,97.703 8.188,97.898 8.268,98.081C8.348,98.264 8.456,98.426 8.593,98.566C8.729,98.706 8.889,98.816 9.073,98.896C9.256,98.976 9.451,99.016 9.658,99.016Z" style="fill-rule:nonzero;"/>
        </g>
        <g transform="matrix(1,0,0,1,-9,957.52)">
            <path d="M10.298,95.036L6.858,95.036L6.858,94.026L12.038,94.026L8.488,101.126L7.238,101.126L10.298,95.036Z" style="fill-rule:nonzero;"/>
        </g>
        <g transform="matrix(1,0,0,1,-10,993.52)">
            <path d="M12.118,97.806C12.118,98.126 12.049,98.418 11.913,98.681C11.776,98.944 11.591,99.169 11.358,99.356C11.124,99.543 10.854,99.686 10.548,99.786C10.241,99.886 9.914,99.936 9.568,99.936C9.214,99.936 8.883,99.881 8.573,99.771C8.263,99.661 7.994,99.509 7.768,99.316C7.541,99.123 7.363,98.893 7.233,98.626C7.103,98.359 7.038,98.069 7.038,97.756C7.038,97.549 7.074,97.356 7.148,97.176C7.221,96.996 7.316,96.834 7.433,96.691C7.549,96.548 7.681,96.423 7.828,96.316C7.974,96.209 8.121,96.123 8.268,96.056C7.994,95.936 7.761,95.753 7.568,95.506C7.374,95.259 7.278,94.979 7.278,94.666C7.278,94.359 7.348,94.088 7.488,93.851C7.628,93.614 7.808,93.414 8.028,93.251C8.248,93.088 8.494,92.964 8.768,92.881C9.041,92.798 9.311,92.756 9.578,92.756C9.844,92.756 10.116,92.798 10.393,92.881C10.669,92.964 10.919,93.086 11.143,93.246C11.366,93.406 11.548,93.604 11.688,93.841C11.828,94.078 11.898,94.349 11.898,94.656C11.898,94.969 11.799,95.251 11.603,95.501C11.406,95.751 11.168,95.936 10.888,96.056C11.048,96.129 11.203,96.221 11.353,96.331C11.503,96.441 11.634,96.571 11.748,96.721C11.861,96.871 11.951,97.036 12.018,97.216C12.084,97.396 12.118,97.593 12.118,97.806ZM11.008,97.736C11.008,97.543 10.966,97.371 10.883,97.221C10.799,97.071 10.689,96.943 10.553,96.836C10.416,96.729 10.263,96.649 10.093,96.596C9.923,96.543 9.751,96.516 9.578,96.516C9.398,96.516 9.223,96.544 9.053,96.601C8.883,96.658 8.733,96.739 8.603,96.846C8.473,96.953 8.368,97.081 8.288,97.231C8.208,97.381 8.168,97.549 8.168,97.736C8.168,97.923 8.209,98.091 8.293,98.241C8.376,98.391 8.484,98.518 8.618,98.621C8.751,98.724 8.903,98.804 9.073,98.861C9.243,98.918 9.414,98.946 9.588,98.946C9.768,98.946 9.943,98.916 10.113,98.856C10.283,98.796 10.434,98.713 10.568,98.606C10.701,98.499 10.808,98.373 10.888,98.226C10.968,98.079 11.008,97.916 11.008,97.736ZM8.388,94.706C8.388,94.866 8.424,95.006 8.498,95.126C8.571,95.246 8.664,95.346 8.778,95.426C8.891,95.506 9.018,95.568 9.158,95.611C9.298,95.654 9.438,95.676 9.578,95.676C9.718,95.676 9.859,95.654 10.003,95.611C10.146,95.568 10.274,95.504 10.388,95.421C10.501,95.338 10.594,95.234 10.668,95.111C10.741,94.988 10.778,94.846 10.778,94.686C10.778,94.539 10.744,94.408 10.678,94.291C10.611,94.174 10.523,94.074 10.413,93.991C10.303,93.908 10.176,93.844 10.033,93.801C9.889,93.758 9.738,93.736 9.578,93.736C9.418,93.736 9.266,93.759 9.123,93.806C8.979,93.853 8.853,93.918 8.743,94.001C8.633,94.084 8.546,94.186 8.483,94.306C8.419,94.426 8.388,94.559 8.388,94.706Z" style="fill-rule:nonzero;"/>
        </g>
        <g transform="matrix(1,0,0,1,15.218,809.442)">
            <path d="M1.845,0.09C1.617,0.09 1.406,0.053 1.211,-0.023C1.016,-0.098 0.848,-0.201 0.707,-0.333C0.566,-0.465 0.454,-0.621 0.374,-0.801C0.293,-0.981 0.252,-1.176 0.252,-1.386C0.252,-1.608 0.3,-1.809 0.396,-1.989C0.492,-2.169 0.628,-2.325 0.806,-2.457C0.983,-2.589 1.193,-2.691 1.436,-2.763C1.679,-2.835 1.947,-2.871 2.241,-2.871C2.463,-2.871 2.682,-2.852 2.898,-2.813C3.114,-2.774 3.309,-2.721 3.483,-2.655L3.483,-2.979C3.483,-3.327 3.384,-3.599 3.186,-3.794C2.988,-3.988 2.703,-4.086 2.331,-4.086C2.079,-4.086 1.832,-4.04 1.588,-3.947C1.346,-3.854 1.095,-3.72 0.837,-3.546L0.531,-4.176C1.137,-4.584 1.767,-4.788 2.421,-4.788C3.069,-4.788 3.573,-4.623 3.933,-4.293C4.293,-3.963 4.473,-3.489 4.473,-2.871L4.473,-1.17C4.473,-0.96 4.56,-0.852 4.734,-0.846L4.734,0C4.638,0.018 4.556,0.03 4.487,0.036C4.417,0.042 4.35,0.045 4.284,0.045C4.092,0.045 3.943,-0.003 3.838,-0.099C3.733,-0.195 3.669,-0.318 3.645,-0.468L3.618,-0.765C3.408,-0.489 3.149,-0.278 2.84,-0.131C2.531,0.017 2.199,0.09 1.845,0.09ZM2.115,-0.639C2.355,-0.639 2.582,-0.683 2.795,-0.77C3.008,-0.857 3.174,-0.978 3.294,-1.134C3.42,-1.242 3.483,-1.356 3.483,-1.476L3.483,-2.097C3.315,-2.163 3.137,-2.214 2.948,-2.25C2.758,-2.286 2.574,-2.304 2.394,-2.304C2.04,-2.304 1.751,-2.228 1.526,-2.075C1.301,-1.922 1.188,-1.719 1.188,-1.467C1.188,-1.233 1.275,-1.037 1.449,-0.878C1.623,-0.719 1.845,-0.639 2.115,-0.639Z" style="fill-rule:nonzero;"/>
            <path d="M8.253,-0.243C8.127,-0.183 7.953,-0.116 7.731,-0.041C7.509,0.034 7.272,0.072 7.02,0.072C6.864,0.072 6.717,0.051 6.579,0.009C6.441,-0.033 6.319,-0.096 6.215,-0.18C6.11,-0.264 6.027,-0.374 5.967,-0.509C5.907,-0.644 5.877,-0.807 5.877,-0.999L5.877,-3.942L5.256,-3.942L5.256,-4.707L5.877,-4.707L5.877,-6.255L6.867,-6.255L6.867,-4.707L7.893,-4.707L7.893,-3.942L6.867,-3.942L6.867,-1.314C6.879,-1.146 6.932,-1.025 7.025,-0.95C7.118,-0.874 7.233,-0.837 7.371,-0.837C7.509,-0.837 7.641,-0.861 7.767,-0.909C7.893,-0.957 7.986,-0.996 8.046,-1.026L8.253,-0.243Z" style="fill-rule:nonzero;"/>
            <path d="M11.556,-0.243C11.43,-0.183 11.256,-0.116 11.034,-0.041C10.812,0.034 10.575,0.072 10.323,0.072C10.167,0.072 10.02,0.051 9.882,0.009C9.744,-0.033 9.623,-0.096 9.518,-0.18C9.413,-0.264 9.33,-0.374 9.27,-0.509C9.21,-0.644 9.18,-0.807 9.18,-0.999L9.18,-3.942L8.559,-3.942L8.559,-4.707L9.18,-4.707L9.18,-6.255L10.17,-6.255L10.17,-4.707L11.196,-4.707L11.196,-3.942L10.17,-3.942L10.17,-1.314C10.182,-1.146 10.235,-1.025 10.328,-0.95C10.421,-0.874 10.536,-0.837 10.674,-0.837C10.812,-0.837 10.944,-0.861 11.07,-0.909C11.196,-0.957 11.289,-0.996 11.349,-1.026L11.556,-0.243Z" style="fill-rule:nonzero;"/>
        </g>
        <g transform="matrix(1,0,0,1,-14,723.336)">
            <path d="M9.292,85.834C9.064,85.834 8.852,85.797 8.657,85.722C8.462,85.647 8.294,85.543 8.153,85.411C8.012,85.279 7.901,85.123 7.82,84.943C7.739,84.763 7.699,84.568 7.699,84.358C7.699,84.136 7.747,83.935 7.843,83.755C7.939,83.575 8.075,83.419 8.252,83.287C8.429,83.155 8.639,83.053 8.882,82.981C9.125,82.909 9.394,82.873 9.688,82.873C9.91,82.873 10.129,82.893 10.345,82.932C10.561,82.971 10.756,83.023 10.93,83.089L10.93,82.765C10.93,82.417 10.831,82.146 10.633,81.951C10.435,81.756 10.15,81.658 9.778,81.658C9.526,81.658 9.278,81.705 9.035,81.798C8.792,81.891 8.542,82.024 8.284,82.198L7.978,81.568C8.584,81.16 9.214,80.956 9.868,80.956C10.516,80.956 11.02,81.121 11.38,81.451C11.74,81.781 11.92,82.255 11.92,82.873L11.92,84.574C11.92,84.784 12.007,84.892 12.181,84.898L12.181,85.744C12.085,85.762 12.002,85.774 11.933,85.78C11.864,85.786 11.797,85.789 11.731,85.789C11.539,85.789 11.39,85.741 11.285,85.645C11.18,85.549 11.116,85.426 11.092,85.276L11.065,84.979C10.855,85.255 10.595,85.467 10.286,85.614C9.977,85.761 9.646,85.834 9.292,85.834ZM9.562,85.105C9.802,85.105 10.028,85.062 10.241,84.975C10.454,84.888 10.621,84.766 10.741,84.61C10.867,84.502 10.93,84.388 10.93,84.268L10.93,83.647C10.762,83.581 10.583,83.53 10.394,83.494C10.205,83.458 10.021,83.44 9.841,83.44C9.487,83.44 9.197,83.517 8.972,83.67C8.747,83.823 8.635,84.025 8.635,84.277C8.635,84.511 8.722,84.708 8.896,84.867C9.07,85.026 9.292,85.105 9.562,85.105Z" style="fill-rule:nonzero;"/>
            <path d="M12.811,83.386C12.811,83.056 12.868,82.744 12.982,82.45C13.096,82.156 13.259,81.898 13.472,81.676C13.685,81.454 13.942,81.279 14.242,81.15C14.542,81.021 14.878,80.956 15.25,80.956C15.736,80.956 16.154,81.063 16.505,81.276C16.856,81.489 17.119,81.772 17.293,82.126L16.33,82.432C16.216,82.234 16.063,82.08 15.871,81.969C15.679,81.858 15.466,81.802 15.232,81.802C15.034,81.802 14.849,81.841 14.678,81.919C14.507,81.997 14.359,82.107 14.233,82.248C14.107,82.389 14.008,82.555 13.936,82.747C13.864,82.939 13.828,83.152 13.828,83.386C13.828,83.614 13.865,83.826 13.94,84.021C14.015,84.216 14.117,84.385 14.246,84.529C14.375,84.673 14.525,84.786 14.696,84.867C14.867,84.948 15.049,84.988 15.241,84.988C15.361,84.988 15.481,84.972 15.601,84.939C15.721,84.906 15.83,84.859 15.929,84.799C16.028,84.739 16.115,84.67 16.19,84.592C16.265,84.514 16.321,84.43 16.357,84.34L17.329,84.628C17.173,84.982 16.912,85.272 16.546,85.497C16.18,85.722 15.748,85.834 15.25,85.834C14.884,85.834 14.551,85.768 14.251,85.636C13.951,85.504 13.694,85.326 13.481,85.101C13.268,84.876 13.103,84.616 12.986,84.322C12.869,84.028 12.811,83.716 12.811,83.386Z" style="fill-rule:nonzero;"/>
            <path d="M20.767,85.501C20.641,85.561 20.467,85.629 20.245,85.704C20.023,85.779 19.786,85.816 19.534,85.816C19.378,85.816 19.231,85.795 19.093,85.753C18.955,85.711 18.833,85.648 18.728,85.564C18.623,85.48 18.541,85.371 18.481,85.236C18.421,85.101 18.391,84.937 18.391,84.745L18.391,81.802L17.77,81.802L17.77,81.037L18.391,81.037L18.391,79.489L19.381,79.489L19.381,81.037L20.407,81.037L20.407,81.802L19.381,81.802L19.381,84.43C19.393,84.598 19.445,84.72 19.538,84.795C19.631,84.87 19.747,84.907 19.885,84.907C20.023,84.907 20.155,84.883 20.281,84.835C20.407,84.787 20.5,84.748 20.56,84.718L20.767,85.501Z" style="fill-rule:nonzero;"/>
            <rect x="21.406" y="84.592" width="0.819" height="1.152"/>
        </g>
        <g transform="matrix(1,0,0,1,-38,727.412)">
            <path d="M83.799,75.458L84.789,75.458L84.789,80.669C84.789,80.843 84.834,80.979 84.924,81.078C85.014,81.177 85.14,81.227 85.302,81.227C85.368,81.227 85.444,81.215 85.531,81.191C85.618,81.167 85.701,81.14 85.779,81.11L85.923,81.884C85.779,81.95 85.608,82.002 85.41,82.041C85.212,82.08 85.035,82.1 84.879,82.1C84.537,82.1 84.271,82.007 84.082,81.821C83.893,81.635 83.799,81.371 83.799,81.029L83.799,75.458Z" style="fill-rule:nonzero;"/>
            <path d="M89.172,82.118C88.794,82.118 88.461,82.028 88.173,81.848C87.885,81.668 87.657,81.434 87.489,81.146L87.489,83.945L86.499,83.945L86.499,77.321L87.372,77.321L87.372,78.167C87.552,77.885 87.784,77.66 88.069,77.492C88.354,77.324 88.677,77.24 89.037,77.24C89.361,77.24 89.658,77.306 89.928,77.438C90.198,77.57 90.432,77.747 90.63,77.969C90.828,78.191 90.982,78.449 91.093,78.743C91.204,79.037 91.26,79.346 91.26,79.67C91.26,80.012 91.209,80.331 91.107,80.628C91.005,80.925 90.861,81.183 90.675,81.402C90.489,81.621 90.268,81.795 90.013,81.924C89.758,82.053 89.478,82.118 89.172,82.118ZM88.848,81.272C89.058,81.272 89.248,81.227 89.419,81.137C89.59,81.047 89.737,80.927 89.86,80.777C89.983,80.627 90.078,80.456 90.144,80.264C90.21,80.072 90.243,79.874 90.243,79.67C90.243,79.454 90.205,79.25 90.13,79.058C90.055,78.866 89.953,78.698 89.824,78.554C89.695,78.41 89.541,78.296 89.361,78.212C89.181,78.128 88.986,78.086 88.776,78.086C88.65,78.086 88.518,78.11 88.38,78.158C88.242,78.206 88.113,78.272 87.993,78.356C87.873,78.44 87.768,78.537 87.678,78.648C87.588,78.759 87.525,78.881 87.489,79.013L87.489,80.246C87.549,80.39 87.627,80.525 87.723,80.651C87.819,80.777 87.925,80.885 88.042,80.975C88.159,81.065 88.287,81.137 88.425,81.191C88.563,81.245 88.704,81.272 88.848,81.272Z" style="fill-rule:nonzero;"/>
            <path d="M92.349,82.028L92.349,78.203L91.719,78.203L91.719,77.438L92.349,77.438L92.349,77.249C92.349,76.667 92.484,76.208 92.754,75.872C93.024,75.536 93.39,75.368 93.852,75.368C94.044,75.368 94.233,75.393 94.419,75.444C94.605,75.495 94.782,75.566 94.95,75.656L94.734,76.394C94.644,76.34 94.537,76.295 94.414,76.259C94.291,76.223 94.173,76.205 94.059,76.205C93.825,76.205 93.646,76.292 93.523,76.466C93.4,76.64 93.339,76.892 93.339,77.222L93.339,77.438L94.545,77.438L94.545,78.203L93.339,78.203L93.339,82.028L92.349,82.028Z" style="fill-rule:nonzero;"/>
        </g>
        <g transform="matrix(1,0,0,1,-8.21412,727.052)">
            <path d="M85.905,82.118C85.533,82.118 85.198,82.052 84.901,81.92C84.604,81.788 84.351,81.611 84.141,81.389C83.931,81.167 83.769,80.907 83.655,80.61C83.541,80.313 83.484,80.003 83.484,79.679C83.484,79.355 83.541,79.044 83.655,78.747C83.769,78.45 83.932,78.191 84.145,77.969C84.358,77.747 84.613,77.57 84.91,77.438C85.207,77.306 85.539,77.24 85.905,77.24C86.271,77.24 86.602,77.306 86.899,77.438C87.196,77.57 87.451,77.747 87.664,77.969C87.877,78.191 88.041,78.45 88.155,78.747C88.269,79.044 88.326,79.355 88.326,79.679C88.326,80.003 88.269,80.313 88.155,80.61C88.041,80.907 87.877,81.167 87.664,81.389C87.451,81.611 87.196,81.788 86.899,81.92C86.602,82.052 86.271,82.118 85.905,82.118ZM84.501,79.688C84.501,79.916 84.537,80.126 84.609,80.318C84.681,80.51 84.78,80.676 84.906,80.817C85.032,80.958 85.18,81.069 85.351,81.15C85.522,81.231 85.707,81.272 85.905,81.272C86.103,81.272 86.287,81.231 86.458,81.15C86.629,81.069 86.778,80.957 86.904,80.813C87.03,80.669 87.129,80.501 87.201,80.309C87.273,80.117 87.309,79.907 87.309,79.679C87.309,79.457 87.273,79.248 87.201,79.053C87.129,78.858 87.03,78.689 86.904,78.545C86.778,78.401 86.629,78.288 86.458,78.207C86.287,78.126 86.103,78.086 85.905,78.086C85.713,78.086 85.531,78.128 85.36,78.212C85.189,78.296 85.041,78.41 84.915,78.554C84.789,78.698 84.688,78.867 84.613,79.062C84.538,79.257 84.501,79.466 84.501,79.688Z" style="fill-rule:nonzero;"/>
            <path d="M90.657,82.118C90.165,82.118 89.793,81.957 89.541,81.636C89.289,81.315 89.163,80.837 89.163,80.201L89.163,77.321L90.153,77.321L90.153,80.003C90.153,80.849 90.453,81.272 91.053,81.272C91.335,81.272 91.602,81.185 91.854,81.011C92.106,80.837 92.301,80.585 92.439,80.255L92.439,77.321L93.429,77.321L93.429,80.858C93.429,80.972 93.448,81.053 93.487,81.101C93.526,81.149 93.597,81.176 93.699,81.182L93.699,82.028C93.597,82.046 93.513,82.058 93.447,82.064C93.381,82.07 93.318,82.073 93.258,82.073C93.078,82.073 92.925,82.023 92.799,81.924C92.673,81.825 92.607,81.698 92.601,81.542L92.583,81.074C92.373,81.416 92.1,81.675 91.764,81.852C91.428,82.029 91.059,82.118 90.657,82.118Z" style="fill-rule:nonzero;"/>
            <path d="M97.308,81.785C97.182,81.845 97.008,81.912 96.786,81.987C96.564,82.062 96.327,82.1 96.075,82.1C95.919,82.1 95.772,82.079 95.634,82.037C95.496,81.995 95.374,81.932 95.269,81.848C95.164,81.764 95.082,81.654 95.022,81.519C94.962,81.384 94.932,81.221 94.932,81.029L94.932,78.086L94.311,78.086L94.311,77.321L94.932,77.321L94.932,75.773L95.922,75.773L95.922,77.321L96.948,77.321L96.948,78.086L95.922,78.086L95.922,80.714C95.934,80.882 95.986,81.003 96.079,81.078C96.172,81.153 96.288,81.191 96.426,81.191C96.564,81.191 96.696,81.167 96.822,81.119C96.948,81.071 97.041,81.032 97.101,81.002L97.308,81.785Z" style="fill-rule:nonzero;"/>
        </g>
        <g transform="matrix(1,0,0,1,-39.17,756.43)">
            <path d="M31.089,348.278C30.717,348.278 30.382,348.212 30.085,348.08C29.788,347.948 29.535,347.771 29.325,347.549C29.115,347.327 28.953,347.068 28.839,346.771C28.725,346.474 28.668,346.163 28.668,345.839C28.668,345.515 28.725,345.205 28.839,344.908C28.953,344.611 29.116,344.351 29.329,344.129C29.542,343.907 29.797,343.73 30.094,343.598C30.391,343.466 30.723,343.4 31.089,343.4C31.455,343.4 31.786,343.466 32.083,343.598C32.38,343.73 32.635,343.907 32.848,344.129C33.061,344.351 33.225,344.611 33.339,344.908C33.453,345.205 33.51,345.515 33.51,345.839C33.51,346.163 33.453,346.474 33.339,346.771C33.225,347.068 33.061,347.327 32.848,347.549C32.635,347.771 32.38,347.948 32.083,348.08C31.786,348.212 31.455,348.278 31.089,348.278ZM29.685,345.848C29.685,346.076 29.721,346.286 29.793,346.478C29.865,346.67 29.964,346.837 30.09,346.978C30.216,347.119 30.364,347.23 30.535,347.311C30.706,347.392 30.891,347.432 31.089,347.432C31.287,347.432 31.471,347.392 31.642,347.311C31.813,347.23 31.962,347.117 32.088,346.973C32.214,346.829 32.313,346.661 32.385,346.469C32.457,346.277 32.493,346.067 32.493,345.839C32.493,345.617 32.457,345.409 32.385,345.214C32.313,345.019 32.214,344.849 32.088,344.705C31.962,344.561 31.813,344.449 31.642,344.368C31.471,344.287 31.287,344.246 31.089,344.246C30.897,344.246 30.715,344.288 30.544,344.372C30.373,344.456 30.225,344.57 30.099,344.714C29.973,344.858 29.872,345.028 29.797,345.223C29.722,345.418 29.685,345.626 29.685,345.848Z" style="fill-rule:nonzero;"/>
            <path d="M36.102,348.278C35.724,348.278 35.347,348.217 34.972,348.094C34.597,347.971 34.275,347.795 34.005,347.567L34.401,346.937C34.683,347.141 34.962,347.296 35.238,347.401C35.514,347.506 35.796,347.558 36.084,347.558C36.378,347.558 36.61,347.501 36.781,347.387C36.952,347.273 37.038,347.111 37.038,346.901C37.038,346.703 36.942,346.559 36.75,346.469C36.558,346.379 36.258,346.28 35.85,346.172C35.556,346.094 35.304,346.019 35.094,345.947C34.884,345.875 34.713,345.791 34.581,345.695C34.449,345.599 34.353,345.488 34.293,345.362C34.233,345.236 34.203,345.083 34.203,344.903C34.203,344.663 34.249,344.45 34.342,344.264C34.435,344.078 34.564,343.921 34.729,343.792C34.894,343.663 35.088,343.565 35.31,343.499C35.532,343.433 35.772,343.4 36.03,343.4C36.384,343.4 36.714,343.454 37.02,343.562C37.326,343.67 37.599,343.826 37.839,344.03L37.416,344.624C36.978,344.276 36.513,344.102 36.021,344.102C35.769,344.102 35.557,344.155 35.386,344.26C35.215,344.365 35.13,344.531 35.13,344.759C35.13,344.855 35.148,344.936 35.184,345.002C35.22,345.068 35.278,345.125 35.359,345.173C35.44,345.221 35.545,345.265 35.674,345.304C35.803,345.343 35.964,345.386 36.156,345.434C36.474,345.512 36.748,345.59 36.979,345.668C37.21,345.746 37.401,345.838 37.551,345.943C37.701,346.048 37.812,346.171 37.884,346.312C37.956,346.453 37.992,346.622 37.992,346.82C37.992,347.27 37.822,347.626 37.483,347.887C37.144,348.148 36.684,348.278 36.102,348.278Z" style="fill-rule:nonzero;"/>
            <path d="M38.55,345.83C38.55,345.5 38.607,345.188 38.721,344.894C38.835,344.6 38.998,344.342 39.211,344.12C39.424,343.898 39.681,343.723 39.981,343.594C40.281,343.465 40.617,343.4 40.989,343.4C41.475,343.4 41.893,343.507 42.244,343.72C42.595,343.933 42.858,344.216 43.032,344.57L42.069,344.876C41.955,344.678 41.802,344.524 41.61,344.413C41.418,344.302 41.205,344.246 40.971,344.246C40.773,344.246 40.588,344.285 40.417,344.363C40.246,344.441 40.098,344.551 39.972,344.692C39.846,344.833 39.747,344.999 39.675,345.191C39.603,345.383 39.567,345.596 39.567,345.83C39.567,346.058 39.604,346.27 39.679,346.465C39.754,346.66 39.856,346.829 39.985,346.973C40.114,347.117 40.264,347.23 40.435,347.311C40.606,347.392 40.788,347.432 40.98,347.432C41.1,347.432 41.22,347.416 41.34,347.383C41.46,347.35 41.569,347.303 41.668,347.243C41.767,347.183 41.854,347.114 41.929,347.036C42.004,346.958 42.06,346.874 42.096,346.784L43.068,347.072C42.912,347.426 42.651,347.716 42.285,347.941C41.919,348.166 41.487,348.278 40.989,348.278C40.623,348.278 40.29,348.212 39.99,348.08C39.69,347.948 39.433,347.77 39.22,347.545C39.007,347.32 38.842,347.06 38.725,346.766C38.608,346.472 38.55,346.16 38.55,345.83Z" style="fill-rule:nonzero;"/>
            <path d="M46.11,348.188L46.11,343.481L47.1,343.481L47.1,348.188L46.11,348.188ZM46.11,342.707L46.11,341.618L47.1,341.618L47.1,342.707L46.11,342.707Z" style="fill-rule:nonzero;"/>
            <path d="M52.509,348.188L51.519,348.188L51.519,345.551C51.519,345.107 51.448,344.785 51.307,344.584C51.166,344.383 50.958,344.282 50.682,344.282C50.538,344.282 50.394,344.309 50.25,344.363C50.106,344.417 49.971,344.494 49.845,344.593C49.719,344.692 49.606,344.809 49.507,344.944C49.408,345.079 49.332,345.227 49.278,345.389L49.278,348.188L48.288,348.188L48.288,343.481L49.188,343.481L49.188,344.426C49.368,344.108 49.629,343.858 49.971,343.675C50.313,343.492 50.691,343.4 51.105,343.4C51.387,343.4 51.618,343.451 51.798,343.553C51.978,343.655 52.12,343.795 52.225,343.972C52.33,344.149 52.404,344.353 52.446,344.584C52.488,344.815 52.509,345.059 52.509,345.317L52.509,348.188Z" style="fill-rule:nonzero;"/>
            <path d="M56.334,348.278C55.956,348.278 55.623,348.188 55.335,348.008C55.047,347.828 54.819,347.594 54.651,347.306L54.651,350.105L53.661,350.105L53.661,343.481L54.534,343.481L54.534,344.327C54.714,344.045 54.946,343.82 55.231,343.652C55.516,343.484 55.839,343.4 56.199,343.4C56.523,343.4 56.82,343.466 57.09,343.598C57.36,343.73 57.594,343.907 57.792,344.129C57.99,344.351 58.144,344.609 58.255,344.903C58.366,345.197 58.422,345.506 58.422,345.83C58.422,346.172 58.371,346.492 58.269,346.789C58.167,347.086 58.023,347.344 57.837,347.563C57.651,347.782 57.43,347.956 57.175,348.085C56.92,348.214 56.64,348.278 56.334,348.278ZM56.01,347.432C56.22,347.432 56.41,347.387 56.581,347.297C56.752,347.207 56.899,347.087 57.022,346.937C57.145,346.787 57.24,346.616 57.306,346.424C57.372,346.232 57.405,346.034 57.405,345.83C57.405,345.614 57.367,345.41 57.292,345.218C57.217,345.026 57.115,344.858 56.986,344.714C56.857,344.57 56.703,344.456 56.523,344.372C56.343,344.288 56.148,344.246 55.938,344.246C55.812,344.246 55.68,344.27 55.542,344.318C55.404,344.366 55.275,344.432 55.155,344.516C55.035,344.6 54.93,344.698 54.84,344.809C54.75,344.92 54.687,345.041 54.651,345.173L54.651,346.406C54.711,346.55 54.789,346.685 54.885,346.811C54.981,346.937 55.087,347.045 55.204,347.135C55.321,347.225 55.449,347.297 55.587,347.351C55.725,347.405 55.866,347.432 56.01,347.432Z" style="fill-rule:nonzero;"/>
            <path d="M60.762,348.278C60.27,348.278 59.898,348.118 59.646,347.797C59.394,347.476 59.268,346.997 59.268,346.361L59.268,343.481L60.258,343.481L60.258,346.163C60.258,347.009 60.558,347.432 61.158,347.432C61.44,347.432 61.707,347.345 61.959,347.171C62.211,346.997 62.406,346.745 62.544,346.415L62.544,343.481L63.534,343.481L63.534,347.018C63.534,347.132 63.553,347.213 63.592,347.261C63.631,347.309 63.702,347.336 63.804,347.342L63.804,348.188C63.702,348.206 63.618,348.218 63.552,348.224C63.486,348.23 63.423,348.233 63.363,348.233C63.183,348.233 63.03,348.184 62.904,348.085C62.778,347.986 62.712,347.858 62.706,347.702L62.688,347.234C62.478,347.576 62.205,347.836 61.869,348.013C61.533,348.19 61.164,348.278 60.762,348.278Z" style="fill-rule:nonzero;"/>
            <path d="M67.413,347.945C67.287,348.005 67.113,348.073 66.891,348.148C66.669,348.223 66.432,348.26 66.18,348.26C66.024,348.26 65.877,348.239 65.739,348.197C65.601,348.155 65.479,348.092 65.374,348.008C65.269,347.924 65.187,347.815 65.127,347.68C65.067,347.545 65.037,347.381 65.037,347.189L65.037,344.246L64.416,344.246L64.416,343.481L65.037,343.481L65.037,341.933L66.027,341.933L66.027,343.481L67.053,343.481L67.053,344.246L66.027,344.246L66.027,346.874C66.039,347.042 66.091,347.164 66.184,347.239C66.277,347.314 66.393,347.351 66.531,347.351C66.669,347.351 66.801,347.327 66.927,347.279C67.053,347.231 67.146,347.192 67.206,347.162L67.413,347.945Z" style="fill-rule:nonzero;"/>
        </g>
        <g transform="matrix(1,0,0,1,18.8863,755.454)">
            <rect x="28.929" y="345.281" width="2.691" height="0.891"/>
            <path d="M36.003,347.297L36.003,348.188L32.565,348.188L32.565,347.297L33.843,347.297L33.843,344.156C33.789,344.228 33.705,344.303 33.591,344.381C33.477,344.459 33.351,344.531 33.213,344.597C33.075,344.663 32.931,344.719 32.781,344.764C32.631,344.809 32.499,344.831 32.385,344.831L32.385,343.904C32.505,343.904 32.644,343.868 32.803,343.796C32.962,343.724 33.115,343.64 33.262,343.544C33.409,343.448 33.538,343.352 33.649,343.256C33.76,343.16 33.825,343.091 33.843,343.049L34.86,343.049L34.86,347.297L36.003,347.297Z" style="fill-rule:nonzero;"/>
            <path d="M36.876,349.061L37.092,348.134L36.768,348.134L36.768,347.036L37.659,347.036L37.659,348.134L37.344,349.061L36.876,349.061Z" style="fill-rule:nonzero;"/>
            <path d="M44.454,347.297L44.454,348.188L41.016,348.188L41.016,347.297L42.294,347.297L42.294,344.156C42.24,344.228 42.156,344.303 42.042,344.381C41.928,344.459 41.802,344.531 41.664,344.597C41.526,344.663 41.382,344.719 41.232,344.764C41.082,344.809 40.95,344.831 40.836,344.831L40.836,343.904C40.956,343.904 41.095,343.868 41.254,343.796C41.413,343.724 41.566,343.64 41.713,343.544C41.86,343.448 41.989,343.352 42.1,343.256C42.211,343.16 42.276,343.091 42.294,343.049L43.311,343.049L43.311,347.297L44.454,347.297Z" style="fill-rule:nonzero;"/>
        </g>
        <g transform="matrix(1,0,0,1,18.4867,767.679)">
            <rect x="28.929" y="345.281" width="2.691" height="0.891"/>
            <path d="M36.003,347.297L36.003,348.188L32.565,348.188L32.565,347.297L33.843,347.297L33.843,344.156C33.789,344.228 33.705,344.303 33.591,344.381C33.477,344.459 33.351,344.531 33.213,344.597C33.075,344.663 32.931,344.719 32.781,344.764C32.631,344.809 32.499,344.831 32.385,344.831L32.385,343.904C32.505,343.904 32.644,343.868 32.803,343.796C32.962,343.724 33.115,343.64 33.262,343.544C33.409,343.448 33.538,343.352 33.649,343.256C33.76,343.16 33.825,343.091 33.843,343.049L34.86,343.049L34.86,347.297L36.003,347.297Z" style="fill-rule:nonzero;"/>
            <path d="M41.286,345.551C41.286,345.947 41.227,346.312 41.11,346.645C40.993,346.978 40.831,347.266 40.624,347.509C40.417,347.752 40.174,347.941 39.895,348.076C39.616,348.211 39.312,348.278 38.982,348.278C38.652,348.278 38.346,348.211 38.064,348.076C37.782,347.941 37.539,347.752 37.335,347.509C37.131,347.266 36.97,346.978 36.853,346.645C36.736,346.312 36.678,345.947 36.678,345.551C36.678,345.155 36.736,344.791 36.853,344.458C36.97,344.125 37.131,343.837 37.335,343.594C37.539,343.351 37.782,343.16 38.064,343.022C38.346,342.884 38.652,342.815 38.982,342.815C39.312,342.815 39.616,342.884 39.895,343.022C40.174,343.16 40.417,343.351 40.624,343.594C40.831,343.837 40.993,344.125 41.11,344.458C41.227,344.791 41.286,345.155 41.286,345.551ZM40.278,345.551C40.278,345.281 40.246,345.035 40.183,344.813C40.12,344.591 40.03,344.399 39.913,344.237C39.796,344.075 39.658,343.951 39.499,343.864C39.34,343.777 39.168,343.733 38.982,343.733C38.784,343.733 38.605,343.777 38.446,343.864C38.287,343.951 38.149,344.075 38.032,344.237C37.915,344.399 37.825,344.591 37.762,344.813C37.699,345.035 37.668,345.281 37.668,345.551C37.668,345.821 37.699,346.067 37.762,346.289C37.825,346.511 37.915,346.702 38.032,346.861C38.149,347.02 38.287,347.143 38.446,347.23C38.605,347.317 38.784,347.36 38.982,347.36C39.168,347.36 39.34,347.317 39.499,347.23C39.658,347.143 39.796,347.02 39.913,346.861C40.03,346.702 40.12,346.511 40.183,346.289C40.246,346.067 40.278,345.821 40.278,345.551Z" style="fill-rule:nonzero;"/>
            <path d="M42.402,349.061L42.618,348.134L42.294,348.134L42.294,347.036L43.185,347.036L43.185,348.134L42.87,349.061L42.402,349.061Z" style="fill-rule:nonzero;"/>
            <path d="M49.98,347.297L49.98,348.188L46.542,348.188L46.542,347.297L47.82,347.297L47.82,344.156C47.766,344.228 47.682,344.303 47.568,344.381C47.454,344.459 47.328,344.531 47.19,344.597C47.052,344.663 46.908,344.719 46.758,344.764C46.608,344.809 46.476,344.831 46.362,344.831L46.362,343.904C46.482,343.904 46.621,343.868 46.78,343.796C46.939,343.724 47.092,343.64 47.239,343.544C47.386,343.448 47.515,343.352 47.626,343.256C47.737,343.16 47.802,343.091 47.82,343.049L48.837,343.049L48.837,347.297L49.98,347.297Z" style="fill-rule:nonzero;"/>
            <path d="M55.263,345.551C55.263,345.947 55.204,346.312 55.087,346.645C54.97,346.978 54.808,347.266 54.601,347.509C54.394,347.752 54.151,347.941 53.872,348.076C53.593,348.211 53.289,348.278 52.959,348.278C52.629,348.278 52.323,348.211 52.041,348.076C51.759,347.941 51.516,347.752 51.312,347.509C51.108,347.266 50.947,346.978 50.83,346.645C50.713,346.312 50.655,345.947 50.655,345.551C50.655,345.155 50.713,344.791 50.83,344.458C50.947,344.125 51.108,343.837 51.312,343.594C51.516,343.351 51.759,343.16 52.041,343.022C52.323,342.884 52.629,342.815 52.959,342.815C53.289,342.815 53.593,342.884 53.872,343.022C54.151,343.16 54.394,343.351 54.601,343.594C54.808,343.837 54.97,344.125 55.087,344.458C55.204,344.791 55.263,345.155 55.263,345.551ZM54.255,345.551C54.255,345.281 54.223,345.035 54.16,344.813C54.097,344.591 54.007,344.399 53.89,344.237C53.773,344.075 53.635,343.951 53.476,343.864C53.317,343.777 53.145,343.733 52.959,343.733C52.761,343.733 52.582,343.777 52.423,343.864C52.264,343.951 52.126,344.075 52.009,344.237C51.892,344.399 51.802,344.591 51.739,344.813C51.676,345.035 51.645,345.281 51.645,345.551C51.645,345.821 51.676,346.067 51.739,346.289C51.802,346.511 51.892,346.702 52.009,346.861C52.126,347.02 52.264,347.143 52.423,347.23C52.582,347.317 52.761,347.36 52.959,347.36C53.145,347.36 53.317,347.317 53.476,347.23C53.635,347.143 53.773,347.02 53.89,346.861C54.007,346.702 54.097,346.511 54.16,346.289C54.223,346.067 54.255,345.821 54.255,345.551Z" style="fill-rule:nonzero;"/>
        </g>
        <g transform="matrix(1,0,0,1,8,741.52)">
            <path d="M14.189,20.32L14.189,28.84L12.545,28.84L12.545,25.204L8.681,25.204L8.681,28.84L7.025,28.84L7.025,20.32L8.681,20.32L8.681,23.764L12.545,23.764L12.545,20.32L14.189,20.32Z" style="fill-rule:nonzero;"/>
            <path d="M18.629,28.96C18.117,28.96 17.657,28.872 17.249,28.696C16.841,28.52 16.495,28.282 16.211,27.982C15.927,27.682 15.709,27.336 15.557,26.944C15.405,26.552 15.329,26.14 15.329,25.708C15.329,25.268 15.405,24.852 15.557,24.46C15.709,24.068 15.927,23.722 16.211,23.422C16.495,23.122 16.841,22.884 17.249,22.708C17.657,22.532 18.117,22.444 18.629,22.444C19.141,22.444 19.599,22.532 20.003,22.708C20.407,22.884 20.751,23.122 21.035,23.422C21.319,23.722 21.537,24.068 21.689,24.46C21.841,24.852 21.917,25.268 21.917,25.708C21.917,26.14 21.841,26.552 21.689,26.944C21.537,27.336 21.321,27.682 21.041,27.982C20.761,28.282 20.417,28.52 20.009,28.696C19.601,28.872 19.141,28.96 18.629,28.96ZM16.985,25.708C16.985,25.988 17.027,26.242 17.111,26.47C17.195,26.698 17.311,26.896 17.459,27.064C17.607,27.232 17.781,27.362 17.981,27.454C18.181,27.546 18.397,27.592 18.629,27.592C18.861,27.592 19.077,27.546 19.277,27.454C19.477,27.362 19.651,27.232 19.799,27.064C19.947,26.896 20.063,26.696 20.147,26.464C20.231,26.232 20.273,25.976 20.273,25.696C20.273,25.424 20.231,25.172 20.147,24.94C20.063,24.708 19.947,24.508 19.799,24.34C19.651,24.172 19.477,24.042 19.277,23.95C19.077,23.858 18.861,23.812 18.629,23.812C18.397,23.812 18.181,23.86 17.981,23.956C17.781,24.052 17.607,24.184 17.459,24.352C17.311,24.52 17.195,24.72 17.111,24.952C17.027,25.184 16.985,25.436 16.985,25.708Z" style="fill-rule:nonzero;"/>
            <path d="M22.985,20.08L24.593,20.08L24.593,26.824C24.593,27.056 24.649,27.236 24.761,27.364C24.873,27.492 25.033,27.556 25.241,27.556C25.337,27.556 25.443,27.54 25.559,27.508C25.675,27.476 25.785,27.436 25.889,27.388L26.105,28.612C25.889,28.716 25.637,28.796 25.349,28.852C25.061,28.908 24.801,28.936 24.569,28.936C24.065,28.936 23.675,28.802 23.399,28.534C23.123,28.266 22.985,27.884 22.985,27.388L22.985,20.08Z" style="fill-rule:nonzero;"/>
            <path d="M29.705,28.96C29.193,28.96 28.733,28.872 28.325,28.696C27.917,28.52 27.571,28.282 27.287,27.982C27.003,27.682 26.785,27.336 26.633,26.944C26.481,26.552 26.405,26.14 26.405,25.708C26.405,25.268 26.481,24.852 26.633,24.46C26.785,24.068 27.003,23.722 27.287,23.422C27.571,23.122 27.917,22.884 28.325,22.708C28.733,22.532 29.193,22.444 29.705,22.444C30.217,22.444 30.675,22.532 31.079,22.708C31.483,22.884 31.827,23.122 32.111,23.422C32.395,23.722 32.613,24.068 32.765,24.46C32.917,24.852 32.993,25.268 32.993,25.708C32.993,26.14 32.917,26.552 32.765,26.944C32.613,27.336 32.397,27.682 32.117,27.982C31.837,28.282 31.493,28.52 31.085,28.696C30.677,28.872 30.217,28.96 29.705,28.96ZM28.061,25.708C28.061,25.988 28.103,26.242 28.187,26.47C28.271,26.698 28.387,26.896 28.535,27.064C28.683,27.232 28.857,27.362 29.057,27.454C29.257,27.546 29.473,27.592 29.705,27.592C29.937,27.592 30.153,27.546 30.353,27.454C30.553,27.362 30.727,27.232 30.875,27.064C31.023,26.896 31.139,26.696 31.223,26.464C31.307,26.232 31.349,25.976 31.349,25.696C31.349,25.424 31.307,25.172 31.223,24.94C31.139,24.708 31.023,24.508 30.875,24.34C30.727,24.172 30.553,24.042 30.353,23.95C30.153,23.858 29.937,23.812 29.705,23.812C29.473,23.812 29.257,23.86 29.057,23.956C28.857,24.052 28.683,24.184 28.535,24.352C28.387,24.52 28.271,24.72 28.187,24.952C28.103,25.184 28.061,25.436 28.061,25.708Z" style="fill-rule:nonzero;"/>
            <path d="M39.917,28.84L38.309,28.84L38.309,25.312C38.309,24.808 38.221,24.44 38.045,24.208C37.869,23.976 37.625,23.86 37.313,23.86C37.153,23.86 36.989,23.892 36.821,23.956C36.653,24.02 36.495,24.11 36.347,24.226C36.199,24.342 36.065,24.48 35.945,24.64C35.825,24.8 35.737,24.976 35.681,25.168L35.681,28.84L34.073,28.84L34.073,22.552L35.525,22.552L35.525,23.716C35.757,23.316 36.093,23.004 36.533,22.78C36.973,22.556 37.469,22.444 38.021,22.444C38.413,22.444 38.733,22.516 38.981,22.66C39.229,22.804 39.421,22.992 39.557,23.224C39.693,23.456 39.787,23.72 39.839,24.016C39.891,24.312 39.917,24.612 39.917,24.916L39.917,28.84Z" style="fill-rule:nonzero;"/>
            <rect x="41.285" y="27.112" width="1.32" height="1.728"/>
            <path d="M44.021,28.84L44.021,22.552L45.629,22.552L45.629,28.84L44.021,28.84ZM44.021,21.676L44.021,20.08L45.629,20.08L45.629,21.676L44.021,21.676Z" style="fill-rule:nonzero;"/>
            <path d="M49.457,28.96C48.929,28.96 48.413,28.876 47.909,28.708C47.405,28.54 46.973,28.3 46.613,27.988L47.213,26.98C47.597,27.252 47.971,27.458 48.335,27.598C48.699,27.738 49.061,27.808 49.421,27.808C49.741,27.808 49.993,27.748 50.177,27.628C50.361,27.508 50.453,27.336 50.453,27.112C50.453,26.888 50.345,26.724 50.129,26.62C49.913,26.516 49.561,26.396 49.073,26.26C48.665,26.148 48.317,26.04 48.029,25.936C47.741,25.832 47.509,25.714 47.333,25.582C47.157,25.45 47.029,25.298 46.949,25.126C46.869,24.954 46.829,24.748 46.829,24.508C46.829,24.188 46.891,23.9 47.015,23.644C47.139,23.388 47.313,23.17 47.537,22.99C47.761,22.81 48.023,22.672 48.323,22.576C48.623,22.48 48.949,22.432 49.301,22.432C49.773,22.432 50.215,22.5 50.627,22.636C51.039,22.772 51.417,22.992 51.761,23.296L51.113,24.268C50.793,24.028 50.483,23.852 50.183,23.74C49.883,23.628 49.585,23.572 49.289,23.572C49.017,23.572 48.789,23.628 48.605,23.74C48.421,23.852 48.329,24.032 48.329,24.28C48.329,24.392 48.351,24.484 48.395,24.556C48.439,24.628 48.509,24.692 48.605,24.748C48.701,24.804 48.827,24.858 48.983,24.91C49.139,24.962 49.333,25.016 49.565,25.072C49.997,25.184 50.367,25.296 50.675,25.408C50.983,25.52 51.235,25.648 51.431,25.792C51.627,25.936 51.771,26.102 51.863,26.29C51.955,26.478 52.001,26.704 52.001,26.968C52.001,27.584 51.773,28.07 51.317,28.426C50.861,28.782 50.241,28.96 49.457,28.96Z" style="fill-rule:nonzero;"/>
            <path d="M56.813,28.516C56.597,28.612 56.333,28.708 56.021,28.804C55.709,28.9 55.381,28.948 55.037,28.948C54.813,28.948 54.603,28.92 54.407,28.864C54.211,28.808 54.039,28.718 53.891,28.594C53.743,28.47 53.625,28.31 53.537,28.114C53.449,27.918 53.405,27.68 53.405,27.4L53.405,23.788L52.577,23.788L52.577,22.552L53.405,22.552L53.405,20.512L55.013,20.512L55.013,22.552L56.333,22.552L56.333,23.788L55.013,23.788L55.013,26.86C55.013,27.084 55.071,27.242 55.187,27.334C55.303,27.426 55.445,27.472 55.613,27.472C55.781,27.472 55.945,27.444 56.105,27.388C56.265,27.332 56.393,27.284 56.489,27.244L56.813,28.516Z" style="fill-rule:nonzero;"/>
        </g>
        <g transform="matrix(1,0,0,1,13,745.504)">
            <path d="M7.842,30.338L8.862,30.338L8.602,31.508C8.856,31.148 9.142,30.858 9.462,30.638C9.782,30.418 10.099,30.308 10.412,30.308C10.479,30.308 10.531,30.309 10.567,30.313C10.604,30.316 10.639,30.321 10.672,30.328L10.462,31.288C10.062,31.301 9.689,31.399 9.342,31.583C8.996,31.766 8.716,32.028 8.502,32.368L7.822,35.568L6.722,35.568L7.842,30.338Z" style="fill-rule:nonzero;"/>
            <path d="M12.412,35.668C12.079,35.668 11.784,35.611 11.527,35.498C11.271,35.384 11.052,35.229 10.872,35.033C10.692,34.836 10.556,34.603 10.462,34.333C10.369,34.063 10.322,33.771 10.322,33.458C10.322,33.031 10.404,32.624 10.567,32.238C10.731,31.851 10.957,31.511 11.247,31.218C11.537,30.924 11.881,30.689 12.277,30.513C12.674,30.336 13.102,30.248 13.562,30.248C14.102,30.248 14.534,30.369 14.857,30.613C15.181,30.856 15.342,31.214 15.342,31.688C15.342,32.781 14.366,33.328 12.412,33.328C12.126,33.328 11.802,33.318 11.442,33.298L11.442,33.478C11.442,33.671 11.466,33.851 11.512,34.018C11.559,34.184 11.629,34.331 11.722,34.458C11.816,34.584 11.936,34.683 12.082,34.753C12.229,34.823 12.402,34.858 12.602,34.858C12.889,34.858 13.166,34.786 13.432,34.643C13.699,34.499 13.909,34.304 14.062,34.058L14.932,34.328C14.806,34.528 14.651,34.709 14.467,34.873C14.284,35.036 14.082,35.176 13.862,35.293C13.642,35.409 13.409,35.501 13.162,35.568C12.916,35.634 12.666,35.668 12.412,35.668ZM13.422,31.058C13.182,31.058 12.962,31.099 12.762,31.183C12.562,31.266 12.386,31.378 12.232,31.518C12.079,31.658 11.949,31.819 11.842,32.003C11.736,32.186 11.649,32.378 11.582,32.578C11.889,32.598 12.172,32.608 12.432,32.608C12.786,32.608 13.082,32.586 13.322,32.543C13.562,32.499 13.757,32.439 13.907,32.363C14.057,32.286 14.164,32.193 14.227,32.083C14.291,31.973 14.322,31.851 14.322,31.718C14.322,31.491 14.242,31.324 14.082,31.218C13.922,31.111 13.702,31.058 13.422,31.058Z" style="fill-rule:nonzero;"/>
            <path d="M17.842,35.668C17.509,35.668 17.212,35.609 16.952,35.493C16.692,35.376 16.474,35.218 16.297,35.018C16.121,34.818 15.987,34.584 15.897,34.318C15.807,34.051 15.762,33.768 15.762,33.468C15.762,33.048 15.844,32.644 16.007,32.258C16.171,31.871 16.397,31.529 16.687,31.233C16.977,30.936 17.317,30.698 17.707,30.518C18.097,30.338 18.522,30.248 18.982,30.248C19.502,30.248 19.922,30.366 20.242,30.603C20.562,30.839 20.776,31.154 20.882,31.548L19.742,31.888C19.669,31.668 19.547,31.496 19.377,31.373C19.207,31.249 19.002,31.188 18.762,31.188C18.522,31.188 18.291,31.243 18.067,31.353C17.844,31.463 17.646,31.616 17.472,31.813C17.299,32.009 17.161,32.238 17.057,32.498C16.954,32.758 16.902,33.038 16.902,33.338C16.902,33.538 16.929,33.723 16.982,33.893C17.036,34.063 17.112,34.209 17.212,34.333C17.312,34.456 17.431,34.553 17.567,34.623C17.704,34.693 17.856,34.728 18.022,34.728C18.149,34.728 18.276,34.709 18.402,34.673C18.529,34.636 18.651,34.584 18.767,34.518C18.884,34.451 18.989,34.374 19.082,34.288C19.176,34.201 19.252,34.108 19.312,34.008L20.322,34.328C20.202,34.521 20.054,34.699 19.877,34.863C19.701,35.026 19.506,35.168 19.292,35.288C19.079,35.408 18.849,35.501 18.602,35.568C18.356,35.634 18.102,35.668 17.842,35.668Z" style="fill-rule:nonzero;"/>
            <path d="M23.172,35.668C22.839,35.668 22.544,35.611 22.287,35.498C22.031,35.384 21.812,35.229 21.632,35.033C21.452,34.836 21.316,34.603 21.222,34.333C21.129,34.063 21.082,33.771 21.082,33.458C21.082,33.031 21.164,32.624 21.327,32.238C21.491,31.851 21.717,31.511 22.007,31.218C22.297,30.924 22.641,30.689 23.037,30.513C23.434,30.336 23.862,30.248 24.322,30.248C24.862,30.248 25.294,30.369 25.617,30.613C25.941,30.856 26.102,31.214 26.102,31.688C26.102,32.781 25.126,33.328 23.172,33.328C22.886,33.328 22.562,33.318 22.202,33.298L22.202,33.478C22.202,33.671 22.226,33.851 22.272,34.018C22.319,34.184 22.389,34.331 22.482,34.458C22.576,34.584 22.696,34.683 22.842,34.753C22.989,34.823 23.162,34.858 23.362,34.858C23.649,34.858 23.926,34.786 24.192,34.643C24.459,34.499 24.669,34.304 24.822,34.058L25.692,34.328C25.566,34.528 25.411,34.709 25.227,34.873C25.044,35.036 24.842,35.176 24.622,35.293C24.402,35.409 24.169,35.501 23.922,35.568C23.676,35.634 23.426,35.668 23.172,35.668ZM24.182,31.058C23.942,31.058 23.722,31.099 23.522,31.183C23.322,31.266 23.146,31.378 22.992,31.518C22.839,31.658 22.709,31.819 22.602,32.003C22.496,32.186 22.409,32.378 22.342,32.578C22.649,32.598 22.932,32.608 23.192,32.608C23.546,32.608 23.842,32.586 24.082,32.543C24.322,32.499 24.517,32.439 24.667,32.363C24.817,32.286 24.924,32.193 24.987,32.083C25.051,31.973 25.082,31.851 25.082,31.718C25.082,31.491 25.002,31.324 24.842,31.218C24.682,31.111 24.462,31.058 24.182,31.058Z" style="fill-rule:nonzero;"/>
            <path d="M27.452,30.338L28.552,30.338L27.432,35.568L26.332,35.568L27.452,30.338ZM27.882,28.268L28.982,28.268L28.732,29.478L27.632,29.478L27.882,28.268Z" style="fill-rule:nonzero;"/>
            <path d="M29.252,30.338L30.392,30.338L30.852,34.638C31.359,33.898 31.791,33.181 32.147,32.488C32.504,31.794 32.786,31.078 32.992,30.338L34.022,30.338C33.782,31.211 33.421,32.083 32.937,32.953C32.454,33.823 31.872,34.694 31.192,35.568L30.022,35.568L29.252,30.338Z" style="fill-rule:nonzero;"/>
            <path d="M36.112,35.668C35.779,35.668 35.484,35.611 35.227,35.498C34.971,35.384 34.752,35.229 34.572,35.033C34.392,34.836 34.256,34.603 34.162,34.333C34.069,34.063 34.022,33.771 34.022,33.458C34.022,33.031 34.104,32.624 34.267,32.238C34.431,31.851 34.657,31.511 34.947,31.218C35.237,30.924 35.581,30.689 35.977,30.513C36.374,30.336 36.802,30.248 37.262,30.248C37.802,30.248 38.234,30.369 38.557,30.613C38.881,30.856 39.042,31.214 39.042,31.688C39.042,32.781 38.066,33.328 36.112,33.328C35.826,33.328 35.502,33.318 35.142,33.298L35.142,33.478C35.142,33.671 35.166,33.851 35.212,34.018C35.259,34.184 35.329,34.331 35.422,34.458C35.516,34.584 35.636,34.683 35.782,34.753C35.929,34.823 36.102,34.858 36.302,34.858C36.589,34.858 36.866,34.786 37.132,34.643C37.399,34.499 37.609,34.304 37.762,34.058L38.632,34.328C38.506,34.528 38.351,34.709 38.167,34.873C37.984,35.036 37.782,35.176 37.562,35.293C37.342,35.409 37.109,35.501 36.862,35.568C36.616,35.634 36.366,35.668 36.112,35.668ZM37.122,31.058C36.882,31.058 36.662,31.099 36.462,31.183C36.262,31.266 36.086,31.378 35.932,31.518C35.779,31.658 35.649,31.819 35.542,32.003C35.436,32.186 35.349,32.378 35.282,32.578C35.589,32.598 35.872,32.608 36.132,32.608C36.486,32.608 36.782,32.586 37.022,32.543C37.262,32.499 37.457,32.439 37.607,32.363C37.757,32.286 37.864,32.193 37.927,32.083C37.991,31.973 38.022,31.851 38.022,31.718C38.022,31.491 37.942,31.324 37.782,31.218C37.622,31.111 37.402,31.058 37.122,31.058Z" style="fill-rule:nonzero;"/>
            <path d="M40.392,30.338L41.412,30.338L41.152,31.508C41.406,31.148 41.692,30.858 42.012,30.638C42.332,30.418 42.649,30.308 42.962,30.308C43.029,30.308 43.081,30.309 43.117,30.313C43.154,30.316 43.189,30.321 43.222,30.328L43.012,31.288C42.612,31.301 42.239,31.399 41.892,31.583C41.546,31.766 41.266,32.028 41.052,32.368L40.372,35.568L39.272,35.568L40.392,30.338Z" style="fill-rule:nonzero;"/>
        </g>
    </g>
</svg>
