<?xml version="1.0" encoding="UTF-8" standalone="no"?>
<!DOCTYPE svg PUBLIC "-//W3C//DTD SVG 1.1//EN" "http://www.w3.org/Graphics/SVG/1.1/DTD/svg11.dtd">
<svg width="100%" height="100%" viewBox="0 0 120 380" version="1.1" xmlns="http://www.w3.org/2000/svg" xmlns:xlink="http://www.w3.org/1999/xlink" xml:space="preserve" xmlns:serif="http://www.serif.com/" style="fill-rule:evenodd;clip-rule:evenodd;stroke-linejoin:round;stroke-miterlimit:1.41421;">
    <g id="Layer-1" serif:id="Layer 1" transform="matrix(1,0,0,1,15,-742.52)">
        <g id="background" transform="matrix(1.33333,0,0,1,-14.8708,-0.593312)">
            <rect x="0" y="742.52" width="90" height="380" style="fill:rgb(240,240,240);"/>
        </g>
        <g transform="matrix(1,0,0,1,-8,805.52)">
            <path d="M66.973,63.756L68.073,63.756L68.073,69.546C68.073,69.739 68.123,69.891 68.223,70.001C68.323,70.111 68.463,70.166 68.643,70.166C68.716,70.166 68.801,70.153 68.898,70.126C68.995,70.099 69.086,70.069 69.173,70.036L69.333,70.896C69.173,70.969 68.983,71.028 68.763,71.071C68.543,71.114 68.346,71.136 68.173,71.136C67.793,71.136 67.498,71.033 67.288,70.826C67.078,70.619 66.973,70.326 66.973,69.946L66.973,63.756Z" style="fill-rule:nonzero;"/>
            <path d="M72.343,71.156C71.936,71.156 71.566,71.084 71.233,70.941C70.9,70.798 70.615,70.603 70.378,70.356C70.141,70.109 69.958,69.823 69.828,69.496C69.698,69.169 69.633,68.823 69.633,68.456C69.633,68.089 69.698,67.741 69.828,67.411C69.958,67.081 70.141,66.791 70.378,66.541C70.615,66.291 70.9,66.094 71.233,65.951C71.566,65.808 71.94,65.736 72.353,65.736C72.76,65.736 73.128,65.809 73.458,65.956C73.788,66.103 74.07,66.298 74.303,66.541C74.536,66.784 74.715,67.068 74.838,67.391C74.961,67.714 75.023,68.053 75.023,68.406C75.023,68.486 75.02,68.561 75.013,68.631C75.006,68.701 75,68.759 74.993,68.806L70.803,68.806C70.823,69.039 70.878,69.249 70.968,69.436C71.058,69.623 71.175,69.784 71.318,69.921C71.461,70.058 71.625,70.163 71.808,70.236C71.991,70.309 72.183,70.346 72.383,70.346C72.53,70.346 72.675,70.328 72.818,70.291C72.961,70.254 73.093,70.201 73.213,70.131C73.333,70.061 73.44,69.976 73.533,69.876C73.626,69.776 73.7,69.666 73.753,69.546L74.693,69.816C74.513,70.209 74.215,70.531 73.798,70.781C73.381,71.031 72.896,71.156 72.343,71.156ZM73.933,68.046C73.913,67.826 73.858,67.623 73.768,67.436C73.678,67.249 73.563,67.091 73.423,66.961C73.283,66.831 73.12,66.729 72.933,66.656C72.746,66.583 72.55,66.546 72.343,66.546C72.136,66.546 71.941,66.583 71.758,66.656C71.575,66.729 71.413,66.831 71.273,66.961C71.133,67.091 71.02,67.249 70.933,67.436C70.846,67.623 70.793,67.826 70.773,68.046L73.933,68.046Z" style="fill-rule:nonzero;"/>
            <path d="M80.613,71.056L79.513,71.056L79.513,68.126C79.513,67.633 79.435,67.274 79.278,67.051C79.121,66.828 78.89,66.716 78.583,66.716C78.423,66.716 78.263,66.746 78.103,66.806C77.943,66.866 77.793,66.951 77.653,67.061C77.513,67.171 77.388,67.301 77.278,67.451C77.168,67.601 77.083,67.766 77.023,67.946L77.023,71.056L75.923,71.056L75.923,65.826L76.923,65.826L76.923,66.876C77.123,66.523 77.413,66.244 77.793,66.041C78.173,65.838 78.593,65.736 79.053,65.736C79.366,65.736 79.623,65.793 79.823,65.906C80.023,66.019 80.181,66.174 80.298,66.371C80.415,66.568 80.496,66.794 80.543,67.051C80.59,67.308 80.613,67.579 80.613,67.866L80.613,71.056Z" style="fill-rule:nonzero;"/>
        </g>
        <g transform="matrix(1,0,0,1,-10,786.52)">
            <path d="M72.044,54.012C71.618,54.026 71.239,54.124 70.909,54.307C70.579,54.491 70.344,54.752 70.204,55.092L70.204,58.292L69.104,58.292L69.104,53.062L70.124,53.062L70.124,54.232C70.304,53.872 70.539,53.584 70.829,53.367C71.119,53.151 71.431,53.032 71.764,53.012C71.831,53.012 71.886,53.012 71.929,53.012C71.973,53.012 72.011,53.016 72.044,53.022L72.044,54.012Z" style="fill-rule:nonzero;"/>
            <path d="M74.954,58.392C74.548,58.392 74.178,58.321 73.844,58.177C73.511,58.034 73.226,57.839 72.989,57.592C72.753,57.346 72.569,57.059 72.439,56.732C72.309,56.406 72.244,56.059 72.244,55.692C72.244,55.326 72.309,54.977 72.439,54.647C72.569,54.317 72.753,54.027 72.989,53.777C73.226,53.527 73.511,53.331 73.844,53.187C74.178,53.044 74.551,52.972 74.964,52.972C75.371,52.972 75.739,53.046 76.069,53.192C76.399,53.339 76.681,53.534 76.914,53.777C77.148,54.021 77.326,54.304 77.449,54.627C77.573,54.951 77.634,55.289 77.634,55.642C77.634,55.722 77.631,55.797 77.624,55.867C77.618,55.937 77.611,55.996 77.604,56.042L73.414,56.042C73.434,56.276 73.489,56.486 73.579,56.672C73.669,56.859 73.786,57.021 73.929,57.157C74.073,57.294 74.236,57.399 74.419,57.472C74.603,57.546 74.794,57.582 74.994,57.582C75.141,57.582 75.286,57.564 75.429,57.527C75.573,57.491 75.704,57.437 75.824,57.367C75.944,57.297 76.051,57.212 76.144,57.112C76.238,57.012 76.311,56.902 76.364,56.782L77.304,57.052C77.124,57.446 76.826,57.767 76.409,58.017C75.993,58.267 75.508,58.392 74.954,58.392ZM76.544,55.282C76.524,55.062 76.469,54.859 76.379,54.672C76.289,54.486 76.174,54.327 76.034,54.197C75.894,54.067 75.731,53.966 75.544,53.892C75.358,53.819 75.161,53.782 74.954,53.782C74.748,53.782 74.553,53.819 74.369,53.892C74.186,53.966 74.024,54.067 73.884,54.197C73.744,54.327 73.631,54.486 73.544,54.672C73.458,54.859 73.404,55.062 73.384,55.282L76.544,55.282Z" style="fill-rule:nonzero;"/>
            <path d="M78.194,55.672C78.194,55.306 78.258,54.959 78.384,54.632C78.511,54.306 78.693,54.019 78.929,53.772C79.166,53.526 79.451,53.331 79.784,53.187C80.118,53.044 80.491,52.972 80.904,52.972C81.444,52.972 81.909,53.091 82.299,53.327C82.689,53.564 82.981,53.879 83.174,54.272L82.104,54.612C81.978,54.392 81.808,54.221 81.594,54.097C81.381,53.974 81.144,53.912 80.884,53.912C80.664,53.912 80.459,53.956 80.269,54.042C80.079,54.129 79.914,54.251 79.774,54.407C79.634,54.564 79.524,54.749 79.444,54.962C79.364,55.176 79.324,55.412 79.324,55.672C79.324,55.926 79.366,56.161 79.449,56.377C79.533,56.594 79.646,56.782 79.789,56.942C79.933,57.102 80.099,57.227 80.289,57.317C80.479,57.407 80.681,57.452 80.894,57.452C81.028,57.452 81.161,57.434 81.294,57.397C81.428,57.361 81.549,57.309 81.659,57.242C81.769,57.176 81.866,57.099 81.949,57.012C82.033,56.926 82.094,56.832 82.134,56.732L83.214,57.052C83.041,57.446 82.751,57.767 82.344,58.017C81.938,58.267 81.458,58.392 80.904,58.392C80.498,58.392 80.128,58.319 79.794,58.172C79.461,58.026 79.176,57.827 78.939,57.577C78.703,57.327 78.519,57.039 78.389,56.712C78.259,56.386 78.194,56.039 78.194,55.672Z" style="fill-rule:nonzero;"/>
        </g>
        <g transform="matrix(1,0,0,1,-12,805.52)">
            <path d="M35.713,70.307C35.36,70.307 35.037,70.235 34.743,70.092C34.45,69.949 34.198,69.754 33.988,69.507C33.778,69.26 33.615,68.977 33.498,68.657C33.382,68.337 33.323,68 33.323,67.647C33.323,67.274 33.383,66.922 33.503,66.592C33.623,66.262 33.79,65.975 34.003,65.732C34.217,65.489 34.472,65.295 34.768,65.152C35.065,65.009 35.393,64.937 35.753,64.937C36.173,64.937 36.542,65.037 36.858,65.237C37.175,65.437 37.437,65.697 37.643,66.017L37.643,65.027L38.613,65.027L38.613,70.107C38.613,70.487 38.543,70.824 38.403,71.117C38.263,71.41 38.068,71.659 37.818,71.862C37.568,72.065 37.273,72.22 36.933,72.327C36.593,72.434 36.227,72.487 35.833,72.487C35.253,72.487 34.772,72.389 34.388,72.192C34.005,71.995 33.683,71.72 33.423,71.367L34.043,70.787C34.243,71.067 34.502,71.28 34.818,71.427C35.135,71.574 35.473,71.647 35.833,71.647C36.06,71.647 36.275,71.617 36.478,71.557C36.682,71.497 36.86,71.404 37.013,71.277C37.167,71.15 37.288,70.99 37.378,70.797C37.468,70.604 37.513,70.374 37.513,70.107L37.513,69.307C37.327,69.627 37.07,69.874 36.743,70.047C36.417,70.22 36.073,70.307 35.713,70.307ZM36.073,69.417C36.24,69.417 36.4,69.389 36.553,69.332C36.707,69.275 36.848,69.199 36.978,69.102C37.108,69.005 37.22,68.895 37.313,68.772C37.407,68.649 37.473,68.517 37.513,68.377L37.513,67.007C37.447,66.84 37.36,66.689 37.253,66.552C37.147,66.415 37.025,66.297 36.888,66.197C36.752,66.097 36.607,66.019 36.453,65.962C36.3,65.905 36.147,65.877 35.993,65.877C35.753,65.877 35.538,65.929 35.348,66.032C35.158,66.135 34.997,66.272 34.863,66.442C34.73,66.612 34.627,66.804 34.553,67.017C34.48,67.23 34.443,67.45 34.443,67.677C34.443,67.917 34.485,68.142 34.568,68.352C34.652,68.562 34.767,68.745 34.913,68.902C35.06,69.059 35.232,69.184 35.428,69.277C35.625,69.37 35.84,69.417 36.073,69.417Z" style="fill-rule:nonzero;"/>
            <path d="M41.323,70.357C41.07,70.357 40.835,70.315 40.618,70.232C40.402,70.149 40.215,70.034 40.058,69.887C39.902,69.74 39.778,69.567 39.688,69.367C39.598,69.167 39.553,68.95 39.553,68.717C39.553,68.47 39.607,68.247 39.713,68.047C39.82,67.847 39.972,67.674 40.168,67.527C40.365,67.38 40.598,67.267 40.868,67.187C41.138,67.107 41.437,67.067 41.763,67.067C42.01,67.067 42.253,67.089 42.493,67.132C42.733,67.175 42.95,67.234 43.143,67.307L43.143,66.947C43.143,66.56 43.033,66.259 42.813,66.042C42.593,65.825 42.277,65.717 41.863,65.717C41.583,65.717 41.308,65.769 41.038,65.872C40.768,65.975 40.49,66.124 40.203,66.317L39.863,65.617C40.537,65.164 41.237,64.937 41.963,64.937C42.683,64.937 43.243,65.12 43.643,65.487C44.043,65.854 44.243,66.38 44.243,67.067L44.243,68.957C44.243,69.19 44.34,69.31 44.533,69.317L44.533,70.257C44.427,70.277 44.335,70.29 44.258,70.297C44.182,70.304 44.107,70.307 44.033,70.307C43.82,70.307 43.655,70.254 43.538,70.147C43.422,70.04 43.35,69.904 43.323,69.737L43.293,69.407C43.06,69.714 42.772,69.949 42.428,70.112C42.085,70.275 41.717,70.357 41.323,70.357ZM41.623,69.547C41.89,69.547 42.142,69.499 42.378,69.402C42.615,69.305 42.8,69.17 42.933,68.997C43.073,68.877 43.143,68.75 43.143,68.617L43.143,67.927C42.957,67.854 42.758,67.797 42.548,67.757C42.338,67.717 42.133,67.697 41.933,67.697C41.54,67.697 41.218,67.782 40.968,67.952C40.718,68.122 40.593,68.347 40.593,68.627C40.593,68.887 40.69,69.105 40.883,69.282C41.077,69.459 41.323,69.547 41.623,69.547Z" style="fill-rule:nonzero;"/>
            <path d="M48.443,69.987C48.303,70.054 48.11,70.129 47.863,70.212C47.617,70.295 47.353,70.337 47.073,70.337C46.9,70.337 46.737,70.314 46.583,70.267C46.43,70.22 46.295,70.15 46.178,70.057C46.062,69.964 45.97,69.842 45.903,69.692C45.837,69.542 45.803,69.36 45.803,69.147L45.803,65.877L45.113,65.877L45.113,65.027L45.803,65.027L45.803,63.307L46.903,63.307L46.903,65.027L48.043,65.027L48.043,65.877L46.903,65.877L46.903,68.797C46.917,68.984 46.975,69.119 47.078,69.202C47.182,69.285 47.31,69.327 47.463,69.327C47.617,69.327 47.763,69.3 47.903,69.247C48.043,69.194 48.147,69.15 48.213,69.117L48.443,69.987Z" style="fill-rule:nonzero;"/>
        </g>
        <g transform="matrix(1,0,0,1,-12,783.52)">
            <path d="M33.33,59.134C33.33,58.767 33.393,58.42 33.52,58.094C33.646,57.767 33.828,57.48 34.065,57.234C34.301,56.987 34.586,56.792 34.92,56.649C35.253,56.505 35.626,56.434 36.04,56.434C36.58,56.434 37.045,56.552 37.435,56.789C37.825,57.025 38.116,57.34 38.31,57.734L37.24,58.074C37.113,57.854 36.943,57.682 36.73,57.559C36.516,57.435 36.28,57.374 36.02,57.374C35.8,57.374 35.595,57.417 35.405,57.504C35.215,57.59 35.05,57.712 34.91,57.869C34.77,58.025 34.66,58.21 34.58,58.424C34.5,58.637 34.46,58.874 34.46,59.134C34.46,59.387 34.501,59.622 34.585,59.839C34.668,60.055 34.781,60.244 34.925,60.404C35.068,60.564 35.235,60.689 35.425,60.779C35.615,60.869 35.816,60.914 36.03,60.914C36.163,60.914 36.296,60.895 36.43,60.859C36.563,60.822 36.685,60.77 36.795,60.704C36.905,60.637 37.001,60.56 37.085,60.474C37.168,60.387 37.23,60.294 37.27,60.194L38.35,60.514C38.176,60.907 37.886,61.229 37.48,61.479C37.073,61.729 36.593,61.854 36.04,61.854C35.633,61.854 35.263,61.78 34.93,61.634C34.596,61.487 34.311,61.289 34.075,61.039C33.838,60.789 33.655,60.5 33.525,60.174C33.395,59.847 33.33,59.5 33.33,59.134Z" style="fill-rule:nonzero;"/>
            <path d="M40.66,61.754L38.66,56.524L39.79,56.524L41.29,60.824L42.8,56.524L43.84,56.524L41.84,61.754L40.66,61.754Z" style="fill-rule:nonzero;"/>
        </g>
        <g transform="matrix(1,0,0,1,12.5748,751.565)">
            <path d="M22.196,20.29L22.196,11.77L25.832,11.77C26.24,11.77 26.614,11.854 26.954,12.022C27.294,12.19 27.586,12.41 27.83,12.682C28.074,12.954 28.266,13.262 28.406,13.606C28.546,13.95 28.616,14.298 28.616,14.65C28.616,15.026 28.55,15.386 28.418,15.73C28.286,16.074 28.102,16.382 27.866,16.654C27.63,16.926 27.344,17.142 27.008,17.302C26.672,17.462 26.3,17.542 25.892,17.542L24.164,17.542L24.164,20.29L22.196,20.29ZM24.164,15.826L25.772,15.826C26.004,15.826 26.204,15.726 26.372,15.526C26.54,15.326 26.624,15.034 26.624,14.65C26.624,14.45 26.598,14.278 26.546,14.134C26.494,13.99 26.424,13.87 26.336,13.774C26.248,13.678 26.148,13.608 26.036,13.564C25.924,13.52 25.812,13.498 25.7,13.498L24.164,13.498L24.164,15.826Z" style="fill-rule:nonzero;"/>
            <path d="M31.244,20.41C30.932,20.41 30.642,20.36 30.374,20.26C30.106,20.16 29.876,20.02 29.684,19.84C29.492,19.66 29.34,19.448 29.228,19.204C29.116,18.96 29.06,18.694 29.06,18.406C29.06,18.094 29.126,17.81 29.258,17.554C29.39,17.298 29.576,17.078 29.816,16.894C30.056,16.71 30.34,16.566 30.668,16.462C30.996,16.358 31.36,16.306 31.76,16.306C32.024,16.306 32.28,16.328 32.528,16.372C32.776,16.416 32.992,16.482 33.176,16.57L33.176,16.282C33.176,15.554 32.756,15.19 31.916,15.19C31.572,15.19 31.244,15.248 30.932,15.364C30.62,15.48 30.292,15.654 29.948,15.886L29.384,14.686C29.8,14.414 30.232,14.21 30.68,14.074C31.128,13.938 31.604,13.87 32.108,13.87C33.06,13.87 33.796,14.094 34.316,14.542C34.836,14.99 35.096,15.646 35.096,16.51L35.096,18.13C35.096,18.322 35.126,18.456 35.186,18.532C35.246,18.608 35.352,18.654 35.504,18.67L35.504,20.29C35.336,20.33 35.184,20.356 35.048,20.368C34.912,20.38 34.788,20.386 34.676,20.386C34.316,20.386 34.044,20.316 33.86,20.176C33.676,20.036 33.56,19.838 33.512,19.582L33.476,19.294C33.196,19.654 32.862,19.93 32.474,20.122C32.086,20.314 31.676,20.41 31.244,20.41ZM31.808,19.03C32.016,19.03 32.218,18.994 32.414,18.922C32.61,18.85 32.772,18.754 32.9,18.634C33.084,18.49 33.176,18.338 33.176,18.178L33.176,17.578C33.008,17.514 32.826,17.464 32.63,17.428C32.434,17.392 32.252,17.374 32.084,17.374C31.732,17.374 31.442,17.454 31.214,17.614C30.986,17.774 30.872,17.982 30.872,18.238C30.872,18.47 30.96,18.66 31.136,18.808C31.312,18.956 31.536,19.03 31.808,19.03Z" style="fill-rule:nonzero;"/>
            <path d="M38.972,20.41C38.436,20.41 37.908,20.324 37.388,20.152C36.868,19.98 36.428,19.73 36.068,19.402L36.752,18.226C37.136,18.49 37.51,18.694 37.874,18.838C38.238,18.982 38.588,19.054 38.924,19.054C39.172,19.054 39.364,19.01 39.5,18.922C39.636,18.834 39.704,18.706 39.704,18.538C39.704,18.37 39.618,18.236 39.446,18.136C39.274,18.036 38.972,17.93 38.54,17.818C38.116,17.698 37.758,17.582 37.466,17.47C37.174,17.358 36.936,17.234 36.752,17.098C36.568,16.962 36.436,16.806 36.356,16.63C36.276,16.454 36.236,16.246 36.236,16.006C36.236,15.686 36.3,15.394 36.428,15.13C36.556,14.866 36.732,14.642 36.956,14.458C37.18,14.274 37.446,14.13 37.754,14.026C38.062,13.922 38.396,13.87 38.756,13.87C39.228,13.87 39.67,13.934 40.082,14.062C40.494,14.19 40.892,14.422 41.276,14.758L40.532,15.91C40.172,15.662 39.852,15.482 39.572,15.37C39.292,15.258 39.02,15.202 38.756,15.202C38.548,15.202 38.372,15.244 38.228,15.328C38.084,15.412 38.012,15.546 38.012,15.73C38.012,15.906 38.09,16.038 38.246,16.126C38.402,16.214 38.692,16.31 39.116,16.414C39.564,16.534 39.942,16.654 40.25,16.774C40.558,16.894 40.808,17.028 41,17.176C41.192,17.324 41.332,17.494 41.42,17.686C41.508,17.878 41.552,18.106 41.552,18.37C41.552,18.994 41.32,19.49 40.856,19.858C40.392,20.226 39.764,20.41 38.972,20.41Z" style="fill-rule:nonzero;"/>
            <path d="M46.556,19.954C46.292,20.066 45.99,20.17 45.65,20.266C45.31,20.362 44.968,20.41 44.624,20.41C44.384,20.41 44.158,20.38 43.946,20.32C43.734,20.26 43.548,20.164 43.388,20.032C43.228,19.9 43.102,19.726 43.01,19.51C42.918,19.294 42.872,19.034 42.872,18.73L42.872,15.442L42.068,15.442L42.068,13.99L42.872,13.99L42.872,11.986L44.792,11.986L44.792,13.99L46.076,13.99L46.076,15.442L44.792,15.442L44.792,18.07C44.792,18.278 44.844,18.428 44.948,18.52C45.052,18.612 45.184,18.658 45.344,18.658C45.488,18.658 45.636,18.634 45.788,18.586C45.94,18.538 46.072,18.486 46.184,18.43L46.556,19.954Z" style="fill-rule:nonzero;"/>
        </g>
        <g transform="matrix(1,0,0,1,-15,752.52)">
            <path d="M17.304,32.888C17.304,32.521 17.367,32.174 17.494,31.848C17.62,31.521 17.802,31.234 18.039,30.988C18.275,30.741 18.56,30.546 18.894,30.403C19.227,30.259 19.6,30.188 20.014,30.188C20.554,30.188 21.019,30.306 21.409,30.543C21.799,30.779 22.09,31.094 22.284,31.488L21.214,31.828C21.087,31.608 20.917,31.436 20.704,31.313C20.49,31.189 20.254,31.128 19.994,31.128C19.774,31.128 19.569,31.171 19.379,31.258C19.189,31.344 19.024,31.466 18.884,31.623C18.744,31.779 18.634,31.964 18.554,32.178C18.474,32.391 18.434,32.628 18.434,32.888C18.434,33.141 18.475,33.376 18.559,33.593C18.642,33.809 18.755,33.998 18.899,34.158C19.042,34.318 19.209,34.443 19.399,34.533C19.589,34.623 19.79,34.668 20.004,34.668C20.137,34.668 20.27,34.649 20.404,34.613C20.537,34.576 20.659,34.524 20.769,34.458C20.879,34.391 20.975,34.314 21.059,34.228C21.142,34.141 21.204,34.048 21.244,33.948L22.324,34.268C22.15,34.661 21.86,34.983 21.454,35.233C21.047,35.483 20.567,35.608 20.014,35.608C19.607,35.608 19.237,35.534 18.904,35.388C18.57,35.241 18.285,35.043 18.049,34.793C17.812,34.543 17.629,34.254 17.499,33.928C17.369,33.601 17.304,33.254 17.304,32.888Z" style="fill-rule:nonzero;"/>
            <path d="M23.244,28.208L24.344,28.208L24.344,33.998C24.344,34.191 24.394,34.343 24.494,34.453C24.594,34.563 24.734,34.618 24.914,34.618C24.987,34.618 25.072,34.604 25.169,34.578C25.265,34.551 25.357,34.521 25.444,34.488L25.604,35.348C25.444,35.421 25.254,35.479 25.034,35.523C24.814,35.566 24.617,35.588 24.444,35.588C24.064,35.588 23.769,35.484 23.559,35.278C23.349,35.071 23.244,34.778 23.244,34.398L23.244,28.208Z" style="fill-rule:nonzero;"/>
            <path d="M29.884,35.508L28.214,33.098L27.344,33.918L27.344,35.508L26.244,35.508L26.244,28.208L27.344,28.208L27.344,32.838L29.744,30.288L30.944,30.288L28.914,32.478L31.054,35.508L29.884,35.508Z" style="fill-rule:nonzero;"/>
        </g>
        <g transform="matrix(1,0,0,1,-10,754.52)">
            <path d="M45.82,29.041C45.394,29.054 45.015,29.152 44.685,29.336C44.355,29.519 44.12,29.781 43.98,30.121L43.98,33.321L42.88,33.321L42.88,28.091L43.9,28.091L43.9,29.261C44.08,28.901 44.315,28.612 44.605,28.396C44.895,28.179 45.207,28.061 45.54,28.041C45.607,28.041 45.662,28.041 45.705,28.041C45.749,28.041 45.787,28.044 45.82,28.051L45.82,29.041Z" style="fill-rule:nonzero;"/>
            <path d="M48.52,33.421C48.1,33.421 47.682,33.352 47.265,33.216C46.849,33.079 46.49,32.884 46.19,32.631L46.63,31.931C46.944,32.157 47.254,32.329 47.56,32.446C47.867,32.562 48.18,32.621 48.5,32.621C48.827,32.621 49.085,32.557 49.275,32.431C49.465,32.304 49.56,32.124 49.56,31.891C49.56,31.671 49.454,31.511 49.24,31.411C49.027,31.311 48.694,31.201 48.24,31.081C47.914,30.994 47.634,30.911 47.4,30.831C47.167,30.751 46.977,30.657 46.83,30.551C46.684,30.444 46.577,30.321 46.51,30.181C46.444,30.041 46.41,29.871 46.41,29.671C46.41,29.404 46.462,29.167 46.565,28.961C46.669,28.754 46.812,28.579 46.995,28.436C47.179,28.292 47.394,28.184 47.64,28.111C47.887,28.037 48.154,28.001 48.44,28.001C48.834,28.001 49.2,28.061 49.54,28.181C49.88,28.301 50.184,28.474 50.45,28.701L49.98,29.361C49.494,28.974 48.977,28.781 48.43,28.781C48.15,28.781 47.915,28.839 47.725,28.956C47.535,29.072 47.44,29.257 47.44,29.511C47.44,29.617 47.46,29.707 47.5,29.781C47.54,29.854 47.605,29.917 47.695,29.971C47.785,30.024 47.902,30.072 48.045,30.116C48.189,30.159 48.367,30.207 48.58,30.261C48.934,30.347 49.239,30.434 49.495,30.521C49.752,30.607 49.964,30.709 50.13,30.826C50.297,30.942 50.42,31.079 50.5,31.236C50.58,31.392 50.62,31.581 50.62,31.801C50.62,32.301 50.432,32.696 50.055,32.986C49.679,33.276 49.167,33.421 48.52,33.421Z" style="fill-rule:nonzero;"/>
            <path d="M54.49,33.051C54.35,33.117 54.157,33.192 53.91,33.276C53.664,33.359 53.4,33.401 53.12,33.401C52.947,33.401 52.784,33.377 52.63,33.331C52.477,33.284 52.342,33.214 52.225,33.121C52.109,33.027 52.017,32.906 51.95,32.756C51.884,32.606 51.85,32.424 51.85,32.211L51.85,28.941L51.16,28.941L51.16,28.091L51.85,28.091L51.85,26.371L52.95,26.371L52.95,28.091L54.09,28.091L54.09,28.941L52.95,28.941L52.95,31.861C52.964,32.047 53.022,32.182 53.125,32.266C53.229,32.349 53.357,32.391 53.51,32.391C53.664,32.391 53.81,32.364 53.95,32.311C54.09,32.257 54.194,32.214 54.26,32.181L54.49,33.051Z" style="fill-rule:nonzero;"/>
        </g>
    </g>
</svg>
