<?xml version="1.0" encoding="UTF-8" standalone="no"?>
<!DOCTYPE svg PUBLIC "-//W3C//DTD SVG 1.1//EN" "http://www.w3.org/Graphics/SVG/1.1/DTD/svg11.dtd">
<svg width="100%" height="100%" viewBox="0 0 120 380" version="1.1" xmlns="http://www.w3.org/2000/svg" xmlns:xlink="http://www.w3.org/1999/xlink" xml:space="preserve" xmlns:serif="http://www.serif.com/" style="fill-rule:evenodd;clip-rule:evenodd;stroke-linejoin:round;stroke-miterlimit:1.41421;">
    <g id="Layer-1" serif:id="Layer 1" transform="matrix(1,0,0,1,15,-742.52)">
        <g id="background" transform="matrix(1.75225,0,0,1.01402,-28.4754,-11.7058)">
            <rect x="0" y="742.52" width="90" height="380" style="fill:rgb(240,240,240);"/>
        </g>
        <g transform="matrix(1,0,0,1,12.5748,757.565)">
            <path d="M22.196,20.29L22.196,11.77L25.832,11.77C26.24,11.77 26.614,11.854 26.954,12.022C27.294,12.19 27.586,12.41 27.83,12.682C28.074,12.954 28.266,13.262 28.406,13.606C28.546,13.95 28.616,14.298 28.616,14.65C28.616,15.026 28.55,15.386 28.418,15.73C28.286,16.074 28.102,16.382 27.866,16.654C27.63,16.926 27.344,17.142 27.008,17.302C26.672,17.462 26.3,17.542 25.892,17.542L24.164,17.542L24.164,20.29L22.196,20.29ZM24.164,15.826L25.772,15.826C26.004,15.826 26.204,15.726 26.372,15.526C26.54,15.326 26.624,15.034 26.624,14.65C26.624,14.45 26.598,14.278 26.546,14.134C26.494,13.99 26.424,13.87 26.336,13.774C26.248,13.678 26.148,13.608 26.036,13.564C25.924,13.52 25.812,13.498 25.7,13.498L24.164,13.498L24.164,15.826Z" style="fill-rule:nonzero;"/>
            <path d="M31.244,20.41C30.932,20.41 30.642,20.36 30.374,20.26C30.106,20.16 29.876,20.02 29.684,19.84C29.492,19.66 29.34,19.448 29.228,19.204C29.116,18.96 29.06,18.694 29.06,18.406C29.06,18.094 29.126,17.81 29.258,17.554C29.39,17.298 29.576,17.078 29.816,16.894C30.056,16.71 30.34,16.566 30.668,16.462C30.996,16.358 31.36,16.306 31.76,16.306C32.024,16.306 32.28,16.328 32.528,16.372C32.776,16.416 32.992,16.482 33.176,16.57L33.176,16.282C33.176,15.554 32.756,15.19 31.916,15.19C31.572,15.19 31.244,15.248 30.932,15.364C30.62,15.48 30.292,15.654 29.948,15.886L29.384,14.686C29.8,14.414 30.232,14.21 30.68,14.074C31.128,13.938 31.604,13.87 32.108,13.87C33.06,13.87 33.796,14.094 34.316,14.542C34.836,14.99 35.096,15.646 35.096,16.51L35.096,18.13C35.096,18.322 35.126,18.456 35.186,18.532C35.246,18.608 35.352,18.654 35.504,18.67L35.504,20.29C35.336,20.33 35.184,20.356 35.048,20.368C34.912,20.38 34.788,20.386 34.676,20.386C34.316,20.386 34.044,20.316 33.86,20.176C33.676,20.036 33.56,19.838 33.512,19.582L33.476,19.294C33.196,19.654 32.862,19.93 32.474,20.122C32.086,20.314 31.676,20.41 31.244,20.41ZM31.808,19.03C32.016,19.03 32.218,18.994 32.414,18.922C32.61,18.85 32.772,18.754 32.9,18.634C33.084,18.49 33.176,18.338 33.176,18.178L33.176,17.578C33.008,17.514 32.826,17.464 32.63,17.428C32.434,17.392 32.252,17.374 32.084,17.374C31.732,17.374 31.442,17.454 31.214,17.614C30.986,17.774 30.872,17.982 30.872,18.238C30.872,18.47 30.96,18.66 31.136,18.808C31.312,18.956 31.536,19.03 31.808,19.03Z" style="fill-rule:nonzero;"/>
            <path d="M38.972,20.41C38.436,20.41 37.908,20.324 37.388,20.152C36.868,19.98 36.428,19.73 36.068,19.402L36.752,18.226C37.136,18.49 37.51,18.694 37.874,18.838C38.238,18.982 38.588,19.054 38.924,19.054C39.172,19.054 39.364,19.01 39.5,18.922C39.636,18.834 39.704,18.706 39.704,18.538C39.704,18.37 39.618,18.236 39.446,18.136C39.274,18.036 38.972,17.93 38.54,17.818C38.116,17.698 37.758,17.582 37.466,17.47C37.174,17.358 36.936,17.234 36.752,17.098C36.568,16.962 36.436,16.806 36.356,16.63C36.276,16.454 36.236,16.246 36.236,16.006C36.236,15.686 36.3,15.394 36.428,15.13C36.556,14.866 36.732,14.642 36.956,14.458C37.18,14.274 37.446,14.13 37.754,14.026C38.062,13.922 38.396,13.87 38.756,13.87C39.228,13.87 39.67,13.934 40.082,14.062C40.494,14.19 40.892,14.422 41.276,14.758L40.532,15.91C40.172,15.662 39.852,15.482 39.572,15.37C39.292,15.258 39.02,15.202 38.756,15.202C38.548,15.202 38.372,15.244 38.228,15.328C38.084,15.412 38.012,15.546 38.012,15.73C38.012,15.906 38.09,16.038 38.246,16.126C38.402,16.214 38.692,16.31 39.116,16.414C39.564,16.534 39.942,16.654 40.25,16.774C40.558,16.894 40.808,17.028 41,17.176C41.192,17.324 41.332,17.494 41.42,17.686C41.508,17.878 41.552,18.106 41.552,18.37C41.552,18.994 41.32,19.49 40.856,19.858C40.392,20.226 39.764,20.41 38.972,20.41Z" style="fill-rule:nonzero;"/>
            <path d="M46.556,19.954C46.292,20.066 45.99,20.17 45.65,20.266C45.31,20.362 44.968,20.41 44.624,20.41C44.384,20.41 44.158,20.38 43.946,20.32C43.734,20.26 43.548,20.164 43.388,20.032C43.228,19.9 43.102,19.726 43.01,19.51C42.918,19.294 42.872,19.034 42.872,18.73L42.872,15.442L42.068,15.442L42.068,13.99L42.872,13.99L42.872,11.986L44.792,11.986L44.792,13.99L46.076,13.99L46.076,15.442L44.792,15.442L44.792,18.07C44.792,18.278 44.844,18.428 44.948,18.52C45.052,18.612 45.184,18.658 45.344,18.658C45.488,18.658 45.636,18.634 45.788,18.586C45.94,18.538 46.072,18.486 46.184,18.43L46.556,19.954Z" style="fill-rule:nonzero;"/>
        </g>
        <g transform="matrix(1,0,0,1,-19.309,765.335)">
            <path d="M17.304,32.888C17.304,32.521 17.367,32.174 17.494,31.848C17.62,31.521 17.802,31.234 18.039,30.988C18.275,30.741 18.56,30.546 18.894,30.403C19.227,30.259 19.6,30.188 20.014,30.188C20.554,30.188 21.019,30.306 21.409,30.543C21.799,30.779 22.09,31.094 22.284,31.488L21.214,31.828C21.087,31.608 20.917,31.436 20.704,31.313C20.49,31.189 20.254,31.128 19.994,31.128C19.774,31.128 19.569,31.171 19.379,31.258C19.189,31.344 19.024,31.466 18.884,31.623C18.744,31.779 18.634,31.964 18.554,32.178C18.474,32.391 18.434,32.628 18.434,32.888C18.434,33.141 18.475,33.376 18.559,33.593C18.642,33.809 18.755,33.998 18.899,34.158C19.042,34.318 19.209,34.443 19.399,34.533C19.589,34.623 19.79,34.668 20.004,34.668C20.137,34.668 20.27,34.649 20.404,34.613C20.537,34.576 20.659,34.524 20.769,34.458C20.879,34.391 20.975,34.314 21.059,34.228C21.142,34.141 21.204,34.048 21.244,33.948L22.324,34.268C22.15,34.661 21.86,34.983 21.454,35.233C21.047,35.483 20.567,35.608 20.014,35.608C19.607,35.608 19.237,35.534 18.904,35.388C18.57,35.241 18.285,35.043 18.049,34.793C17.812,34.543 17.629,34.254 17.499,33.928C17.369,33.601 17.304,33.254 17.304,32.888Z" style="fill-rule:nonzero;"/>
            <path d="M23.244,28.208L24.344,28.208L24.344,33.998C24.344,34.191 24.394,34.343 24.494,34.453C24.594,34.563 24.734,34.618 24.914,34.618C24.987,34.618 25.072,34.604 25.169,34.578C25.265,34.551 25.357,34.521 25.444,34.488L25.604,35.348C25.444,35.421 25.254,35.479 25.034,35.523C24.814,35.566 24.617,35.588 24.444,35.588C24.064,35.588 23.769,35.484 23.559,35.278C23.349,35.071 23.244,34.778 23.244,34.398L23.244,28.208Z" style="fill-rule:nonzero;"/>
            <path d="M29.884,35.508L28.214,33.098L27.344,33.918L27.344,35.508L26.244,35.508L26.244,28.208L27.344,28.208L27.344,32.838L29.744,30.288L30.944,30.288L28.914,32.478L31.054,35.508L29.884,35.508Z" style="fill-rule:nonzero;"/>
        </g>
        <g transform="matrix(1,0,0,1,40.3926,767.406)">
            <path d="M45.82,29.041C45.394,29.054 45.015,29.152 44.685,29.336C44.355,29.519 44.12,29.781 43.98,30.121L43.98,33.321L42.88,33.321L42.88,28.091L43.9,28.091L43.9,29.261C44.08,28.901 44.315,28.612 44.605,28.396C44.895,28.179 45.207,28.061 45.54,28.041C45.607,28.041 45.662,28.041 45.705,28.041C45.749,28.041 45.787,28.044 45.82,28.051L45.82,29.041Z" style="fill-rule:nonzero;"/>
            <path d="M48.52,33.421C48.1,33.421 47.682,33.352 47.265,33.216C46.849,33.079 46.49,32.884 46.19,32.631L46.63,31.931C46.944,32.157 47.254,32.329 47.56,32.446C47.867,32.562 48.18,32.621 48.5,32.621C48.827,32.621 49.085,32.557 49.275,32.431C49.465,32.304 49.56,32.124 49.56,31.891C49.56,31.671 49.454,31.511 49.24,31.411C49.027,31.311 48.694,31.201 48.24,31.081C47.914,30.994 47.634,30.911 47.4,30.831C47.167,30.751 46.977,30.657 46.83,30.551C46.684,30.444 46.577,30.321 46.51,30.181C46.444,30.041 46.41,29.871 46.41,29.671C46.41,29.404 46.462,29.167 46.565,28.961C46.669,28.754 46.812,28.579 46.995,28.436C47.179,28.292 47.394,28.184 47.64,28.111C47.887,28.037 48.154,28.001 48.44,28.001C48.834,28.001 49.2,28.061 49.54,28.181C49.88,28.301 50.184,28.474 50.45,28.701L49.98,29.361C49.494,28.974 48.977,28.781 48.43,28.781C48.15,28.781 47.915,28.839 47.725,28.956C47.535,29.072 47.44,29.257 47.44,29.511C47.44,29.617 47.46,29.707 47.5,29.781C47.54,29.854 47.605,29.917 47.695,29.971C47.785,30.024 47.902,30.072 48.045,30.116C48.189,30.159 48.367,30.207 48.58,30.261C48.934,30.347 49.239,30.434 49.495,30.521C49.752,30.607 49.964,30.709 50.13,30.826C50.297,30.942 50.42,31.079 50.5,31.236C50.58,31.392 50.62,31.581 50.62,31.801C50.62,32.301 50.432,32.696 50.055,32.986C49.679,33.276 49.167,33.421 48.52,33.421Z" style="fill-rule:nonzero;"/>
            <path d="M54.49,33.051C54.35,33.117 54.157,33.192 53.91,33.276C53.664,33.359 53.4,33.401 53.12,33.401C52.947,33.401 52.784,33.377 52.63,33.331C52.477,33.284 52.342,33.214 52.225,33.121C52.109,33.027 52.017,32.906 51.95,32.756C51.884,32.606 51.85,32.424 51.85,32.211L51.85,28.941L51.16,28.941L51.16,28.091L51.85,28.091L51.85,26.371L52.95,26.371L52.95,28.091L54.09,28.091L54.09,28.941L52.95,28.941L52.95,31.861C52.964,32.047 53.022,32.182 53.125,32.266C53.229,32.349 53.357,32.391 53.51,32.391C53.664,32.391 53.81,32.364 53.95,32.311C54.09,32.257 54.194,32.214 54.26,32.181L54.49,33.051Z" style="fill-rule:nonzero;"/>
        </g>
        <g transform="matrix(0.499228,-0.866471,0.866471,0.499228,-84.0238,781.388)">
            <path d="M12.796,108.813C12.37,108.826 11.991,108.924 11.661,109.108C11.331,109.291 11.096,109.553 10.956,109.893L10.956,113.093L9.856,113.093L9.856,107.863L10.876,107.863L10.876,109.033C11.056,108.673 11.291,108.384 11.581,108.168C11.871,107.951 12.183,107.833 12.516,107.813C12.583,107.813 12.638,107.813 12.681,107.813C12.725,107.813 12.763,107.816 12.796,107.823L12.796,108.813Z" style="fill-rule:nonzero;"/>
            <path d="M15.706,113.193C15.3,113.193 14.93,113.121 14.596,112.978C14.263,112.834 13.978,112.639 13.741,112.393C13.505,112.146 13.321,111.859 13.191,111.533C13.061,111.206 12.996,110.859 12.996,110.493C12.996,110.126 13.061,109.778 13.191,109.448C13.321,109.118 13.505,108.828 13.741,108.578C13.978,108.328 14.263,108.131 14.596,107.988C14.93,107.844 15.303,107.773 15.716,107.773C16.123,107.773 16.491,107.846 16.821,107.993C17.151,108.139 17.433,108.334 17.666,108.578C17.9,108.821 18.078,109.104 18.201,109.428C18.325,109.751 18.386,110.089 18.386,110.443C18.386,110.523 18.383,110.598 18.376,110.668C18.37,110.738 18.363,110.796 18.356,110.843L14.166,110.843C14.186,111.076 14.241,111.286 14.331,111.473C14.421,111.659 14.538,111.821 14.681,111.958C14.825,112.094 14.988,112.199 15.171,112.273C15.355,112.346 15.546,112.383 15.746,112.383C15.893,112.383 16.038,112.364 16.181,112.328C16.325,112.291 16.456,112.238 16.576,112.168C16.696,112.098 16.803,112.013 16.896,111.913C16.99,111.813 17.063,111.703 17.116,111.583L18.056,111.853C17.876,112.246 17.578,112.568 17.161,112.818C16.745,113.068 16.26,113.193 15.706,113.193ZM17.296,110.083C17.276,109.863 17.221,109.659 17.131,109.473C17.041,109.286 16.926,109.128 16.786,108.998C16.646,108.868 16.483,108.766 16.296,108.693C16.11,108.619 15.913,108.583 15.706,108.583C15.5,108.583 15.305,108.619 15.121,108.693C14.938,108.766 14.776,108.868 14.636,108.998C14.496,109.128 14.383,109.286 14.296,109.473C14.21,109.659 14.156,109.863 14.136,110.083L17.296,110.083Z" style="fill-rule:nonzero;"/>
            <path d="M18.946,110.473C18.946,110.106 19.01,109.759 19.136,109.433C19.263,109.106 19.445,108.819 19.681,108.573C19.918,108.326 20.203,108.131 20.536,107.988C20.87,107.844 21.243,107.773 21.656,107.773C22.196,107.773 22.661,107.891 23.051,108.128C23.441,108.364 23.733,108.679 23.926,109.073L22.856,109.413C22.73,109.193 22.56,109.021 22.346,108.898C22.133,108.774 21.896,108.713 21.636,108.713C21.416,108.713 21.211,108.756 21.021,108.843C20.831,108.929 20.666,109.051 20.526,109.208C20.386,109.364 20.276,109.549 20.196,109.763C20.116,109.976 20.076,110.213 20.076,110.473C20.076,110.726 20.118,110.961 20.201,111.178C20.285,111.394 20.398,111.583 20.541,111.743C20.685,111.903 20.851,112.028 21.041,112.118C21.231,112.208 21.433,112.253 21.646,112.253C21.78,112.253 21.913,112.234 22.046,112.198C22.18,112.161 22.301,112.109 22.411,112.043C22.521,111.976 22.618,111.899 22.701,111.813C22.785,111.726 22.846,111.633 22.886,111.533L23.966,111.853C23.793,112.246 23.503,112.568 23.096,112.818C22.69,113.068 22.21,113.193 21.656,113.193C21.25,113.193 20.88,113.119 20.546,112.973C20.213,112.826 19.928,112.628 19.691,112.378C19.455,112.128 19.271,111.839 19.141,111.513C19.011,111.186 18.946,110.839 18.946,110.473Z" style="fill-rule:nonzero;"/>
        </g>
        <g transform="matrix(0.491577,-0.870834,0.870834,0.491577,-57.9846,805.02)">
            <path d="M36.098,111.133C35.744,111.133 35.418,111.061 35.118,110.918C34.818,110.774 34.558,110.579 34.338,110.333C34.118,110.086 33.946,109.798 33.823,109.468C33.699,109.138 33.638,108.783 33.638,108.403C33.638,108.036 33.696,107.691 33.813,107.368C33.929,107.044 34.093,106.759 34.303,106.513C34.513,106.266 34.759,106.071 35.043,105.928C35.326,105.784 35.638,105.713 35.978,105.713C36.398,105.713 36.768,105.814 37.088,106.018C37.408,106.221 37.658,106.479 37.838,106.793L37.838,103.733L38.938,103.733L38.938,109.733C38.938,109.859 38.959,109.949 39.003,110.003C39.046,110.056 39.124,110.086 39.238,110.093L39.238,111.033C39.124,111.053 39.033,111.066 38.963,111.073C38.893,111.079 38.834,111.083 38.788,111.083C38.568,111.083 38.388,111.026 38.248,110.913C38.108,110.799 38.031,110.653 38.018,110.473L37.998,110.083C37.804,110.409 37.541,110.666 37.208,110.853C36.874,111.039 36.504,111.133 36.098,111.133ZM36.368,110.193C36.528,110.193 36.688,110.166 36.848,110.113C37.008,110.059 37.154,109.986 37.288,109.893C37.421,109.799 37.536,109.689 37.633,109.563C37.729,109.436 37.798,109.299 37.838,109.153L37.838,107.783C37.778,107.616 37.693,107.463 37.583,107.323C37.473,107.183 37.348,107.063 37.208,106.963C37.068,106.863 36.919,106.786 36.763,106.733C36.606,106.679 36.448,106.653 36.288,106.653C36.068,106.653 35.866,106.703 35.683,106.803C35.499,106.903 35.341,107.036 35.208,107.203C35.074,107.369 34.969,107.559 34.893,107.773C34.816,107.986 34.778,108.206 34.778,108.433C34.778,108.673 34.819,108.899 34.903,109.113C34.986,109.326 35.101,109.513 35.248,109.673C35.394,109.833 35.563,109.959 35.753,110.053C35.943,110.146 36.148,110.193 36.368,110.193Z" style="fill-rule:nonzero;"/>
            <path d="M41.948,111.133C41.401,111.133 40.988,110.954 40.708,110.598C40.428,110.241 40.288,109.709 40.288,109.003L40.288,105.803L41.388,105.803L41.388,108.783C41.388,109.723 41.721,110.193 42.388,110.193C42.701,110.193 42.998,110.096 43.278,109.903C43.558,109.709 43.774,109.429 43.928,109.063L43.928,105.803L45.028,105.803L45.028,109.733C45.028,109.859 45.049,109.949 45.093,110.003C45.136,110.056 45.214,110.086 45.328,110.093L45.328,111.033C45.214,111.053 45.121,111.066 45.048,111.073C44.974,111.079 44.904,111.083 44.838,111.083C44.638,111.083 44.468,111.028 44.328,110.918C44.188,110.808 44.114,110.666 44.108,110.493L44.088,109.973C43.854,110.353 43.551,110.641 43.178,110.838C42.804,111.034 42.394,111.133 41.948,111.133Z" style="fill-rule:nonzero;"/>
            <path d="M49.248,111.133C48.848,111.133 48.486,111.038 48.163,110.848C47.839,110.658 47.584,110.403 47.398,110.083L47.398,111.033L46.428,111.033L46.428,103.733L47.528,103.733L47.528,106.793C47.734,106.459 47.993,106.196 48.303,106.003C48.613,105.809 48.978,105.713 49.398,105.713C49.744,105.713 50.061,105.788 50.348,105.938C50.634,106.088 50.879,106.288 51.083,106.538C51.286,106.788 51.443,107.078 51.553,107.408C51.663,107.738 51.718,108.083 51.718,108.443C51.718,108.816 51.654,109.166 51.528,109.493C51.401,109.819 51.228,110.104 51.008,110.348C50.788,110.591 50.526,110.783 50.223,110.923C49.919,111.063 49.594,111.133 49.248,111.133ZM48.958,110.193C49.198,110.193 49.418,110.144 49.618,110.048C49.818,109.951 49.989,109.823 50.133,109.663C50.276,109.503 50.388,109.318 50.468,109.108C50.548,108.898 50.588,108.676 50.588,108.443C50.588,108.209 50.549,107.984 50.473,107.768C50.396,107.551 50.289,107.361 50.153,107.198C50.016,107.034 49.853,106.903 49.663,106.803C49.473,106.703 49.264,106.653 49.038,106.653C48.698,106.653 48.396,106.763 48.133,106.983C47.869,107.203 47.668,107.469 47.528,107.783L47.528,109.163C47.568,109.316 47.638,109.454 47.738,109.578C47.838,109.701 47.954,109.809 48.088,109.903C48.221,109.996 48.364,110.068 48.518,110.118C48.671,110.168 48.818,110.193 48.958,110.193Z" style="fill-rule:nonzero;"/>
        </g>
        <g transform="matrix(0.498475,-0.866904,0.866904,0.498475,-31.0871,830.943)">
            <path d="M63.094,106.092C63.094,105.725 63.157,105.379 63.284,105.052C63.411,104.725 63.592,104.439 63.829,104.192C64.066,103.945 64.351,103.75 64.684,103.607C65.017,103.464 65.391,103.392 65.804,103.392C66.344,103.392 66.809,103.51 67.199,103.747C67.589,103.984 67.881,104.299 68.074,104.692L67.004,105.032C66.877,104.812 66.707,104.64 66.494,104.517C66.281,104.394 66.044,104.332 65.784,104.332C65.564,104.332 65.359,104.375 65.169,104.462C64.979,104.549 64.814,104.67 64.674,104.827C64.534,104.984 64.424,105.169 64.344,105.382C64.264,105.595 64.224,105.832 64.224,106.092C64.224,106.345 64.266,106.58 64.349,106.797C64.432,107.014 64.546,107.202 64.689,107.362C64.832,107.522 64.999,107.647 65.189,107.737C65.379,107.827 65.581,107.872 65.794,107.872C65.927,107.872 66.061,107.854 66.194,107.817C66.327,107.78 66.449,107.729 66.559,107.662C66.669,107.595 66.766,107.519 66.849,107.432C66.932,107.345 66.994,107.252 67.034,107.152L68.114,107.472C67.941,107.865 67.651,108.187 67.244,108.437C66.837,108.687 66.357,108.812 65.804,108.812C65.397,108.812 65.027,108.739 64.694,108.592C64.361,108.445 64.076,108.247 63.839,107.997C63.602,107.747 63.419,107.459 63.289,107.132C63.159,106.805 63.094,106.459 63.094,106.092Z" style="fill-rule:nonzero;"/>
            <path d="M69.034,101.412L70.134,101.412L70.134,107.202C70.134,107.395 70.184,107.547 70.284,107.657C70.384,107.767 70.524,107.822 70.704,107.822C70.777,107.822 70.862,107.809 70.959,107.782C71.056,107.755 71.147,107.725 71.234,107.692L71.394,108.552C71.234,108.625 71.044,108.684 70.824,108.727C70.604,108.77 70.407,108.792 70.234,108.792C69.854,108.792 69.559,108.689 69.349,108.482C69.139,108.275 69.034,107.982 69.034,107.602L69.034,101.412Z" style="fill-rule:nonzero;"/>
            <path d="M74.404,108.812C73.997,108.812 73.627,108.74 73.294,108.597C72.961,108.454 72.676,108.259 72.439,108.012C72.202,107.765 72.019,107.479 71.889,107.152C71.759,106.825 71.694,106.479 71.694,106.112C71.694,105.745 71.759,105.397 71.889,105.067C72.019,104.737 72.202,104.447 72.439,104.197C72.676,103.947 72.961,103.75 73.294,103.607C73.627,103.464 74.001,103.392 74.414,103.392C74.821,103.392 75.189,103.465 75.519,103.612C75.849,103.759 76.131,103.954 76.364,104.197C76.597,104.44 76.776,104.724 76.899,105.047C77.022,105.37 77.084,105.709 77.084,106.062C77.084,106.142 77.081,106.217 77.074,106.287C77.067,106.357 77.061,106.415 77.054,106.462L72.864,106.462C72.884,106.695 72.939,106.905 73.029,107.092C73.119,107.279 73.236,107.44 73.379,107.577C73.522,107.714 73.686,107.819 73.869,107.892C74.052,107.965 74.244,108.002 74.444,108.002C74.591,108.002 74.736,107.984 74.879,107.947C75.022,107.91 75.154,107.857 75.274,107.787C75.394,107.717 75.501,107.632 75.594,107.532C75.687,107.432 75.761,107.322 75.814,107.202L76.754,107.472C76.574,107.865 76.276,108.187 75.859,108.437C75.442,108.687 74.957,108.812 74.404,108.812ZM75.994,105.702C75.974,105.482 75.919,105.279 75.829,105.092C75.739,104.905 75.624,104.747 75.484,104.617C75.344,104.487 75.181,104.385 74.994,104.312C74.807,104.239 74.611,104.202 74.404,104.202C74.197,104.202 74.002,104.239 73.819,104.312C73.636,104.385 73.474,104.487 73.334,104.617C73.194,104.747 73.081,104.905 72.994,105.092C72.907,105.279 72.854,105.482 72.834,105.702L75.994,105.702Z" style="fill-rule:nonzero;"/>
            <path d="M79.374,108.812C79.121,108.812 78.886,108.77 78.669,108.687C78.452,108.604 78.266,108.489 78.109,108.342C77.952,108.195 77.829,108.022 77.739,107.822C77.649,107.622 77.604,107.405 77.604,107.172C77.604,106.925 77.657,106.702 77.764,106.502C77.871,106.302 78.022,106.129 78.219,105.982C78.416,105.835 78.649,105.722 78.919,105.642C79.189,105.562 79.487,105.522 79.814,105.522C80.061,105.522 80.304,105.544 80.544,105.587C80.784,105.63 81.001,105.689 81.194,105.762L81.194,105.402C81.194,105.015 81.084,104.714 80.864,104.497C80.644,104.28 80.327,104.172 79.914,104.172C79.634,104.172 79.359,104.224 79.089,104.327C78.819,104.43 78.541,104.579 78.254,104.772L77.914,104.072C78.587,103.619 79.287,103.392 80.014,103.392C80.734,103.392 81.294,103.575 81.694,103.942C82.094,104.309 82.294,104.835 82.294,105.522L82.294,107.412C82.294,107.645 82.391,107.765 82.584,107.772L82.584,108.712C82.477,108.732 82.386,108.745 82.309,108.752C82.232,108.759 82.157,108.762 82.084,108.762C81.871,108.762 81.706,108.709 81.589,108.602C81.472,108.495 81.401,108.359 81.374,108.192L81.344,107.862C81.111,108.169 80.822,108.404 80.479,108.567C80.136,108.73 79.767,108.812 79.374,108.812ZM79.674,108.002C79.941,108.002 80.192,107.954 80.429,107.857C80.666,107.76 80.851,107.625 80.984,107.452C81.124,107.332 81.194,107.205 81.194,107.072L81.194,106.382C81.007,106.309 80.809,106.252 80.599,106.212C80.389,106.172 80.184,106.152 79.984,106.152C79.591,106.152 79.269,106.237 79.019,106.407C78.769,106.577 78.644,106.802 78.644,107.082C78.644,107.342 78.741,107.56 78.934,107.737C79.127,107.914 79.374,108.002 79.674,108.002Z" style="fill-rule:nonzero;"/>
            <path d="M86.564,104.432C86.137,104.445 85.759,104.544 85.429,104.727C85.099,104.91 84.864,105.172 84.724,105.512L84.724,108.712L83.624,108.712L83.624,103.482L84.644,103.482L84.644,104.652C84.824,104.292 85.059,104.004 85.349,103.787C85.639,103.57 85.951,103.452 86.284,103.432C86.351,103.432 86.406,103.432 86.449,103.432C86.492,103.432 86.531,103.435 86.564,103.442L86.564,104.432Z" style="fill-rule:nonzero;"/>
        </g>
        <g transform="matrix(1,0,0,1,-4.79766,740.741)">
            <rect x="28.138" y="129.256" width="2.99" height="0.99"/>
            <path d="M36.538,130.196L32.328,132.696L32.328,131.476L34.938,129.896L32.328,128.276L32.328,127.106L36.538,129.646L36.538,130.196Z" style="fill-rule:nonzero;"/>
            <path d="M42.118,129.866C42.118,129.499 42.181,129.153 42.308,128.826C42.434,128.499 42.616,128.213 42.853,127.966C43.089,127.719 43.374,127.524 43.708,127.381C44.041,127.238 44.414,127.166 44.828,127.166C45.368,127.166 45.833,127.284 46.223,127.521C46.613,127.758 46.904,128.073 47.098,128.466L46.028,128.806C45.901,128.586 45.731,128.414 45.518,128.291C45.304,128.168 45.068,128.106 44.808,128.106C44.588,128.106 44.383,128.149 44.193,128.236C44.003,128.323 43.838,128.444 43.698,128.601C43.558,128.758 43.448,128.943 43.368,129.156C43.288,129.369 43.248,129.606 43.248,129.866C43.248,130.119 43.289,130.354 43.373,130.571C43.456,130.788 43.569,130.976 43.713,131.136C43.856,131.296 44.023,131.421 44.213,131.511C44.403,131.601 44.604,131.646 44.818,131.646C44.951,131.646 45.084,131.628 45.218,131.591C45.351,131.554 45.473,131.503 45.583,131.436C45.693,131.369 45.789,131.293 45.873,131.206C45.956,131.119 46.018,131.026 46.058,130.926L47.138,131.246C46.964,131.639 46.674,131.961 46.268,132.211C45.861,132.461 45.381,132.586 44.828,132.586C44.421,132.586 44.051,132.513 43.718,132.366C43.384,132.219 43.099,132.021 42.863,131.771C42.626,131.521 42.443,131.233 42.313,130.906C42.183,130.579 42.118,130.233 42.118,129.866Z" style="fill-rule:nonzero;"/>
            <path d="M49.448,132.486L47.448,127.256L48.578,127.256L50.078,131.556L51.588,127.256L52.628,127.256L50.628,132.486L49.448,132.486Z" style="fill-rule:nonzero;"/>
            <rect x="62.968" y="129.256" width="2.99" height="0.99"/>
            <path d="M71.368,130.196L67.158,132.696L67.158,131.476L69.768,129.896L67.158,128.276L67.158,127.106L71.368,129.646L71.368,130.196Z" style="fill-rule:nonzero;"/>
        </g>
        <g transform="matrix(1,0,0,1,-7.37233,756.84)">
            <rect x="29.81" y="142.088" width="2.99" height="0.99"/>
            <path d="M38.21,143.028L34,145.528L34,144.308L36.61,142.728L34,141.108L34,139.938L38.21,142.478L38.21,143.028Z" style="fill-rule:nonzero;"/>
            <path d="M43.73,145.368C43.377,145.368 43.054,145.296 42.76,145.153C42.467,145.009 42.215,144.814 42.005,144.568C41.795,144.321 41.632,144.038 41.515,143.718C41.399,143.398 41.34,143.061 41.34,142.708C41.34,142.334 41.4,141.983 41.52,141.653C41.64,141.323 41.807,141.036 42.02,140.793C42.234,140.549 42.489,140.356 42.785,140.213C43.082,140.069 43.41,139.998 43.77,139.998C44.19,139.998 44.559,140.098 44.875,140.298C45.192,140.498 45.454,140.758 45.66,141.078L45.66,140.088L46.63,140.088L46.63,145.168C46.63,145.548 46.56,145.884 46.42,146.178C46.28,146.471 46.085,146.719 45.835,146.923C45.585,147.126 45.29,147.281 44.95,147.388C44.61,147.494 44.244,147.548 43.85,147.548C43.27,147.548 42.789,147.449 42.405,147.253C42.022,147.056 41.7,146.781 41.44,146.428L42.06,145.848C42.26,146.128 42.519,146.341 42.835,146.488C43.152,146.634 43.49,146.708 43.85,146.708C44.077,146.708 44.292,146.678 44.495,146.618C44.699,146.558 44.877,146.464 45.03,146.338C45.184,146.211 45.305,146.051 45.395,145.858C45.485,145.664 45.53,145.434 45.53,145.168L45.53,144.368C45.344,144.688 45.087,144.934 44.76,145.108C44.434,145.281 44.09,145.368 43.73,145.368ZM44.09,144.478C44.257,144.478 44.417,144.449 44.57,144.393C44.724,144.336 44.865,144.259 44.995,144.163C45.125,144.066 45.237,143.956 45.33,143.833C45.424,143.709 45.49,143.578 45.53,143.438L45.53,142.068C45.464,141.901 45.377,141.749 45.27,141.613C45.164,141.476 45.042,141.358 44.905,141.258C44.769,141.158 44.624,141.079 44.47,141.023C44.317,140.966 44.164,140.938 44.01,140.938C43.77,140.938 43.555,140.989 43.365,141.093C43.175,141.196 43.014,141.333 42.88,141.503C42.747,141.673 42.644,141.864 42.57,142.078C42.497,142.291 42.46,142.511 42.46,142.738C42.46,142.978 42.502,143.203 42.585,143.413C42.669,143.623 42.784,143.806 42.93,143.963C43.077,144.119 43.249,144.244 43.445,144.338C43.642,144.431 43.857,144.478 44.09,144.478Z" style="fill-rule:nonzero;"/>
            <path d="M49.34,145.418C49.087,145.418 48.852,145.376 48.635,145.293C48.419,145.209 48.232,145.094 48.075,144.948C47.919,144.801 47.795,144.628 47.705,144.428C47.615,144.228 47.57,144.011 47.57,143.778C47.57,143.531 47.624,143.308 47.73,143.108C47.837,142.908 47.989,142.734 48.185,142.588C48.382,142.441 48.615,142.328 48.885,142.248C49.155,142.168 49.454,142.128 49.78,142.128C50.027,142.128 50.27,142.149 50.51,142.193C50.75,142.236 50.967,142.294 51.16,142.368L51.16,142.008C51.16,141.621 51.05,141.319 50.83,141.103C50.61,140.886 50.294,140.778 49.88,140.778C49.6,140.778 49.325,140.829 49.055,140.933C48.785,141.036 48.507,141.184 48.22,141.378L47.88,140.678C48.554,140.224 49.254,139.998 49.98,139.998C50.7,139.998 51.26,140.181 51.66,140.548C52.06,140.914 52.26,141.441 52.26,142.128L52.26,144.018C52.26,144.251 52.357,144.371 52.55,144.378L52.55,145.318C52.444,145.338 52.352,145.351 52.275,145.358C52.199,145.364 52.124,145.368 52.05,145.368C51.837,145.368 51.672,145.314 51.555,145.208C51.439,145.101 51.367,144.964 51.34,144.798L51.31,144.468C51.077,144.774 50.789,145.009 50.445,145.173C50.102,145.336 49.734,145.418 49.34,145.418ZM49.64,144.608C49.907,144.608 50.159,144.559 50.395,144.463C50.632,144.366 50.817,144.231 50.95,144.058C51.09,143.938 51.16,143.811 51.16,143.678L51.16,142.988C50.974,142.914 50.775,142.858 50.565,142.818C50.355,142.778 50.15,142.758 49.95,142.758C49.557,142.758 49.235,142.843 48.985,143.013C48.735,143.183 48.61,143.408 48.61,143.688C48.61,143.948 48.707,144.166 48.9,144.343C49.094,144.519 49.34,144.608 49.64,144.608Z" style="fill-rule:nonzero;"/>
            <path d="M56.46,145.048C56.32,145.114 56.127,145.189 55.88,145.273C55.634,145.356 55.37,145.398 55.09,145.398C54.917,145.398 54.754,145.374 54.6,145.328C54.447,145.281 54.312,145.211 54.195,145.118C54.079,145.024 53.987,144.903 53.92,144.753C53.854,144.603 53.82,144.421 53.82,144.208L53.82,140.938L53.13,140.938L53.13,140.088L53.82,140.088L53.82,138.368L54.92,138.368L54.92,140.088L56.06,140.088L56.06,140.938L54.92,140.938L54.92,143.858C54.934,144.044 54.992,144.179 55.095,144.263C55.199,144.346 55.327,144.388 55.48,144.388C55.634,144.388 55.78,144.361 55.92,144.308C56.06,144.254 56.164,144.211 56.23,144.178L56.46,145.048Z" style="fill-rule:nonzero;"/>
            <path d="M59.46,145.418C59.054,145.418 58.684,145.346 58.35,145.203C58.017,145.059 57.732,144.864 57.495,144.618C57.259,144.371 57.075,144.084 56.945,143.758C56.815,143.431 56.75,143.084 56.75,142.718C56.75,142.351 56.815,142.003 56.945,141.673C57.075,141.343 57.259,141.053 57.495,140.803C57.732,140.553 58.017,140.356 58.35,140.213C58.684,140.069 59.057,139.998 59.47,139.998C59.877,139.998 60.245,140.071 60.575,140.218C60.905,140.364 61.187,140.559 61.42,140.803C61.654,141.046 61.832,141.329 61.955,141.653C62.079,141.976 62.14,142.314 62.14,142.668C62.14,142.748 62.137,142.823 62.13,142.893C62.124,142.963 62.117,143.021 62.11,143.068L57.92,143.068C57.94,143.301 57.995,143.511 58.085,143.698C58.175,143.884 58.292,144.046 58.435,144.183C58.579,144.319 58.742,144.424 58.925,144.498C59.109,144.571 59.3,144.608 59.5,144.608C59.647,144.608 59.792,144.589 59.935,144.553C60.079,144.516 60.21,144.463 60.33,144.393C60.45,144.323 60.557,144.238 60.65,144.138C60.744,144.038 60.817,143.928 60.87,143.808L61.81,144.078C61.63,144.471 61.332,144.793 60.915,145.043C60.499,145.293 60.014,145.418 59.46,145.418ZM61.05,142.308C61.03,142.088 60.975,141.884 60.885,141.698C60.795,141.511 60.68,141.353 60.54,141.223C60.4,141.093 60.237,140.991 60.05,140.918C59.864,140.844 59.667,140.808 59.46,140.808C59.254,140.808 59.059,140.844 58.875,140.918C58.692,140.991 58.53,141.093 58.39,141.223C58.25,141.353 58.137,141.511 58.05,141.698C57.964,141.884 57.91,142.088 57.89,142.308L61.05,142.308Z" style="fill-rule:nonzero;"/>
            <rect x="65.46" y="142.088" width="2.99" height="0.99"/>
            <path d="M73.86,143.028L69.65,145.528L69.65,144.308L72.26,142.728L69.65,141.108L69.65,139.938L73.86,142.478L73.86,143.028Z" style="fill-rule:nonzero;"/>
        </g>
        <g transform="matrix(0.499228,-0.866471,0.866471,0.499228,-84.0238,936.388)">
            <path d="M12.796,108.813C12.37,108.826 11.991,108.924 11.661,109.108C11.331,109.291 11.096,109.553 10.956,109.893L10.956,113.093L9.856,113.093L9.856,107.863L10.876,107.863L10.876,109.033C11.056,108.673 11.291,108.384 11.581,108.168C11.871,107.951 12.183,107.833 12.516,107.813C12.583,107.813 12.638,107.813 12.681,107.813C12.725,107.813 12.763,107.816 12.796,107.823L12.796,108.813Z" style="fill-rule:nonzero;"/>
            <path d="M15.706,113.193C15.3,113.193 14.93,113.121 14.596,112.978C14.263,112.834 13.978,112.639 13.741,112.393C13.505,112.146 13.321,111.859 13.191,111.533C13.061,111.206 12.996,110.859 12.996,110.493C12.996,110.126 13.061,109.778 13.191,109.448C13.321,109.118 13.505,108.828 13.741,108.578C13.978,108.328 14.263,108.131 14.596,107.988C14.93,107.844 15.303,107.773 15.716,107.773C16.123,107.773 16.491,107.846 16.821,107.993C17.151,108.139 17.433,108.334 17.666,108.578C17.9,108.821 18.078,109.104 18.201,109.428C18.325,109.751 18.386,110.089 18.386,110.443C18.386,110.523 18.383,110.598 18.376,110.668C18.37,110.738 18.363,110.796 18.356,110.843L14.166,110.843C14.186,111.076 14.241,111.286 14.331,111.473C14.421,111.659 14.538,111.821 14.681,111.958C14.825,112.094 14.988,112.199 15.171,112.273C15.355,112.346 15.546,112.383 15.746,112.383C15.893,112.383 16.038,112.364 16.181,112.328C16.325,112.291 16.456,112.238 16.576,112.168C16.696,112.098 16.803,112.013 16.896,111.913C16.99,111.813 17.063,111.703 17.116,111.583L18.056,111.853C17.876,112.246 17.578,112.568 17.161,112.818C16.745,113.068 16.26,113.193 15.706,113.193ZM17.296,110.083C17.276,109.863 17.221,109.659 17.131,109.473C17.041,109.286 16.926,109.128 16.786,108.998C16.646,108.868 16.483,108.766 16.296,108.693C16.11,108.619 15.913,108.583 15.706,108.583C15.5,108.583 15.305,108.619 15.121,108.693C14.938,108.766 14.776,108.868 14.636,108.998C14.496,109.128 14.383,109.286 14.296,109.473C14.21,109.659 14.156,109.863 14.136,110.083L17.296,110.083Z" style="fill-rule:nonzero;"/>
            <path d="M18.946,110.473C18.946,110.106 19.01,109.759 19.136,109.433C19.263,109.106 19.445,108.819 19.681,108.573C19.918,108.326 20.203,108.131 20.536,107.988C20.87,107.844 21.243,107.773 21.656,107.773C22.196,107.773 22.661,107.891 23.051,108.128C23.441,108.364 23.733,108.679 23.926,109.073L22.856,109.413C22.73,109.193 22.56,109.021 22.346,108.898C22.133,108.774 21.896,108.713 21.636,108.713C21.416,108.713 21.211,108.756 21.021,108.843C20.831,108.929 20.666,109.051 20.526,109.208C20.386,109.364 20.276,109.549 20.196,109.763C20.116,109.976 20.076,110.213 20.076,110.473C20.076,110.726 20.118,110.961 20.201,111.178C20.285,111.394 20.398,111.583 20.541,111.743C20.685,111.903 20.851,112.028 21.041,112.118C21.231,112.208 21.433,112.253 21.646,112.253C21.78,112.253 21.913,112.234 22.046,112.198C22.18,112.161 22.301,112.109 22.411,112.043C22.521,111.976 22.618,111.899 22.701,111.813C22.785,111.726 22.846,111.633 22.886,111.533L23.966,111.853C23.793,112.246 23.503,112.568 23.096,112.818C22.69,113.068 22.21,113.193 21.656,113.193C21.25,113.193 20.88,113.119 20.546,112.973C20.213,112.826 19.928,112.628 19.691,112.378C19.455,112.128 19.271,111.839 19.141,111.513C19.011,111.186 18.946,110.839 18.946,110.473Z" style="fill-rule:nonzero;"/>
        </g>
        <g transform="matrix(0.491577,-0.870834,0.870834,0.491577,-57.9846,960.02)">
            <path d="M36.098,111.133C35.744,111.133 35.418,111.061 35.118,110.918C34.818,110.774 34.558,110.579 34.338,110.333C34.118,110.086 33.946,109.798 33.823,109.468C33.699,109.138 33.638,108.783 33.638,108.403C33.638,108.036 33.696,107.691 33.813,107.368C33.929,107.044 34.093,106.759 34.303,106.513C34.513,106.266 34.759,106.071 35.043,105.928C35.326,105.784 35.638,105.713 35.978,105.713C36.398,105.713 36.768,105.814 37.088,106.018C37.408,106.221 37.658,106.479 37.838,106.793L37.838,103.733L38.938,103.733L38.938,109.733C38.938,109.859 38.959,109.949 39.003,110.003C39.046,110.056 39.124,110.086 39.238,110.093L39.238,111.033C39.124,111.053 39.033,111.066 38.963,111.073C38.893,111.079 38.834,111.083 38.788,111.083C38.568,111.083 38.388,111.026 38.248,110.913C38.108,110.799 38.031,110.653 38.018,110.473L37.998,110.083C37.804,110.409 37.541,110.666 37.208,110.853C36.874,111.039 36.504,111.133 36.098,111.133ZM36.368,110.193C36.528,110.193 36.688,110.166 36.848,110.113C37.008,110.059 37.154,109.986 37.288,109.893C37.421,109.799 37.536,109.689 37.633,109.563C37.729,109.436 37.798,109.299 37.838,109.153L37.838,107.783C37.778,107.616 37.693,107.463 37.583,107.323C37.473,107.183 37.348,107.063 37.208,106.963C37.068,106.863 36.919,106.786 36.763,106.733C36.606,106.679 36.448,106.653 36.288,106.653C36.068,106.653 35.866,106.703 35.683,106.803C35.499,106.903 35.341,107.036 35.208,107.203C35.074,107.369 34.969,107.559 34.893,107.773C34.816,107.986 34.778,108.206 34.778,108.433C34.778,108.673 34.819,108.899 34.903,109.113C34.986,109.326 35.101,109.513 35.248,109.673C35.394,109.833 35.563,109.959 35.753,110.053C35.943,110.146 36.148,110.193 36.368,110.193Z" style="fill-rule:nonzero;"/>
            <path d="M41.948,111.133C41.401,111.133 40.988,110.954 40.708,110.598C40.428,110.241 40.288,109.709 40.288,109.003L40.288,105.803L41.388,105.803L41.388,108.783C41.388,109.723 41.721,110.193 42.388,110.193C42.701,110.193 42.998,110.096 43.278,109.903C43.558,109.709 43.774,109.429 43.928,109.063L43.928,105.803L45.028,105.803L45.028,109.733C45.028,109.859 45.049,109.949 45.093,110.003C45.136,110.056 45.214,110.086 45.328,110.093L45.328,111.033C45.214,111.053 45.121,111.066 45.048,111.073C44.974,111.079 44.904,111.083 44.838,111.083C44.638,111.083 44.468,111.028 44.328,110.918C44.188,110.808 44.114,110.666 44.108,110.493L44.088,109.973C43.854,110.353 43.551,110.641 43.178,110.838C42.804,111.034 42.394,111.133 41.948,111.133Z" style="fill-rule:nonzero;"/>
            <path d="M49.248,111.133C48.848,111.133 48.486,111.038 48.163,110.848C47.839,110.658 47.584,110.403 47.398,110.083L47.398,111.033L46.428,111.033L46.428,103.733L47.528,103.733L47.528,106.793C47.734,106.459 47.993,106.196 48.303,106.003C48.613,105.809 48.978,105.713 49.398,105.713C49.744,105.713 50.061,105.788 50.348,105.938C50.634,106.088 50.879,106.288 51.083,106.538C51.286,106.788 51.443,107.078 51.553,107.408C51.663,107.738 51.718,108.083 51.718,108.443C51.718,108.816 51.654,109.166 51.528,109.493C51.401,109.819 51.228,110.104 51.008,110.348C50.788,110.591 50.526,110.783 50.223,110.923C49.919,111.063 49.594,111.133 49.248,111.133ZM48.958,110.193C49.198,110.193 49.418,110.144 49.618,110.048C49.818,109.951 49.989,109.823 50.133,109.663C50.276,109.503 50.388,109.318 50.468,109.108C50.548,108.898 50.588,108.676 50.588,108.443C50.588,108.209 50.549,107.984 50.473,107.768C50.396,107.551 50.289,107.361 50.153,107.198C50.016,107.034 49.853,106.903 49.663,106.803C49.473,106.703 49.264,106.653 49.038,106.653C48.698,106.653 48.396,106.763 48.133,106.983C47.869,107.203 47.668,107.469 47.528,107.783L47.528,109.163C47.568,109.316 47.638,109.454 47.738,109.578C47.838,109.701 47.954,109.809 48.088,109.903C48.221,109.996 48.364,110.068 48.518,110.118C48.671,110.168 48.818,110.193 48.958,110.193Z" style="fill-rule:nonzero;"/>
        </g>
        <g transform="matrix(0.498475,-0.866904,0.866904,0.498475,-31.0871,985.943)">
            <path d="M63.094,106.092C63.094,105.725 63.157,105.379 63.284,105.052C63.411,104.725 63.592,104.439 63.829,104.192C64.066,103.945 64.351,103.75 64.684,103.607C65.017,103.464 65.391,103.392 65.804,103.392C66.344,103.392 66.809,103.51 67.199,103.747C67.589,103.984 67.881,104.299 68.074,104.692L67.004,105.032C66.877,104.812 66.707,104.64 66.494,104.517C66.281,104.394 66.044,104.332 65.784,104.332C65.564,104.332 65.359,104.375 65.169,104.462C64.979,104.549 64.814,104.67 64.674,104.827C64.534,104.984 64.424,105.169 64.344,105.382C64.264,105.595 64.224,105.832 64.224,106.092C64.224,106.345 64.266,106.58 64.349,106.797C64.432,107.014 64.546,107.202 64.689,107.362C64.832,107.522 64.999,107.647 65.189,107.737C65.379,107.827 65.581,107.872 65.794,107.872C65.927,107.872 66.061,107.854 66.194,107.817C66.327,107.78 66.449,107.729 66.559,107.662C66.669,107.595 66.766,107.519 66.849,107.432C66.932,107.345 66.994,107.252 67.034,107.152L68.114,107.472C67.941,107.865 67.651,108.187 67.244,108.437C66.837,108.687 66.357,108.812 65.804,108.812C65.397,108.812 65.027,108.739 64.694,108.592C64.361,108.445 64.076,108.247 63.839,107.997C63.602,107.747 63.419,107.459 63.289,107.132C63.159,106.805 63.094,106.459 63.094,106.092Z" style="fill-rule:nonzero;"/>
            <path d="M69.034,101.412L70.134,101.412L70.134,107.202C70.134,107.395 70.184,107.547 70.284,107.657C70.384,107.767 70.524,107.822 70.704,107.822C70.777,107.822 70.862,107.809 70.959,107.782C71.056,107.755 71.147,107.725 71.234,107.692L71.394,108.552C71.234,108.625 71.044,108.684 70.824,108.727C70.604,108.77 70.407,108.792 70.234,108.792C69.854,108.792 69.559,108.689 69.349,108.482C69.139,108.275 69.034,107.982 69.034,107.602L69.034,101.412Z" style="fill-rule:nonzero;"/>
            <path d="M74.404,108.812C73.997,108.812 73.627,108.74 73.294,108.597C72.961,108.454 72.676,108.259 72.439,108.012C72.202,107.765 72.019,107.479 71.889,107.152C71.759,106.825 71.694,106.479 71.694,106.112C71.694,105.745 71.759,105.397 71.889,105.067C72.019,104.737 72.202,104.447 72.439,104.197C72.676,103.947 72.961,103.75 73.294,103.607C73.627,103.464 74.001,103.392 74.414,103.392C74.821,103.392 75.189,103.465 75.519,103.612C75.849,103.759 76.131,103.954 76.364,104.197C76.597,104.44 76.776,104.724 76.899,105.047C77.022,105.37 77.084,105.709 77.084,106.062C77.084,106.142 77.081,106.217 77.074,106.287C77.067,106.357 77.061,106.415 77.054,106.462L72.864,106.462C72.884,106.695 72.939,106.905 73.029,107.092C73.119,107.279 73.236,107.44 73.379,107.577C73.522,107.714 73.686,107.819 73.869,107.892C74.052,107.965 74.244,108.002 74.444,108.002C74.591,108.002 74.736,107.984 74.879,107.947C75.022,107.91 75.154,107.857 75.274,107.787C75.394,107.717 75.501,107.632 75.594,107.532C75.687,107.432 75.761,107.322 75.814,107.202L76.754,107.472C76.574,107.865 76.276,108.187 75.859,108.437C75.442,108.687 74.957,108.812 74.404,108.812ZM75.994,105.702C75.974,105.482 75.919,105.279 75.829,105.092C75.739,104.905 75.624,104.747 75.484,104.617C75.344,104.487 75.181,104.385 74.994,104.312C74.807,104.239 74.611,104.202 74.404,104.202C74.197,104.202 74.002,104.239 73.819,104.312C73.636,104.385 73.474,104.487 73.334,104.617C73.194,104.747 73.081,104.905 72.994,105.092C72.907,105.279 72.854,105.482 72.834,105.702L75.994,105.702Z" style="fill-rule:nonzero;"/>
            <path d="M79.374,108.812C79.121,108.812 78.886,108.77 78.669,108.687C78.452,108.604 78.266,108.489 78.109,108.342C77.952,108.195 77.829,108.022 77.739,107.822C77.649,107.622 77.604,107.405 77.604,107.172C77.604,106.925 77.657,106.702 77.764,106.502C77.871,106.302 78.022,106.129 78.219,105.982C78.416,105.835 78.649,105.722 78.919,105.642C79.189,105.562 79.487,105.522 79.814,105.522C80.061,105.522 80.304,105.544 80.544,105.587C80.784,105.63 81.001,105.689 81.194,105.762L81.194,105.402C81.194,105.015 81.084,104.714 80.864,104.497C80.644,104.28 80.327,104.172 79.914,104.172C79.634,104.172 79.359,104.224 79.089,104.327C78.819,104.43 78.541,104.579 78.254,104.772L77.914,104.072C78.587,103.619 79.287,103.392 80.014,103.392C80.734,103.392 81.294,103.575 81.694,103.942C82.094,104.309 82.294,104.835 82.294,105.522L82.294,107.412C82.294,107.645 82.391,107.765 82.584,107.772L82.584,108.712C82.477,108.732 82.386,108.745 82.309,108.752C82.232,108.759 82.157,108.762 82.084,108.762C81.871,108.762 81.706,108.709 81.589,108.602C81.472,108.495 81.401,108.359 81.374,108.192L81.344,107.862C81.111,108.169 80.822,108.404 80.479,108.567C80.136,108.73 79.767,108.812 79.374,108.812ZM79.674,108.002C79.941,108.002 80.192,107.954 80.429,107.857C80.666,107.76 80.851,107.625 80.984,107.452C81.124,107.332 81.194,107.205 81.194,107.072L81.194,106.382C81.007,106.309 80.809,106.252 80.599,106.212C80.389,106.172 80.184,106.152 79.984,106.152C79.591,106.152 79.269,106.237 79.019,106.407C78.769,106.577 78.644,106.802 78.644,107.082C78.644,107.342 78.741,107.56 78.934,107.737C79.127,107.914 79.374,108.002 79.674,108.002Z" style="fill-rule:nonzero;"/>
            <path d="M86.564,104.432C86.137,104.445 85.759,104.544 85.429,104.727C85.099,104.91 84.864,105.172 84.724,105.512L84.724,108.712L83.624,108.712L83.624,103.482L84.644,103.482L84.644,104.652C84.824,104.292 85.059,104.004 85.349,103.787C85.639,103.57 85.951,103.452 86.284,103.432C86.351,103.432 86.406,103.432 86.449,103.432C86.492,103.432 86.531,103.435 86.564,103.442L86.564,104.432Z" style="fill-rule:nonzero;"/>
        </g>
        <g transform="matrix(1,0,0,1,-4.79766,895.741)">
            <rect x="28.138" y="129.256" width="2.99" height="0.99"/>
            <path d="M36.538,130.196L32.328,132.696L32.328,131.476L34.938,129.896L32.328,128.276L32.328,127.106L36.538,129.646L36.538,130.196Z" style="fill-rule:nonzero;"/>
            <path d="M42.118,129.866C42.118,129.499 42.181,129.153 42.308,128.826C42.434,128.499 42.616,128.213 42.853,127.966C43.089,127.719 43.374,127.524 43.708,127.381C44.041,127.238 44.414,127.166 44.828,127.166C45.368,127.166 45.833,127.284 46.223,127.521C46.613,127.758 46.904,128.073 47.098,128.466L46.028,128.806C45.901,128.586 45.731,128.414 45.518,128.291C45.304,128.168 45.068,128.106 44.808,128.106C44.588,128.106 44.383,128.149 44.193,128.236C44.003,128.323 43.838,128.444 43.698,128.601C43.558,128.758 43.448,128.943 43.368,129.156C43.288,129.369 43.248,129.606 43.248,129.866C43.248,130.119 43.289,130.354 43.373,130.571C43.456,130.788 43.569,130.976 43.713,131.136C43.856,131.296 44.023,131.421 44.213,131.511C44.403,131.601 44.604,131.646 44.818,131.646C44.951,131.646 45.084,131.628 45.218,131.591C45.351,131.554 45.473,131.503 45.583,131.436C45.693,131.369 45.789,131.293 45.873,131.206C45.956,131.119 46.018,131.026 46.058,130.926L47.138,131.246C46.964,131.639 46.674,131.961 46.268,132.211C45.861,132.461 45.381,132.586 44.828,132.586C44.421,132.586 44.051,132.513 43.718,132.366C43.384,132.219 43.099,132.021 42.863,131.771C42.626,131.521 42.443,131.233 42.313,130.906C42.183,130.579 42.118,130.233 42.118,129.866Z" style="fill-rule:nonzero;"/>
            <path d="M49.448,132.486L47.448,127.256L48.578,127.256L50.078,131.556L51.588,127.256L52.628,127.256L50.628,132.486L49.448,132.486Z" style="fill-rule:nonzero;"/>
            <rect x="62.968" y="129.256" width="2.99" height="0.99"/>
            <path d="M71.368,130.196L67.158,132.696L67.158,131.476L69.768,129.896L67.158,128.276L67.158,127.106L71.368,129.646L71.368,130.196Z" style="fill-rule:nonzero;"/>
        </g>
        <g transform="matrix(1,0,0,1,-7.37233,911.84)">
            <rect x="29.81" y="142.088" width="2.99" height="0.99"/>
            <path d="M38.21,143.028L34,145.528L34,144.308L36.61,142.728L34,141.108L34,139.938L38.21,142.478L38.21,143.028Z" style="fill-rule:nonzero;"/>
            <path d="M43.73,145.368C43.377,145.368 43.054,145.296 42.76,145.153C42.467,145.009 42.215,144.814 42.005,144.568C41.795,144.321 41.632,144.038 41.515,143.718C41.399,143.398 41.34,143.061 41.34,142.708C41.34,142.334 41.4,141.983 41.52,141.653C41.64,141.323 41.807,141.036 42.02,140.793C42.234,140.549 42.489,140.356 42.785,140.213C43.082,140.069 43.41,139.998 43.77,139.998C44.19,139.998 44.559,140.098 44.875,140.298C45.192,140.498 45.454,140.758 45.66,141.078L45.66,140.088L46.63,140.088L46.63,145.168C46.63,145.548 46.56,145.884 46.42,146.178C46.28,146.471 46.085,146.719 45.835,146.923C45.585,147.126 45.29,147.281 44.95,147.388C44.61,147.494 44.244,147.548 43.85,147.548C43.27,147.548 42.789,147.449 42.405,147.253C42.022,147.056 41.7,146.781 41.44,146.428L42.06,145.848C42.26,146.128 42.519,146.341 42.835,146.488C43.152,146.634 43.49,146.708 43.85,146.708C44.077,146.708 44.292,146.678 44.495,146.618C44.699,146.558 44.877,146.464 45.03,146.338C45.184,146.211 45.305,146.051 45.395,145.858C45.485,145.664 45.53,145.434 45.53,145.168L45.53,144.368C45.344,144.688 45.087,144.934 44.76,145.108C44.434,145.281 44.09,145.368 43.73,145.368ZM44.09,144.478C44.257,144.478 44.417,144.449 44.57,144.393C44.724,144.336 44.865,144.259 44.995,144.163C45.125,144.066 45.237,143.956 45.33,143.833C45.424,143.709 45.49,143.578 45.53,143.438L45.53,142.068C45.464,141.901 45.377,141.749 45.27,141.613C45.164,141.476 45.042,141.358 44.905,141.258C44.769,141.158 44.624,141.079 44.47,141.023C44.317,140.966 44.164,140.938 44.01,140.938C43.77,140.938 43.555,140.989 43.365,141.093C43.175,141.196 43.014,141.333 42.88,141.503C42.747,141.673 42.644,141.864 42.57,142.078C42.497,142.291 42.46,142.511 42.46,142.738C42.46,142.978 42.502,143.203 42.585,143.413C42.669,143.623 42.784,143.806 42.93,143.963C43.077,144.119 43.249,144.244 43.445,144.338C43.642,144.431 43.857,144.478 44.09,144.478Z" style="fill-rule:nonzero;"/>
            <path d="M49.34,145.418C49.087,145.418 48.852,145.376 48.635,145.293C48.419,145.209 48.232,145.094 48.075,144.948C47.919,144.801 47.795,144.628 47.705,144.428C47.615,144.228 47.57,144.011 47.57,143.778C47.57,143.531 47.624,143.308 47.73,143.108C47.837,142.908 47.989,142.734 48.185,142.588C48.382,142.441 48.615,142.328 48.885,142.248C49.155,142.168 49.454,142.128 49.78,142.128C50.027,142.128 50.27,142.149 50.51,142.193C50.75,142.236 50.967,142.294 51.16,142.368L51.16,142.008C51.16,141.621 51.05,141.319 50.83,141.103C50.61,140.886 50.294,140.778 49.88,140.778C49.6,140.778 49.325,140.829 49.055,140.933C48.785,141.036 48.507,141.184 48.22,141.378L47.88,140.678C48.554,140.224 49.254,139.998 49.98,139.998C50.7,139.998 51.26,140.181 51.66,140.548C52.06,140.914 52.26,141.441 52.26,142.128L52.26,144.018C52.26,144.251 52.357,144.371 52.55,144.378L52.55,145.318C52.444,145.338 52.352,145.351 52.275,145.358C52.199,145.364 52.124,145.368 52.05,145.368C51.837,145.368 51.672,145.314 51.555,145.208C51.439,145.101 51.367,144.964 51.34,144.798L51.31,144.468C51.077,144.774 50.789,145.009 50.445,145.173C50.102,145.336 49.734,145.418 49.34,145.418ZM49.64,144.608C49.907,144.608 50.159,144.559 50.395,144.463C50.632,144.366 50.817,144.231 50.95,144.058C51.09,143.938 51.16,143.811 51.16,143.678L51.16,142.988C50.974,142.914 50.775,142.858 50.565,142.818C50.355,142.778 50.15,142.758 49.95,142.758C49.557,142.758 49.235,142.843 48.985,143.013C48.735,143.183 48.61,143.408 48.61,143.688C48.61,143.948 48.707,144.166 48.9,144.343C49.094,144.519 49.34,144.608 49.64,144.608Z" style="fill-rule:nonzero;"/>
            <path d="M56.46,145.048C56.32,145.114 56.127,145.189 55.88,145.273C55.634,145.356 55.37,145.398 55.09,145.398C54.917,145.398 54.754,145.374 54.6,145.328C54.447,145.281 54.312,145.211 54.195,145.118C54.079,145.024 53.987,144.903 53.92,144.753C53.854,144.603 53.82,144.421 53.82,144.208L53.82,140.938L53.13,140.938L53.13,140.088L53.82,140.088L53.82,138.368L54.92,138.368L54.92,140.088L56.06,140.088L56.06,140.938L54.92,140.938L54.92,143.858C54.934,144.044 54.992,144.179 55.095,144.263C55.199,144.346 55.327,144.388 55.48,144.388C55.634,144.388 55.78,144.361 55.92,144.308C56.06,144.254 56.164,144.211 56.23,144.178L56.46,145.048Z" style="fill-rule:nonzero;"/>
            <path d="M59.46,145.418C59.054,145.418 58.684,145.346 58.35,145.203C58.017,145.059 57.732,144.864 57.495,144.618C57.259,144.371 57.075,144.084 56.945,143.758C56.815,143.431 56.75,143.084 56.75,142.718C56.75,142.351 56.815,142.003 56.945,141.673C57.075,141.343 57.259,141.053 57.495,140.803C57.732,140.553 58.017,140.356 58.35,140.213C58.684,140.069 59.057,139.998 59.47,139.998C59.877,139.998 60.245,140.071 60.575,140.218C60.905,140.364 61.187,140.559 61.42,140.803C61.654,141.046 61.832,141.329 61.955,141.653C62.079,141.976 62.14,142.314 62.14,142.668C62.14,142.748 62.137,142.823 62.13,142.893C62.124,142.963 62.117,143.021 62.11,143.068L57.92,143.068C57.94,143.301 57.995,143.511 58.085,143.698C58.175,143.884 58.292,144.046 58.435,144.183C58.579,144.319 58.742,144.424 58.925,144.498C59.109,144.571 59.3,144.608 59.5,144.608C59.647,144.608 59.792,144.589 59.935,144.553C60.079,144.516 60.21,144.463 60.33,144.393C60.45,144.323 60.557,144.238 60.65,144.138C60.744,144.038 60.817,143.928 60.87,143.808L61.81,144.078C61.63,144.471 61.332,144.793 60.915,145.043C60.499,145.293 60.014,145.418 59.46,145.418ZM61.05,142.308C61.03,142.088 60.975,141.884 60.885,141.698C60.795,141.511 60.68,141.353 60.54,141.223C60.4,141.093 60.237,140.991 60.05,140.918C59.864,140.844 59.667,140.808 59.46,140.808C59.254,140.808 59.059,140.844 58.875,140.918C58.692,140.991 58.53,141.093 58.39,141.223C58.25,141.353 58.137,141.511 58.05,141.698C57.964,141.884 57.91,142.088 57.89,142.308L61.05,142.308Z" style="fill-rule:nonzero;"/>
            <rect x="65.46" y="142.088" width="2.99" height="0.99"/>
            <path d="M73.86,143.028L69.65,145.528L69.65,144.308L72.26,142.728L69.65,141.108L69.65,139.938L73.86,142.478L73.86,143.028Z" style="fill-rule:nonzero;"/>
        </g>
    </g>
</svg>
