<?xml version="1.0" encoding="UTF-8" standalone="no"?>
<!DOCTYPE svg PUBLIC "-//W3C//DTD SVG 1.1//EN" "http://www.w3.org/Graphics/SVG/1.1/DTD/svg11.dtd">
<svg width="100%" height="100%" viewBox="0 0 180 380" version="1.1" xmlns="http://www.w3.org/2000/svg" xmlns:xlink="http://www.w3.org/1999/xlink" xml:space="preserve" xmlns:serif="http://www.serif.com/" style="fill-rule:evenodd;clip-rule:evenodd;stroke-linejoin:round;stroke-miterlimit:1.41421;">
    <g id="Layer-1" serif:id="Layer 1" transform="matrix(1,0,0,1,45,-742.52)">
        <g id="background" transform="matrix(2,0,0,1,-45,0.181716)">
            <rect x="0" y="742.52" width="90" height="380" style="fill:rgb(240,240,240);"/>
        </g>
        <g transform="matrix(1,0,0,1,-27.4948,729.951)">
            <path d="M50.491,39.034C50.064,39.047 49.686,39.146 49.356,39.329C49.026,39.512 48.791,39.774 48.651,40.114L48.651,43.314L47.551,43.314L47.551,38.084L48.571,38.084L48.571,39.254C48.751,38.894 48.986,38.606 49.276,38.389C49.566,38.172 49.877,38.054 50.211,38.034C50.277,38.034 50.332,38.034 50.376,38.034C50.419,38.034 50.457,38.037 50.491,38.044L50.491,39.034Z" style="fill-rule:nonzero;"/>
            <path d="M53.401,43.414C52.994,43.414 52.624,43.342 52.291,43.199C51.957,43.056 51.672,42.861 51.436,42.614C51.199,42.367 51.016,42.081 50.886,41.754C50.756,41.427 50.691,41.081 50.691,40.714C50.691,40.347 50.756,39.999 50.886,39.669C51.016,39.339 51.199,39.049 51.436,38.799C51.672,38.549 51.957,38.352 52.291,38.209C52.624,38.066 52.997,37.994 53.411,37.994C53.817,37.994 54.186,38.067 54.516,38.214C54.846,38.361 55.127,38.556 55.361,38.799C55.594,39.042 55.772,39.326 55.896,39.649C56.019,39.972 56.081,40.311 56.081,40.664C56.081,40.744 56.077,40.819 56.071,40.889C56.064,40.959 56.057,41.017 56.051,41.064L51.861,41.064C51.881,41.297 51.936,41.507 52.026,41.694C52.116,41.881 52.232,42.042 52.376,42.179C52.519,42.316 52.682,42.421 52.866,42.494C53.049,42.567 53.241,42.604 53.441,42.604C53.587,42.604 53.732,42.586 53.876,42.549C54.019,42.512 54.151,42.459 54.271,42.389C54.391,42.319 54.497,42.234 54.591,42.134C54.684,42.034 54.757,41.924 54.811,41.804L55.751,42.074C55.571,42.467 55.272,42.789 54.856,43.039C54.439,43.289 53.954,43.414 53.401,43.414ZM54.991,40.304C54.971,40.084 54.916,39.881 54.826,39.694C54.736,39.507 54.621,39.349 54.481,39.219C54.341,39.089 54.177,38.987 53.991,38.914C53.804,38.841 53.607,38.804 53.401,38.804C53.194,38.804 52.999,38.841 52.816,38.914C52.632,38.987 52.471,39.089 52.331,39.219C52.191,39.349 52.077,39.507 51.991,39.694C51.904,39.881 51.851,40.084 51.831,40.304L54.991,40.304Z" style="fill-rule:nonzero;"/>
            <path d="M58.881,43.414C58.461,43.414 58.042,43.346 57.626,43.209C57.209,43.072 56.851,42.877 56.551,42.624L56.991,41.924C57.304,42.151 57.614,42.322 57.921,42.439C58.227,42.556 58.541,42.614 58.861,42.614C59.187,42.614 59.446,42.551 59.636,42.424C59.826,42.297 59.921,42.117 59.921,41.884C59.921,41.664 59.814,41.504 59.601,41.404C59.387,41.304 59.054,41.194 58.601,41.074C58.274,40.987 57.994,40.904 57.761,40.824C57.527,40.744 57.337,40.651 57.191,40.544C57.044,40.437 56.937,40.314 56.871,40.174C56.804,40.034 56.771,39.864 56.771,39.664C56.771,39.397 56.822,39.161 56.926,38.954C57.029,38.747 57.172,38.572 57.356,38.429C57.539,38.286 57.754,38.177 58.001,38.104C58.247,38.031 58.514,37.994 58.801,37.994C59.194,37.994 59.561,38.054 59.901,38.174C60.241,38.294 60.544,38.467 60.811,38.694L60.341,39.354C59.854,38.967 59.337,38.774 58.791,38.774C58.511,38.774 58.276,38.832 58.086,38.949C57.896,39.066 57.801,39.251 57.801,39.504C57.801,39.611 57.821,39.701 57.861,39.774C57.901,39.847 57.966,39.911 58.056,39.964C58.146,40.017 58.262,40.066 58.406,40.109C58.549,40.152 58.727,40.201 58.941,40.254C59.294,40.341 59.599,40.427 59.856,40.514C60.112,40.601 60.324,40.702 60.491,40.819C60.657,40.936 60.781,41.072 60.861,41.229C60.941,41.386 60.981,41.574 60.981,41.794C60.981,42.294 60.792,42.689 60.416,42.979C60.039,43.269 59.527,43.414 58.881,43.414Z" style="fill-rule:nonzero;"/>
            <path d="M64.311,43.414C63.904,43.414 63.534,43.342 63.201,43.199C62.867,43.056 62.582,42.861 62.346,42.614C62.109,42.367 61.926,42.081 61.796,41.754C61.666,41.427 61.601,41.081 61.601,40.714C61.601,40.347 61.666,39.999 61.796,39.669C61.926,39.339 62.109,39.049 62.346,38.799C62.582,38.549 62.867,38.352 63.201,38.209C63.534,38.066 63.907,37.994 64.321,37.994C64.727,37.994 65.096,38.067 65.426,38.214C65.756,38.361 66.037,38.556 66.271,38.799C66.504,39.042 66.682,39.326 66.806,39.649C66.929,39.972 66.991,40.311 66.991,40.664C66.991,40.744 66.987,40.819 66.981,40.889C66.974,40.959 66.967,41.017 66.961,41.064L62.771,41.064C62.791,41.297 62.846,41.507 62.936,41.694C63.026,41.881 63.142,42.042 63.286,42.179C63.429,42.316 63.592,42.421 63.776,42.494C63.959,42.567 64.151,42.604 64.351,42.604C64.497,42.604 64.642,42.586 64.786,42.549C64.929,42.512 65.061,42.459 65.181,42.389C65.301,42.319 65.407,42.234 65.501,42.134C65.594,42.034 65.667,41.924 65.721,41.804L66.661,42.074C66.481,42.467 66.182,42.789 65.766,43.039C65.349,43.289 64.864,43.414 64.311,43.414ZM65.901,40.304C65.881,40.084 65.826,39.881 65.736,39.694C65.646,39.507 65.531,39.349 65.391,39.219C65.251,39.089 65.087,38.987 64.901,38.914C64.714,38.841 64.517,38.804 64.311,38.804C64.104,38.804 63.909,38.841 63.726,38.914C63.542,38.987 63.381,39.089 63.241,39.219C63.101,39.349 62.987,39.507 62.901,39.694C62.814,39.881 62.761,40.084 62.741,40.304L65.901,40.304Z" style="fill-rule:nonzero;"/>
            <path d="M70.761,43.044C70.621,43.111 70.427,43.186 70.181,43.269C69.934,43.352 69.671,43.394 69.391,43.394C69.217,43.394 69.054,43.371 68.901,43.324C68.747,43.277 68.612,43.207 68.496,43.114C68.379,43.021 68.287,42.899 68.221,42.749C68.154,42.599 68.121,42.417 68.121,42.204L68.121,38.934L67.431,38.934L67.431,38.084L68.121,38.084L68.121,36.364L69.221,36.364L69.221,38.084L70.361,38.084L70.361,38.934L69.221,38.934L69.221,41.854C69.234,42.041 69.292,42.176 69.396,42.259C69.499,42.342 69.627,42.384 69.781,42.384C69.934,42.384 70.081,42.357 70.221,42.304C70.361,42.251 70.464,42.207 70.531,42.174L70.761,43.044Z" style="fill-rule:nonzero;"/>
        </g>
        <g transform="matrix(1,0,0,1,19.8164,729.357)">
            <path d="M48.941,43.414C48.687,43.414 48.452,43.372 48.236,43.289C48.019,43.206 47.832,43.091 47.676,42.944C47.519,42.797 47.396,42.624 47.306,42.424C47.216,42.224 47.171,42.007 47.171,41.774C47.171,41.527 47.224,41.304 47.331,41.104C47.437,40.904 47.589,40.731 47.786,40.584C47.982,40.437 48.216,40.324 48.486,40.244C48.756,40.164 49.054,40.124 49.381,40.124C49.627,40.124 49.871,40.146 50.111,40.189C50.351,40.232 50.567,40.291 50.761,40.364L50.761,40.004C50.761,39.617 50.651,39.316 50.431,39.099C50.211,38.882 49.894,38.774 49.481,38.774C49.201,38.774 48.926,38.826 48.656,38.929C48.386,39.032 48.107,39.181 47.821,39.374L47.481,38.674C48.154,38.221 48.854,37.994 49.581,37.994C50.301,37.994 50.861,38.177 51.261,38.544C51.661,38.911 51.861,39.437 51.861,40.124L51.861,42.014C51.861,42.247 51.957,42.367 52.151,42.374L52.151,43.314C52.044,43.334 51.952,43.347 51.876,43.354C51.799,43.361 51.724,43.364 51.651,43.364C51.437,43.364 51.272,43.311 51.156,43.204C51.039,43.097 50.967,42.961 50.941,42.794L50.911,42.464C50.677,42.771 50.389,43.006 50.046,43.169C49.702,43.332 49.334,43.414 48.941,43.414ZM49.241,42.604C49.507,42.604 49.759,42.556 49.996,42.459C50.232,42.362 50.417,42.227 50.551,42.054C50.691,41.934 50.761,41.807 50.761,41.674L50.761,40.984C50.574,40.911 50.376,40.854 50.166,40.814C49.956,40.774 49.751,40.754 49.551,40.754C49.157,40.754 48.836,40.839 48.586,41.009C48.336,41.179 48.211,41.404 48.211,41.684C48.211,41.944 48.307,42.162 48.501,42.339C48.694,42.516 48.941,42.604 49.241,42.604Z" style="fill-rule:nonzero;"/>
            <path d="M55.321,43.414C54.967,43.414 54.641,43.342 54.341,43.199C54.041,43.056 53.781,42.861 53.561,42.614C53.341,42.367 53.169,42.079 53.046,41.749C52.922,41.419 52.861,41.064 52.861,40.684C52.861,40.317 52.919,39.972 53.036,39.649C53.152,39.326 53.316,39.041 53.526,38.794C53.736,38.547 53.982,38.352 54.266,38.209C54.549,38.066 54.861,37.994 55.201,37.994C55.621,37.994 55.991,38.096 56.311,38.299C56.631,38.502 56.881,38.761 57.061,39.074L57.061,36.014L58.161,36.014L58.161,42.014C58.161,42.141 58.182,42.231 58.226,42.284C58.269,42.337 58.347,42.367 58.461,42.374L58.461,43.314C58.347,43.334 58.256,43.347 58.186,43.354C58.116,43.361 58.057,43.364 58.011,43.364C57.791,43.364 57.611,43.307 57.471,43.194C57.331,43.081 57.254,42.934 57.241,42.754L57.221,42.364C57.027,42.691 56.764,42.947 56.431,43.134C56.097,43.321 55.727,43.414 55.321,43.414ZM55.591,42.474C55.751,42.474 55.911,42.447 56.071,42.394C56.231,42.341 56.377,42.267 56.511,42.174C56.644,42.081 56.759,41.971 56.856,41.844C56.952,41.717 57.021,41.581 57.061,41.434L57.061,40.064C57.001,39.897 56.916,39.744 56.806,39.604C56.696,39.464 56.571,39.344 56.431,39.244C56.291,39.144 56.142,39.067 55.986,39.014C55.829,38.961 55.671,38.934 55.511,38.934C55.291,38.934 55.089,38.984 54.906,39.084C54.722,39.184 54.564,39.317 54.431,39.484C54.297,39.651 54.192,39.841 54.116,40.054C54.039,40.267 54.001,40.487 54.001,40.714C54.001,40.954 54.042,41.181 54.126,41.394C54.209,41.607 54.324,41.794 54.471,41.954C54.617,42.114 54.786,42.241 54.976,42.334C55.166,42.427 55.371,42.474 55.591,42.474Z" style="fill-rule:nonzero;"/>
            <path d="M61.691,43.414C61.337,43.414 61.011,43.342 60.711,43.199C60.411,43.056 60.151,42.861 59.931,42.614C59.711,42.367 59.539,42.079 59.416,41.749C59.292,41.419 59.231,41.064 59.231,40.684C59.231,40.317 59.289,39.972 59.406,39.649C59.522,39.326 59.686,39.041 59.896,38.794C60.106,38.547 60.352,38.352 60.636,38.209C60.919,38.066 61.231,37.994 61.571,37.994C61.991,37.994 62.361,38.096 62.681,38.299C63.001,38.502 63.251,38.761 63.431,39.074L63.431,36.014L64.531,36.014L64.531,42.014C64.531,42.141 64.552,42.231 64.596,42.284C64.639,42.337 64.717,42.367 64.831,42.374L64.831,43.314C64.717,43.334 64.626,43.347 64.556,43.354C64.486,43.361 64.427,43.364 64.381,43.364C64.161,43.364 63.981,43.307 63.841,43.194C63.701,43.081 63.624,42.934 63.611,42.754L63.591,42.364C63.397,42.691 63.134,42.947 62.801,43.134C62.467,43.321 62.097,43.414 61.691,43.414ZM61.961,42.474C62.121,42.474 62.281,42.447 62.441,42.394C62.601,42.341 62.747,42.267 62.881,42.174C63.014,42.081 63.129,41.971 63.226,41.844C63.322,41.717 63.391,41.581 63.431,41.434L63.431,40.064C63.371,39.897 63.286,39.744 63.176,39.604C63.066,39.464 62.941,39.344 62.801,39.244C62.661,39.144 62.512,39.067 62.356,39.014C62.199,38.961 62.041,38.934 61.881,38.934C61.661,38.934 61.459,38.984 61.276,39.084C61.092,39.184 60.934,39.317 60.801,39.484C60.667,39.651 60.562,39.841 60.486,40.054C60.409,40.267 60.371,40.487 60.371,40.714C60.371,40.954 60.412,41.181 60.496,41.394C60.579,41.607 60.694,41.794 60.841,41.954C60.987,42.114 61.156,42.241 61.346,42.334C61.536,42.427 61.741,42.474 61.961,42.474Z" style="fill-rule:nonzero;"/>
            <path d="M68.871,39.034C68.444,39.047 68.066,39.146 67.736,39.329C67.406,39.512 67.171,39.774 67.031,40.114L67.031,43.314L65.931,43.314L65.931,38.084L66.951,38.084L66.951,39.254C67.131,38.894 67.366,38.606 67.656,38.389C67.946,38.172 68.257,38.054 68.591,38.034C68.657,38.034 68.712,38.034 68.756,38.034C68.799,38.034 68.837,38.037 68.871,38.044L68.871,39.034Z" style="fill-rule:nonzero;"/>
            <path d="M71.781,43.414C71.374,43.414 71.004,43.342 70.671,43.199C70.337,43.056 70.052,42.861 69.816,42.614C69.579,42.367 69.396,42.081 69.266,41.754C69.136,41.427 69.071,41.081 69.071,40.714C69.071,40.347 69.136,39.999 69.266,39.669C69.396,39.339 69.579,39.049 69.816,38.799C70.052,38.549 70.337,38.352 70.671,38.209C71.004,38.066 71.377,37.994 71.791,37.994C72.197,37.994 72.566,38.067 72.896,38.214C73.226,38.361 73.507,38.556 73.741,38.799C73.974,39.042 74.152,39.326 74.276,39.649C74.399,39.972 74.461,40.311 74.461,40.664C74.461,40.744 74.457,40.819 74.451,40.889C74.444,40.959 74.437,41.017 74.431,41.064L70.241,41.064C70.261,41.297 70.316,41.507 70.406,41.694C70.496,41.881 70.612,42.042 70.756,42.179C70.899,42.316 71.062,42.421 71.246,42.494C71.429,42.567 71.621,42.604 71.821,42.604C71.967,42.604 72.112,42.586 72.256,42.549C72.399,42.512 72.531,42.459 72.651,42.389C72.771,42.319 72.877,42.234 72.971,42.134C73.064,42.034 73.137,41.924 73.191,41.804L74.131,42.074C73.951,42.467 73.652,42.789 73.236,43.039C72.819,43.289 72.334,43.414 71.781,43.414ZM73.371,40.304C73.351,40.084 73.296,39.881 73.206,39.694C73.116,39.507 73.001,39.349 72.861,39.219C72.721,39.089 72.557,38.987 72.371,38.914C72.184,38.841 71.987,38.804 71.781,38.804C71.574,38.804 71.379,38.841 71.196,38.914C71.012,38.987 70.851,39.089 70.711,39.219C70.571,39.349 70.457,39.507 70.371,39.694C70.284,39.881 70.231,40.084 70.211,40.304L73.371,40.304Z" style="fill-rule:nonzero;"/>
            <path d="M77.261,43.414C76.841,43.414 76.422,43.346 76.006,43.209C75.589,43.072 75.231,42.877 74.931,42.624L75.371,41.924C75.684,42.151 75.994,42.322 76.301,42.439C76.607,42.556 76.921,42.614 77.241,42.614C77.567,42.614 77.826,42.551 78.016,42.424C78.206,42.297 78.301,42.117 78.301,41.884C78.301,41.664 78.194,41.504 77.981,41.404C77.767,41.304 77.434,41.194 76.981,41.074C76.654,40.987 76.374,40.904 76.141,40.824C75.907,40.744 75.717,40.651 75.571,40.544C75.424,40.437 75.317,40.314 75.251,40.174C75.184,40.034 75.151,39.864 75.151,39.664C75.151,39.397 75.202,39.161 75.306,38.954C75.409,38.747 75.552,38.572 75.736,38.429C75.919,38.286 76.134,38.177 76.381,38.104C76.627,38.031 76.894,37.994 77.181,37.994C77.574,37.994 77.941,38.054 78.281,38.174C78.621,38.294 78.924,38.467 79.191,38.694L78.721,39.354C78.234,38.967 77.717,38.774 77.171,38.774C76.891,38.774 76.656,38.832 76.466,38.949C76.276,39.066 76.181,39.251 76.181,39.504C76.181,39.611 76.201,39.701 76.241,39.774C76.281,39.847 76.346,39.911 76.436,39.964C76.526,40.017 76.642,40.066 76.786,40.109C76.929,40.152 77.107,40.201 77.321,40.254C77.674,40.341 77.979,40.427 78.236,40.514C78.492,40.601 78.704,40.702 78.871,40.819C79.037,40.936 79.161,41.072 79.241,41.229C79.321,41.386 79.361,41.574 79.361,41.794C79.361,42.294 79.172,42.689 78.796,42.979C78.419,43.269 77.907,43.414 77.261,43.414Z" style="fill-rule:nonzero;"/>
            <path d="M82.221,43.414C81.801,43.414 81.382,43.346 80.966,43.209C80.549,43.072 80.191,42.877 79.891,42.624L80.331,41.924C80.644,42.151 80.954,42.322 81.261,42.439C81.567,42.556 81.881,42.614 82.201,42.614C82.527,42.614 82.786,42.551 82.976,42.424C83.166,42.297 83.261,42.117 83.261,41.884C83.261,41.664 83.154,41.504 82.941,41.404C82.727,41.304 82.394,41.194 81.941,41.074C81.614,40.987 81.334,40.904 81.101,40.824C80.867,40.744 80.677,40.651 80.531,40.544C80.384,40.437 80.277,40.314 80.211,40.174C80.144,40.034 80.111,39.864 80.111,39.664C80.111,39.397 80.162,39.161 80.266,38.954C80.369,38.747 80.512,38.572 80.696,38.429C80.879,38.286 81.094,38.177 81.341,38.104C81.587,38.031 81.854,37.994 82.141,37.994C82.534,37.994 82.901,38.054 83.241,38.174C83.581,38.294 83.884,38.467 84.151,38.694L83.681,39.354C83.194,38.967 82.677,38.774 82.131,38.774C81.851,38.774 81.616,38.832 81.426,38.949C81.236,39.066 81.141,39.251 81.141,39.504C81.141,39.611 81.161,39.701 81.201,39.774C81.241,39.847 81.306,39.911 81.396,39.964C81.486,40.017 81.602,40.066 81.746,40.109C81.889,40.152 82.067,40.201 82.281,40.254C82.634,40.341 82.939,40.427 83.196,40.514C83.452,40.601 83.664,40.702 83.831,40.819C83.997,40.936 84.121,41.072 84.201,41.229C84.281,41.386 84.321,41.574 84.321,41.794C84.321,42.294 84.132,42.689 83.756,42.979C83.379,43.269 82.867,43.414 82.221,43.414Z" style="fill-rule:nonzero;"/>
        </g>
        <g transform="matrix(1,0,0,1,80.5951,830.756)">
            <path d="M15.297,46.505C14.877,46.505 14.458,46.437 14.042,46.3C13.625,46.164 13.267,45.969 12.967,45.715L13.407,45.015C13.72,45.242 14.03,45.414 14.337,45.53C14.643,45.647 14.957,45.705 15.277,45.705C15.603,45.705 15.862,45.642 16.052,45.515C16.242,45.389 16.337,45.209 16.337,44.975C16.337,44.755 16.23,44.595 16.017,44.495C15.803,44.395 15.47,44.285 15.017,44.165C14.69,44.079 14.41,43.995 14.177,43.915C13.943,43.835 13.753,43.742 13.607,43.635C13.46,43.529 13.353,43.405 13.287,43.265C13.22,43.125 13.187,42.955 13.187,42.755C13.187,42.489 13.238,42.252 13.342,42.045C13.445,41.839 13.588,41.664 13.772,41.52C13.955,41.377 14.17,41.269 14.417,41.195C14.663,41.122 14.93,41.085 15.217,41.085C15.61,41.085 15.977,41.145 16.317,41.265C16.657,41.385 16.96,41.559 17.227,41.785L16.757,42.445C16.27,42.059 15.753,41.865 15.207,41.865C14.927,41.865 14.692,41.924 14.502,42.04C14.312,42.157 14.217,42.342 14.217,42.595C14.217,42.702 14.237,42.792 14.277,42.865C14.317,42.939 14.382,43.002 14.472,43.055C14.562,43.109 14.678,43.157 14.822,43.2C14.965,43.244 15.143,43.292 15.357,43.345C15.71,43.432 16.015,43.519 16.272,43.605C16.528,43.692 16.74,43.794 16.907,43.91C17.073,44.027 17.197,44.164 17.277,44.32C17.357,44.477 17.397,44.665 17.397,44.885C17.397,45.385 17.208,45.78 16.832,46.07C16.455,46.36 15.943,46.505 15.297,46.505Z" style="fill-rule:nonzero;"/>
            <path d="M21.267,46.135C21.127,46.202 20.933,46.277 20.687,46.36C20.44,46.444 20.177,46.485 19.897,46.485C19.723,46.485 19.56,46.462 19.407,46.415C19.253,46.369 19.118,46.299 19.002,46.205C18.885,46.112 18.793,45.99 18.727,45.84C18.66,45.69 18.627,45.509 18.627,45.295L18.627,42.025L17.937,42.025L17.937,41.175L18.627,41.175L18.627,39.455L19.727,39.455L19.727,41.175L20.867,41.175L20.867,42.025L19.727,42.025L19.727,44.945C19.74,45.132 19.798,45.267 19.902,45.35C20.005,45.434 20.133,45.475 20.287,45.475C20.44,45.475 20.587,45.449 20.727,45.395C20.867,45.342 20.97,45.299 21.037,45.265L21.267,46.135Z" style="fill-rule:nonzero;"/>
            <path d="M23.417,46.505C23.163,46.505 22.928,46.464 22.712,46.38C22.495,46.297 22.308,46.182 22.152,46.035C21.995,45.889 21.872,45.715 21.782,45.515C21.692,45.315 21.647,45.099 21.647,44.865C21.647,44.619 21.7,44.395 21.807,44.195C21.913,43.995 22.065,43.822 22.262,43.675C22.458,43.529 22.692,43.415 22.962,43.335C23.232,43.255 23.53,43.215 23.857,43.215C24.103,43.215 24.347,43.237 24.587,43.28C24.827,43.324 25.043,43.382 25.237,43.455L25.237,43.095C25.237,42.709 25.127,42.407 24.907,42.19C24.687,41.974 24.37,41.865 23.957,41.865C23.677,41.865 23.402,41.917 23.132,42.02C22.862,42.124 22.583,42.272 22.297,42.465L21.957,41.765C22.63,41.312 23.33,41.085 24.057,41.085C24.777,41.085 25.337,41.269 25.737,41.635C26.137,42.002 26.337,42.529 26.337,43.215L26.337,45.105C26.337,45.339 26.433,45.459 26.627,45.465L26.627,46.405C26.52,46.425 26.428,46.439 26.352,46.445C26.275,46.452 26.2,46.455 26.127,46.455C25.913,46.455 25.748,46.402 25.632,46.295C25.515,46.189 25.443,46.052 25.417,45.885L25.387,45.555C25.153,45.862 24.865,46.097 24.522,46.26C24.178,46.424 23.81,46.505 23.417,46.505ZM23.717,45.695C23.983,45.695 24.235,45.647 24.472,45.55C24.708,45.454 24.893,45.319 25.027,45.145C25.167,45.025 25.237,44.899 25.237,44.765L25.237,44.075C25.05,44.002 24.852,43.945 24.642,43.905C24.432,43.865 24.227,43.845 24.027,43.845C23.633,43.845 23.312,43.93 23.062,44.1C22.812,44.27 22.687,44.495 22.687,44.775C22.687,45.035 22.783,45.254 22.977,45.43C23.17,45.607 23.417,45.695 23.717,45.695Z" style="fill-rule:nonzero;"/>
            <path d="M30.607,42.125C30.18,42.139 29.802,42.237 29.472,42.42C29.142,42.604 28.907,42.865 28.767,43.205L28.767,46.405L27.667,46.405L27.667,41.175L28.687,41.175L28.687,42.345C28.867,41.985 29.102,41.697 29.392,41.48C29.682,41.264 29.993,41.145 30.327,41.125C30.393,41.125 30.448,41.125 30.492,41.125C30.535,41.125 30.573,41.129 30.607,41.135L30.607,42.125Z" style="fill-rule:nonzero;"/>
            <path d="M34.317,46.135C34.177,46.202 33.983,46.277 33.737,46.36C33.49,46.444 33.227,46.485 32.947,46.485C32.773,46.485 32.61,46.462 32.457,46.415C32.303,46.369 32.168,46.299 32.052,46.205C31.935,46.112 31.843,45.99 31.777,45.84C31.71,45.69 31.677,45.509 31.677,45.295L31.677,42.025L30.987,42.025L30.987,41.175L31.677,41.175L31.677,39.455L32.777,39.455L32.777,41.175L33.917,41.175L33.917,42.025L32.777,42.025L32.777,44.945C32.79,45.132 32.848,45.267 32.952,45.35C33.055,45.434 33.183,45.475 33.337,45.475C33.49,45.475 33.637,45.449 33.777,45.395C33.917,45.342 34.02,45.299 34.087,45.265L34.317,46.135Z" style="fill-rule:nonzero;"/>
        </g>
        <g transform="matrix(1,0,0,1,76.9297,884.611)">
            <path d="M13.407,39.105L14.507,39.105L14.507,44.895C14.507,45.089 14.557,45.24 14.657,45.35C14.757,45.46 14.897,45.515 15.077,45.515C15.15,45.515 15.235,45.502 15.332,45.475C15.428,45.449 15.52,45.419 15.607,45.385L15.767,46.245C15.607,46.319 15.417,46.377 15.197,46.42C14.977,46.464 14.78,46.485 14.607,46.485C14.227,46.485 13.932,46.382 13.722,46.175C13.512,45.969 13.407,45.675 13.407,45.295L13.407,39.105Z" style="fill-rule:nonzero;"/>
            <path d="M18.777,46.505C18.37,46.505 18,46.434 17.667,46.29C17.333,46.147 17.048,45.952 16.812,45.705C16.575,45.459 16.392,45.172 16.262,44.845C16.132,44.519 16.067,44.172 16.067,43.805C16.067,43.439 16.132,43.09 16.262,42.76C16.392,42.43 16.575,42.14 16.812,41.89C17.048,41.64 17.333,41.444 17.667,41.3C18,41.157 18.373,41.085 18.787,41.085C19.193,41.085 19.562,41.159 19.892,41.305C20.222,41.452 20.503,41.647 20.737,41.89C20.97,42.134 21.148,42.417 21.272,42.74C21.395,43.064 21.457,43.402 21.457,43.755C21.457,43.835 21.453,43.91 21.447,43.98C21.44,44.05 21.433,44.109 21.427,44.155L17.237,44.155C17.257,44.389 17.312,44.599 17.402,44.785C17.492,44.972 17.608,45.134 17.752,45.27C17.895,45.407 18.058,45.512 18.242,45.585C18.425,45.659 18.617,45.695 18.817,45.695C18.963,45.695 19.108,45.677 19.252,45.64C19.395,45.604 19.527,45.55 19.647,45.48C19.767,45.41 19.873,45.325 19.967,45.225C20.06,45.125 20.133,45.015 20.187,44.895L21.127,45.165C20.947,45.559 20.648,45.88 20.232,46.13C19.815,46.38 19.33,46.505 18.777,46.505ZM20.367,43.395C20.347,43.175 20.292,42.972 20.202,42.785C20.112,42.599 19.997,42.44 19.857,42.31C19.717,42.18 19.553,42.079 19.367,42.005C19.18,41.932 18.983,41.895 18.777,41.895C18.57,41.895 18.375,41.932 18.192,42.005C18.008,42.079 17.847,42.18 17.707,42.31C17.567,42.44 17.453,42.599 17.367,42.785C17.28,42.972 17.227,43.175 17.207,43.395L20.367,43.395Z" style="fill-rule:nonzero;"/>
            <path d="M27.047,46.405L25.947,46.405L25.947,43.475C25.947,42.982 25.868,42.624 25.712,42.4C25.555,42.177 25.323,42.065 25.017,42.065C24.857,42.065 24.697,42.095 24.537,42.155C24.377,42.215 24.227,42.3 24.087,42.41C23.947,42.52 23.822,42.65 23.712,42.8C23.602,42.95 23.517,43.115 23.457,43.295L23.457,46.405L22.357,46.405L22.357,41.175L23.357,41.175L23.357,42.225C23.557,41.872 23.847,41.594 24.227,41.39C24.607,41.187 25.027,41.085 25.487,41.085C25.8,41.085 26.057,41.142 26.257,41.255C26.457,41.369 26.615,41.524 26.732,41.72C26.848,41.917 26.93,42.144 26.977,42.4C27.023,42.657 27.047,42.929 27.047,43.215L27.047,46.405Z" style="fill-rule:nonzero;"/>
            <path d="M30.397,46.455C30.043,46.455 29.72,46.384 29.427,46.24C29.133,46.097 28.882,45.902 28.672,45.655C28.462,45.409 28.298,45.125 28.182,44.805C28.065,44.485 28.007,44.149 28.007,43.795C28.007,43.422 28.067,43.07 28.187,42.74C28.307,42.41 28.473,42.124 28.687,41.88C28.9,41.637 29.155,41.444 29.452,41.3C29.748,41.157 30.077,41.085 30.437,41.085C30.857,41.085 31.225,41.185 31.542,41.385C31.858,41.585 32.12,41.845 32.327,42.165L32.327,41.175L33.297,41.175L33.297,46.255C33.297,46.635 33.227,46.972 33.087,47.265C32.947,47.559 32.752,47.807 32.502,48.01C32.252,48.214 31.957,48.369 31.617,48.475C31.277,48.582 30.91,48.635 30.517,48.635C29.937,48.635 29.455,48.537 29.072,48.34C28.688,48.144 28.367,47.869 28.107,47.515L28.727,46.935C28.927,47.215 29.185,47.429 29.502,47.575C29.818,47.722 30.157,47.795 30.517,47.795C30.743,47.795 30.958,47.765 31.162,47.705C31.365,47.645 31.543,47.552 31.697,47.425C31.85,47.299 31.972,47.139 32.062,46.945C32.152,46.752 32.197,46.522 32.197,46.255L32.197,45.455C32.01,45.775 31.753,46.022 31.427,46.195C31.1,46.369 30.757,46.455 30.397,46.455ZM30.757,45.565C30.923,45.565 31.083,45.537 31.237,45.48C31.39,45.424 31.532,45.347 31.662,45.25C31.792,45.154 31.903,45.044 31.997,44.92C32.09,44.797 32.157,44.665 32.197,44.525L32.197,43.155C32.13,42.989 32.043,42.837 31.937,42.7C31.83,42.564 31.708,42.445 31.572,42.345C31.435,42.245 31.29,42.167 31.137,42.11C30.983,42.054 30.83,42.025 30.677,42.025C30.437,42.025 30.222,42.077 30.032,42.18C29.842,42.284 29.68,42.42 29.547,42.59C29.413,42.76 29.31,42.952 29.237,43.165C29.163,43.379 29.127,43.599 29.127,43.825C29.127,44.065 29.168,44.29 29.252,44.5C29.335,44.71 29.45,44.894 29.597,45.05C29.743,45.207 29.915,45.332 30.112,45.425C30.308,45.519 30.523,45.565 30.757,45.565Z" style="fill-rule:nonzero;"/>
            <path d="M37.527,46.135C37.387,46.202 37.193,46.277 36.947,46.36C36.7,46.444 36.437,46.485 36.157,46.485C35.983,46.485 35.82,46.462 35.667,46.415C35.513,46.369 35.378,46.299 35.262,46.205C35.145,46.112 35.053,45.99 34.987,45.84C34.92,45.69 34.887,45.509 34.887,45.295L34.887,42.025L34.197,42.025L34.197,41.175L34.887,41.175L34.887,39.455L35.987,39.455L35.987,41.175L37.127,41.175L37.127,42.025L35.987,42.025L35.987,44.945C36,45.132 36.058,45.267 36.162,45.35C36.265,45.434 36.393,45.475 36.547,45.475C36.7,45.475 36.847,45.449 36.987,45.395C37.127,45.342 37.23,45.299 37.297,45.265L37.527,46.135Z" style="fill-rule:nonzero;"/>
            <path d="M42.977,46.405L41.877,46.405L41.877,43.475C41.877,42.995 41.792,42.64 41.622,42.41C41.452,42.18 41.207,42.065 40.887,42.065C40.733,42.065 40.58,42.095 40.427,42.155C40.273,42.215 40.128,42.3 39.992,42.41C39.855,42.52 39.733,42.65 39.627,42.8C39.52,42.95 39.44,43.115 39.387,43.295L39.387,46.405L38.287,46.405L38.287,39.105L39.387,39.105L39.387,42.225C39.587,41.865 39.858,41.585 40.202,41.385C40.545,41.185 40.92,41.085 41.327,41.085C41.653,41.085 41.922,41.144 42.132,41.26C42.342,41.377 42.51,41.532 42.637,41.725C42.763,41.919 42.852,42.144 42.902,42.4C42.952,42.657 42.977,42.929 42.977,43.215L42.977,46.405Z" style="fill-rule:nonzero;"/>
        </g>
        <g transform="matrix(1,0,0,1,76.4596,957.216)">
            <path d="M13.087,42.805C13.087,42.379 13.163,41.954 13.317,41.53C13.47,41.107 13.695,40.727 13.992,40.39C14.288,40.054 14.65,39.782 15.077,39.575C15.503,39.369 15.987,39.265 16.527,39.265C17.173,39.265 17.727,39.409 18.187,39.695C18.647,39.982 18.993,40.355 19.227,40.815L18.347,41.405C18.247,41.192 18.127,41.012 17.987,40.865C17.847,40.719 17.693,40.602 17.527,40.515C17.36,40.429 17.187,40.367 17.007,40.33C16.827,40.294 16.653,40.275 16.487,40.275C16.113,40.275 15.787,40.35 15.507,40.5C15.227,40.65 14.992,40.849 14.802,41.095C14.612,41.342 14.468,41.619 14.372,41.925C14.275,42.232 14.227,42.539 14.227,42.845C14.227,43.192 14.283,43.522 14.397,43.835C14.51,44.149 14.668,44.425 14.872,44.665C15.075,44.905 15.317,45.097 15.597,45.24C15.877,45.384 16.183,45.455 16.517,45.455C16.69,45.455 16.868,45.434 17.052,45.39C17.235,45.347 17.412,45.277 17.582,45.18C17.752,45.084 17.908,44.962 18.052,44.815C18.195,44.669 18.313,44.492 18.407,44.285L19.337,44.815C19.223,45.082 19.063,45.317 18.857,45.52C18.65,45.724 18.417,45.895 18.157,46.035C17.897,46.175 17.622,46.282 17.332,46.355C17.042,46.429 16.757,46.465 16.477,46.465C15.977,46.465 15.52,46.359 15.107,46.145C14.693,45.932 14.337,45.654 14.037,45.31C13.737,44.967 13.503,44.577 13.337,44.14C13.17,43.704 13.087,43.259 13.087,42.805Z" style="fill-rule:nonzero;"/>
            <path d="M20.717,39.305L22.857,44.995L24.987,39.305L26.177,39.305L23.337,46.405L22.377,46.405L19.527,39.305L20.717,39.305Z" style="fill-rule:nonzero;"/>
            <path d="M31.387,46.505C30.973,46.505 30.602,46.432 30.272,46.285C29.942,46.139 29.66,45.942 29.427,45.695C29.193,45.449 29.013,45.16 28.887,44.83C28.76,44.5 28.697,44.155 28.697,43.795C28.697,43.435 28.76,43.09 28.887,42.76C29.013,42.43 29.195,42.142 29.432,41.895C29.668,41.649 29.952,41.452 30.282,41.305C30.612,41.159 30.98,41.085 31.387,41.085C31.793,41.085 32.162,41.159 32.492,41.305C32.822,41.452 33.105,41.649 33.342,41.895C33.578,42.142 33.76,42.43 33.887,42.76C34.013,43.09 34.077,43.435 34.077,43.795C34.077,44.155 34.013,44.5 33.887,44.83C33.76,45.16 33.578,45.449 33.342,45.695C33.105,45.942 32.822,46.139 32.492,46.285C32.162,46.432 31.793,46.505 31.387,46.505ZM29.827,43.805C29.827,44.059 29.867,44.292 29.947,44.505C30.027,44.719 30.137,44.904 30.277,45.06C30.417,45.217 30.582,45.34 30.772,45.43C30.962,45.52 31.167,45.565 31.387,45.565C31.607,45.565 31.812,45.52 32.002,45.43C32.192,45.34 32.357,45.215 32.497,45.055C32.637,44.895 32.747,44.709 32.827,44.495C32.907,44.282 32.947,44.049 32.947,43.795C32.947,43.549 32.907,43.317 32.827,43.1C32.747,42.884 32.637,42.695 32.497,42.535C32.357,42.375 32.192,42.25 32.002,42.16C31.812,42.07 31.607,42.025 31.387,42.025C31.173,42.025 30.972,42.072 30.782,42.165C30.592,42.259 30.427,42.385 30.287,42.545C30.147,42.705 30.035,42.894 29.952,43.11C29.868,43.327 29.827,43.559 29.827,43.805Z" style="fill-rule:nonzero;"/>
            <path d="M36.667,46.505C36.12,46.505 35.707,46.327 35.427,45.97C35.147,45.614 35.007,45.082 35.007,44.375L35.007,41.175L36.107,41.175L36.107,44.155C36.107,45.095 36.44,45.565 37.107,45.565C37.42,45.565 37.717,45.469 37.997,45.275C38.277,45.082 38.493,44.802 38.647,44.435L38.647,41.175L39.747,41.175L39.747,45.105C39.747,45.232 39.768,45.322 39.812,45.375C39.855,45.429 39.933,45.459 40.047,45.465L40.047,46.405C39.933,46.425 39.84,46.439 39.767,46.445C39.693,46.452 39.623,46.455 39.557,46.455C39.357,46.455 39.187,46.4 39.047,46.29C38.907,46.18 38.833,46.039 38.827,45.865L38.807,45.345C38.573,45.725 38.27,46.014 37.897,46.21C37.523,46.407 37.113,46.505 36.667,46.505Z" style="fill-rule:nonzero;"/>
            <path d="M44.057,46.135C43.917,46.202 43.723,46.277 43.477,46.36C43.23,46.444 42.967,46.485 42.687,46.485C42.513,46.485 42.35,46.462 42.197,46.415C42.043,46.369 41.908,46.299 41.792,46.205C41.675,46.112 41.583,45.99 41.517,45.84C41.45,45.69 41.417,45.509 41.417,45.295L41.417,42.025L40.727,42.025L40.727,41.175L41.417,41.175L41.417,39.455L42.517,39.455L42.517,41.175L43.657,41.175L43.657,42.025L42.517,42.025L42.517,44.945C42.53,45.132 42.588,45.267 42.692,45.35C42.795,45.434 42.923,45.475 43.077,45.475C43.23,45.475 43.377,45.449 43.517,45.395C43.657,45.342 43.76,45.299 43.827,45.265L44.057,46.135Z" style="fill-rule:nonzero;"/>
        </g>
        <g transform="matrix(1,0,0,1,63.909,1008.16)">
            <path d="M16.307,46.135C16.167,46.202 15.973,46.277 15.727,46.36C15.48,46.444 15.217,46.485 14.937,46.485C14.763,46.485 14.6,46.462 14.447,46.415C14.293,46.369 14.158,46.299 14.042,46.205C13.925,46.112 13.833,45.99 13.767,45.84C13.7,45.69 13.667,45.509 13.667,45.295L13.667,42.025L12.977,42.025L12.977,41.175L13.667,41.175L13.667,39.455L14.767,39.455L14.767,41.175L15.907,41.175L15.907,42.025L14.767,42.025L14.767,44.945C14.78,45.132 14.838,45.267 14.942,45.35C15.045,45.434 15.173,45.475 15.327,45.475C15.48,45.475 15.627,45.449 15.767,45.395C15.907,45.342 16.01,45.299 16.077,45.265L16.307,46.135Z" style="fill-rule:nonzero;"/>
            <path d="M20.007,42.125C19.58,42.139 19.202,42.237 18.872,42.42C18.542,42.604 18.307,42.865 18.167,43.205L18.167,46.405L17.067,46.405L17.067,41.175L18.087,41.175L18.087,42.345C18.267,41.985 18.502,41.697 18.792,41.48C19.082,41.264 19.393,41.145 19.727,41.125C19.793,41.125 19.848,41.125 19.892,41.125C19.935,41.125 19.973,41.129 20.007,41.135L20.007,42.125Z" style="fill-rule:nonzero;"/>
            <path d="M20.807,46.405L20.807,41.175L21.907,41.175L21.907,46.405L20.807,46.405ZM20.807,40.315L20.807,39.105L21.907,39.105L21.907,40.315L20.807,40.315Z" style="fill-rule:nonzero;"/>
            <path d="M25.297,46.455C24.943,46.455 24.62,46.384 24.327,46.24C24.033,46.097 23.782,45.902 23.572,45.655C23.362,45.409 23.198,45.125 23.082,44.805C22.965,44.485 22.907,44.149 22.907,43.795C22.907,43.422 22.967,43.07 23.087,42.74C23.207,42.41 23.373,42.124 23.587,41.88C23.8,41.637 24.055,41.444 24.352,41.3C24.648,41.157 24.977,41.085 25.337,41.085C25.757,41.085 26.125,41.185 26.442,41.385C26.758,41.585 27.02,41.845 27.227,42.165L27.227,41.175L28.197,41.175L28.197,46.255C28.197,46.635 28.127,46.972 27.987,47.265C27.847,47.559 27.652,47.807 27.402,48.01C27.152,48.214 26.857,48.369 26.517,48.475C26.177,48.582 25.81,48.635 25.417,48.635C24.837,48.635 24.355,48.537 23.972,48.34C23.588,48.144 23.267,47.869 23.007,47.515L23.627,46.935C23.827,47.215 24.085,47.429 24.402,47.575C24.718,47.722 25.057,47.795 25.417,47.795C25.643,47.795 25.858,47.765 26.062,47.705C26.265,47.645 26.443,47.552 26.597,47.425C26.75,47.299 26.872,47.139 26.962,46.945C27.052,46.752 27.097,46.522 27.097,46.255L27.097,45.455C26.91,45.775 26.653,46.022 26.327,46.195C26,46.369 25.657,46.455 25.297,46.455ZM25.657,45.565C25.823,45.565 25.983,45.537 26.137,45.48C26.29,45.424 26.432,45.347 26.562,45.25C26.692,45.154 26.803,45.044 26.897,44.92C26.99,44.797 27.057,44.665 27.097,44.525L27.097,43.155C27.03,42.989 26.943,42.837 26.837,42.7C26.73,42.564 26.608,42.445 26.472,42.345C26.335,42.245 26.19,42.167 26.037,42.11C25.883,42.054 25.73,42.025 25.577,42.025C25.337,42.025 25.122,42.077 24.932,42.18C24.742,42.284 24.58,42.42 24.447,42.59C24.313,42.76 24.21,42.952 24.137,43.165C24.063,43.379 24.027,43.599 24.027,43.825C24.027,44.065 24.068,44.29 24.152,44.5C24.235,44.71 24.35,44.894 24.497,45.05C24.643,45.207 24.815,45.332 25.012,45.425C25.208,45.519 25.423,45.565 25.657,45.565Z" style="fill-rule:nonzero;"/>
            <path d="M31.587,46.455C31.233,46.455 30.91,46.384 30.617,46.24C30.323,46.097 30.072,45.902 29.862,45.655C29.652,45.409 29.488,45.125 29.372,44.805C29.255,44.485 29.197,44.149 29.197,43.795C29.197,43.422 29.257,43.07 29.377,42.74C29.497,42.41 29.663,42.124 29.877,41.88C30.09,41.637 30.345,41.444 30.642,41.3C30.938,41.157 31.267,41.085 31.627,41.085C32.047,41.085 32.415,41.185 32.732,41.385C33.048,41.585 33.31,41.845 33.517,42.165L33.517,41.175L34.487,41.175L34.487,46.255C34.487,46.635 34.417,46.972 34.277,47.265C34.137,47.559 33.942,47.807 33.692,48.01C33.442,48.214 33.147,48.369 32.807,48.475C32.467,48.582 32.1,48.635 31.707,48.635C31.127,48.635 30.645,48.537 30.262,48.34C29.878,48.144 29.557,47.869 29.297,47.515L29.917,46.935C30.117,47.215 30.375,47.429 30.692,47.575C31.008,47.722 31.347,47.795 31.707,47.795C31.933,47.795 32.148,47.765 32.352,47.705C32.555,47.645 32.733,47.552 32.887,47.425C33.04,47.299 33.162,47.139 33.252,46.945C33.342,46.752 33.387,46.522 33.387,46.255L33.387,45.455C33.2,45.775 32.943,46.022 32.617,46.195C32.29,46.369 31.947,46.455 31.587,46.455ZM31.947,45.565C32.113,45.565 32.273,45.537 32.427,45.48C32.58,45.424 32.722,45.347 32.852,45.25C32.982,45.154 33.093,45.044 33.187,44.92C33.28,44.797 33.347,44.665 33.387,44.525L33.387,43.155C33.32,42.989 33.233,42.837 33.127,42.7C33.02,42.564 32.898,42.445 32.762,42.345C32.625,42.245 32.48,42.167 32.327,42.11C32.173,42.054 32.02,42.025 31.867,42.025C31.627,42.025 31.412,42.077 31.222,42.18C31.032,42.284 30.87,42.42 30.737,42.59C30.603,42.76 30.5,42.952 30.427,43.165C30.353,43.379 30.317,43.599 30.317,43.825C30.317,44.065 30.358,44.29 30.442,44.5C30.525,44.71 30.64,44.894 30.787,45.05C30.933,45.207 31.105,45.332 31.302,45.425C31.498,45.519 31.713,45.565 31.947,45.565Z" style="fill-rule:nonzero;"/>
            <path d="M38.177,46.505C37.77,46.505 37.4,46.434 37.067,46.29C36.733,46.147 36.448,45.952 36.212,45.705C35.975,45.459 35.792,45.172 35.662,44.845C35.532,44.519 35.467,44.172 35.467,43.805C35.467,43.439 35.532,43.09 35.662,42.76C35.792,42.43 35.975,42.14 36.212,41.89C36.448,41.64 36.733,41.444 37.067,41.3C37.4,41.157 37.773,41.085 38.187,41.085C38.593,41.085 38.962,41.159 39.292,41.305C39.622,41.452 39.903,41.647 40.137,41.89C40.37,42.134 40.548,42.417 40.672,42.74C40.795,43.064 40.857,43.402 40.857,43.755C40.857,43.835 40.853,43.91 40.847,43.98C40.84,44.05 40.833,44.109 40.827,44.155L36.637,44.155C36.657,44.389 36.712,44.599 36.802,44.785C36.892,44.972 37.008,45.134 37.152,45.27C37.295,45.407 37.458,45.512 37.642,45.585C37.825,45.659 38.017,45.695 38.217,45.695C38.363,45.695 38.508,45.677 38.652,45.64C38.795,45.604 38.927,45.55 39.047,45.48C39.167,45.41 39.273,45.325 39.367,45.225C39.46,45.125 39.533,45.015 39.587,44.895L40.527,45.165C40.347,45.559 40.048,45.88 39.632,46.13C39.215,46.38 38.73,46.505 38.177,46.505ZM39.767,43.395C39.747,43.175 39.692,42.972 39.602,42.785C39.512,42.599 39.397,42.44 39.257,42.31C39.117,42.18 38.953,42.079 38.767,42.005C38.58,41.932 38.383,41.895 38.177,41.895C37.97,41.895 37.775,41.932 37.592,42.005C37.408,42.079 37.247,42.18 37.107,42.31C36.967,42.44 36.853,42.599 36.767,42.785C36.68,42.972 36.627,43.175 36.607,43.395L39.767,43.395Z" style="fill-rule:nonzero;"/>
            <path d="M44.697,42.125C44.27,42.139 43.892,42.237 43.562,42.42C43.232,42.604 42.997,42.865 42.857,43.205L42.857,46.405L41.757,46.405L41.757,41.175L42.777,41.175L42.777,42.345C42.957,41.985 43.192,41.697 43.482,41.48C43.772,41.264 44.083,41.145 44.417,41.125C44.483,41.125 44.538,41.125 44.582,41.125C44.625,41.125 44.663,41.129 44.697,41.135L44.697,42.125Z" style="fill-rule:nonzero;"/>
            <path d="M50.077,46.505C49.663,46.505 49.292,46.432 48.962,46.285C48.632,46.139 48.35,45.942 48.117,45.695C47.883,45.449 47.703,45.16 47.577,44.83C47.45,44.5 47.387,44.155 47.387,43.795C47.387,43.435 47.45,43.09 47.577,42.76C47.703,42.43 47.885,42.142 48.122,41.895C48.358,41.649 48.642,41.452 48.972,41.305C49.302,41.159 49.67,41.085 50.077,41.085C50.483,41.085 50.852,41.159 51.182,41.305C51.512,41.452 51.795,41.649 52.032,41.895C52.268,42.142 52.45,42.43 52.577,42.76C52.703,43.09 52.767,43.435 52.767,43.795C52.767,44.155 52.703,44.5 52.577,44.83C52.45,45.16 52.268,45.449 52.032,45.695C51.795,45.942 51.512,46.139 51.182,46.285C50.852,46.432 50.483,46.505 50.077,46.505ZM48.517,43.805C48.517,44.059 48.557,44.292 48.637,44.505C48.717,44.719 48.827,44.904 48.967,45.06C49.107,45.217 49.272,45.34 49.462,45.43C49.652,45.52 49.857,45.565 50.077,45.565C50.297,45.565 50.502,45.52 50.692,45.43C50.882,45.34 51.047,45.215 51.187,45.055C51.327,44.895 51.437,44.709 51.517,44.495C51.597,44.282 51.637,44.049 51.637,43.795C51.637,43.549 51.597,43.317 51.517,43.1C51.437,42.884 51.327,42.695 51.187,42.535C51.047,42.375 50.882,42.25 50.692,42.16C50.502,42.07 50.297,42.025 50.077,42.025C49.863,42.025 49.662,42.072 49.472,42.165C49.282,42.259 49.117,42.385 48.977,42.545C48.837,42.705 48.725,42.894 48.642,43.11C48.558,43.327 48.517,43.559 48.517,43.805Z" style="fill-rule:nonzero;"/>
            <path d="M55.357,46.505C54.81,46.505 54.397,46.327 54.117,45.97C53.837,45.614 53.697,45.082 53.697,44.375L53.697,41.175L54.797,41.175L54.797,44.155C54.797,45.095 55.13,45.565 55.797,45.565C56.11,45.565 56.407,45.469 56.687,45.275C56.967,45.082 57.183,44.802 57.337,44.435L57.337,41.175L58.437,41.175L58.437,45.105C58.437,45.232 58.458,45.322 58.502,45.375C58.545,45.429 58.623,45.459 58.737,45.465L58.737,46.405C58.623,46.425 58.53,46.439 58.457,46.445C58.383,46.452 58.313,46.455 58.247,46.455C58.047,46.455 57.877,46.4 57.737,46.29C57.597,46.18 57.523,46.039 57.517,45.865L57.497,45.345C57.263,45.725 56.96,46.014 56.587,46.21C56.213,46.407 55.803,46.505 55.357,46.505Z" style="fill-rule:nonzero;"/>
            <path d="M62.747,46.135C62.607,46.202 62.413,46.277 62.167,46.36C61.92,46.444 61.657,46.485 61.377,46.485C61.203,46.485 61.04,46.462 60.887,46.415C60.733,46.369 60.598,46.299 60.482,46.205C60.365,46.112 60.273,45.99 60.207,45.84C60.14,45.69 60.107,45.509 60.107,45.295L60.107,42.025L59.417,42.025L59.417,41.175L60.107,41.175L60.107,39.455L61.207,39.455L61.207,41.175L62.347,41.175L62.347,42.025L61.207,42.025L61.207,44.945C61.22,45.132 61.278,45.267 61.382,45.35C61.485,45.434 61.613,45.475 61.767,45.475C61.92,45.475 62.067,45.449 62.207,45.395C62.347,45.342 62.45,45.299 62.517,45.265L62.747,46.135Z" style="fill-rule:nonzero;"/>
            <path d="M65.407,46.505C64.987,46.505 64.568,46.437 64.152,46.3C63.735,46.164 63.377,45.969 63.077,45.715L63.517,45.015C63.83,45.242 64.14,45.414 64.447,45.53C64.753,45.647 65.067,45.705 65.387,45.705C65.713,45.705 65.972,45.642 66.162,45.515C66.352,45.389 66.447,45.209 66.447,44.975C66.447,44.755 66.34,44.595 66.127,44.495C65.913,44.395 65.58,44.285 65.127,44.165C64.8,44.079 64.52,43.995 64.287,43.915C64.053,43.835 63.863,43.742 63.717,43.635C63.57,43.529 63.463,43.405 63.397,43.265C63.33,43.125 63.297,42.955 63.297,42.755C63.297,42.489 63.348,42.252 63.452,42.045C63.555,41.839 63.698,41.664 63.882,41.52C64.065,41.377 64.28,41.269 64.527,41.195C64.773,41.122 65.04,41.085 65.327,41.085C65.72,41.085 66.087,41.145 66.427,41.265C66.767,41.385 67.07,41.559 67.337,41.785L66.867,42.445C66.38,42.059 65.863,41.865 65.317,41.865C65.037,41.865 64.802,41.924 64.612,42.04C64.422,42.157 64.327,42.342 64.327,42.595C64.327,42.702 64.347,42.792 64.387,42.865C64.427,42.939 64.492,43.002 64.582,43.055C64.672,43.109 64.788,43.157 64.932,43.2C65.075,43.244 65.253,43.292 65.467,43.345C65.82,43.432 66.125,43.519 66.382,43.605C66.638,43.692 66.85,43.794 67.017,43.91C67.183,44.027 67.307,44.164 67.387,44.32C67.467,44.477 67.507,44.665 67.507,44.885C67.507,45.385 67.318,45.78 66.942,46.07C66.565,46.36 66.053,46.505 65.407,46.505Z" style="fill-rule:nonzero;"/>
        </g>
        <g id="act" transform="matrix(1,0,0,1,-37,-16)">
            <g id="number1" transform="matrix(1,0,0,1,-9,740.52)">
                <path d="M11.048,98.866L11.048,99.856L7.228,99.856L7.228,98.866L8.648,98.866L8.648,95.376C8.588,95.456 8.494,95.539 8.368,95.626C8.241,95.713 8.101,95.793 7.948,95.866C7.794,95.939 7.634,96.001 7.468,96.051C7.301,96.101 7.154,96.126 7.028,96.126L7.028,95.096C7.161,95.096 7.316,95.056 7.493,94.976C7.669,94.896 7.839,94.803 8.003,94.696C8.166,94.589 8.309,94.483 8.433,94.376C8.556,94.269 8.628,94.193 8.648,94.146L9.778,94.146L9.778,98.866L11.048,98.866Z" style="fill-rule:nonzero;"/>
            </g>
            <g id="number2" transform="matrix(1,0,0,1,-9,776.52)">
                <path d="M6.978,99.856C6.978,99.576 7.001,99.316 7.048,99.076C7.094,98.836 7.178,98.611 7.298,98.401C7.418,98.191 7.581,97.991 7.788,97.801C7.994,97.611 8.261,97.426 8.588,97.246C8.821,97.119 9.041,97.003 9.248,96.896C9.454,96.789 9.636,96.684 9.793,96.581C9.949,96.478 10.074,96.368 10.168,96.251C10.261,96.134 10.308,95.999 10.308,95.846C10.308,95.633 10.216,95.441 10.033,95.271C9.849,95.101 9.584,95.016 9.238,95.016C9.058,95.016 8.893,95.041 8.743,95.091C8.593,95.141 8.456,95.204 8.333,95.281C8.209,95.358 8.101,95.443 8.008,95.536C7.914,95.629 7.831,95.719 7.758,95.806L7.058,94.996C7.124,94.923 7.229,94.831 7.373,94.721C7.516,94.611 7.689,94.506 7.893,94.406C8.096,94.306 8.328,94.221 8.588,94.151C8.848,94.081 9.131,94.046 9.438,94.046C9.758,94.046 10.046,94.088 10.303,94.171C10.559,94.254 10.776,94.369 10.953,94.516C11.129,94.663 11.264,94.838 11.358,95.041C11.451,95.244 11.498,95.463 11.498,95.696C11.498,95.943 11.448,96.163 11.348,96.356C11.248,96.549 11.124,96.719 10.978,96.866C10.831,97.013 10.671,97.138 10.498,97.241C10.324,97.344 10.164,97.433 10.018,97.506C9.878,97.573 9.719,97.651 9.543,97.741C9.366,97.831 9.194,97.934 9.028,98.051C8.861,98.168 8.711,98.293 8.578,98.426C8.444,98.559 8.351,98.706 8.298,98.866L11.608,98.866L11.608,99.856L6.978,99.856Z" style="fill-rule:nonzero;"/>
            </g>
            <g id="number3" transform="matrix(1,0,0,1,-9,812.52)">
                <path d="M10.268,97.496C10.474,97.536 10.664,97.608 10.838,97.711C11.011,97.814 11.158,97.943 11.278,98.096C11.398,98.249 11.491,98.426 11.558,98.626C11.624,98.826 11.658,99.043 11.658,99.276C11.658,99.589 11.599,99.871 11.483,100.121C11.366,100.371 11.199,100.586 10.983,100.766C10.766,100.946 10.504,101.084 10.198,101.181C9.891,101.278 9.548,101.326 9.168,101.326C8.661,101.326 8.214,101.238 7.828,101.061C7.441,100.884 7.131,100.629 6.898,100.296L7.568,99.536C7.728,99.783 7.934,99.976 8.188,100.116C8.441,100.256 8.761,100.326 9.148,100.326C9.588,100.326 9.926,100.233 10.163,100.046C10.399,99.859 10.518,99.579 10.518,99.206C10.518,98.819 10.384,98.516 10.118,98.296C9.851,98.076 9.458,97.966 8.938,97.966L8.668,97.966L8.668,97.106L8.968,97.106C9.414,97.106 9.758,97.001 9.998,96.791C10.238,96.581 10.358,96.316 10.358,95.996C10.358,95.676 10.251,95.441 10.038,95.291C9.824,95.141 9.548,95.066 9.208,95.066C8.868,95.066 8.568,95.139 8.308,95.286C8.048,95.433 7.841,95.643 7.688,95.916L6.998,95.166C7.091,95.006 7.218,94.861 7.378,94.731C7.538,94.601 7.719,94.488 7.923,94.391C8.126,94.294 8.346,94.221 8.583,94.171C8.819,94.121 9.064,94.096 9.318,94.096C9.644,94.096 9.943,94.139 10.213,94.226C10.483,94.313 10.716,94.433 10.913,94.586C11.109,94.739 11.261,94.926 11.368,95.146C11.474,95.366 11.528,95.609 11.528,95.876C11.528,96.076 11.498,96.266 11.438,96.446C11.378,96.626 11.293,96.789 11.183,96.936C11.073,97.083 10.941,97.204 10.788,97.301C10.634,97.398 10.461,97.463 10.268,97.496Z" style="fill-rule:nonzero;"/>
            </g>
            <g id="number4" transform="matrix(1,0,0,1,-9,847.52)">
                <path d="M9.868,101.126L9.868,99.536L6.798,99.536L6.798,98.556L10.218,94.146L10.968,94.146L10.968,98.536L11.848,98.536L11.848,99.536L10.968,99.536L10.968,101.126L9.868,101.126ZM7.918,98.536L9.988,98.536L9.988,95.826L7.918,98.536Z" style="fill-rule:nonzero;"/>
            </g>
            <g id="number5" transform="matrix(1,0,0,1,-9,883.52)">
                <path d="M9.428,96.686C9.761,96.686 10.069,96.743 10.353,96.856C10.636,96.969 10.883,97.126 11.093,97.326C11.303,97.526 11.466,97.766 11.583,98.046C11.699,98.326 11.758,98.633 11.758,98.966C11.758,99.319 11.693,99.643 11.563,99.936C11.433,100.229 11.253,100.481 11.023,100.691C10.793,100.901 10.521,101.063 10.208,101.176C9.894,101.289 9.558,101.346 9.198,101.346C8.684,101.346 8.224,101.231 7.818,101.001C7.411,100.771 7.101,100.459 6.888,100.066L7.548,99.436C7.734,99.716 7.974,99.943 8.268,100.116C8.561,100.289 8.874,100.376 9.208,100.376C9.621,100.376 9.961,100.249 10.228,99.996C10.494,99.743 10.628,99.406 10.628,98.986C10.628,98.786 10.593,98.604 10.523,98.441C10.453,98.278 10.358,98.138 10.238,98.021C10.118,97.904 9.976,97.813 9.813,97.746C9.649,97.679 9.471,97.646 9.278,97.646C9.024,97.646 8.788,97.701 8.568,97.811C8.348,97.921 8.168,98.083 8.028,98.296L7.058,98.296C7.064,98.269 7.079,98.189 7.103,98.056C7.126,97.923 7.158,97.756 7.198,97.556C7.238,97.356 7.281,97.133 7.328,96.886C7.374,96.639 7.424,96.389 7.478,96.136C7.598,95.543 7.728,94.879 7.868,94.146L11.338,94.146L11.338,95.156L8.668,95.156L8.308,97.096C8.421,96.969 8.573,96.869 8.763,96.796C8.953,96.723 9.174,96.686 9.428,96.686Z" style="fill-rule:nonzero;"/>
            </g>
            <g id="number6" transform="matrix(1,0,0,1,-10,921.52)">
                <path d="M12.218,97.496C12.218,97.836 12.153,98.156 12.023,98.456C11.893,98.756 11.713,99.018 11.483,99.241C11.253,99.464 10.981,99.639 10.668,99.766C10.354,99.893 10.018,99.956 9.658,99.956C9.264,99.956 8.908,99.884 8.588,99.741C8.268,99.598 7.994,99.391 7.768,99.121C7.541,98.851 7.366,98.521 7.243,98.131C7.119,97.741 7.058,97.299 7.058,96.806C7.058,96.126 7.123,95.531 7.253,95.021C7.383,94.511 7.564,94.084 7.798,93.741C8.031,93.398 8.314,93.139 8.648,92.966C8.981,92.793 9.354,92.706 9.768,92.706C10.221,92.706 10.636,92.809 11.013,93.016C11.389,93.223 11.694,93.516 11.928,93.896L11.278,94.576C11.124,94.296 10.913,94.074 10.643,93.911C10.373,93.748 10.074,93.666 9.748,93.666C9.248,93.666 8.849,93.878 8.553,94.301C8.256,94.724 8.101,95.319 8.088,96.086C8.234,95.786 8.454,95.549 8.748,95.376C9.041,95.203 9.378,95.116 9.758,95.116C10.104,95.116 10.428,95.178 10.728,95.301C11.028,95.424 11.288,95.593 11.508,95.806C11.728,96.019 11.901,96.271 12.028,96.561C12.154,96.851 12.218,97.163 12.218,97.496ZM9.658,99.016C9.864,99.016 10.059,98.976 10.243,98.896C10.426,98.816 10.586,98.706 10.723,98.566C10.859,98.426 10.968,98.264 11.048,98.081C11.128,97.898 11.168,97.703 11.168,97.496C11.168,97.289 11.128,97.096 11.048,96.916C10.968,96.736 10.859,96.578 10.723,96.441C10.586,96.304 10.426,96.196 10.243,96.116C10.059,96.036 9.864,95.996 9.658,95.996C9.451,95.996 9.256,96.036 9.073,96.116C8.889,96.196 8.729,96.304 8.593,96.441C8.456,96.578 8.348,96.736 8.268,96.916C8.188,97.096 8.148,97.289 8.148,97.496C8.148,97.703 8.188,97.898 8.268,98.081C8.348,98.264 8.456,98.426 8.593,98.566C8.729,98.706 8.889,98.816 9.073,98.896C9.256,98.976 9.451,99.016 9.658,99.016Z" style="fill-rule:nonzero;"/>
            </g>
            <g id="number7" transform="matrix(1,0,0,1,-9,957.52)">
                <path d="M10.298,95.036L6.858,95.036L6.858,94.026L12.038,94.026L8.488,101.126L7.238,101.126L10.298,95.036Z" style="fill-rule:nonzero;"/>
            </g>
            <g id="number8" transform="matrix(1,0,0,1,-10,993.52)">
                <path d="M12.118,97.806C12.118,98.126 12.049,98.418 11.913,98.681C11.776,98.944 11.591,99.169 11.358,99.356C11.124,99.543 10.854,99.686 10.548,99.786C10.241,99.886 9.914,99.936 9.568,99.936C9.214,99.936 8.883,99.881 8.573,99.771C8.263,99.661 7.994,99.509 7.768,99.316C7.541,99.123 7.363,98.893 7.233,98.626C7.103,98.359 7.038,98.069 7.038,97.756C7.038,97.549 7.074,97.356 7.148,97.176C7.221,96.996 7.316,96.834 7.433,96.691C7.549,96.548 7.681,96.423 7.828,96.316C7.974,96.209 8.121,96.123 8.268,96.056C7.994,95.936 7.761,95.753 7.568,95.506C7.374,95.259 7.278,94.979 7.278,94.666C7.278,94.359 7.348,94.088 7.488,93.851C7.628,93.614 7.808,93.414 8.028,93.251C8.248,93.088 8.494,92.964 8.768,92.881C9.041,92.798 9.311,92.756 9.578,92.756C9.844,92.756 10.116,92.798 10.393,92.881C10.669,92.964 10.919,93.086 11.143,93.246C11.366,93.406 11.548,93.604 11.688,93.841C11.828,94.078 11.898,94.349 11.898,94.656C11.898,94.969 11.799,95.251 11.603,95.501C11.406,95.751 11.168,95.936 10.888,96.056C11.048,96.129 11.203,96.221 11.353,96.331C11.503,96.441 11.634,96.571 11.748,96.721C11.861,96.871 11.951,97.036 12.018,97.216C12.084,97.396 12.118,97.593 12.118,97.806ZM11.008,97.736C11.008,97.543 10.966,97.371 10.883,97.221C10.799,97.071 10.689,96.943 10.553,96.836C10.416,96.729 10.263,96.649 10.093,96.596C9.923,96.543 9.751,96.516 9.578,96.516C9.398,96.516 9.223,96.544 9.053,96.601C8.883,96.658 8.733,96.739 8.603,96.846C8.473,96.953 8.368,97.081 8.288,97.231C8.208,97.381 8.168,97.549 8.168,97.736C8.168,97.923 8.209,98.091 8.293,98.241C8.376,98.391 8.484,98.518 8.618,98.621C8.751,98.724 8.903,98.804 9.073,98.861C9.243,98.918 9.414,98.946 9.588,98.946C9.768,98.946 9.943,98.916 10.113,98.856C10.283,98.796 10.434,98.713 10.568,98.606C10.701,98.499 10.808,98.373 10.888,98.226C10.968,98.079 11.008,97.916 11.008,97.736ZM8.388,94.706C8.388,94.866 8.424,95.006 8.498,95.126C8.571,95.246 8.664,95.346 8.778,95.426C8.891,95.506 9.018,95.568 9.158,95.611C9.298,95.654 9.438,95.676 9.578,95.676C9.718,95.676 9.859,95.654 10.003,95.611C10.146,95.568 10.274,95.504 10.388,95.421C10.501,95.338 10.594,95.234 10.668,95.111C10.741,94.988 10.778,94.846 10.778,94.686C10.778,94.539 10.744,94.408 10.678,94.291C10.611,94.174 10.523,94.074 10.413,93.991C10.303,93.908 10.176,93.844 10.033,93.801C9.889,93.758 9.738,93.736 9.578,93.736C9.418,93.736 9.266,93.759 9.123,93.806C8.979,93.853 8.853,93.918 8.743,94.001C8.633,94.084 8.546,94.186 8.483,94.306C8.419,94.426 8.388,94.559 8.388,94.706Z" style="fill-rule:nonzero;"/>
            </g>
        </g>
        <g transform="matrix(1,0,0,1,-36.3127,743.396)">
            <path d="M54.896,11.425C54.872,11.393 54.788,11.333 54.644,11.245C54.5,11.157 54.32,11.065 54.104,10.969C53.888,10.873 53.652,10.789 53.396,10.717C53.14,10.645 52.884,10.609 52.628,10.609C51.924,10.609 51.572,10.845 51.572,11.317C51.572,11.461 51.61,11.581 51.686,11.677C51.762,11.773 51.874,11.859 52.022,11.935C52.17,12.011 52.356,12.081 52.58,12.145C52.804,12.209 53.064,12.281 53.36,12.361C53.768,12.473 54.136,12.595 54.464,12.727C54.792,12.859 55.07,13.023 55.298,13.219C55.526,13.415 55.702,13.653 55.826,13.933C55.95,14.213 56.012,14.549 56.012,14.941C56.012,15.421 55.922,15.827 55.742,16.159C55.562,16.491 55.324,16.759 55.028,16.963C54.732,17.167 54.392,17.315 54.008,17.407C53.624,17.499 53.228,17.545 52.82,17.545C52.508,17.545 52.188,17.521 51.86,17.473C51.532,17.425 51.212,17.355 50.9,17.263C50.588,17.171 50.286,17.061 49.994,16.933C49.702,16.805 49.432,16.657 49.184,16.489L50.048,14.773C50.08,14.813 50.184,14.889 50.36,15.001C50.536,15.113 50.754,15.225 51.014,15.337C51.274,15.449 51.564,15.549 51.884,15.637C52.204,15.725 52.528,15.769 52.856,15.769C53.552,15.769 53.9,15.557 53.9,15.133C53.9,14.973 53.848,14.841 53.744,14.737C53.64,14.633 53.496,14.539 53.312,14.455C53.128,14.371 52.91,14.293 52.658,14.221C52.406,14.149 52.132,14.069 51.836,13.981C51.444,13.861 51.104,13.731 50.816,13.591C50.528,13.451 50.29,13.289 50.102,13.105C49.914,12.921 49.774,12.709 49.682,12.469C49.59,12.229 49.544,11.949 49.544,11.629C49.544,11.181 49.628,10.785 49.796,10.441C49.964,10.097 50.192,9.807 50.48,9.571C50.768,9.335 51.102,9.157 51.482,9.037C51.862,8.917 52.264,8.857 52.688,8.857C52.984,8.857 53.276,8.885 53.564,8.941C53.852,8.997 54.128,9.069 54.392,9.157C54.656,9.245 54.902,9.345 55.13,9.457C55.358,9.569 55.568,9.681 55.76,9.793L54.896,11.425Z" style="fill-rule:nonzero;"/>
            <path d="M60.02,17.569C59.492,17.569 59.018,17.483 58.598,17.311C58.178,17.139 57.822,16.905 57.53,16.609C57.238,16.313 57.016,15.971 56.864,15.583C56.712,15.195 56.636,14.789 56.636,14.365C56.636,13.909 56.712,13.479 56.864,13.075C57.016,12.671 57.236,12.317 57.524,12.013C57.812,11.709 58.166,11.469 58.586,11.293C59.006,11.117 59.484,11.029 60.02,11.029C60.556,11.029 61.032,11.117 61.448,11.293C61.864,11.469 62.216,11.707 62.504,12.007C62.792,12.307 63.01,12.653 63.158,13.045C63.306,13.437 63.38,13.849 63.38,14.281C63.38,14.393 63.376,14.503 63.368,14.611C63.36,14.719 63.348,14.813 63.332,14.893L58.676,14.893C58.708,15.317 58.862,15.639 59.138,15.859C59.414,16.079 59.728,16.189 60.08,16.189C60.36,16.189 60.63,16.121 60.89,15.985C61.15,15.849 61.324,15.665 61.412,15.433L63.044,15.889C62.796,16.385 62.412,16.789 61.892,17.101C61.372,17.413 60.748,17.569 60.02,17.569ZM61.352,13.705C61.312,13.305 61.168,12.989 60.92,12.757C60.672,12.525 60.364,12.409 59.996,12.409C59.62,12.409 59.31,12.527 59.066,12.763C58.822,12.999 58.68,13.313 58.64,13.705L61.352,13.705Z" style="fill-rule:nonzero;"/>
            <path d="M66.632,17.569C66.232,17.569 65.866,17.485 65.534,17.317C65.202,17.149 64.916,16.917 64.676,16.621C64.436,16.325 64.248,15.977 64.112,15.577C63.976,15.177 63.908,14.745 63.908,14.281C63.908,13.825 63.982,13.399 64.13,13.003C64.278,12.607 64.482,12.263 64.742,11.971C65.002,11.679 65.31,11.449 65.666,11.281C66.022,11.113 66.412,11.029 66.836,11.029C67.316,11.029 67.73,11.133 68.078,11.341C68.426,11.549 68.716,11.829 68.948,12.181L68.948,11.149L70.616,11.149L70.616,17.749C70.616,17.941 70.652,18.075 70.724,18.151C70.796,18.227 70.924,18.269 71.108,18.277L71.108,19.909C70.94,19.941 70.76,19.965 70.568,19.981C70.376,19.997 70.204,20.005 70.052,20.005C69.868,20.005 69.694,19.975 69.53,19.915C69.366,19.855 69.222,19.771 69.098,19.663C68.974,19.555 68.876,19.425 68.804,19.273C68.732,19.121 68.696,18.953 68.696,18.769L68.696,16.429C68.264,17.189 67.576,17.569 66.632,17.569ZM67.364,15.949C67.644,15.949 67.896,15.871 68.12,15.715C68.344,15.559 68.536,15.353 68.696,15.097L68.696,13.765C68.648,13.613 68.576,13.469 68.48,13.333C68.384,13.197 68.272,13.079 68.144,12.979C68.016,12.879 67.88,12.801 67.736,12.745C67.592,12.689 67.448,12.661 67.304,12.661C67.096,12.661 66.904,12.707 66.728,12.799C66.552,12.891 66.4,13.013 66.272,13.165C66.144,13.317 66.044,13.493 65.972,13.693C65.9,13.893 65.864,14.105 65.864,14.329C65.864,14.801 66.002,15.189 66.278,15.493C66.554,15.797 66.916,15.949 67.364,15.949Z" style="fill-rule:nonzero;"/>
            <path d="M73.844,17.569C73.196,17.569 72.706,17.367 72.374,16.963C72.042,16.559 71.876,15.965 71.876,15.181L71.876,11.149L73.796,11.149L73.796,14.761C73.796,15.145 73.872,15.439 74.024,15.643C74.176,15.847 74.392,15.949 74.672,15.949C74.928,15.949 75.176,15.881 75.416,15.745C75.656,15.609 75.868,15.373 76.052,15.037L76.052,11.149L77.972,11.149L77.972,15.289C77.972,15.481 78.002,15.615 78.062,15.691C78.122,15.767 78.228,15.813 78.38,15.829L78.38,17.449C78.196,17.489 78.04,17.515 77.912,17.527C77.784,17.539 77.668,17.545 77.564,17.545C76.876,17.545 76.484,17.277 76.388,16.741L76.352,16.357C76.064,16.773 75.706,17.079 75.278,17.275C74.85,17.471 74.372,17.569 73.844,17.569Z" style="fill-rule:nonzero;"/>
            <path d="M82.472,17.569C81.944,17.569 81.47,17.483 81.05,17.311C80.63,17.139 80.274,16.905 79.982,16.609C79.69,16.313 79.468,15.971 79.316,15.583C79.164,15.195 79.088,14.789 79.088,14.365C79.088,13.909 79.164,13.479 79.316,13.075C79.468,12.671 79.688,12.317 79.976,12.013C80.264,11.709 80.618,11.469 81.038,11.293C81.458,11.117 81.936,11.029 82.472,11.029C83.008,11.029 83.484,11.117 83.9,11.293C84.316,11.469 84.668,11.707 84.956,12.007C85.244,12.307 85.462,12.653 85.61,13.045C85.758,13.437 85.832,13.849 85.832,14.281C85.832,14.393 85.828,14.503 85.82,14.611C85.812,14.719 85.8,14.813 85.784,14.893L81.128,14.893C81.16,15.317 81.314,15.639 81.59,15.859C81.866,16.079 82.18,16.189 82.532,16.189C82.812,16.189 83.082,16.121 83.342,15.985C83.602,15.849 83.776,15.665 83.864,15.433L85.496,15.889C85.248,16.385 84.864,16.789 84.344,17.101C83.824,17.413 83.2,17.569 82.472,17.569ZM83.804,13.705C83.764,13.305 83.62,12.989 83.372,12.757C83.124,12.525 82.816,12.409 82.448,12.409C82.072,12.409 81.762,12.527 81.518,12.763C81.274,12.999 81.132,13.313 81.092,13.705L83.804,13.705Z" style="fill-rule:nonzero;"/>
            <path d="M92.78,17.449L90.86,17.449L90.86,13.909C90.86,13.493 90.782,13.191 90.626,13.003C90.47,12.815 90.264,12.721 90.008,12.721C89.872,12.721 89.736,12.749 89.6,12.805C89.464,12.861 89.332,12.939 89.204,13.039C89.076,13.139 88.962,13.257 88.862,13.393C88.762,13.529 88.684,13.677 88.628,13.837L88.628,17.449L86.708,17.449L86.708,11.149L88.436,11.149L88.436,12.205C88.668,11.829 88.996,11.539 89.42,11.335C89.844,11.131 90.332,11.029 90.884,11.029C91.292,11.029 91.62,11.103 91.868,11.251C92.116,11.399 92.308,11.591 92.444,11.827C92.58,12.063 92.67,12.321 92.714,12.601C92.758,12.881 92.78,13.153 92.78,13.417L92.78,17.449Z" style="fill-rule:nonzero;"/>
            <path d="M93.68,14.293C93.68,13.861 93.756,13.447 93.908,13.051C94.06,12.655 94.28,12.307 94.568,12.007C94.856,11.707 95.21,11.469 95.63,11.293C96.05,11.117 96.528,11.029 97.064,11.029C97.792,11.029 98.404,11.183 98.9,11.491C99.396,11.799 99.768,12.201 100.016,12.697L98.144,13.261C97.896,12.861 97.532,12.661 97.052,12.661C96.652,12.661 96.318,12.809 96.05,13.105C95.782,13.401 95.648,13.797 95.648,14.293C95.648,14.541 95.684,14.767 95.756,14.971C95.828,15.175 95.928,15.349 96.056,15.493C96.184,15.637 96.334,15.749 96.506,15.829C96.678,15.909 96.86,15.949 97.052,15.949C97.292,15.949 97.512,15.891 97.712,15.775C97.912,15.659 98.06,15.509 98.156,15.325L100.028,15.901C99.796,16.389 99.426,16.789 98.918,17.101C98.41,17.413 97.792,17.569 97.064,17.569C96.536,17.569 96.062,17.479 95.642,17.299C95.222,17.119 94.866,16.879 94.574,16.579C94.282,16.279 94.06,15.931 93.908,15.535C93.756,15.139 93.68,14.725 93.68,14.293Z" style="fill-rule:nonzero;"/>
            <path d="M103.844,17.569C103.316,17.569 102.842,17.483 102.422,17.311C102.002,17.139 101.646,16.905 101.354,16.609C101.062,16.313 100.84,15.971 100.688,15.583C100.536,15.195 100.46,14.789 100.46,14.365C100.46,13.909 100.536,13.479 100.688,13.075C100.84,12.671 101.06,12.317 101.348,12.013C101.636,11.709 101.99,11.469 102.41,11.293C102.83,11.117 103.308,11.029 103.844,11.029C104.38,11.029 104.856,11.117 105.272,11.293C105.688,11.469 106.04,11.707 106.328,12.007C106.616,12.307 106.834,12.653 106.982,13.045C107.13,13.437 107.204,13.849 107.204,14.281C107.204,14.393 107.2,14.503 107.192,14.611C107.184,14.719 107.172,14.813 107.156,14.893L102.5,14.893C102.532,15.317 102.686,15.639 102.962,15.859C103.238,16.079 103.552,16.189 103.904,16.189C104.184,16.189 104.454,16.121 104.714,15.985C104.974,15.849 105.148,15.665 105.236,15.433L106.868,15.889C106.62,16.385 106.236,16.789 105.716,17.101C105.196,17.413 104.572,17.569 103.844,17.569ZM105.176,13.705C105.136,13.305 104.992,12.989 104.744,12.757C104.496,12.525 104.188,12.409 103.82,12.409C103.444,12.409 103.134,12.527 102.89,12.763C102.646,12.999 102.504,13.313 102.464,13.705L105.176,13.705Z" style="fill-rule:nonzero;"/>
        </g>
        <g transform="matrix(1,0,0,1,-49.7005,626.155)">
            <path d="M150.022,196.84L148.922,196.84L148.922,193.91C148.922,193.423 148.842,193.066 148.682,192.84C148.522,192.613 148.289,192.5 147.982,192.5C147.669,192.5 147.384,192.615 147.127,192.845C146.87,193.075 146.685,193.373 146.572,193.74L146.572,196.84L145.472,196.84L145.472,193.91C145.472,193.416 145.392,193.058 145.232,192.835C145.072,192.611 144.842,192.5 144.542,192.5C144.229,192.5 143.942,192.613 143.682,192.84C143.422,193.066 143.235,193.363 143.122,193.73L143.122,196.84L142.022,196.84L142.022,191.61L143.022,191.61L143.022,192.66C143.229,192.293 143.5,192.011 143.837,191.815C144.174,191.618 144.559,191.52 144.992,191.52C145.425,191.52 145.767,191.633 146.017,191.86C146.267,192.086 146.422,192.37 146.482,192.71C146.702,192.323 146.979,192.028 147.312,191.825C147.645,191.621 148.025,191.52 148.452,191.52C148.759,191.52 149.014,191.578 149.217,191.695C149.42,191.811 149.582,191.966 149.702,192.16C149.822,192.353 149.905,192.578 149.952,192.835C149.999,193.091 150.022,193.363 150.022,193.65L150.022,196.84Z" style="fill-rule:nonzero;"/>
            <path d="M153.642,196.94C153.229,196.94 152.857,196.866 152.527,196.72C152.197,196.573 151.915,196.376 151.682,196.13C151.449,195.883 151.269,195.595 151.142,195.265C151.015,194.935 150.952,194.59 150.952,194.23C150.952,193.87 151.015,193.525 151.142,193.195C151.269,192.865 151.45,192.576 151.687,192.33C151.924,192.083 152.207,191.886 152.537,191.74C152.867,191.593 153.235,191.52 153.642,191.52C154.049,191.52 154.417,191.593 154.747,191.74C155.077,191.886 155.36,192.083 155.597,192.33C155.834,192.576 156.015,192.865 156.142,193.195C156.269,193.525 156.332,193.87 156.332,194.23C156.332,194.59 156.269,194.935 156.142,195.265C156.015,195.595 155.834,195.883 155.597,196.13C155.36,196.376 155.077,196.573 154.747,196.72C154.417,196.866 154.049,196.94 153.642,196.94ZM152.082,194.24C152.082,194.493 152.122,194.726 152.202,194.94C152.282,195.153 152.392,195.338 152.532,195.495C152.672,195.651 152.837,195.775 153.027,195.865C153.217,195.955 153.422,196 153.642,196C153.862,196 154.067,195.955 154.257,195.865C154.447,195.775 154.612,195.65 154.752,195.49C154.892,195.33 155.002,195.143 155.082,194.93C155.162,194.716 155.202,194.483 155.202,194.23C155.202,193.983 155.162,193.751 155.082,193.535C155.002,193.318 154.892,193.13 154.752,192.97C154.612,192.81 154.447,192.685 154.257,192.595C154.067,192.505 153.862,192.46 153.642,192.46C153.429,192.46 153.227,192.506 153.037,192.6C152.847,192.693 152.682,192.82 152.542,192.98C152.402,193.14 152.29,193.328 152.207,193.545C152.124,193.761 152.082,193.993 152.082,194.24Z" style="fill-rule:nonzero;"/>
            <path d="M159.442,196.94C159.089,196.94 158.762,196.868 158.462,196.725C158.162,196.581 157.902,196.386 157.682,196.14C157.462,195.893 157.29,195.605 157.167,195.275C157.044,194.945 156.982,194.59 156.982,194.21C156.982,193.843 157.04,193.498 157.157,193.175C157.274,192.851 157.437,192.566 157.647,192.32C157.857,192.073 158.104,191.878 158.387,191.735C158.67,191.591 158.982,191.52 159.322,191.52C159.742,191.52 160.112,191.621 160.432,191.825C160.752,192.028 161.002,192.286 161.182,192.6L161.182,189.54L162.282,189.54L162.282,195.54C162.282,195.666 162.304,195.756 162.347,195.81C162.39,195.863 162.469,195.893 162.582,195.9L162.582,196.84C162.469,196.86 162.377,196.873 162.307,196.88C162.237,196.886 162.179,196.89 162.132,196.89C161.912,196.89 161.732,196.833 161.592,196.72C161.452,196.606 161.375,196.46 161.362,196.28L161.342,195.89C161.149,196.216 160.885,196.473 160.552,196.66C160.219,196.846 159.849,196.94 159.442,196.94ZM159.712,196C159.872,196 160.032,195.973 160.192,195.92C160.352,195.866 160.499,195.793 160.632,195.7C160.765,195.606 160.88,195.496 160.977,195.37C161.074,195.243 161.142,195.106 161.182,194.96L161.182,193.59C161.122,193.423 161.037,193.27 160.927,193.13C160.817,192.99 160.692,192.87 160.552,192.77C160.412,192.67 160.264,192.593 160.107,192.54C159.95,192.486 159.792,192.46 159.632,192.46C159.412,192.46 159.21,192.51 159.027,192.61C158.844,192.71 158.685,192.843 158.552,193.01C158.419,193.176 158.314,193.366 158.237,193.58C158.16,193.793 158.122,194.013 158.122,194.24C158.122,194.48 158.164,194.706 158.247,194.92C158.33,195.133 158.445,195.32 158.592,195.48C158.739,195.64 158.907,195.766 159.097,195.86C159.287,195.953 159.492,196 159.712,196Z" style="fill-rule:nonzero;"/>
            <path d="M166.052,196.94C165.645,196.94 165.275,196.868 164.942,196.725C164.609,196.581 164.324,196.386 164.087,196.14C163.85,195.893 163.667,195.606 163.537,195.28C163.407,194.953 163.342,194.606 163.342,194.24C163.342,193.873 163.407,193.525 163.537,193.195C163.667,192.865 163.85,192.575 164.087,192.325C164.324,192.075 164.609,191.878 164.942,191.735C165.275,191.591 165.649,191.52 166.062,191.52C166.469,191.52 166.837,191.593 167.167,191.74C167.497,191.886 167.779,192.081 168.012,192.325C168.245,192.568 168.424,192.851 168.547,193.175C168.67,193.498 168.732,193.836 168.732,194.19C168.732,194.27 168.729,194.345 168.722,194.415C168.715,194.485 168.709,194.543 168.702,194.59L164.512,194.59C164.532,194.823 164.587,195.033 164.677,195.22C164.767,195.406 164.884,195.568 165.027,195.705C165.17,195.841 165.334,195.946 165.517,196.02C165.7,196.093 165.892,196.13 166.092,196.13C166.239,196.13 166.384,196.111 166.527,196.075C166.67,196.038 166.802,195.985 166.922,195.915C167.042,195.845 167.149,195.76 167.242,195.66C167.335,195.56 167.409,195.45 167.462,195.33L168.402,195.6C168.222,195.993 167.924,196.315 167.507,196.565C167.09,196.815 166.605,196.94 166.052,196.94ZM167.642,193.83C167.622,193.61 167.567,193.406 167.477,193.22C167.387,193.033 167.272,192.875 167.132,192.745C166.992,192.615 166.829,192.513 166.642,192.44C166.455,192.366 166.259,192.33 166.052,192.33C165.845,192.33 165.65,192.366 165.467,192.44C165.284,192.513 165.122,192.615 164.982,192.745C164.842,192.875 164.729,193.033 164.642,193.22C164.555,193.406 164.502,193.61 164.482,193.83L167.642,193.83Z" style="fill-rule:nonzero;"/>
        </g>
        <g transform="matrix(1,0,0,1,-48,744.52)">
            <path d="M35.937,26.452C35.937,26.086 36,25.739 36.127,25.412C36.253,25.086 36.435,24.799 36.672,24.552C36.908,24.306 37.193,24.111 37.527,23.967C37.86,23.824 38.233,23.752 38.647,23.752C39.187,23.752 39.652,23.871 40.042,24.107C40.432,24.344 40.723,24.659 40.917,25.052L39.847,25.392C39.72,25.172 39.55,25.001 39.337,24.877C39.123,24.754 38.887,24.692 38.627,24.692C38.407,24.692 38.202,24.736 38.012,24.822C37.822,24.909 37.657,25.031 37.517,25.187C37.377,25.344 37.267,25.529 37.187,25.742C37.107,25.956 37.067,26.192 37.067,26.452C37.067,26.706 37.108,26.941 37.192,27.157C37.275,27.374 37.388,27.562 37.532,27.722C37.675,27.882 37.842,28.007 38.032,28.097C38.222,28.187 38.423,28.232 38.637,28.232C38.77,28.232 38.903,28.214 39.037,28.177C39.17,28.141 39.292,28.089 39.402,28.022C39.512,27.956 39.608,27.879 39.692,27.792C39.775,27.706 39.837,27.612 39.877,27.512L40.957,27.832C40.783,28.226 40.493,28.547 40.087,28.797C39.68,29.047 39.2,29.172 38.647,29.172C38.24,29.172 37.87,29.099 37.537,28.952C37.203,28.806 36.918,28.607 36.682,28.357C36.445,28.107 36.262,27.819 36.132,27.492C36.002,27.166 35.937,26.819 35.937,26.452Z" style="fill-rule:nonzero;"/>
            <path d="M41.877,21.772L42.977,21.772L42.977,27.562C42.977,27.756 43.027,27.907 43.127,28.017C43.227,28.127 43.367,28.182 43.547,28.182C43.62,28.182 43.705,28.169 43.802,28.142C43.898,28.116 43.99,28.086 44.077,28.052L44.237,28.912C44.077,28.986 43.887,29.044 43.667,29.087C43.447,29.131 43.25,29.152 43.077,29.152C42.697,29.152 42.402,29.049 42.192,28.842C41.982,28.636 41.877,28.342 41.877,27.962L41.877,21.772Z" style="fill-rule:nonzero;"/>
            <path d="M47.227,29.172C46.813,29.172 46.442,29.099 46.112,28.952C45.782,28.806 45.5,28.609 45.267,28.362C45.033,28.116 44.853,27.827 44.727,27.497C44.6,27.167 44.537,26.822 44.537,26.462C44.537,26.102 44.6,25.757 44.727,25.427C44.853,25.097 45.035,24.809 45.272,24.562C45.508,24.316 45.792,24.119 46.122,23.972C46.452,23.826 46.82,23.752 47.227,23.752C47.633,23.752 48.002,23.826 48.332,23.972C48.662,24.119 48.945,24.316 49.182,24.562C49.418,24.809 49.6,25.097 49.727,25.427C49.853,25.757 49.917,26.102 49.917,26.462C49.917,26.822 49.853,27.167 49.727,27.497C49.6,27.827 49.418,28.116 49.182,28.362C48.945,28.609 48.662,28.806 48.332,28.952C48.002,29.099 47.633,29.172 47.227,29.172ZM45.667,26.472C45.667,26.726 45.707,26.959 45.787,27.172C45.867,27.386 45.977,27.571 46.117,27.727C46.257,27.884 46.422,28.007 46.612,28.097C46.802,28.187 47.007,28.232 47.227,28.232C47.447,28.232 47.652,28.187 47.842,28.097C48.032,28.007 48.197,27.882 48.337,27.722C48.477,27.562 48.587,27.376 48.667,27.162C48.747,26.949 48.787,26.716 48.787,26.462C48.787,26.216 48.747,25.984 48.667,25.767C48.587,25.551 48.477,25.362 48.337,25.202C48.197,25.042 48.032,24.917 47.842,24.827C47.652,24.737 47.447,24.692 47.227,24.692C47.013,24.692 46.812,24.739 46.622,24.832C46.432,24.926 46.267,25.052 46.127,25.212C45.987,25.372 45.875,25.561 45.792,25.777C45.708,25.994 45.667,26.226 45.667,26.472Z" style="fill-rule:nonzero;"/>
            <path d="M50.557,26.452C50.557,26.086 50.62,25.739 50.747,25.412C50.873,25.086 51.055,24.799 51.292,24.552C51.528,24.306 51.813,24.111 52.147,23.967C52.48,23.824 52.853,23.752 53.267,23.752C53.807,23.752 54.272,23.871 54.662,24.107C55.052,24.344 55.343,24.659 55.537,25.052L54.467,25.392C54.34,25.172 54.17,25.001 53.957,24.877C53.743,24.754 53.507,24.692 53.247,24.692C53.027,24.692 52.822,24.736 52.632,24.822C52.442,24.909 52.277,25.031 52.137,25.187C51.997,25.344 51.887,25.529 51.807,25.742C51.727,25.956 51.687,26.192 51.687,26.452C51.687,26.706 51.728,26.941 51.812,27.157C51.895,27.374 52.008,27.562 52.152,27.722C52.295,27.882 52.462,28.007 52.652,28.097C52.842,28.187 53.043,28.232 53.257,28.232C53.39,28.232 53.523,28.214 53.657,28.177C53.79,28.141 53.912,28.089 54.022,28.022C54.132,27.956 54.228,27.879 54.312,27.792C54.395,27.706 54.457,27.612 54.497,27.512L55.577,27.832C55.403,28.226 55.113,28.547 54.707,28.797C54.3,29.047 53.82,29.172 53.267,29.172C52.86,29.172 52.49,29.099 52.157,28.952C51.823,28.806 51.538,28.607 51.302,28.357C51.065,28.107 50.882,27.819 50.752,27.492C50.622,27.166 50.557,26.819 50.557,26.452Z" style="fill-rule:nonzero;"/>
            <path d="M60.127,29.072L58.457,26.662L57.587,27.482L57.587,29.072L56.487,29.072L56.487,21.772L57.587,21.772L57.587,26.402L59.987,23.852L61.187,23.852L59.157,26.042L61.297,29.072L60.127,29.072Z" style="fill-rule:nonzero;"/>
        </g>
    </g>
</svg>
