<?xml version="1.0" encoding="UTF-8" standalone="no"?>
<!DOCTYPE svg PUBLIC "-//W3C//DTD SVG 1.1//EN" "http://www.w3.org/Graphics/SVG/1.1/DTD/svg11.dtd">
<svg width="100%" height="100%" viewBox="0 0 60 380" version="1.1" xmlns="http://www.w3.org/2000/svg" xmlns:xlink="http://www.w3.org/1999/xlink" xml:space="preserve" xmlns:serif="http://www.serif.com/" style="fill-rule:evenodd;clip-rule:evenodd;stroke-linejoin:round;stroke-miterlimit:1.41421;">
    <g id="Layer-1" serif:id="Layer 1" transform="matrix(1,0,0,1,-15,-742.52)">
        <g id="background" transform="matrix(0.666667,0,0,1,15.0946,-0.232523)">
            <rect x="0" y="742.52" width="90" height="380" style="fill:rgb(240,240,240);"/>
        </g>
        <g transform="matrix(1,0,0,1,15,709.52)">
            <path d="M38.313,105.734C38.313,105.307 38.39,104.882 38.543,104.459C38.696,104.035 38.921,103.655 39.218,103.319C39.515,102.982 39.876,102.71 40.303,102.504C40.73,102.297 41.213,102.194 41.753,102.194C42.4,102.194 42.953,102.337 43.413,102.624C43.873,102.91 44.22,103.284 44.453,103.744L43.573,104.334C43.473,104.12 43.353,103.94 43.213,103.794C43.073,103.647 42.92,103.53 42.753,103.444C42.586,103.357 42.413,103.295 42.233,103.259C42.053,103.222 41.88,103.204 41.713,103.204C41.34,103.204 41.013,103.279 40.733,103.429C40.453,103.579 40.218,103.777 40.028,104.024C39.838,104.27 39.695,104.547 39.598,104.854C39.501,105.16 39.453,105.467 39.453,105.774C39.453,106.12 39.51,106.45 39.623,106.764C39.736,107.077 39.895,107.354 40.098,107.594C40.301,107.834 40.543,108.025 40.823,108.169C41.103,108.312 41.41,108.384 41.743,108.384C41.916,108.384 42.095,108.362 42.278,108.319C42.461,108.275 42.638,108.205 42.808,108.109C42.978,108.012 43.135,107.89 43.278,107.744C43.421,107.597 43.54,107.42 43.633,107.214L44.563,107.744C44.45,108.01 44.29,108.245 44.083,108.449C43.876,108.652 43.643,108.824 43.383,108.964C43.123,109.104 42.848,109.21 42.558,109.284C42.268,109.357 41.983,109.394 41.703,109.394C41.203,109.394 40.746,109.287 40.333,109.074C39.92,108.86 39.563,108.582 39.263,108.239C38.963,107.895 38.73,107.505 38.563,107.069C38.396,106.632 38.313,106.187 38.313,105.734Z" style="fill-rule:nonzero;"/>
            <path d="M45.943,102.234L48.083,107.924L50.213,102.234L51.403,102.234L48.563,109.334L47.603,109.334L44.753,102.234L45.943,102.234Z" style="fill-rule:nonzero;"/>
        </g>
        <g transform="matrix(1,0,0,1,31.4471,793.098)">
            <path d="M35.223,53.087L36.399,53.087L39.759,61.607L38.343,61.607L37.443,59.291L34.155,59.291L33.267,61.607L31.839,61.607L35.223,53.087ZM37.179,58.295L35.811,54.635L34.395,58.295L37.179,58.295Z" style="fill-rule:nonzero;"/>
        </g>
        <g transform="matrix(1,0,0,1,31.4471,823.471)">
            <path d="M39.411,59.411C39.411,59.755 39.341,60.063 39.201,60.335C39.061,60.607 38.873,60.837 38.637,61.025C38.401,61.213 38.123,61.357 37.803,61.457C37.483,61.557 37.143,61.607 36.783,61.607L32.715,61.607L32.715,53.087L37.107,53.087C37.403,53.087 37.671,53.151 37.911,53.279C38.151,53.407 38.355,53.573 38.523,53.777C38.691,53.981 38.821,54.213 38.913,54.473C39.005,54.733 39.051,54.995 39.051,55.259C39.051,55.675 38.945,56.065 38.733,56.429C38.521,56.793 38.219,57.063 37.827,57.239C38.315,57.383 38.701,57.645 38.985,58.025C39.269,58.405 39.411,58.867 39.411,59.411ZM38.031,59.159C38.031,58.983 38.001,58.815 37.941,58.655C37.881,58.495 37.801,58.355 37.701,58.235C37.601,58.115 37.479,58.019 37.335,57.947C37.191,57.875 37.035,57.839 36.867,57.839L34.059,57.839L34.059,60.443L36.783,60.443C36.959,60.443 37.123,60.409 37.275,60.341C37.427,60.273 37.559,60.181 37.671,60.065C37.783,59.949 37.871,59.813 37.935,59.657C37.999,59.501 38.031,59.335 38.031,59.159ZM34.059,54.251L34.059,56.759L36.531,56.759C36.699,56.759 36.853,56.727 36.993,56.663C37.133,56.599 37.257,56.513 37.365,56.405C37.473,56.297 37.557,56.167 37.617,56.015C37.677,55.863 37.707,55.695 37.707,55.511C37.707,55.143 37.603,54.841 37.395,54.605C37.187,54.369 36.923,54.251 36.603,54.251L34.059,54.251Z" style="fill-rule:nonzero;"/>
        </g>
        <g transform="matrix(1,0,0,1,10.6766,756.348)">
            <path d="M6.954,14.271C7.066,14.351 7.254,14.439 7.518,14.535C7.782,14.631 8.086,14.679 8.43,14.679C8.766,14.679 9.034,14.621 9.234,14.505C9.434,14.389 9.586,14.211 9.69,13.971C9.794,13.731 9.862,13.433 9.894,13.077C9.926,12.721 9.942,12.303 9.942,11.823L9.942,7.491L11.598,7.491L11.598,11.823C11.598,12.471 11.564,13.061 11.496,13.593C11.428,14.125 11.284,14.579 11.064,14.955C10.844,15.331 10.526,15.623 10.11,15.831C9.694,16.039 9.134,16.143 8.43,16.143C7.71,16.143 7.094,15.967 6.582,15.615L6.954,14.271Z" style="fill-rule:nonzero;"/>
            <path d="M15.042,16.131C14.394,16.131 13.902,15.923 13.566,15.507C13.23,15.091 13.062,14.475 13.062,13.659L13.062,9.723L14.67,9.723L14.67,13.311C14.67,14.279 15.018,14.763 15.714,14.763C16.026,14.763 16.328,14.669 16.62,14.481C16.912,14.293 17.15,14.007 17.334,13.623L17.334,9.723L18.942,9.723L18.942,14.163C18.942,14.331 18.972,14.451 19.032,14.523C19.092,14.595 19.19,14.635 19.326,14.643L19.326,16.011C19.166,16.043 19.032,16.063 18.924,16.071C18.816,16.079 18.718,16.083 18.63,16.083C18.342,16.083 18.108,16.017 17.928,15.885C17.748,15.753 17.642,15.571 17.61,15.339L17.574,14.835C17.294,15.267 16.934,15.591 16.494,15.807C16.054,16.023 15.57,16.131 15.042,16.131Z" style="fill-rule:nonzero;"/>
            <path d="M26.382,16.011L24.774,16.011L24.774,12.483C24.774,11.979 24.686,11.611 24.51,11.379C24.334,11.147 24.09,11.031 23.778,11.031C23.618,11.031 23.454,11.063 23.286,11.127C23.118,11.191 22.96,11.281 22.812,11.397C22.664,11.513 22.53,11.651 22.41,11.811C22.29,11.971 22.202,12.147 22.146,12.339L22.146,16.011L20.538,16.011L20.538,9.723L21.99,9.723L21.99,10.887C22.222,10.487 22.558,10.175 22.998,9.951C23.438,9.727 23.934,9.615 24.486,9.615C24.878,9.615 25.198,9.687 25.446,9.831C25.694,9.975 25.886,10.163 26.022,10.395C26.158,10.627 26.252,10.891 26.304,11.187C26.356,11.483 26.382,11.783 26.382,12.087L26.382,16.011Z" style="fill-rule:nonzero;"/>
            <path d="M27.39,12.867C27.39,12.427 27.466,12.011 27.618,11.619C27.77,11.227 27.99,10.883 28.278,10.587C28.566,10.291 28.914,10.055 29.322,9.879C29.73,9.703 30.19,9.615 30.702,9.615C31.39,9.615 31.976,9.763 32.46,10.059C32.944,10.355 33.306,10.743 33.546,11.223L31.974,11.703C31.838,11.471 31.658,11.293 31.434,11.169C31.21,11.045 30.962,10.983 30.69,10.983C30.458,10.983 30.242,11.029 30.042,11.121C29.842,11.213 29.668,11.341 29.52,11.505C29.372,11.669 29.256,11.867 29.172,12.099C29.088,12.331 29.046,12.587 29.046,12.867C29.046,13.147 29.09,13.403 29.178,13.635C29.266,13.867 29.384,14.067 29.532,14.235C29.68,14.403 29.854,14.533 30.054,14.625C30.254,14.717 30.466,14.763 30.69,14.763C30.978,14.763 31.244,14.691 31.488,14.547C31.732,14.403 31.902,14.227 31.998,14.019L33.57,14.499C33.354,14.979 32.998,15.371 32.502,15.675C32.006,15.979 31.41,16.131 30.714,16.131C30.202,16.131 29.742,16.043 29.334,15.867C28.926,15.691 28.578,15.453 28.29,15.153C28.002,14.853 27.78,14.505 27.624,14.109C27.468,13.713 27.39,13.299 27.39,12.867Z" style="fill-rule:nonzero;"/>
            <path d="M38.322,15.687C38.106,15.783 37.842,15.879 37.53,15.975C37.218,16.071 36.89,16.119 36.546,16.119C36.322,16.119 36.112,16.091 35.916,16.035C35.72,15.979 35.548,15.889 35.4,15.765C35.252,15.641 35.134,15.481 35.046,15.285C34.958,15.089 34.914,14.851 34.914,14.571L34.914,10.959L34.086,10.959L34.086,9.723L34.914,9.723L34.914,7.683L36.522,7.683L36.522,9.723L37.842,9.723L37.842,10.959L36.522,10.959L36.522,14.031C36.522,14.255 36.58,14.413 36.696,14.505C36.812,14.597 36.954,14.643 37.122,14.643C37.29,14.643 37.454,14.615 37.614,14.559C37.774,14.503 37.902,14.455 37.998,14.415L38.322,15.687Z" style="fill-rule:nonzero;"/>
            <path d="M39.162,16.011L39.162,9.723L40.77,9.723L40.77,16.011L39.162,16.011ZM39.162,8.847L39.162,7.251L40.77,7.251L40.77,8.847L39.162,8.847Z" style="fill-rule:nonzero;"/>
            <path d="M45.126,16.131C44.614,16.131 44.154,16.043 43.746,15.867C43.338,15.691 42.992,15.453 42.708,15.153C42.424,14.853 42.206,14.507 42.054,14.115C41.902,13.723 41.826,13.311 41.826,12.879C41.826,12.439 41.902,12.023 42.054,11.631C42.206,11.239 42.424,10.893 42.708,10.593C42.992,10.293 43.338,10.055 43.746,9.879C44.154,9.703 44.614,9.615 45.126,9.615C45.638,9.615 46.096,9.703 46.5,9.879C46.904,10.055 47.248,10.293 47.532,10.593C47.816,10.893 48.034,11.239 48.186,11.631C48.338,12.023 48.414,12.439 48.414,12.879C48.414,13.311 48.338,13.723 48.186,14.115C48.034,14.507 47.818,14.853 47.538,15.153C47.258,15.453 46.914,15.691 46.506,15.867C46.098,16.043 45.638,16.131 45.126,16.131ZM43.482,12.879C43.482,13.159 43.524,13.413 43.608,13.641C43.692,13.869 43.808,14.067 43.956,14.235C44.104,14.403 44.278,14.533 44.478,14.625C44.678,14.717 44.894,14.763 45.126,14.763C45.358,14.763 45.574,14.717 45.774,14.625C45.974,14.533 46.148,14.403 46.296,14.235C46.444,14.067 46.56,13.867 46.644,13.635C46.728,13.403 46.77,13.147 46.77,12.867C46.77,12.595 46.728,12.343 46.644,12.111C46.56,11.879 46.444,11.679 46.296,11.511C46.148,11.343 45.974,11.213 45.774,11.121C45.574,11.029 45.358,10.983 45.126,10.983C44.894,10.983 44.678,11.031 44.478,11.127C44.278,11.223 44.104,11.355 43.956,11.523C43.808,11.691 43.692,11.891 43.608,12.123C43.524,12.355 43.482,12.607 43.482,12.879Z" style="fill-rule:nonzero;"/>
            <path d="M55.338,16.011L53.73,16.011L53.73,12.483C53.73,11.979 53.642,11.611 53.466,11.379C53.29,11.147 53.046,11.031 52.734,11.031C52.574,11.031 52.41,11.063 52.242,11.127C52.074,11.191 51.916,11.281 51.768,11.397C51.62,11.513 51.486,11.651 51.366,11.811C51.246,11.971 51.158,12.147 51.102,12.339L51.102,16.011L49.494,16.011L49.494,9.723L50.946,9.723L50.946,10.887C51.178,10.487 51.514,10.175 51.954,9.951C52.394,9.727 52.89,9.615 53.442,9.615C53.834,9.615 54.154,9.687 54.402,9.831C54.65,9.975 54.842,10.163 54.978,10.395C55.114,10.627 55.208,10.891 55.26,11.187C55.312,11.483 55.338,11.783 55.338,12.087L55.338,16.011Z" style="fill-rule:nonzero;"/>
            <path d="M59.118,16.131C58.59,16.131 58.074,16.047 57.57,15.879C57.066,15.711 56.634,15.471 56.274,15.159L56.874,14.151C57.258,14.423 57.632,14.629 57.996,14.769C58.36,14.909 58.722,14.979 59.082,14.979C59.402,14.979 59.654,14.919 59.838,14.799C60.022,14.679 60.114,14.507 60.114,14.283C60.114,14.059 60.006,13.895 59.79,13.791C59.574,13.687 59.222,13.567 58.734,13.431C58.326,13.319 57.978,13.211 57.69,13.107C57.402,13.003 57.17,12.885 56.994,12.753C56.818,12.621 56.69,12.469 56.61,12.297C56.53,12.125 56.49,11.919 56.49,11.679C56.49,11.359 56.552,11.071 56.676,10.815C56.8,10.559 56.974,10.341 57.198,10.161C57.422,9.981 57.684,9.843 57.984,9.747C58.284,9.651 58.61,9.603 58.962,9.603C59.434,9.603 59.876,9.671 60.288,9.807C60.7,9.943 61.078,10.163 61.422,10.467L60.774,11.439C60.454,11.199 60.144,11.023 59.844,10.911C59.544,10.799 59.246,10.743 58.95,10.743C58.678,10.743 58.45,10.799 58.266,10.911C58.082,11.023 57.99,11.203 57.99,11.451C57.99,11.563 58.012,11.655 58.056,11.727C58.1,11.799 58.17,11.863 58.266,11.919C58.362,11.975 58.488,12.029 58.644,12.081C58.8,12.133 58.994,12.187 59.226,12.243C59.658,12.355 60.028,12.467 60.336,12.579C60.644,12.691 60.896,12.819 61.092,12.963C61.288,13.107 61.432,13.273 61.524,13.461C61.616,13.649 61.662,13.875 61.662,14.139C61.662,14.755 61.434,15.241 60.978,15.597C60.522,15.953 59.902,16.131 59.118,16.131Z" style="fill-rule:nonzero;"/>
        </g>
        <g transform="matrix(1,0,0,1,13,784.52)">
            <path d="M43.406,133.272C42.899,133.272 42.438,133.17 42.021,132.967C41.604,132.764 41.246,132.494 40.946,132.157C40.646,131.82 40.414,131.435 40.251,131.002C40.088,130.569 40.006,130.125 40.006,129.672C40.006,129.199 40.093,128.745 40.266,128.312C40.439,127.879 40.678,127.495 40.981,127.162C41.284,126.829 41.644,126.564 42.061,126.367C42.478,126.17 42.933,126.072 43.426,126.072C43.933,126.072 44.394,126.177 44.811,126.387C45.228,126.597 45.584,126.872 45.881,127.212C46.178,127.552 46.408,127.937 46.571,128.367C46.734,128.797 46.816,129.235 46.816,129.682C46.816,130.155 46.731,130.609 46.561,131.042C46.391,131.475 46.153,131.857 45.846,132.187C45.539,132.517 45.178,132.78 44.761,132.977C44.344,133.174 43.893,133.272 43.406,133.272ZM41.146,129.672C41.146,130.005 41.199,130.329 41.306,130.642C41.413,130.955 41.564,131.232 41.761,131.472C41.958,131.712 42.196,131.904 42.476,132.047C42.756,132.19 43.069,132.262 43.416,132.262C43.776,132.262 44.094,132.187 44.371,132.037C44.648,131.887 44.883,131.689 45.076,131.442C45.269,131.195 45.416,130.919 45.516,130.612C45.616,130.305 45.666,129.992 45.666,129.672C45.666,129.332 45.613,129.007 45.506,128.697C45.399,128.387 45.248,128.114 45.051,127.877C44.854,127.64 44.618,127.45 44.341,127.307C44.064,127.164 43.756,127.092 43.416,127.092C43.056,127.092 42.736,127.167 42.456,127.317C42.176,127.467 41.939,127.662 41.746,127.902C41.553,128.142 41.404,128.417 41.301,128.727C41.198,129.037 41.146,129.352 41.146,129.672Z" style="fill-rule:nonzero;"/>
            <path d="M49.446,133.322C48.899,133.322 48.486,133.144 48.206,132.787C47.926,132.43 47.786,131.899 47.786,131.192L47.786,127.992L48.886,127.992L48.886,130.972C48.886,131.912 49.219,132.382 49.886,132.382C50.199,132.382 50.496,132.285 50.776,132.092C51.056,131.899 51.273,131.619 51.426,131.252L51.426,127.992L52.526,127.992L52.526,131.922C52.526,132.049 52.548,132.139 52.591,132.192C52.634,132.245 52.713,132.275 52.826,132.282L52.826,133.222C52.713,133.242 52.619,133.255 52.546,133.262C52.473,133.269 52.403,133.272 52.336,133.272C52.136,133.272 51.966,133.217 51.826,133.107C51.686,132.997 51.613,132.855 51.606,132.682L51.586,132.162C51.353,132.542 51.049,132.83 50.676,133.027C50.303,133.224 49.893,133.322 49.446,133.322Z" style="fill-rule:nonzero;"/>
            <path d="M56.836,132.952C56.696,133.019 56.503,133.094 56.256,133.177C56.009,133.26 55.746,133.302 55.466,133.302C55.293,133.302 55.129,133.279 54.976,133.232C54.823,133.185 54.688,133.115 54.571,133.022C54.454,132.929 54.363,132.807 54.296,132.657C54.229,132.507 54.196,132.325 54.196,132.112L54.196,128.842L53.506,128.842L53.506,127.992L54.196,127.992L54.196,126.272L55.296,126.272L55.296,127.992L56.436,127.992L56.436,128.842L55.296,128.842L55.296,131.762C55.309,131.949 55.368,132.084 55.471,132.167C55.574,132.25 55.703,132.292 55.856,132.292C56.009,132.292 56.156,132.265 56.296,132.212C56.436,132.159 56.539,132.115 56.606,132.082L56.836,132.952Z" style="fill-rule:nonzero;"/>
        </g>
        <g transform="matrix(1,0,0,1,15,859.52)">
            <path d="M38.313,105.734C38.313,105.307 38.39,104.882 38.543,104.459C38.696,104.035 38.921,103.655 39.218,103.319C39.515,102.982 39.876,102.71 40.303,102.504C40.73,102.297 41.213,102.194 41.753,102.194C42.4,102.194 42.953,102.337 43.413,102.624C43.873,102.91 44.22,103.284 44.453,103.744L43.573,104.334C43.473,104.12 43.353,103.94 43.213,103.794C43.073,103.647 42.92,103.53 42.753,103.444C42.586,103.357 42.413,103.295 42.233,103.259C42.053,103.222 41.88,103.204 41.713,103.204C41.34,103.204 41.013,103.279 40.733,103.429C40.453,103.579 40.218,103.777 40.028,104.024C39.838,104.27 39.695,104.547 39.598,104.854C39.501,105.16 39.453,105.467 39.453,105.774C39.453,106.12 39.51,106.45 39.623,106.764C39.736,107.077 39.895,107.354 40.098,107.594C40.301,107.834 40.543,108.025 40.823,108.169C41.103,108.312 41.41,108.384 41.743,108.384C41.916,108.384 42.095,108.362 42.278,108.319C42.461,108.275 42.638,108.205 42.808,108.109C42.978,108.012 43.135,107.89 43.278,107.744C43.421,107.597 43.54,107.42 43.633,107.214L44.563,107.744C44.45,108.01 44.29,108.245 44.083,108.449C43.876,108.652 43.643,108.824 43.383,108.964C43.123,109.104 42.848,109.21 42.558,109.284C42.268,109.357 41.983,109.394 41.703,109.394C41.203,109.394 40.746,109.287 40.333,109.074C39.92,108.86 39.563,108.582 39.263,108.239C38.963,107.895 38.73,107.505 38.563,107.069C38.396,106.632 38.313,106.187 38.313,105.734Z" style="fill-rule:nonzero;"/>
            <path d="M45.943,102.234L48.083,107.924L50.213,102.234L51.403,102.234L48.563,109.334L47.603,109.334L44.753,102.234L45.943,102.234Z" style="fill-rule:nonzero;"/>
        </g>
        <g transform="matrix(1,0,0,1,31.4471,943.098)">
            <path d="M35.223,53.087L36.399,53.087L39.759,61.607L38.343,61.607L37.443,59.291L34.155,59.291L33.267,61.607L31.839,61.607L35.223,53.087ZM37.179,58.295L35.811,54.635L34.395,58.295L37.179,58.295Z" style="fill-rule:nonzero;"/>
        </g>
        <g transform="matrix(1,0,0,1,31.4471,973.471)">
            <path d="M39.411,59.411C39.411,59.755 39.341,60.063 39.201,60.335C39.061,60.607 38.873,60.837 38.637,61.025C38.401,61.213 38.123,61.357 37.803,61.457C37.483,61.557 37.143,61.607 36.783,61.607L32.715,61.607L32.715,53.087L37.107,53.087C37.403,53.087 37.671,53.151 37.911,53.279C38.151,53.407 38.355,53.573 38.523,53.777C38.691,53.981 38.821,54.213 38.913,54.473C39.005,54.733 39.051,54.995 39.051,55.259C39.051,55.675 38.945,56.065 38.733,56.429C38.521,56.793 38.219,57.063 37.827,57.239C38.315,57.383 38.701,57.645 38.985,58.025C39.269,58.405 39.411,58.867 39.411,59.411ZM38.031,59.159C38.031,58.983 38.001,58.815 37.941,58.655C37.881,58.495 37.801,58.355 37.701,58.235C37.601,58.115 37.479,58.019 37.335,57.947C37.191,57.875 37.035,57.839 36.867,57.839L34.059,57.839L34.059,60.443L36.783,60.443C36.959,60.443 37.123,60.409 37.275,60.341C37.427,60.273 37.559,60.181 37.671,60.065C37.783,59.949 37.871,59.813 37.935,59.657C37.999,59.501 38.031,59.335 38.031,59.159ZM34.059,54.251L34.059,56.759L36.531,56.759C36.699,56.759 36.853,56.727 36.993,56.663C37.133,56.599 37.257,56.513 37.365,56.405C37.473,56.297 37.557,56.167 37.617,56.015C37.677,55.863 37.707,55.695 37.707,55.511C37.707,55.143 37.603,54.841 37.395,54.605C37.187,54.369 36.923,54.251 36.603,54.251L34.059,54.251Z" style="fill-rule:nonzero;"/>
        </g>
        <g transform="matrix(1,0,0,1,13,934.52)">
            <path d="M43.406,133.272C42.899,133.272 42.438,133.17 42.021,132.967C41.604,132.764 41.246,132.494 40.946,132.157C40.646,131.82 40.414,131.435 40.251,131.002C40.088,130.569 40.006,130.125 40.006,129.672C40.006,129.199 40.093,128.745 40.266,128.312C40.439,127.879 40.678,127.495 40.981,127.162C41.284,126.829 41.644,126.564 42.061,126.367C42.478,126.17 42.933,126.072 43.426,126.072C43.933,126.072 44.394,126.177 44.811,126.387C45.228,126.597 45.584,126.872 45.881,127.212C46.178,127.552 46.408,127.937 46.571,128.367C46.734,128.797 46.816,129.235 46.816,129.682C46.816,130.155 46.731,130.609 46.561,131.042C46.391,131.475 46.153,131.857 45.846,132.187C45.539,132.517 45.178,132.78 44.761,132.977C44.344,133.174 43.893,133.272 43.406,133.272ZM41.146,129.672C41.146,130.005 41.199,130.329 41.306,130.642C41.413,130.955 41.564,131.232 41.761,131.472C41.958,131.712 42.196,131.904 42.476,132.047C42.756,132.19 43.069,132.262 43.416,132.262C43.776,132.262 44.094,132.187 44.371,132.037C44.648,131.887 44.883,131.689 45.076,131.442C45.269,131.195 45.416,130.919 45.516,130.612C45.616,130.305 45.666,129.992 45.666,129.672C45.666,129.332 45.613,129.007 45.506,128.697C45.399,128.387 45.248,128.114 45.051,127.877C44.854,127.64 44.618,127.45 44.341,127.307C44.064,127.164 43.756,127.092 43.416,127.092C43.056,127.092 42.736,127.167 42.456,127.317C42.176,127.467 41.939,127.662 41.746,127.902C41.553,128.142 41.404,128.417 41.301,128.727C41.198,129.037 41.146,129.352 41.146,129.672Z" style="fill-rule:nonzero;"/>
            <path d="M49.446,133.322C48.899,133.322 48.486,133.144 48.206,132.787C47.926,132.43 47.786,131.899 47.786,131.192L47.786,127.992L48.886,127.992L48.886,130.972C48.886,131.912 49.219,132.382 49.886,132.382C50.199,132.382 50.496,132.285 50.776,132.092C51.056,131.899 51.273,131.619 51.426,131.252L51.426,127.992L52.526,127.992L52.526,131.922C52.526,132.049 52.548,132.139 52.591,132.192C52.634,132.245 52.713,132.275 52.826,132.282L52.826,133.222C52.713,133.242 52.619,133.255 52.546,133.262C52.473,133.269 52.403,133.272 52.336,133.272C52.136,133.272 51.966,133.217 51.826,133.107C51.686,132.997 51.613,132.855 51.606,132.682L51.586,132.162C51.353,132.542 51.049,132.83 50.676,133.027C50.303,133.224 49.893,133.322 49.446,133.322Z" style="fill-rule:nonzero;"/>
            <path d="M56.836,132.952C56.696,133.019 56.503,133.094 56.256,133.177C56.009,133.26 55.746,133.302 55.466,133.302C55.293,133.302 55.129,133.279 54.976,133.232C54.823,133.185 54.688,133.115 54.571,133.022C54.454,132.929 54.363,132.807 54.296,132.657C54.229,132.507 54.196,132.325 54.196,132.112L54.196,128.842L53.506,128.842L53.506,127.992L54.196,127.992L54.196,126.272L55.296,126.272L55.296,127.992L56.436,127.992L56.436,128.842L55.296,128.842L55.296,131.762C55.309,131.949 55.368,132.084 55.471,132.167C55.574,132.25 55.703,132.292 55.856,132.292C56.009,132.292 56.156,132.265 56.296,132.212C56.436,132.159 56.539,132.115 56.606,132.082L56.836,132.952Z" style="fill-rule:nonzero;"/>
        </g>
    </g>
</svg>
