<?xml version="1.0" encoding="UTF-8" standalone="no"?>
<!DOCTYPE svg PUBLIC "-//W3C//DTD SVG 1.1//EN" "http://www.w3.org/Graphics/SVG/1.1/DTD/svg11.dtd">
<svg width="100%" height="100%" viewBox="0 0 60 380" version="1.1" xmlns="http://www.w3.org/2000/svg" xmlns:xlink="http://www.w3.org/1999/xlink" xml:space="preserve" xmlns:serif="http://www.serif.com/" style="fill-rule:evenodd;clip-rule:evenodd;stroke-linejoin:round;stroke-miterlimit:1.41421;">
    <g id="Layer-1" serif:id="Layer 1" transform="matrix(1,0,0,1,-15,-742.52)">
        <g id="background" transform="matrix(0.671005,0,0,1,14.219,-0.162011)">
            <rect x="0" y="742.52" width="90" height="380" style="fill:rgb(240,240,240);"/>
        </g>
        <g transform="matrix(1,0,0,1,8.70951,743.851)">
            <path d="M18.869,36.786C18.576,36.786 18.314,36.73 18.084,36.616C17.854,36.503 17.659,36.35 17.499,36.156C17.339,35.963 17.218,35.735 17.134,35.471C17.051,35.208 17.009,34.926 17.009,34.626C17.009,34.2 17.088,33.79 17.244,33.396C17.401,33.003 17.613,32.656 17.879,32.356C18.146,32.056 18.453,31.816 18.799,31.636C19.146,31.456 19.509,31.366 19.889,31.366C20.269,31.366 20.588,31.468 20.844,31.671C21.101,31.875 21.283,32.133 21.389,32.446L22.039,29.386L23.149,29.386L21.869,35.386C21.863,35.42 21.858,35.448 21.854,35.471C21.851,35.495 21.849,35.516 21.849,35.536C21.849,35.67 21.926,35.74 22.079,35.746L21.879,36.686C21.786,36.7 21.701,36.711 21.624,36.721C21.548,36.731 21.483,36.736 21.429,36.736C21.223,36.736 21.061,36.691 20.944,36.601C20.828,36.511 20.769,36.386 20.769,36.226C20.769,36.173 20.774,36.11 20.784,36.036C20.794,35.963 20.816,35.863 20.849,35.736C20.596,36.076 20.289,36.336 19.929,36.516C19.569,36.696 19.216,36.786 18.869,36.786ZM19.349,35.846C19.483,35.846 19.624,35.82 19.774,35.766C19.924,35.713 20.071,35.64 20.214,35.546C20.358,35.453 20.489,35.343 20.609,35.216C20.729,35.09 20.826,34.953 20.899,34.806L21.179,33.436C21.159,33.276 21.114,33.128 21.044,32.991C20.974,32.855 20.886,32.735 20.779,32.631C20.673,32.528 20.556,32.448 20.429,32.391C20.303,32.335 20.169,32.306 20.029,32.306C19.776,32.306 19.538,32.37 19.314,32.496C19.091,32.623 18.894,32.786 18.724,32.986C18.554,33.186 18.419,33.415 18.319,33.671C18.219,33.928 18.169,34.186 18.169,34.446C18.169,34.646 18.196,34.831 18.249,35.001C18.303,35.171 18.381,35.318 18.484,35.441C18.588,35.565 18.713,35.663 18.859,35.736C19.006,35.81 19.169,35.846 19.349,35.846Z" style="fill-rule:nonzero;"/>
            <path d="M24.079,31.456L25.179,31.456L24.059,36.686L22.959,36.686L24.079,31.456ZM24.509,29.386L25.609,29.386L25.359,30.596L24.259,30.596L24.509,29.386Z" style="fill-rule:nonzero;"/>
            <path d="M25.879,31.456L27.019,31.456L27.479,35.756C27.986,35.016 28.418,34.3 28.774,33.606C29.131,32.913 29.413,32.196 29.619,31.456L30.649,31.456C30.409,32.33 30.048,33.201 29.564,34.071C29.081,34.941 28.499,35.813 27.819,36.686L26.649,36.686L25.879,31.456Z" style="fill-rule:nonzero;"/>
            <path d="M31.639,31.456L32.739,31.456L31.619,36.686L30.519,36.686L31.639,31.456ZM32.069,29.386L33.169,29.386L32.919,30.596L31.819,30.596L32.069,29.386Z" style="fill-rule:nonzero;"/>
            <path d="M34.719,36.786C34.313,36.786 33.926,36.718 33.559,36.581C33.193,36.445 32.893,36.25 32.659,35.996L33.249,35.296C33.749,35.756 34.286,35.986 34.859,35.986C35.199,35.986 35.473,35.91 35.679,35.756C35.886,35.603 35.989,35.4 35.989,35.146C35.989,34.966 35.904,34.83 35.734,34.736C35.564,34.643 35.299,34.546 34.939,34.446C34.686,34.373 34.466,34.301 34.279,34.231C34.093,34.161 33.939,34.081 33.819,33.991C33.699,33.901 33.609,33.8 33.549,33.686C33.489,33.573 33.459,33.44 33.459,33.286C33.459,32.993 33.523,32.728 33.649,32.491C33.776,32.255 33.946,32.053 34.159,31.886C34.373,31.72 34.619,31.591 34.899,31.501C35.179,31.411 35.476,31.366 35.789,31.366C36.163,31.366 36.496,31.426 36.789,31.546C37.083,31.666 37.336,31.84 37.549,32.066L36.939,32.726C36.746,32.533 36.536,32.388 36.309,32.291C36.083,32.195 35.846,32.146 35.599,32.146C35.306,32.146 35.056,32.216 34.849,32.356C34.643,32.496 34.539,32.71 34.539,32.996C34.539,33.163 34.609,33.288 34.749,33.371C34.889,33.455 35.123,33.54 35.449,33.626C35.729,33.7 35.973,33.776 36.179,33.856C36.386,33.936 36.558,34.025 36.694,34.121C36.831,34.218 36.933,34.33 36.999,34.456C37.066,34.583 37.099,34.73 37.099,34.896C37.099,35.176 37.041,35.431 36.924,35.661C36.808,35.891 36.644,36.09 36.434,36.256C36.224,36.423 35.973,36.553 35.679,36.646C35.386,36.74 35.066,36.786 34.719,36.786Z" style="fill-rule:nonzero;"/>
            <path d="M38.799,31.456L39.899,31.456L38.779,36.686L37.679,36.686L38.799,31.456ZM39.229,29.386L40.329,29.386L40.079,30.596L38.979,30.596L39.229,29.386Z" style="fill-rule:nonzero;"/>
            <path d="M42.309,36.786C41.976,36.786 41.683,36.728 41.429,36.611C41.176,36.495 40.963,36.338 40.789,36.141C40.616,35.945 40.484,35.715 40.394,35.451C40.304,35.188 40.259,34.906 40.259,34.606C40.259,34.186 40.343,33.781 40.509,33.391C40.676,33.001 40.903,32.656 41.189,32.356C41.476,32.056 41.814,31.816 42.204,31.636C42.594,31.456 43.013,31.366 43.459,31.366C43.793,31.366 44.088,31.425 44.344,31.541C44.601,31.658 44.818,31.815 44.994,32.011C45.171,32.208 45.304,32.44 45.394,32.706C45.484,32.973 45.529,33.256 45.529,33.556C45.529,33.97 45.446,34.37 45.279,34.756C45.113,35.143 44.884,35.486 44.594,35.786C44.304,36.086 43.964,36.328 43.574,36.511C43.184,36.695 42.763,36.786 42.309,36.786ZM42.519,35.846C42.753,35.846 42.981,35.79 43.204,35.676C43.428,35.563 43.626,35.408 43.799,35.211C43.973,35.015 44.113,34.786 44.219,34.526C44.326,34.266 44.379,33.99 44.379,33.696C44.379,33.296 44.278,32.965 44.074,32.701C43.871,32.438 43.599,32.306 43.259,32.306C43.026,32.306 42.799,32.365 42.579,32.481C42.359,32.598 42.161,32.755 41.984,32.951C41.808,33.148 41.666,33.376 41.559,33.636C41.453,33.896 41.399,34.173 41.399,34.466C41.399,34.866 41.501,35.196 41.704,35.456C41.908,35.716 42.179,35.846 42.519,35.846Z" style="fill-rule:nonzero;"/>
            <path d="M47.009,31.456L47.999,31.456L47.779,32.506C48.039,32.153 48.369,31.875 48.769,31.671C49.169,31.468 49.589,31.366 50.029,31.366C50.249,31.366 50.433,31.396 50.579,31.456C50.726,31.516 50.844,31.601 50.934,31.711C51.024,31.821 51.089,31.95 51.129,32.096C51.169,32.243 51.189,32.406 51.189,32.586C51.189,32.726 51.178,32.873 51.154,33.026C51.131,33.18 51.103,33.336 51.069,33.496L50.399,36.686L49.299,36.686L49.919,33.756C49.946,33.63 49.966,33.515 49.979,33.411C49.993,33.308 49.999,33.21 49.999,33.116C49.999,32.603 49.786,32.346 49.359,32.346C49.213,32.346 49.059,32.376 48.899,32.436C48.739,32.496 48.583,32.581 48.429,32.691C48.276,32.801 48.131,32.931 47.994,33.081C47.858,33.231 47.746,33.396 47.659,33.576L46.989,36.686L45.889,36.686L47.009,31.456Z" style="fill-rule:nonzero;"/>
            <path d="M53.439,36.786C53.033,36.786 52.646,36.718 52.279,36.581C51.913,36.445 51.613,36.25 51.379,35.996L51.969,35.296C52.469,35.756 53.006,35.986 53.579,35.986C53.919,35.986 54.193,35.91 54.399,35.756C54.606,35.603 54.709,35.4 54.709,35.146C54.709,34.966 54.624,34.83 54.454,34.736C54.284,34.643 54.019,34.546 53.659,34.446C53.406,34.373 53.186,34.301 52.999,34.231C52.813,34.161 52.659,34.081 52.539,33.991C52.419,33.901 52.329,33.8 52.269,33.686C52.209,33.573 52.179,33.44 52.179,33.286C52.179,32.993 52.243,32.728 52.369,32.491C52.496,32.255 52.666,32.053 52.879,31.886C53.093,31.72 53.339,31.591 53.619,31.501C53.899,31.411 54.196,31.366 54.509,31.366C54.883,31.366 55.216,31.426 55.509,31.546C55.803,31.666 56.056,31.84 56.269,32.066L55.659,32.726C55.466,32.533 55.256,32.388 55.029,32.291C54.803,32.195 54.566,32.146 54.319,32.146C54.026,32.146 53.776,32.216 53.569,32.356C53.363,32.496 53.259,32.71 53.259,32.996C53.259,33.163 53.329,33.288 53.469,33.371C53.609,33.455 53.843,33.54 54.169,33.626C54.449,33.7 54.693,33.776 54.899,33.856C55.106,33.936 55.278,34.025 55.414,34.121C55.551,34.218 55.653,34.33 55.719,34.456C55.786,34.583 55.819,34.73 55.819,34.896C55.819,35.176 55.761,35.431 55.644,35.661C55.528,35.891 55.364,36.09 55.154,36.256C54.944,36.423 54.693,36.553 54.399,36.646C54.106,36.74 53.786,36.786 53.439,36.786Z" style="fill-rule:nonzero;"/>
        </g>
        <g transform="matrix(1,0,0,1,15,735.106)">
            <path d="M10.655,58.132C10.655,57.765 10.719,57.419 10.845,57.092C10.972,56.765 11.154,56.479 11.39,56.232C11.627,55.985 11.912,55.79 12.245,55.647C12.579,55.504 12.952,55.432 13.365,55.432C13.905,55.432 14.37,55.55 14.76,55.787C15.15,56.024 15.442,56.339 15.635,56.732L14.565,57.072C14.439,56.852 14.269,56.68 14.055,56.557C13.842,56.434 13.605,56.372 13.345,56.372C13.125,56.372 12.92,56.415 12.73,56.502C12.54,56.589 12.375,56.71 12.235,56.867C12.095,57.024 11.985,57.209 11.905,57.422C11.825,57.635 11.785,57.872 11.785,58.132C11.785,58.385 11.827,58.62 11.91,58.837C11.994,59.054 12.107,59.242 12.25,59.402C12.394,59.562 12.56,59.687 12.75,59.777C12.94,59.867 13.142,59.912 13.355,59.912C13.489,59.912 13.622,59.894 13.755,59.857C13.889,59.82 14.01,59.769 14.12,59.702C14.23,59.635 14.327,59.559 14.41,59.472C14.494,59.385 14.555,59.292 14.595,59.192L15.675,59.512C15.502,59.905 15.212,60.227 14.805,60.477C14.399,60.727 13.919,60.852 13.365,60.852C12.959,60.852 12.589,60.779 12.255,60.632C11.922,60.485 11.637,60.287 11.4,60.037C11.164,59.787 10.98,59.499 10.85,59.172C10.72,58.845 10.655,58.499 10.655,58.132Z" style="fill-rule:nonzero;"/>
            <path d="M16.595,53.452L17.695,53.452L17.695,59.242C17.695,59.435 17.745,59.587 17.845,59.697C17.945,59.807 18.085,59.862 18.265,59.862C18.339,59.862 18.424,59.849 18.52,59.822C18.617,59.795 18.709,59.765 18.795,59.732L18.955,60.592C18.795,60.665 18.605,60.724 18.385,60.767C18.165,60.81 17.969,60.832 17.795,60.832C17.415,60.832 17.12,60.729 16.91,60.522C16.7,60.315 16.595,60.022 16.595,59.642L16.595,53.452Z" style="fill-rule:nonzero;"/>
            <path d="M23.235,60.752L21.565,58.342L20.695,59.162L20.695,60.752L19.595,60.752L19.595,53.452L20.695,53.452L20.695,58.082L23.095,55.532L24.295,55.532L22.265,57.722L24.405,60.752L23.235,60.752Z" style="fill-rule:nonzero;"/>
        </g>
        <g transform="matrix(1,0,0,1,24,742.52)">
            <path d="M13.853,25.938C13.173,26.618 12.381,26.958 11.477,26.958C10.917,26.958 10.391,26.846 9.899,26.622C9.407,26.398 8.979,26.09 8.615,25.698C8.251,25.306 7.963,24.844 7.751,24.312C7.539,23.78 7.433,23.206 7.433,22.59C7.433,22.006 7.539,21.456 7.751,20.94C7.963,20.424 8.255,19.972 8.627,19.584C8.999,19.196 9.437,18.888 9.941,18.66C10.445,18.432 10.993,18.318 11.585,18.318C12.385,18.318 13.071,18.486 13.643,18.822C14.215,19.158 14.645,19.61 14.933,20.178L13.697,21.09C13.481,20.666 13.179,20.342 12.791,20.118C12.403,19.894 11.981,19.782 11.525,19.782C11.165,19.782 10.835,19.858 10.535,20.01C10.235,20.162 9.979,20.37 9.767,20.634C9.555,20.898 9.391,21.202 9.275,21.546C9.159,21.89 9.101,22.254 9.101,22.638C9.101,23.038 9.165,23.412 9.293,23.76C9.421,24.108 9.597,24.41 9.821,24.666C10.045,24.922 10.311,25.124 10.619,25.272C10.927,25.42 11.261,25.494 11.621,25.494C12.445,25.494 13.189,25.106 13.853,24.33L13.853,23.73L12.137,23.73L12.137,22.518L15.221,22.518L15.221,26.898L13.853,26.898L13.853,25.938Z" style="fill-rule:nonzero;"/>
            <path d="M18.197,27.018C17.893,27.018 17.609,26.968 17.345,26.868C17.081,26.768 16.853,26.628 16.661,26.448C16.469,26.268 16.319,26.058 16.211,25.818C16.103,25.578 16.049,25.314 16.049,25.026C16.049,24.73 16.115,24.456 16.247,24.204C16.379,23.952 16.563,23.738 16.799,23.562C17.035,23.386 17.317,23.248 17.645,23.148C17.973,23.048 18.333,22.998 18.725,22.998C19.005,22.998 19.279,23.022 19.547,23.07C19.815,23.118 20.053,23.186 20.261,23.274L20.261,22.914C20.261,22.498 20.143,22.178 19.907,21.954C19.671,21.73 19.321,21.618 18.857,21.618C18.521,21.618 18.193,21.678 17.873,21.798C17.553,21.918 17.225,22.094 16.889,22.326L16.397,21.306C17.205,20.77 18.077,20.502 19.013,20.502C19.917,20.502 20.619,20.724 21.119,21.168C21.619,21.612 21.869,22.254 21.869,23.094L21.869,25.05C21.869,25.218 21.899,25.338 21.959,25.41C22.019,25.482 22.117,25.522 22.253,25.53L22.253,26.898C21.981,26.954 21.745,26.982 21.545,26.982C21.241,26.982 21.007,26.914 20.843,26.778C20.679,26.642 20.577,26.462 20.537,26.238L20.501,25.89C20.221,26.258 19.881,26.538 19.481,26.73C19.081,26.922 18.653,27.018 18.197,27.018ZM18.653,25.842C18.925,25.842 19.183,25.794 19.427,25.698C19.671,25.602 19.861,25.474 19.997,25.314C20.173,25.178 20.261,25.026 20.261,24.858L20.261,24.138C20.069,24.066 19.861,24.008 19.637,23.964C19.413,23.92 19.197,23.898 18.989,23.898C18.573,23.898 18.233,23.992 17.969,24.18C17.705,24.368 17.573,24.606 17.573,24.894C17.573,25.166 17.677,25.392 17.885,25.572C18.093,25.752 18.349,25.842 18.653,25.842Z" style="fill-rule:nonzero;"/>
            <path d="M27.137,27.018C26.641,27.018 26.209,26.908 25.841,26.688C25.473,26.468 25.185,26.17 24.977,25.794L24.977,29.454L23.369,29.454L23.369,20.61L24.773,20.61L24.773,21.69C25.005,21.322 25.305,21.032 25.673,20.82C26.041,20.608 26.465,20.502 26.945,20.502C27.369,20.502 27.761,20.588 28.121,20.76C28.481,20.932 28.791,21.164 29.051,21.456C29.311,21.748 29.515,22.092 29.663,22.488C29.811,22.884 29.885,23.302 29.885,23.742C29.885,24.198 29.817,24.626 29.681,25.026C29.545,25.426 29.355,25.774 29.111,26.07C28.867,26.366 28.577,26.598 28.241,26.766C27.905,26.934 27.537,27.018 27.137,27.018ZM26.597,25.65C26.837,25.65 27.059,25.598 27.263,25.494C27.467,25.39 27.641,25.25 27.785,25.074C27.929,24.898 28.041,24.694 28.121,24.462C28.201,24.23 28.241,23.99 28.241,23.742C28.241,23.478 28.197,23.232 28.109,23.004C28.021,22.776 27.899,22.578 27.743,22.41C27.587,22.242 27.403,22.11 27.191,22.014C26.979,21.918 26.749,21.87 26.501,21.87C26.349,21.87 26.193,21.896 26.033,21.948C25.873,22 25.725,22.074 25.589,22.17C25.453,22.266 25.331,22.378 25.223,22.506C25.115,22.634 25.033,22.774 24.977,22.926L24.977,24.402C25.121,24.762 25.341,25.06 25.637,25.296C25.933,25.532 26.253,25.65 26.597,25.65Z" style="fill-rule:nonzero;"/>
            <path d="M33.353,27.018C32.825,27.018 32.309,26.934 31.805,26.766C31.301,26.598 30.869,26.358 30.509,26.046L31.109,25.038C31.493,25.31 31.867,25.516 32.231,25.656C32.595,25.796 32.957,25.866 33.317,25.866C33.637,25.866 33.889,25.806 34.073,25.686C34.257,25.566 34.349,25.394 34.349,25.17C34.349,24.946 34.241,24.782 34.025,24.678C33.809,24.574 33.457,24.454 32.969,24.318C32.561,24.206 32.213,24.098 31.925,23.994C31.637,23.89 31.405,23.772 31.229,23.64C31.053,23.508 30.925,23.356 30.845,23.184C30.765,23.012 30.725,22.806 30.725,22.566C30.725,22.246 30.787,21.958 30.911,21.702C31.035,21.446 31.209,21.228 31.433,21.048C31.657,20.868 31.919,20.73 32.219,20.634C32.519,20.538 32.845,20.49 33.197,20.49C33.669,20.49 34.111,20.558 34.523,20.694C34.935,20.83 35.313,21.05 35.657,21.354L35.009,22.326C34.689,22.086 34.379,21.91 34.079,21.798C33.779,21.686 33.481,21.63 33.185,21.63C32.913,21.63 32.685,21.686 32.501,21.798C32.317,21.91 32.225,22.09 32.225,22.338C32.225,22.45 32.247,22.542 32.291,22.614C32.335,22.686 32.405,22.75 32.501,22.806C32.597,22.862 32.723,22.916 32.879,22.968C33.035,23.02 33.229,23.074 33.461,23.13C33.893,23.242 34.263,23.354 34.571,23.466C34.879,23.578 35.131,23.706 35.327,23.85C35.523,23.994 35.667,24.16 35.759,24.348C35.851,24.536 35.897,24.762 35.897,25.026C35.897,25.642 35.669,26.128 35.213,26.484C34.757,26.84 34.137,27.018 33.353,27.018Z" style="fill-rule:nonzero;"/>
        </g>
        <g transform="matrix(1,0,0,1,15.7737,737.236)">
            <path d="M39.778,54.228C39.352,54.241 38.973,54.34 38.643,54.523C38.313,54.706 38.078,54.968 37.938,55.308L37.938,58.508L36.838,58.508L36.838,53.278L37.858,53.278L37.858,54.448C38.038,54.088 38.273,53.8 38.563,53.583C38.853,53.366 39.165,53.248 39.498,53.228C39.565,53.228 39.62,53.228 39.663,53.228C39.707,53.228 39.745,53.231 39.778,53.238L39.778,54.228Z" style="fill-rule:nonzero;"/>
            <path d="M42.478,58.608C42.058,58.608 41.64,58.54 41.223,58.403C40.807,58.266 40.448,58.071 40.148,57.818L40.588,57.118C40.902,57.345 41.212,57.516 41.518,57.633C41.825,57.75 42.138,57.808 42.458,57.808C42.785,57.808 43.043,57.745 43.233,57.618C43.423,57.491 43.518,57.311 43.518,57.078C43.518,56.858 43.412,56.698 43.198,56.598C42.985,56.498 42.652,56.388 42.198,56.268C41.872,56.181 41.592,56.098 41.358,56.018C41.125,55.938 40.935,55.845 40.788,55.738C40.642,55.631 40.535,55.508 40.468,55.368C40.402,55.228 40.368,55.058 40.368,54.858C40.368,54.591 40.42,54.355 40.523,54.148C40.627,53.941 40.77,53.766 40.953,53.623C41.137,53.48 41.352,53.371 41.598,53.298C41.845,53.225 42.112,53.188 42.398,53.188C42.792,53.188 43.158,53.248 43.498,53.368C43.838,53.488 44.142,53.661 44.408,53.888L43.938,54.548C43.452,54.161 42.935,53.968 42.388,53.968C42.108,53.968 41.873,54.026 41.683,54.143C41.493,54.26 41.398,54.445 41.398,54.698C41.398,54.805 41.418,54.895 41.458,54.968C41.498,55.041 41.563,55.105 41.653,55.158C41.743,55.211 41.86,55.26 42.003,55.303C42.147,55.346 42.325,55.395 42.538,55.448C42.892,55.535 43.197,55.621 43.453,55.708C43.71,55.795 43.922,55.896 44.088,56.013C44.255,56.13 44.378,56.266 44.458,56.423C44.538,56.58 44.578,56.768 44.578,56.988C44.578,57.488 44.39,57.883 44.013,58.173C43.637,58.463 43.125,58.608 42.478,58.608Z" style="fill-rule:nonzero;"/>
            <path d="M48.448,58.238C48.308,58.305 48.115,58.38 47.868,58.463C47.622,58.546 47.358,58.588 47.078,58.588C46.905,58.588 46.742,58.565 46.588,58.518C46.435,58.471 46.3,58.401 46.183,58.308C46.067,58.215 45.975,58.093 45.908,57.943C45.842,57.793 45.808,57.611 45.808,57.398L45.808,54.128L45.118,54.128L45.118,53.278L45.808,53.278L45.808,51.558L46.908,51.558L46.908,53.278L48.048,53.278L48.048,54.128L46.908,54.128L46.908,57.048C46.922,57.235 46.98,57.37 47.083,57.453C47.187,57.536 47.315,57.578 47.468,57.578C47.622,57.578 47.768,57.551 47.908,57.498C48.048,57.445 48.152,57.401 48.218,57.368L48.448,58.238Z" style="fill-rule:nonzero;"/>
        </g>
    </g>
</svg>
