<?xml version="1.0" encoding="UTF-8" standalone="no"?>
<svg
   xmlns:serif="http://www.serif.com/"
   xmlns:dc="http://purl.org/dc/elements/1.1/"
   xmlns:cc="http://creativecommons.org/ns#"
   xmlns:rdf="http://www.w3.org/1999/02/22-rdf-syntax-ns#"
   xmlns:svg="http://www.w3.org/2000/svg"
   xmlns="http://www.w3.org/2000/svg"
   xmlns:sodipodi="http://sodipodi.sourceforge.net/DTD/sodipodi-0.dtd"
   xmlns:inkscape="http://www.inkscape.org/namespaces/inkscape"
   inkscape:version="1.0.2 (e86c8708, 2021-01-15)"
   sodipodi:docname="HolonicSystems-LazySusan.svg"
   id="svg162"
   style="fill-rule:evenodd;clip-rule:evenodd;stroke-linejoin:round;stroke-miterlimit:1.41421;"
   xml:space="preserve"
   version="1.1"
   viewBox="0 0 120 380"
   height="100%"
   width="100%"><metadata
   id="metadata168"><rdf:RDF><cc:Work
       rdf:about=""><dc:format>image/svg+xml</dc:format><dc:type
         rdf:resource="http://purl.org/dc/dcmitype/StillImage" /><dc:title /></cc:Work></rdf:RDF></metadata><defs
   id="defs166" /><sodipodi:namedview
   pagecolor="#ffffff"
   bordercolor="#666666"
   borderopacity="1"
   objecttolerance="10"
   gridtolerance="10"
   guidetolerance="10"
   inkscape:pageopacity="0"
   inkscape:pageshadow="2"
   inkscape:window-width="1920"
   inkscape:window-height="1147"
   id="namedview164"
   showgrid="false"
   inkscape:zoom="3.868421"
   inkscape:cx="60"
   inkscape:cy="114.47658"
   inkscape:window-x="0"
   inkscape:window-y="25"
   inkscape:window-maximized="0"
   inkscape:current-layer="svg162"
   inkscape:document-rotation="0" />
    <g
   id="Layer-1"
   serif:id="Layer 1"
   transform="matrix(1,0,0,1,15,-742.52)">
        <g
   id="rect4068"
   transform="matrix(1.33333,0,0,1,-15,0.181716)">
            <rect
   x="0"
   y="742.52"
   width="90"
   height="380"
   style="fill:rgb(240,240,240);"
   id="rect10" />
        </g>
        <g
   transform="matrix(1,0,0,1,-7.72919,747.524)"
   id="g31">
            <path
   d="M35.009,26.405C34.722,26.572 34.422,26.702 34.109,26.795C33.796,26.888 33.476,26.935 33.149,26.935C32.736,26.935 32.369,26.853 32.049,26.69C31.729,26.527 31.461,26.31 31.244,26.04C31.027,25.77 30.862,25.458 30.749,25.105C30.636,24.752 30.579,24.382 30.579,23.995C30.579,23.455 30.694,22.93 30.924,22.42C31.154,21.91 31.459,21.455 31.839,21.055C32.219,20.655 32.657,20.335 33.154,20.095C33.651,19.855 34.166,19.735 34.699,19.735C35.106,19.735 35.467,19.818 35.784,19.985C36.101,20.152 36.367,20.372 36.584,20.645C36.801,20.918 36.964,21.233 37.074,21.59C37.184,21.947 37.239,22.315 37.239,22.695C37.239,23.288 37.102,23.862 36.829,24.415C36.556,24.968 36.196,25.448 35.749,25.855L36.409,26.885L35.319,26.885L35.009,26.405ZM33.369,25.925C33.576,25.925 33.774,25.897 33.964,25.84C34.154,25.783 34.336,25.705 34.509,25.605L33.759,24.415L34.829,24.415L35.209,25.015C35.489,24.702 35.706,24.348 35.859,23.955C36.012,23.562 36.089,23.168 36.089,22.775C36.089,22.508 36.054,22.252 35.984,22.005C35.914,21.758 35.811,21.542 35.674,21.355C35.537,21.168 35.367,21.02 35.164,20.91C34.961,20.8 34.726,20.745 34.459,20.745C34.072,20.745 33.712,20.84 33.379,21.03C33.046,21.22 32.757,21.467 32.514,21.77C32.271,22.073 32.081,22.413 31.944,22.79C31.807,23.167 31.739,23.538 31.739,23.905C31.739,24.178 31.774,24.437 31.844,24.68C31.914,24.923 32.016,25.137 32.149,25.32C32.282,25.503 32.451,25.65 32.654,25.76C32.857,25.87 33.096,25.925 33.369,25.925Z"
   style="fill-rule:nonzero;"
   id="path13" />
            <path
   d="M38.919,26.985C38.106,26.985 37.699,26.552 37.699,25.685C37.699,25.438 37.732,25.162 37.799,24.855L38.489,21.655L39.579,21.655L38.939,24.635C38.892,24.848 38.869,25.048 38.869,25.235C38.869,25.775 39.099,26.045 39.559,26.045C39.852,26.045 40.147,25.948 40.444,25.755C40.741,25.562 41.002,25.282 41.229,24.915L41.919,21.655L43.019,21.655L42.189,25.585C42.169,25.645 42.159,25.695 42.159,25.735C42.159,25.862 42.236,25.932 42.389,25.945L42.199,26.885C42.099,26.898 42.012,26.91 41.939,26.92C41.866,26.93 41.799,26.935 41.739,26.935C41.539,26.935 41.382,26.893 41.269,26.81C41.156,26.727 41.099,26.602 41.099,26.435C41.099,26.382 41.106,26.312 41.119,26.225C41.132,26.138 41.156,26.005 41.189,25.825C40.889,26.205 40.542,26.493 40.149,26.69C39.756,26.887 39.346,26.985 38.919,26.985Z"
   style="fill-rule:nonzero;"
   id="path15" />
            <path
   d="M45.329,26.985C45.036,26.985 44.774,26.928 44.544,26.815C44.314,26.702 44.119,26.548 43.959,26.355C43.799,26.162 43.677,25.933 43.594,25.67C43.511,25.407 43.469,25.125 43.469,24.825C43.469,24.398 43.547,23.988 43.704,23.595C43.861,23.202 44.072,22.855 44.339,22.555C44.606,22.255 44.912,22.015 45.259,21.835C45.606,21.655 45.969,21.565 46.349,21.565C46.729,21.565 47.047,21.667 47.304,21.87C47.561,22.073 47.742,22.332 47.849,22.645L48.059,21.665L49.169,21.665L48.329,25.585C48.322,25.618 48.317,25.647 48.314,25.67C48.311,25.693 48.309,25.715 48.309,25.735C48.309,25.868 48.386,25.938 48.539,25.945L48.339,26.885C48.246,26.898 48.161,26.91 48.084,26.92C48.007,26.93 47.942,26.935 47.889,26.935C47.456,26.935 47.239,26.762 47.239,26.415C47.239,26.308 47.262,26.148 47.309,25.935C47.056,26.275 46.749,26.535 46.389,26.715C46.029,26.895 45.676,26.985 45.329,26.985ZM45.809,26.045C45.942,26.045 46.084,26.018 46.234,25.965C46.384,25.912 46.531,25.838 46.674,25.745C46.817,25.652 46.949,25.542 47.069,25.415C47.189,25.288 47.286,25.152 47.359,25.005L47.639,23.635C47.619,23.475 47.574,23.327 47.504,23.19C47.434,23.053 47.346,22.933 47.239,22.83C47.132,22.727 47.016,22.647 46.889,22.59C46.762,22.533 46.629,22.505 46.489,22.505C46.236,22.505 45.997,22.568 45.774,22.695C45.551,22.822 45.354,22.985 45.184,23.185C45.014,23.385 44.879,23.613 44.779,23.87C44.679,24.127 44.629,24.385 44.629,24.645C44.629,24.845 44.656,25.03 44.709,25.2C44.762,25.37 44.841,25.517 44.944,25.64C45.047,25.763 45.172,25.862 45.319,25.935C45.466,26.008 45.629,26.045 45.809,26.045Z"
   style="fill-rule:nonzero;"
   id="path17" />
            <path
   d="M50.549,21.655L51.539,21.655L51.319,22.705C51.579,22.352 51.909,22.073 52.309,21.87C52.709,21.667 53.129,21.565 53.569,21.565C53.789,21.565 53.972,21.595 54.119,21.655C54.266,21.715 54.384,21.8 54.474,21.91C54.564,22.02 54.629,22.148 54.669,22.295C54.709,22.442 54.729,22.605 54.729,22.785C54.729,22.925 54.717,23.072 54.694,23.225C54.671,23.378 54.642,23.535 54.609,23.695L53.939,26.885L52.839,26.885L53.459,23.955C53.486,23.828 53.506,23.713 53.519,23.61C53.532,23.507 53.539,23.408 53.539,23.315C53.539,22.802 53.326,22.545 52.899,22.545C52.752,22.545 52.599,22.575 52.439,22.635C52.279,22.695 52.122,22.78 51.969,22.89C51.816,23 51.671,23.13 51.534,23.28C51.397,23.43 51.286,23.595 51.199,23.775L50.529,26.885L49.429,26.885L50.549,21.655Z"
   style="fill-rule:nonzero;"
   id="path19" />
            <path
   d="M56.599,26.965C56.312,26.965 56.072,26.897 55.879,26.76C55.686,26.623 55.589,26.405 55.589,26.105C55.589,25.992 55.602,25.882 55.629,25.775L56.329,22.505L55.659,22.505L55.849,21.655L56.499,21.655L56.869,19.935L57.969,19.935L57.599,21.655L58.679,21.655L58.499,22.505L57.429,22.505L56.809,25.425C56.796,25.492 56.789,25.542 56.789,25.575C56.789,25.708 56.829,25.805 56.909,25.865C56.989,25.925 57.086,25.955 57.199,25.955C57.352,25.955 57.499,25.928 57.639,25.875C57.779,25.822 57.886,25.778 57.959,25.745L57.999,26.615C57.846,26.708 57.642,26.79 57.389,26.86C57.136,26.93 56.872,26.965 56.599,26.965Z"
   style="fill-rule:nonzero;"
   id="path21" />
            <path
   d="M59.789,21.655L60.889,21.655L59.769,26.885L58.669,26.885L59.789,21.655ZM60.219,19.585L61.319,19.585L61.069,20.795L59.969,20.795L60.219,19.585Z"
   style="fill-rule:nonzero;"
   id="path23" />
            <path
   d="M62.869,26.985C62.462,26.985 62.076,26.917 61.709,26.78C61.342,26.643 61.042,26.448 60.809,26.195L61.399,25.495C61.899,25.955 62.436,26.185 63.009,26.185C63.349,26.185 63.622,26.108 63.829,25.955C64.036,25.802 64.139,25.598 64.139,25.345C64.139,25.165 64.054,25.028 63.884,24.935C63.714,24.842 63.449,24.745 63.089,24.645C62.836,24.572 62.616,24.5 62.429,24.43C62.242,24.36 62.089,24.28 61.969,24.19C61.849,24.1 61.759,23.998 61.699,23.885C61.639,23.772 61.609,23.638 61.609,23.485C61.609,23.192 61.672,22.927 61.799,22.69C61.926,22.453 62.096,22.252 62.309,22.085C62.522,21.918 62.769,21.79 63.049,21.7C63.329,21.61 63.626,21.565 63.939,21.565C64.312,21.565 64.646,21.625 64.939,21.745C65.232,21.865 65.486,22.038 65.699,22.265L65.089,22.925C64.896,22.732 64.686,22.587 64.459,22.49C64.232,22.393 63.996,22.345 63.749,22.345C63.456,22.345 63.206,22.415 62.999,22.555C62.792,22.695 62.689,22.908 62.689,23.195C62.689,23.362 62.759,23.487 62.899,23.57C63.039,23.653 63.272,23.738 63.599,23.825C63.879,23.898 64.122,23.975 64.329,24.055C64.536,24.135 64.707,24.223 64.844,24.32C64.981,24.417 65.082,24.528 65.149,24.655C65.216,24.782 65.249,24.928 65.249,25.095C65.249,25.375 65.191,25.63 65.074,25.86C64.957,26.09 64.794,26.288 64.584,26.455C64.374,26.622 64.122,26.752 63.829,26.845C63.536,26.938 63.216,26.985 62.869,26.985Z"
   style="fill-rule:nonzero;"
   id="path25" />
            <path
   d="M68.119,26.985C67.786,26.985 67.491,26.928 67.234,26.815C66.977,26.702 66.759,26.547 66.579,26.35C66.399,26.153 66.262,25.92 66.169,25.65C66.076,25.38 66.029,25.088 66.029,24.775C66.029,24.348 66.111,23.942 66.274,23.555C66.437,23.168 66.664,22.828 66.954,22.535C67.244,22.242 67.587,22.007 67.984,21.83C68.381,21.653 68.809,21.565 69.269,21.565C69.809,21.565 70.241,21.687 70.564,21.93C70.887,22.173 71.049,22.532 71.049,23.005C71.049,24.098 70.072,24.645 68.119,24.645C67.832,24.645 67.509,24.635 67.149,24.615L67.149,24.795C67.149,24.988 67.172,25.168 67.219,25.335C67.266,25.502 67.336,25.648 67.429,25.775C67.522,25.902 67.642,26 67.789,26.07C67.936,26.14 68.109,26.175 68.309,26.175C68.596,26.175 68.872,26.103 69.139,25.96C69.406,25.817 69.616,25.622 69.769,25.375L70.639,25.645C70.512,25.845 70.357,26.027 70.174,26.19C69.991,26.353 69.789,26.493 69.569,26.61C69.349,26.727 69.116,26.818 68.869,26.885C68.622,26.952 68.372,26.985 68.119,26.985ZM69.129,22.375C68.889,22.375 68.669,22.417 68.469,22.5C68.269,22.583 68.092,22.695 67.939,22.835C67.786,22.975 67.656,23.137 67.549,23.32C67.442,23.503 67.356,23.695 67.289,23.895C67.596,23.915 67.879,23.925 68.139,23.925C68.492,23.925 68.789,23.903 69.029,23.86C69.269,23.817 69.464,23.757 69.614,23.68C69.764,23.603 69.871,23.51 69.934,23.4C69.997,23.29 70.029,23.168 70.029,23.035C70.029,22.808 69.949,22.642 69.789,22.535C69.629,22.428 69.409,22.375 69.129,22.375Z"
   style="fill-rule:nonzero;"
   id="path27" />
            <path
   d="M72.399,21.655L73.419,21.655L73.159,22.825C73.412,22.465 73.699,22.175 74.019,21.955C74.339,21.735 74.656,21.625 74.969,21.625C75.036,21.625 75.087,21.627 75.124,21.63C75.161,21.633 75.196,21.638 75.229,21.645L75.019,22.605C74.619,22.618 74.246,22.717 73.899,22.9C73.552,23.083 73.272,23.345 73.059,23.685L72.379,26.885L71.279,26.885L72.399,21.655Z"
   style="fill-rule:nonzero;"
   id="path29" />
        </g>
        <g
   transform="matrix(1,0,0,1,-9.52717,784.406)"
   id="g41">
            <path
   d="M30.377,93.412C30.237,93.479 30.044,93.554 29.797,93.637C29.551,93.72 29.287,93.762 29.007,93.762C28.834,93.762 28.671,93.739 28.517,93.692C28.364,93.645 28.229,93.575 28.112,93.482C27.996,93.389 27.904,93.267 27.837,93.117C27.771,92.967 27.737,92.785 27.737,92.572L27.737,89.302L27.047,89.302L27.047,88.452L27.737,88.452L27.737,86.732L28.837,86.732L28.837,88.452L29.977,88.452L29.977,89.302L28.837,89.302L28.837,92.222C28.851,92.409 28.909,92.544 29.012,92.627C29.116,92.71 29.244,92.752 29.397,92.752C29.551,92.752 29.697,92.725 29.837,92.672C29.977,92.619 30.081,92.575 30.147,92.542L30.377,93.412Z"
   style="fill-rule:nonzero;"
   id="path33" />
            <path
   d="M34.077,89.402C33.651,89.415 33.272,89.514 32.942,89.697C32.612,89.88 32.377,90.142 32.237,90.482L32.237,93.682L31.137,93.682L31.137,88.452L32.157,88.452L32.157,89.622C32.337,89.262 32.572,88.974 32.862,88.757C33.152,88.54 33.464,88.422 33.797,88.402C33.864,88.402 33.919,88.402 33.962,88.402C34.006,88.402 34.044,88.405 34.077,88.412L34.077,89.402Z"
   style="fill-rule:nonzero;"
   id="path35" />
            <path
   d="M34.877,93.682L34.877,88.452L35.977,88.452L35.977,93.682L34.877,93.682ZM34.877,87.592L34.877,86.382L35.977,86.382L35.977,87.592L34.877,87.592Z"
   style="fill-rule:nonzero;"
   id="path37" />
            <path
   d="M39.367,93.732C39.014,93.732 38.691,93.66 38.397,93.517C38.104,93.374 37.852,93.179 37.642,92.932C37.432,92.685 37.269,92.402 37.152,92.082C37.036,91.762 36.977,91.425 36.977,91.072C36.977,90.699 37.037,90.347 37.157,90.017C37.277,89.687 37.444,89.4 37.657,89.157C37.871,88.914 38.126,88.72 38.422,88.577C38.719,88.434 39.047,88.362 39.407,88.362C39.827,88.362 40.196,88.462 40.512,88.662C40.829,88.862 41.091,89.122 41.297,89.442L41.297,88.452L42.267,88.452L42.267,93.532C42.267,93.912 42.197,94.249 42.057,94.542C41.917,94.835 41.722,95.084 41.472,95.287C41.222,95.49 40.927,95.645 40.587,95.752C40.247,95.859 39.881,95.912 39.487,95.912C38.907,95.912 38.426,95.814 38.042,95.617C37.659,95.42 37.337,95.145 37.077,94.792L37.697,94.212C37.897,94.492 38.156,94.705 38.472,94.852C38.789,94.999 39.127,95.072 39.487,95.072C39.714,95.072 39.929,95.042 40.132,94.982C40.336,94.922 40.514,94.829 40.667,94.702C40.821,94.575 40.942,94.415 41.032,94.222C41.122,94.029 41.167,93.799 41.167,93.532L41.167,92.732C40.981,93.052 40.724,93.299 40.397,93.472C40.071,93.645 39.727,93.732 39.367,93.732ZM39.727,92.842C39.894,92.842 40.054,92.814 40.207,92.757C40.361,92.7 40.502,92.624 40.632,92.527C40.762,92.43 40.874,92.32 40.967,92.197C41.061,92.074 41.127,91.942 41.167,91.802L41.167,90.432C41.101,90.265 41.014,90.114 40.907,89.977C40.801,89.84 40.679,89.722 40.542,89.622C40.406,89.522 40.261,89.444 40.107,89.387C39.954,89.33 39.801,89.302 39.647,89.302C39.407,89.302 39.192,89.354 39.002,89.457C38.812,89.56 38.651,89.697 38.517,89.867C38.384,90.037 38.281,90.229 38.207,90.442C38.134,90.655 38.097,90.875 38.097,91.102C38.097,91.342 38.139,91.567 38.222,91.777C38.306,91.987 38.421,92.17 38.567,92.327C38.714,92.484 38.886,92.609 39.082,92.702C39.279,92.795 39.494,92.842 39.727,92.842Z"
   style="fill-rule:nonzero;"
   id="path39" />
        </g>
        <g
   transform="matrix(1,0,0,1,-3.23387,769.502)"
   id="g47">
            <path
   d="M24.24,76.72C24.24,76.353 24.303,76.006 24.43,75.68C24.556,75.353 24.738,75.066 24.975,74.82C25.211,74.573 25.496,74.378 25.83,74.235C26.163,74.091 26.536,74.02 26.95,74.02C27.49,74.02 27.955,74.138 28.345,74.375C28.735,74.611 29.026,74.926 29.22,75.32L28.15,75.66C28.023,75.44 27.853,75.268 27.64,75.145C27.426,75.021 27.19,74.96 26.93,74.96C26.71,74.96 26.505,75.003 26.315,75.09C26.125,75.176 25.96,75.298 25.82,75.455C25.68,75.611 25.57,75.796 25.49,76.01C25.41,76.223 25.37,76.46 25.37,76.72C25.37,76.973 25.411,77.208 25.495,77.425C25.578,77.641 25.691,77.83 25.835,77.99C25.978,78.15 26.145,78.275 26.335,78.365C26.525,78.455 26.726,78.5 26.94,78.5C27.073,78.5 27.206,78.481 27.34,78.445C27.473,78.408 27.595,78.356 27.705,78.29C27.815,78.223 27.911,78.146 27.995,78.06C28.078,77.973 28.14,77.88 28.18,77.78L29.26,78.1C29.086,78.493 28.796,78.815 28.39,79.065C27.983,79.315 27.503,79.44 26.95,79.44C26.543,79.44 26.173,79.366 25.84,79.22C25.506,79.073 25.221,78.875 24.985,78.625C24.748,78.375 24.565,78.086 24.435,77.76C24.305,77.433 24.24,77.086 24.24,76.72Z"
   style="fill-rule:nonzero;"
   id="path43" />
            <path
   d="M31.57,79.34L29.57,74.11L30.7,74.11L32.2,78.41L33.71,74.11L34.75,74.11L32.75,79.34L31.57,79.34Z"
   style="fill-rule:nonzero;"
   id="path45" />
        </g>
        <g
   transform="matrix(1,0,0,1,-9.52717,849.406)"
   id="g57">
            <path
   d="M30.377,93.412C30.237,93.479 30.044,93.554 29.797,93.637C29.551,93.72 29.287,93.762 29.007,93.762C28.834,93.762 28.671,93.739 28.517,93.692C28.364,93.645 28.229,93.575 28.112,93.482C27.996,93.389 27.904,93.267 27.837,93.117C27.771,92.967 27.737,92.785 27.737,92.572L27.737,89.302L27.047,89.302L27.047,88.452L27.737,88.452L27.737,86.732L28.837,86.732L28.837,88.452L29.977,88.452L29.977,89.302L28.837,89.302L28.837,92.222C28.851,92.409 28.909,92.544 29.012,92.627C29.116,92.71 29.244,92.752 29.397,92.752C29.551,92.752 29.697,92.725 29.837,92.672C29.977,92.619 30.081,92.575 30.147,92.542L30.377,93.412Z"
   style="fill-rule:nonzero;"
   id="path49" />
            <path
   d="M34.077,89.402C33.651,89.415 33.272,89.514 32.942,89.697C32.612,89.88 32.377,90.142 32.237,90.482L32.237,93.682L31.137,93.682L31.137,88.452L32.157,88.452L32.157,89.622C32.337,89.262 32.572,88.974 32.862,88.757C33.152,88.54 33.464,88.422 33.797,88.402C33.864,88.402 33.919,88.402 33.962,88.402C34.006,88.402 34.044,88.405 34.077,88.412L34.077,89.402Z"
   style="fill-rule:nonzero;"
   id="path51" />
            <path
   d="M34.877,93.682L34.877,88.452L35.977,88.452L35.977,93.682L34.877,93.682ZM34.877,87.592L34.877,86.382L35.977,86.382L35.977,87.592L34.877,87.592Z"
   style="fill-rule:nonzero;"
   id="path53" />
            <path
   d="M39.367,93.732C39.014,93.732 38.691,93.66 38.397,93.517C38.104,93.374 37.852,93.179 37.642,92.932C37.432,92.685 37.269,92.402 37.152,92.082C37.036,91.762 36.977,91.425 36.977,91.072C36.977,90.699 37.037,90.347 37.157,90.017C37.277,89.687 37.444,89.4 37.657,89.157C37.871,88.914 38.126,88.72 38.422,88.577C38.719,88.434 39.047,88.362 39.407,88.362C39.827,88.362 40.196,88.462 40.512,88.662C40.829,88.862 41.091,89.122 41.297,89.442L41.297,88.452L42.267,88.452L42.267,93.532C42.267,93.912 42.197,94.249 42.057,94.542C41.917,94.835 41.722,95.084 41.472,95.287C41.222,95.49 40.927,95.645 40.587,95.752C40.247,95.859 39.881,95.912 39.487,95.912C38.907,95.912 38.426,95.814 38.042,95.617C37.659,95.42 37.337,95.145 37.077,94.792L37.697,94.212C37.897,94.492 38.156,94.705 38.472,94.852C38.789,94.999 39.127,95.072 39.487,95.072C39.714,95.072 39.929,95.042 40.132,94.982C40.336,94.922 40.514,94.829 40.667,94.702C40.821,94.575 40.942,94.415 41.032,94.222C41.122,94.029 41.167,93.799 41.167,93.532L41.167,92.732C40.981,93.052 40.724,93.299 40.397,93.472C40.071,93.645 39.727,93.732 39.367,93.732ZM39.727,92.842C39.894,92.842 40.054,92.814 40.207,92.757C40.361,92.7 40.502,92.624 40.632,92.527C40.762,92.43 40.874,92.32 40.967,92.197C41.061,92.074 41.127,91.942 41.167,91.802L41.167,90.432C41.101,90.265 41.014,90.114 40.907,89.977C40.801,89.84 40.679,89.722 40.542,89.622C40.406,89.522 40.261,89.444 40.107,89.387C39.954,89.33 39.801,89.302 39.647,89.302C39.407,89.302 39.192,89.354 39.002,89.457C38.812,89.56 38.651,89.697 38.517,89.867C38.384,90.037 38.281,90.229 38.207,90.442C38.134,90.655 38.097,90.875 38.097,91.102C38.097,91.342 38.139,91.567 38.222,91.777C38.306,91.987 38.421,92.17 38.567,92.327C38.714,92.484 38.886,92.609 39.082,92.702C39.279,92.795 39.494,92.842 39.727,92.842Z"
   style="fill-rule:nonzero;"
   id="path55" />
        </g>
        <g
   transform="matrix(1,0,0,1,-3.23387,834.502)"
   id="g63">
            <path
   d="M24.24,76.72C24.24,76.353 24.303,76.006 24.43,75.68C24.556,75.353 24.738,75.066 24.975,74.82C25.211,74.573 25.496,74.378 25.83,74.235C26.163,74.091 26.536,74.02 26.95,74.02C27.49,74.02 27.955,74.138 28.345,74.375C28.735,74.611 29.026,74.926 29.22,75.32L28.15,75.66C28.023,75.44 27.853,75.268 27.64,75.145C27.426,75.021 27.19,74.96 26.93,74.96C26.71,74.96 26.505,75.003 26.315,75.09C26.125,75.176 25.96,75.298 25.82,75.455C25.68,75.611 25.57,75.796 25.49,76.01C25.41,76.223 25.37,76.46 25.37,76.72C25.37,76.973 25.411,77.208 25.495,77.425C25.578,77.641 25.691,77.83 25.835,77.99C25.978,78.15 26.145,78.275 26.335,78.365C26.525,78.455 26.726,78.5 26.94,78.5C27.073,78.5 27.206,78.481 27.34,78.445C27.473,78.408 27.595,78.356 27.705,78.29C27.815,78.223 27.911,78.146 27.995,78.06C28.078,77.973 28.14,77.88 28.18,77.78L29.26,78.1C29.086,78.493 28.796,78.815 28.39,79.065C27.983,79.315 27.503,79.44 26.95,79.44C26.543,79.44 26.173,79.366 25.84,79.22C25.506,79.073 25.221,78.875 24.985,78.625C24.748,78.375 24.565,78.086 24.435,77.76C24.305,77.433 24.24,77.086 24.24,76.72Z"
   style="fill-rule:nonzero;"
   id="path59" />
            <path
   d="M31.57,79.34L29.57,74.11L30.7,74.11L32.2,78.41L33.71,74.11L34.75,74.11L32.75,79.34L31.57,79.34Z"
   style="fill-rule:nonzero;"
   id="path61" />
        </g>
        <g
   transform="matrix(1,0,0,1,-9.52717,914.406)"
   id="g73">
            <path
   d="M30.377,93.412C30.237,93.479 30.044,93.554 29.797,93.637C29.551,93.72 29.287,93.762 29.007,93.762C28.834,93.762 28.671,93.739 28.517,93.692C28.364,93.645 28.229,93.575 28.112,93.482C27.996,93.389 27.904,93.267 27.837,93.117C27.771,92.967 27.737,92.785 27.737,92.572L27.737,89.302L27.047,89.302L27.047,88.452L27.737,88.452L27.737,86.732L28.837,86.732L28.837,88.452L29.977,88.452L29.977,89.302L28.837,89.302L28.837,92.222C28.851,92.409 28.909,92.544 29.012,92.627C29.116,92.71 29.244,92.752 29.397,92.752C29.551,92.752 29.697,92.725 29.837,92.672C29.977,92.619 30.081,92.575 30.147,92.542L30.377,93.412Z"
   style="fill-rule:nonzero;"
   id="path65" />
            <path
   d="M34.077,89.402C33.651,89.415 33.272,89.514 32.942,89.697C32.612,89.88 32.377,90.142 32.237,90.482L32.237,93.682L31.137,93.682L31.137,88.452L32.157,88.452L32.157,89.622C32.337,89.262 32.572,88.974 32.862,88.757C33.152,88.54 33.464,88.422 33.797,88.402C33.864,88.402 33.919,88.402 33.962,88.402C34.006,88.402 34.044,88.405 34.077,88.412L34.077,89.402Z"
   style="fill-rule:nonzero;"
   id="path67" />
            <path
   d="M34.877,93.682L34.877,88.452L35.977,88.452L35.977,93.682L34.877,93.682ZM34.877,87.592L34.877,86.382L35.977,86.382L35.977,87.592L34.877,87.592Z"
   style="fill-rule:nonzero;"
   id="path69" />
            <path
   d="M39.367,93.732C39.014,93.732 38.691,93.66 38.397,93.517C38.104,93.374 37.852,93.179 37.642,92.932C37.432,92.685 37.269,92.402 37.152,92.082C37.036,91.762 36.977,91.425 36.977,91.072C36.977,90.699 37.037,90.347 37.157,90.017C37.277,89.687 37.444,89.4 37.657,89.157C37.871,88.914 38.126,88.72 38.422,88.577C38.719,88.434 39.047,88.362 39.407,88.362C39.827,88.362 40.196,88.462 40.512,88.662C40.829,88.862 41.091,89.122 41.297,89.442L41.297,88.452L42.267,88.452L42.267,93.532C42.267,93.912 42.197,94.249 42.057,94.542C41.917,94.835 41.722,95.084 41.472,95.287C41.222,95.49 40.927,95.645 40.587,95.752C40.247,95.859 39.881,95.912 39.487,95.912C38.907,95.912 38.426,95.814 38.042,95.617C37.659,95.42 37.337,95.145 37.077,94.792L37.697,94.212C37.897,94.492 38.156,94.705 38.472,94.852C38.789,94.999 39.127,95.072 39.487,95.072C39.714,95.072 39.929,95.042 40.132,94.982C40.336,94.922 40.514,94.829 40.667,94.702C40.821,94.575 40.942,94.415 41.032,94.222C41.122,94.029 41.167,93.799 41.167,93.532L41.167,92.732C40.981,93.052 40.724,93.299 40.397,93.472C40.071,93.645 39.727,93.732 39.367,93.732ZM39.727,92.842C39.894,92.842 40.054,92.814 40.207,92.757C40.361,92.7 40.502,92.624 40.632,92.527C40.762,92.43 40.874,92.32 40.967,92.197C41.061,92.074 41.127,91.942 41.167,91.802L41.167,90.432C41.101,90.265 41.014,90.114 40.907,89.977C40.801,89.84 40.679,89.722 40.542,89.622C40.406,89.522 40.261,89.444 40.107,89.387C39.954,89.33 39.801,89.302 39.647,89.302C39.407,89.302 39.192,89.354 39.002,89.457C38.812,89.56 38.651,89.697 38.517,89.867C38.384,90.037 38.281,90.229 38.207,90.442C38.134,90.655 38.097,90.875 38.097,91.102C38.097,91.342 38.139,91.567 38.222,91.777C38.306,91.987 38.421,92.17 38.567,92.327C38.714,92.484 38.886,92.609 39.082,92.702C39.279,92.795 39.494,92.842 39.727,92.842Z"
   style="fill-rule:nonzero;"
   id="path71" />
        </g>
        <g
   transform="matrix(1,0,0,1,-3.23387,899.502)"
   id="g79">
            <path
   d="M24.24,76.72C24.24,76.353 24.303,76.006 24.43,75.68C24.556,75.353 24.738,75.066 24.975,74.82C25.211,74.573 25.496,74.378 25.83,74.235C26.163,74.091 26.536,74.02 26.95,74.02C27.49,74.02 27.955,74.138 28.345,74.375C28.735,74.611 29.026,74.926 29.22,75.32L28.15,75.66C28.023,75.44 27.853,75.268 27.64,75.145C27.426,75.021 27.19,74.96 26.93,74.96C26.71,74.96 26.505,75.003 26.315,75.09C26.125,75.176 25.96,75.298 25.82,75.455C25.68,75.611 25.57,75.796 25.49,76.01C25.41,76.223 25.37,76.46 25.37,76.72C25.37,76.973 25.411,77.208 25.495,77.425C25.578,77.641 25.691,77.83 25.835,77.99C25.978,78.15 26.145,78.275 26.335,78.365C26.525,78.455 26.726,78.5 26.94,78.5C27.073,78.5 27.206,78.481 27.34,78.445C27.473,78.408 27.595,78.356 27.705,78.29C27.815,78.223 27.911,78.146 27.995,78.06C28.078,77.973 28.14,77.88 28.18,77.78L29.26,78.1C29.086,78.493 28.796,78.815 28.39,79.065C27.983,79.315 27.503,79.44 26.95,79.44C26.543,79.44 26.173,79.366 25.84,79.22C25.506,79.073 25.221,78.875 24.985,78.625C24.748,78.375 24.565,78.086 24.435,77.76C24.305,77.433 24.24,77.086 24.24,76.72Z"
   style="fill-rule:nonzero;"
   id="path75" />
            <path
   d="M31.57,79.34L29.57,74.11L30.7,74.11L32.2,78.41L33.71,74.11L34.75,74.11L32.75,79.34L31.57,79.34Z"
   style="fill-rule:nonzero;"
   id="path77" />
        </g>
        <g
   transform="matrix(1,0,0,1,-9.52717,979.406)"
   id="g89">
            <path
   d="M30.377,93.412C30.237,93.479 30.044,93.554 29.797,93.637C29.551,93.72 29.287,93.762 29.007,93.762C28.834,93.762 28.671,93.739 28.517,93.692C28.364,93.645 28.229,93.575 28.112,93.482C27.996,93.389 27.904,93.267 27.837,93.117C27.771,92.967 27.737,92.785 27.737,92.572L27.737,89.302L27.047,89.302L27.047,88.452L27.737,88.452L27.737,86.732L28.837,86.732L28.837,88.452L29.977,88.452L29.977,89.302L28.837,89.302L28.837,92.222C28.851,92.409 28.909,92.544 29.012,92.627C29.116,92.71 29.244,92.752 29.397,92.752C29.551,92.752 29.697,92.725 29.837,92.672C29.977,92.619 30.081,92.575 30.147,92.542L30.377,93.412Z"
   style="fill-rule:nonzero;"
   id="path81" />
            <path
   d="M34.077,89.402C33.651,89.415 33.272,89.514 32.942,89.697C32.612,89.88 32.377,90.142 32.237,90.482L32.237,93.682L31.137,93.682L31.137,88.452L32.157,88.452L32.157,89.622C32.337,89.262 32.572,88.974 32.862,88.757C33.152,88.54 33.464,88.422 33.797,88.402C33.864,88.402 33.919,88.402 33.962,88.402C34.006,88.402 34.044,88.405 34.077,88.412L34.077,89.402Z"
   style="fill-rule:nonzero;"
   id="path83" />
            <path
   d="M34.877,93.682L34.877,88.452L35.977,88.452L35.977,93.682L34.877,93.682ZM34.877,87.592L34.877,86.382L35.977,86.382L35.977,87.592L34.877,87.592Z"
   style="fill-rule:nonzero;"
   id="path85" />
            <path
   d="M39.367,93.732C39.014,93.732 38.691,93.66 38.397,93.517C38.104,93.374 37.852,93.179 37.642,92.932C37.432,92.685 37.269,92.402 37.152,92.082C37.036,91.762 36.977,91.425 36.977,91.072C36.977,90.699 37.037,90.347 37.157,90.017C37.277,89.687 37.444,89.4 37.657,89.157C37.871,88.914 38.126,88.72 38.422,88.577C38.719,88.434 39.047,88.362 39.407,88.362C39.827,88.362 40.196,88.462 40.512,88.662C40.829,88.862 41.091,89.122 41.297,89.442L41.297,88.452L42.267,88.452L42.267,93.532C42.267,93.912 42.197,94.249 42.057,94.542C41.917,94.835 41.722,95.084 41.472,95.287C41.222,95.49 40.927,95.645 40.587,95.752C40.247,95.859 39.881,95.912 39.487,95.912C38.907,95.912 38.426,95.814 38.042,95.617C37.659,95.42 37.337,95.145 37.077,94.792L37.697,94.212C37.897,94.492 38.156,94.705 38.472,94.852C38.789,94.999 39.127,95.072 39.487,95.072C39.714,95.072 39.929,95.042 40.132,94.982C40.336,94.922 40.514,94.829 40.667,94.702C40.821,94.575 40.942,94.415 41.032,94.222C41.122,94.029 41.167,93.799 41.167,93.532L41.167,92.732C40.981,93.052 40.724,93.299 40.397,93.472C40.071,93.645 39.727,93.732 39.367,93.732ZM39.727,92.842C39.894,92.842 40.054,92.814 40.207,92.757C40.361,92.7 40.502,92.624 40.632,92.527C40.762,92.43 40.874,92.32 40.967,92.197C41.061,92.074 41.127,91.942 41.167,91.802L41.167,90.432C41.101,90.265 41.014,90.114 40.907,89.977C40.801,89.84 40.679,89.722 40.542,89.622C40.406,89.522 40.261,89.444 40.107,89.387C39.954,89.33 39.801,89.302 39.647,89.302C39.407,89.302 39.192,89.354 39.002,89.457C38.812,89.56 38.651,89.697 38.517,89.867C38.384,90.037 38.281,90.229 38.207,90.442C38.134,90.655 38.097,90.875 38.097,91.102C38.097,91.342 38.139,91.567 38.222,91.777C38.306,91.987 38.421,92.17 38.567,92.327C38.714,92.484 38.886,92.609 39.082,92.702C39.279,92.795 39.494,92.842 39.727,92.842Z"
   style="fill-rule:nonzero;"
   id="path87" />
        </g>
        <g
   transform="matrix(1,0,0,1,-3.23387,964.502)"
   id="g95">
            <path
   d="M24.24,76.72C24.24,76.353 24.303,76.006 24.43,75.68C24.556,75.353 24.738,75.066 24.975,74.82C25.211,74.573 25.496,74.378 25.83,74.235C26.163,74.091 26.536,74.02 26.95,74.02C27.49,74.02 27.955,74.138 28.345,74.375C28.735,74.611 29.026,74.926 29.22,75.32L28.15,75.66C28.023,75.44 27.853,75.268 27.64,75.145C27.426,75.021 27.19,74.96 26.93,74.96C26.71,74.96 26.505,75.003 26.315,75.09C26.125,75.176 25.96,75.298 25.82,75.455C25.68,75.611 25.57,75.796 25.49,76.01C25.41,76.223 25.37,76.46 25.37,76.72C25.37,76.973 25.411,77.208 25.495,77.425C25.578,77.641 25.691,77.83 25.835,77.99C25.978,78.15 26.145,78.275 26.335,78.365C26.525,78.455 26.726,78.5 26.94,78.5C27.073,78.5 27.206,78.481 27.34,78.445C27.473,78.408 27.595,78.356 27.705,78.29C27.815,78.223 27.911,78.146 27.995,78.06C28.078,77.973 28.14,77.88 28.18,77.78L29.26,78.1C29.086,78.493 28.796,78.815 28.39,79.065C27.983,79.315 27.503,79.44 26.95,79.44C26.543,79.44 26.173,79.366 25.84,79.22C25.506,79.073 25.221,78.875 24.985,78.625C24.748,78.375 24.565,78.086 24.435,77.76C24.305,77.433 24.24,77.086 24.24,76.72Z"
   style="fill-rule:nonzero;"
   id="path91" />
            <path
   d="M31.57,79.34L29.57,74.11L30.7,74.11L32.2,78.41L33.71,74.11L34.75,74.11L32.75,79.34L31.57,79.34Z"
   style="fill-rule:nonzero;"
   id="path93" />
        </g>
        <g
   transform="translate(-14.0417,763.571)"
   id="g115">
            <path
   d="m 38.695,64.556 c -0.14,0.067 -0.334,0.142 -0.58,0.225 -0.247,0.084 -0.51,0.125 -0.79,0.125 -0.174,0 -0.337,-0.023 -0.49,-0.07 -0.154,-0.046 -0.289,-0.116 -0.405,-0.21 -0.117,-0.093 -0.209,-0.215 -0.275,-0.365 -0.067,-0.15 -0.1,-0.331 -0.1,-0.545 v -3.27 h -0.69 v -0.85 h 0.69 v -1.72 h 1.1 v 1.72 h 1.14 v 0.85 h -1.14 v 2.92 c 0.013,0.187 0.071,0.322 0.175,0.405 0.103,0.084 0.231,0.125 0.385,0.125 0.153,0 0.3,-0.026 0.44,-0.08 0.14,-0.053 0.243,-0.096 0.31,-0.13 z"
   style="fill-rule:nonzero"
   id="path97" />
            <path
   d="m 42.395,60.546 c -0.427,0.014 -0.805,0.112 -1.135,0.295 -0.33,0.184 -0.565,0.445 -0.705,0.785 v 3.2 h -1.1 v -5.23 h 1.02 v 1.17 c 0.18,-0.36 0.415,-0.648 0.705,-0.865 0.29,-0.216 0.601,-0.335 0.935,-0.355 0.066,0 0.121,0 0.165,0 0.043,0 0.081,0.004 0.115,0.01 z"
   style="fill-rule:nonzero"
   id="path99" />
            <path
   d="m 44.515,64.926 c -0.254,0 -0.489,-0.041 -0.705,-0.125 -0.217,-0.083 -0.404,-0.198 -0.56,-0.345 -0.157,-0.146 -0.28,-0.32 -0.37,-0.52 -0.09,-0.2 -0.135,-0.416 -0.135,-0.65 0,-0.246 0.053,-0.47 0.16,-0.67 0.106,-0.2 0.258,-0.373 0.455,-0.52 0.196,-0.146 0.43,-0.26 0.7,-0.34 0.27,-0.08 0.568,-0.12 0.895,-0.12 0.246,0 0.49,0.022 0.73,0.065 0.24,0.044 0.456,0.102 0.65,0.175 v -0.36 c 0,-0.386 -0.11,-0.688 -0.33,-0.905 -0.22,-0.216 -0.537,-0.325 -0.95,-0.325 -0.28,0 -0.555,0.052 -0.825,0.155 -0.27,0.104 -0.549,0.252 -0.835,0.445 l -0.34,-0.7 c 0.673,-0.453 1.373,-0.68 2.1,-0.68 0.72,0 1.28,0.184 1.68,0.55 0.4,0.367 0.6,0.894 0.6,1.58 v 1.89 c 0,0.234 0.096,0.354 0.29,0.36 v 0.94 c -0.107,0.02 -0.199,0.034 -0.275,0.04 -0.077,0.007 -0.152,0.01 -0.225,0.01 -0.214,0 -0.379,-0.053 -0.495,-0.16 -0.117,-0.106 -0.189,-0.243 -0.215,-0.41 l -0.03,-0.33 c -0.234,0.307 -0.522,0.542 -0.865,0.705 -0.344,0.164 -0.712,0.245 -1.105,0.245 z m 0.3,-0.81 c 0.266,0 0.518,-0.048 0.755,-0.145 0.236,-0.096 0.421,-0.231 0.555,-0.405 0.14,-0.12 0.21,-0.246 0.21,-0.38 v -0.69 c -0.187,-0.073 -0.385,-0.13 -0.595,-0.17 -0.21,-0.04 -0.415,-0.06 -0.615,-0.06 -0.394,0 -0.715,0.085 -0.965,0.255 -0.25,0.17 -0.375,0.395 -0.375,0.675 0,0.26 0.096,0.479 0.29,0.655 0.193,0.177 0.44,0.265 0.74,0.265 z"
   style="fill-rule:nonzero"
   id="path101" />
            <path
   d="m 53.455,64.826 h -1.1 v -2.93 c 0,-0.493 -0.079,-0.851 -0.235,-1.075 -0.157,-0.223 -0.389,-0.335 -0.695,-0.335 -0.16,0 -0.32,0.03 -0.48,0.09 -0.16,0.06 -0.31,0.145 -0.45,0.255 -0.14,0.11 -0.265,0.24 -0.375,0.39 -0.11,0.15 -0.195,0.315 -0.255,0.495 v 3.11 h -1.1 v -5.23 h 1 v 1.05 c 0.2,-0.353 0.49,-0.631 0.87,-0.835 0.38,-0.203 0.8,-0.305 1.26,-0.305 0.313,0 0.57,0.057 0.77,0.17 0.2,0.114 0.358,0.269 0.475,0.465 0.116,0.197 0.198,0.424 0.245,0.68 0.046,0.257 0.07,0.529 0.07,0.815 z"
   style="fill-rule:nonzero"
   id="path103" />
            <path
   d="m 56.635,64.926 c -0.42,0 -0.839,-0.068 -1.255,-0.205 -0.417,-0.136 -0.775,-0.331 -1.075,-0.585 l 0.44,-0.7 c 0.313,0.227 0.623,0.399 0.93,0.515 0.306,0.117 0.62,0.175 0.94,0.175 0.326,0 0.585,-0.063 0.775,-0.19 0.19,-0.126 0.285,-0.306 0.285,-0.54 0,-0.22 -0.107,-0.38 -0.32,-0.48 -0.214,-0.1 -0.547,-0.21 -1,-0.33 -0.327,-0.086 -0.607,-0.17 -0.84,-0.25 -0.234,-0.08 -0.424,-0.173 -0.57,-0.28 -0.147,-0.106 -0.254,-0.23 -0.32,-0.37 -0.067,-0.14 -0.1,-0.31 -0.1,-0.51 0,-0.266 0.051,-0.503 0.155,-0.71 0.103,-0.206 0.246,-0.381 0.43,-0.525 0.183,-0.143 0.398,-0.251 0.645,-0.325 0.246,-0.073 0.513,-0.11 0.8,-0.11 0.393,0 0.76,0.06 1.1,0.18 0.34,0.12 0.643,0.294 0.91,0.52 l -0.47,0.66 c -0.487,-0.386 -1.004,-0.58 -1.55,-0.58 -0.28,0 -0.515,0.059 -0.705,0.175 -0.19,0.117 -0.285,0.302 -0.285,0.555 0,0.107 0.02,0.197 0.06,0.27 0.04,0.074 0.105,0.137 0.195,0.19 0.09,0.054 0.206,0.102 0.35,0.145 0.143,0.044 0.321,0.092 0.535,0.145 0.353,0.087 0.658,0.174 0.915,0.26 0.256,0.087 0.468,0.189 0.635,0.305 0.166,0.117 0.29,0.254 0.37,0.41 0.08,0.157 0.12,0.345 0.12,0.565 0,0.5 -0.189,0.895 -0.565,1.185 -0.377,0.29 -0.889,0.435 -1.535,0.435 z"
   style="fill-rule:nonzero"
   id="path105" />
            <path
   d="m 62.665,64.926 c -0.42,0 -0.79,-0.1 -1.11,-0.3 -0.32,-0.2 -0.574,-0.46 -0.76,-0.78 v 3.11 h -1.1 v -7.36 h 0.97 v 0.94 c 0.2,-0.313 0.458,-0.563 0.775,-0.75 0.316,-0.186 0.675,-0.28 1.075,-0.28 0.36,0 0.69,0.074 0.99,0.22 0.3,0.147 0.56,0.344 0.78,0.59 0.22,0.247 0.391,0.534 0.515,0.86 0.123,0.327 0.185,0.67 0.185,1.03 0,0.38 -0.057,0.735 -0.17,1.065 -0.114,0.33 -0.274,0.617 -0.48,0.86 -0.207,0.244 -0.452,0.437 -0.735,0.58 -0.284,0.144 -0.595,0.215 -0.935,0.215 z m -0.36,-0.94 c 0.233,0 0.445,-0.05 0.635,-0.15 0.19,-0.1 0.353,-0.233 0.49,-0.4 0.136,-0.166 0.241,-0.356 0.315,-0.57 0.073,-0.213 0.11,-0.433 0.11,-0.66 0,-0.24 -0.042,-0.466 -0.125,-0.68 -0.084,-0.213 -0.197,-0.4 -0.34,-0.56 -0.144,-0.16 -0.315,-0.286 -0.515,-0.38 -0.2,-0.093 -0.417,-0.14 -0.65,-0.14 -0.14,0 -0.287,0.027 -0.44,0.08 -0.154,0.054 -0.297,0.127 -0.43,0.22 -0.134,0.094 -0.25,0.202 -0.35,0.325 -0.1,0.124 -0.17,0.259 -0.21,0.405 v 1.37 c 0.066,0.16 0.153,0.31 0.26,0.45 0.106,0.14 0.225,0.26 0.355,0.36 0.13,0.1 0.271,0.18 0.425,0.24 0.153,0.06 0.31,0.09 0.47,0.09 z"
   style="fill-rule:nonzero"
   id="path107" />
            <path
   d="m 68.325,64.926 c -0.414,0 -0.785,-0.073 -1.115,-0.22 -0.33,-0.146 -0.612,-0.343 -0.845,-0.59 -0.234,-0.246 -0.414,-0.535 -0.54,-0.865 -0.127,-0.33 -0.19,-0.675 -0.19,-1.035 0,-0.36 0.063,-0.705 0.19,-1.035 0.126,-0.33 0.308,-0.618 0.545,-0.865 0.236,-0.246 0.52,-0.443 0.85,-0.59 0.33,-0.146 0.698,-0.22 1.105,-0.22 0.406,0 0.775,0.074 1.105,0.22 0.33,0.147 0.613,0.344 0.85,0.59 0.236,0.247 0.418,0.535 0.545,0.865 0.126,0.33 0.19,0.675 0.19,1.035 0,0.36 -0.064,0.705 -0.19,1.035 -0.127,0.33 -0.309,0.619 -0.545,0.865 -0.237,0.247 -0.52,0.444 -0.85,0.59 -0.33,0.147 -0.699,0.22 -1.105,0.22 z m -1.56,-2.7 c 0,0.254 0.04,0.487 0.12,0.7 0.08,0.214 0.19,0.399 0.33,0.555 0.14,0.157 0.305,0.28 0.495,0.37 0.19,0.09 0.395,0.135 0.615,0.135 0.22,0 0.425,-0.045 0.615,-0.135 0.19,-0.09 0.355,-0.215 0.495,-0.375 0.14,-0.16 0.25,-0.346 0.33,-0.56 0.08,-0.213 0.12,-0.446 0.12,-0.7 0,-0.246 -0.04,-0.478 -0.12,-0.695 -0.08,-0.216 -0.19,-0.405 -0.33,-0.565 -0.14,-0.16 -0.305,-0.285 -0.495,-0.375 -0.19,-0.09 -0.395,-0.135 -0.615,-0.135 -0.214,0 -0.415,0.047 -0.605,0.14 -0.19,0.094 -0.355,0.22 -0.495,0.38 -0.14,0.16 -0.252,0.349 -0.335,0.565 -0.084,0.217 -0.125,0.449 -0.125,0.695 z"
   style="fill-rule:nonzero"
   id="path109" />
            <path
   d="m 73.895,64.926 c -0.42,0 -0.839,-0.068 -1.255,-0.205 -0.417,-0.136 -0.775,-0.331 -1.075,-0.585 l 0.44,-0.7 c 0.313,0.227 0.623,0.399 0.93,0.515 0.306,0.117 0.62,0.175 0.94,0.175 0.326,0 0.585,-0.063 0.775,-0.19 0.19,-0.126 0.285,-0.306 0.285,-0.54 0,-0.22 -0.107,-0.38 -0.32,-0.48 -0.214,-0.1 -0.547,-0.21 -1,-0.33 -0.327,-0.086 -0.607,-0.17 -0.84,-0.25 -0.234,-0.08 -0.424,-0.173 -0.57,-0.28 -0.147,-0.106 -0.254,-0.23 -0.32,-0.37 -0.067,-0.14 -0.1,-0.31 -0.1,-0.51 0,-0.266 0.051,-0.503 0.155,-0.71 0.103,-0.206 0.246,-0.381 0.43,-0.525 0.183,-0.143 0.398,-0.251 0.645,-0.325 0.246,-0.073 0.513,-0.11 0.8,-0.11 0.393,0 0.76,0.06 1.1,0.18 0.34,0.12 0.643,0.294 0.91,0.52 l -0.47,0.66 c -0.487,-0.386 -1.004,-0.58 -1.55,-0.58 -0.28,0 -0.515,0.059 -0.705,0.175 -0.19,0.117 -0.285,0.302 -0.285,0.555 0,0.107 0.02,0.197 0.06,0.27 0.04,0.074 0.105,0.137 0.195,0.19 0.09,0.054 0.206,0.102 0.35,0.145 0.143,0.044 0.321,0.092 0.535,0.145 0.353,0.087 0.658,0.174 0.915,0.26 0.256,0.087 0.468,0.189 0.635,0.305 0.166,0.117 0.29,0.254 0.37,0.41 0.08,0.157 0.12,0.345 0.12,0.565 0,0.5 -0.189,0.895 -0.565,1.185 -0.377,0.29 -0.889,0.435 -1.535,0.435 z"
   style="fill-rule:nonzero"
   id="path111" />
            <path
   d="m 79.325,64.926 c -0.407,0 -0.777,-0.071 -1.11,-0.215 -0.334,-0.143 -0.619,-0.338 -0.855,-0.585 -0.237,-0.246 -0.42,-0.533 -0.55,-0.86 -0.13,-0.326 -0.195,-0.673 -0.195,-1.04 0,-0.366 0.065,-0.715 0.195,-1.045 0.13,-0.33 0.313,-0.62 0.55,-0.87 0.236,-0.25 0.521,-0.446 0.855,-0.59 0.333,-0.143 0.706,-0.215 1.12,-0.215 0.406,0 0.775,0.074 1.105,0.22 0.33,0.147 0.611,0.342 0.845,0.585 0.233,0.244 0.411,0.527 0.535,0.85 0.123,0.324 0.185,0.662 0.185,1.015 0,0.08 -0.004,0.155 -0.01,0.225 -0.007,0.07 -0.014,0.129 -0.02,0.175 h -4.19 c 0.02,0.234 0.075,0.444 0.165,0.63 0.09,0.187 0.206,0.349 0.35,0.485 0.143,0.137 0.306,0.242 0.49,0.315 0.183,0.074 0.375,0.11 0.575,0.11 0.146,0 0.291,-0.018 0.435,-0.055 0.143,-0.036 0.275,-0.09 0.395,-0.16 0.12,-0.07 0.226,-0.155 0.32,-0.255 0.093,-0.1 0.166,-0.21 0.22,-0.33 l 0.94,0.27 c -0.18,0.394 -0.479,0.715 -0.895,0.965 -0.417,0.25 -0.902,0.375 -1.455,0.375 z m 1.59,-3.11 c -0.02,-0.22 -0.075,-0.423 -0.165,-0.61 -0.09,-0.186 -0.205,-0.345 -0.345,-0.475 -0.14,-0.13 -0.304,-0.231 -0.49,-0.305 -0.187,-0.073 -0.384,-0.11 -0.59,-0.11 -0.207,0 -0.402,0.037 -0.585,0.11 -0.184,0.074 -0.345,0.175 -0.485,0.305 -0.14,0.13 -0.254,0.289 -0.34,0.475 -0.087,0.187 -0.14,0.39 -0.16,0.61 z"
   style="fill-rule:nonzero"
   id="path113" />
        </g>
        <g
   transform="translate(7.41955,760.407)"
   id="g127">
            <path
   d="m 16.798,37.949 c -0.42,0 -0.838,-0.068 -1.255,-0.205 -0.416,-0.136 -0.775,-0.331 -1.075,-0.585 l 0.44,-0.7 c 0.314,0.227 0.624,0.399 0.93,0.515 0.307,0.117 0.62,0.175 0.94,0.175 0.327,0 0.585,-0.063 0.775,-0.19 0.19,-0.126 0.285,-0.306 0.285,-0.54 0,-0.22 -0.106,-0.38 -0.32,-0.48 -0.213,-0.1 -0.546,-0.21 -1,-0.33 -0.326,-0.086 -0.606,-0.17 -0.84,-0.25 -0.233,-0.08 -0.423,-0.173 -0.57,-0.28 -0.146,-0.106 -0.253,-0.23 -0.32,-0.37 -0.066,-0.14 -0.1,-0.31 -0.1,-0.51 0,-0.266 0.052,-0.503 0.155,-0.71 0.104,-0.206 0.247,-0.381 0.43,-0.525 0.184,-0.143 0.399,-0.251 0.645,-0.325 0.247,-0.073 0.514,-0.11 0.8,-0.11 0.394,0 0.76,0.06 1.1,0.18 0.34,0.12 0.644,0.294 0.91,0.52 l -0.47,0.66 c -0.486,-0.386 -1.003,-0.58 -1.55,-0.58 -0.28,0 -0.515,0.059 -0.705,0.175 -0.19,0.117 -0.285,0.302 -0.285,0.555 0,0.107 0.02,0.197 0.06,0.27 0.04,0.074 0.105,0.137 0.195,0.19 0.09,0.054 0.207,0.102 0.35,0.145 0.144,0.044 0.322,0.092 0.535,0.145 0.354,0.087 0.659,0.174 0.915,0.26 0.257,0.087 0.469,0.189 0.635,0.305 0.167,0.117 0.29,0.254 0.37,0.41 0.08,0.157 0.12,0.345 0.12,0.565 0,0.5 -0.188,0.895 -0.565,1.185 -0.376,0.29 -0.888,0.435 -1.535,0.435 z"
   style="fill-rule:nonzero"
   id="path117" />
            <path
   d="m 19.518,35.229 c 0,-0.366 0.064,-0.713 0.19,-1.04 0.127,-0.326 0.309,-0.613 0.545,-0.86 0.237,-0.246 0.522,-0.441 0.855,-0.585 0.334,-0.143 0.707,-0.215 1.12,-0.215 0.54,0 1.005,0.119 1.395,0.355 0.39,0.237 0.682,0.552 0.875,0.945 l -1.07,0.34 c -0.126,-0.22 -0.296,-0.391 -0.51,-0.515 -0.213,-0.123 -0.45,-0.185 -0.71,-0.185 -0.22,0 -0.425,0.044 -0.615,0.13 -0.19,0.087 -0.355,0.209 -0.495,0.365 -0.14,0.157 -0.25,0.342 -0.33,0.555 -0.08,0.214 -0.12,0.45 -0.12,0.71 0,0.254 0.042,0.489 0.125,0.705 0.084,0.217 0.197,0.405 0.34,0.565 0.144,0.16 0.31,0.285 0.5,0.375 0.19,0.09 0.392,0.135 0.605,0.135 0.134,0 0.267,-0.018 0.4,-0.055 0.134,-0.036 0.255,-0.088 0.365,-0.155 0.11,-0.066 0.207,-0.143 0.29,-0.23 0.084,-0.086 0.145,-0.18 0.185,-0.28 l 1.08,0.32 c -0.173,0.394 -0.463,0.715 -0.87,0.965 -0.406,0.25 -0.886,0.375 -1.44,0.375 -0.406,0 -0.776,-0.073 -1.11,-0.22 -0.333,-0.146 -0.618,-0.345 -0.855,-0.595 -0.236,-0.25 -0.42,-0.538 -0.55,-0.865 -0.13,-0.326 -0.195,-0.673 -0.195,-1.04 z"
   style="fill-rule:nonzero"
   id="path119" />
            <path
   d="m 26.838,37.949 c -0.253,0 -0.488,-0.041 -0.705,-0.125 -0.216,-0.083 -0.403,-0.198 -0.56,-0.345 -0.156,-0.146 -0.28,-0.32 -0.37,-0.52 -0.09,-0.2 -0.135,-0.416 -0.135,-0.65 0,-0.246 0.054,-0.47 0.16,-0.67 0.107,-0.2 0.259,-0.373 0.455,-0.52 0.197,-0.146 0.43,-0.26 0.7,-0.34 0.27,-0.08 0.569,-0.12 0.895,-0.12 0.247,0 0.49,0.022 0.73,0.065 0.24,0.044 0.457,0.102 0.65,0.175 v -0.36 c 0,-0.386 -0.11,-0.688 -0.33,-0.905 -0.22,-0.216 -0.536,-0.325 -0.95,-0.325 -0.28,0 -0.555,0.052 -0.825,0.155 -0.27,0.104 -0.548,0.252 -0.835,0.445 l -0.34,-0.7 c 0.674,-0.453 1.374,-0.68 2.1,-0.68 0.72,0 1.28,0.184 1.68,0.55 0.4,0.367 0.6,0.894 0.6,1.58 v 1.89 c 0,0.234 0.097,0.354 0.29,0.36 v 0.94 c -0.106,0.02 -0.198,0.034 -0.275,0.04 -0.076,0.007 -0.151,0.01 -0.225,0.01 -0.213,0 -0.378,-0.053 -0.495,-0.16 -0.116,-0.106 -0.188,-0.243 -0.215,-0.41 l -0.03,-0.33 c -0.233,0.307 -0.521,0.542 -0.865,0.705 -0.343,0.164 -0.711,0.245 -1.105,0.245 z m 0.3,-0.81 c 0.267,0 0.519,-0.048 0.755,-0.145 0.237,-0.096 0.422,-0.231 0.555,-0.405 0.14,-0.12 0.21,-0.246 0.21,-0.38 v -0.69 c -0.186,-0.073 -0.385,-0.13 -0.595,-0.17 -0.21,-0.04 -0.415,-0.06 -0.615,-0.06 -0.393,0 -0.715,0.085 -0.965,0.255 -0.25,0.17 -0.375,0.395 -0.375,0.675 0,0.26 0.097,0.479 0.29,0.655 0.194,0.177 0.44,0.265 0.74,0.265 z"
   style="fill-rule:nonzero"
   id="path121" />
            <path
   d="m 31.098,30.549 h 1.1 v 5.79 c 0,0.194 0.05,0.345 0.15,0.455 0.1,0.11 0.24,0.165 0.42,0.165 0.074,0 0.159,-0.013 0.255,-0.04 0.097,-0.026 0.189,-0.056 0.275,-0.09 l 0.16,0.86 c -0.16,0.074 -0.35,0.132 -0.57,0.175 -0.22,0.044 -0.416,0.065 -0.59,0.065 -0.38,0 -0.675,-0.103 -0.885,-0.31 -0.21,-0.206 -0.315,-0.5 -0.315,-0.88 z"
   style="fill-rule:nonzero"
   id="path123" />
            <path
   d="m 36.468,37.949 c -0.406,0 -0.776,-0.071 -1.11,-0.215 -0.333,-0.143 -0.618,-0.338 -0.855,-0.585 -0.236,-0.246 -0.42,-0.533 -0.55,-0.86 -0.13,-0.326 -0.195,-0.673 -0.195,-1.04 0,-0.366 0.065,-0.715 0.195,-1.045 0.13,-0.33 0.314,-0.62 0.55,-0.87 0.237,-0.25 0.522,-0.446 0.855,-0.59 0.334,-0.143 0.707,-0.215 1.12,-0.215 0.407,0 0.775,0.074 1.105,0.22 0.33,0.147 0.612,0.342 0.845,0.585 0.234,0.244 0.412,0.527 0.535,0.85 0.124,0.324 0.185,0.662 0.185,1.015 0,0.08 -0.003,0.155 -0.01,0.225 -0.006,0.07 -0.013,0.129 -0.02,0.175 h -4.19 c 0.02,0.234 0.075,0.444 0.165,0.63 0.09,0.187 0.207,0.349 0.35,0.485 0.144,0.137 0.307,0.242 0.49,0.315 0.184,0.074 0.375,0.11 0.575,0.11 0.147,0 0.292,-0.018 0.435,-0.055 0.144,-0.036 0.275,-0.09 0.395,-0.16 0.12,-0.07 0.227,-0.155 0.32,-0.255 0.094,-0.1 0.167,-0.21 0.22,-0.33 l 0.94,0.27 c -0.18,0.394 -0.478,0.715 -0.895,0.965 -0.416,0.25 -0.901,0.375 -1.455,0.375 z m 1.59,-3.11 c -0.02,-0.22 -0.075,-0.423 -0.165,-0.61 -0.09,-0.186 -0.205,-0.345 -0.345,-0.475 -0.14,-0.13 -0.303,-0.231 -0.49,-0.305 -0.186,-0.073 -0.383,-0.11 -0.59,-0.11 -0.206,0 -0.401,0.037 -0.585,0.11 -0.183,0.074 -0.345,0.175 -0.485,0.305 -0.14,0.13 -0.253,0.289 -0.34,0.475 -0.086,0.187 -0.14,0.39 -0.16,0.61 z"
   style="fill-rule:nonzero"
   id="path125" />
        </g>
        <g
   transform="matrix(1,0,0,1,-21,737.52)"
   id="g139">
            <path
   d="M94.364,105.545C94.364,105.178 94.428,104.831 94.554,104.505C94.681,104.178 94.863,103.891 95.099,103.645C95.336,103.398 95.621,103.203 95.954,103.06C96.288,102.916 96.661,102.845 97.074,102.845C97.614,102.845 98.079,102.963 98.469,103.2C98.859,103.436 99.151,103.751 99.344,104.145L98.274,104.485C98.148,104.265 97.978,104.093 97.764,103.97C97.551,103.846 97.314,103.785 97.054,103.785C96.834,103.785 96.629,103.828 96.439,103.915C96.249,104.001 96.084,104.123 95.944,104.28C95.804,104.436 95.694,104.621 95.614,104.835C95.534,105.048 95.494,105.285 95.494,105.545C95.494,105.798 95.536,106.033 95.619,106.25C95.703,106.466 95.816,106.655 95.959,106.815C96.103,106.975 96.269,107.1 96.459,107.19C96.649,107.28 96.851,107.325 97.064,107.325C97.198,107.325 97.331,107.306 97.464,107.27C97.598,107.233 97.719,107.181 97.829,107.115C97.939,107.048 98.036,106.971 98.119,106.885C98.203,106.798 98.264,106.705 98.304,106.605L99.384,106.925C99.211,107.318 98.921,107.64 98.514,107.89C98.108,108.14 97.628,108.265 97.074,108.265C96.668,108.265 96.298,108.191 95.964,108.045C95.631,107.898 95.346,107.7 95.109,107.45C94.873,107.2 94.689,106.911 94.559,106.585C94.429,106.258 94.364,105.911 94.364,105.545Z"
   style="fill-rule:nonzero;"
   id="path129" />
            <path
   d="M101.694,108.165L99.694,102.935L100.824,102.935L102.324,107.235L103.834,102.935L104.874,102.935L102.874,108.165L101.694,108.165Z"
   style="fill-rule:nonzero;"
   id="path131" />
            <path
   d="M109.244,108.265C108.991,108.265 108.756,108.223 108.539,108.14C108.323,108.056 108.136,107.941 107.979,107.795C107.823,107.648 107.699,107.475 107.609,107.275C107.519,107.075 107.474,106.858 107.474,106.625C107.474,106.378 107.528,106.155 107.634,105.955C107.741,105.755 107.893,105.581 108.089,105.435C108.286,105.288 108.519,105.175 108.789,105.095C109.059,105.015 109.358,104.975 109.684,104.975C109.931,104.975 110.174,104.996 110.414,105.04C110.654,105.083 110.871,105.141 111.064,105.215L111.064,104.855C111.064,104.468 110.954,104.166 110.734,103.95C110.514,103.733 110.198,103.625 109.784,103.625C109.504,103.625 109.229,103.676 108.959,103.78C108.689,103.883 108.411,104.031 108.124,104.225L107.784,103.525C108.458,103.071 109.158,102.845 109.884,102.845C110.604,102.845 111.164,103.028 111.564,103.395C111.964,103.761 112.164,104.288 112.164,104.975L112.164,106.865C112.164,107.098 112.261,107.218 112.454,107.225L112.454,108.165C112.348,108.185 112.256,108.198 112.179,108.205C112.103,108.211 112.028,108.215 111.954,108.215C111.741,108.215 111.576,108.161 111.459,108.055C111.343,107.948 111.271,107.811 111.244,107.645L111.214,107.315C110.981,107.621 110.693,107.856 110.349,108.02C110.006,108.183 109.638,108.265 109.244,108.265ZM109.544,107.455C109.811,107.455 110.063,107.406 110.299,107.31C110.536,107.213 110.721,107.078 110.854,106.905C110.994,106.785 111.064,106.658 111.064,106.525L111.064,105.835C110.878,105.761 110.679,105.705 110.469,105.665C110.259,105.625 110.054,105.605 109.854,105.605C109.461,105.605 109.139,105.69 108.889,105.86C108.639,106.03 108.514,106.255 108.514,106.535C108.514,106.795 108.611,107.013 108.804,107.19C108.998,107.366 109.244,107.455 109.544,107.455Z"
   style="fill-rule:nonzero;"
   id="path133" />
            <path
   d="M116.364,107.895C116.224,107.961 116.031,108.036 115.784,108.12C115.538,108.203 115.274,108.245 114.994,108.245C114.821,108.245 114.658,108.221 114.504,108.175C114.351,108.128 114.216,108.058 114.099,107.965C113.983,107.871 113.891,107.75 113.824,107.6C113.758,107.45 113.724,107.268 113.724,107.055L113.724,103.785L113.034,103.785L113.034,102.935L113.724,102.935L113.724,101.215L114.824,101.215L114.824,102.935L115.964,102.935L115.964,103.785L114.824,103.785L114.824,106.705C114.838,106.891 114.896,107.026 114.999,107.11C115.103,107.193 115.231,107.235 115.384,107.235C115.538,107.235 115.684,107.208 115.824,107.155C115.964,107.101 116.068,107.058 116.134,107.025L116.364,107.895Z"
   style="fill-rule:nonzero;"
   id="path135" />
            <path
   d="M120.034,107.895C119.894,107.961 119.701,108.036 119.454,108.12C119.208,108.203 118.944,108.245 118.664,108.245C118.491,108.245 118.328,108.221 118.174,108.175C118.021,108.128 117.886,108.058 117.769,107.965C117.653,107.871 117.561,107.75 117.494,107.6C117.428,107.45 117.394,107.268 117.394,107.055L117.394,103.785L116.704,103.785L116.704,102.935L117.394,102.935L117.394,101.215L118.494,101.215L118.494,102.935L119.634,102.935L119.634,103.785L118.494,103.785L118.494,106.705C118.508,106.891 118.566,107.026 118.669,107.11C118.773,107.193 118.901,107.235 119.054,107.235C119.208,107.235 119.354,107.208 119.494,107.155C119.634,107.101 119.738,107.058 119.804,107.025L120.034,107.895Z"
   style="fill-rule:nonzero;"
   id="path137" />
        </g>
        <g
   transform="matrix(1,0,0,1,-15.9447,748.141)"
   id="g159">
            <path
   d="M32.381,15.982L32.381,7.462L34.349,7.462L34.349,14.254L38.477,14.254L38.477,15.982L32.381,15.982Z"
   style="fill-rule:nonzero;"
   id="path141" />
            <path
   d="M41.033,16.102C40.721,16.102 40.431,16.052 40.163,15.952C39.895,15.852 39.665,15.712 39.473,15.532C39.281,15.352 39.129,15.14 39.017,14.896C38.905,14.652 38.849,14.386 38.849,14.098C38.849,13.786 38.915,13.502 39.047,13.246C39.179,12.99 39.365,12.77 39.605,12.586C39.845,12.402 40.129,12.258 40.457,12.154C40.785,12.05 41.149,11.998 41.549,11.998C41.813,11.998 42.069,12.02 42.317,12.064C42.565,12.108 42.781,12.174 42.965,12.262L42.965,11.974C42.965,11.246 42.545,10.882 41.705,10.882C41.361,10.882 41.033,10.94 40.721,11.056C40.409,11.172 40.081,11.346 39.737,11.578L39.173,10.378C39.589,10.106 40.021,9.902 40.469,9.766C40.917,9.63 41.393,9.562 41.897,9.562C42.849,9.562 43.585,9.786 44.105,10.234C44.625,10.682 44.885,11.338 44.885,12.202L44.885,13.822C44.885,14.014 44.915,14.148 44.975,14.224C45.035,14.3 45.141,14.346 45.293,14.362L45.293,15.982C45.125,16.022 44.973,16.048 44.837,16.06C44.701,16.072 44.577,16.078 44.465,16.078C44.105,16.078 43.833,16.008 43.649,15.868C43.465,15.728 43.349,15.53 43.301,15.274L43.265,14.986C42.985,15.346 42.651,15.622 42.263,15.814C41.875,16.006 41.465,16.102 41.033,16.102ZM41.597,14.722C41.805,14.722 42.007,14.686 42.203,14.614C42.399,14.542 42.561,14.446 42.689,14.326C42.873,14.182 42.965,14.03 42.965,13.87L42.965,13.27C42.797,13.206 42.615,13.156 42.419,13.12C42.223,13.084 42.041,13.066 41.873,13.066C41.521,13.066 41.231,13.146 41.003,13.306C40.775,13.466 40.661,13.674 40.661,13.93C40.661,14.162 40.749,14.352 40.925,14.5C41.101,14.648 41.325,14.722 41.597,14.722Z"
   style="fill-rule:nonzero;"
   id="path143" />
            <path
   d="M45.905,14.83L49.121,11.014L46.073,11.014L46.073,9.682L51.125,9.682L51.125,10.834L47.933,14.65L51.209,14.65L51.209,15.982L45.905,15.982L45.905,14.83Z"
   style="fill-rule:nonzero;"
   id="path145" />
            <path
   d="M52.253,16.93C52.413,16.986 52.563,17.026 52.703,17.05C52.843,17.074 52.969,17.086 53.081,17.086C53.313,17.086 53.493,17.006 53.621,16.846C53.749,16.686 53.865,16.398 53.969,15.982L51.569,9.682L53.549,9.682L55.013,14.338L56.273,9.682L58.073,9.682L55.673,17.002C55.505,17.522 55.205,17.944 54.773,18.268C54.341,18.592 53.829,18.754 53.237,18.754C53.077,18.754 52.915,18.74 52.751,18.712C52.587,18.684 52.421,18.638 52.253,18.574L52.253,16.93Z"
   style="fill-rule:nonzero;"
   id="path147" />
            <path
   d="M66.569,9.958C66.545,9.926 66.461,9.866 66.317,9.778C66.173,9.69 65.993,9.598 65.777,9.502C65.561,9.406 65.325,9.322 65.069,9.25C64.813,9.178 64.557,9.142 64.301,9.142C63.597,9.142 63.245,9.378 63.245,9.85C63.245,9.994 63.283,10.114 63.359,10.21C63.435,10.306 63.547,10.392 63.695,10.468C63.843,10.544 64.029,10.614 64.253,10.678C64.477,10.742 64.737,10.814 65.033,10.894C65.441,11.006 65.809,11.128 66.137,11.26C66.465,11.392 66.743,11.556 66.971,11.752C67.199,11.948 67.375,12.186 67.499,12.466C67.623,12.746 67.685,13.082 67.685,13.474C67.685,13.954 67.595,14.36 67.415,14.692C67.235,15.024 66.997,15.292 66.701,15.496C66.405,15.7 66.065,15.848 65.681,15.94C65.297,16.032 64.901,16.078 64.493,16.078C64.181,16.078 63.861,16.054 63.533,16.006C63.205,15.958 62.885,15.888 62.573,15.796C62.261,15.704 61.959,15.594 61.667,15.466C61.375,15.338 61.105,15.19 60.857,15.022L61.721,13.306C61.753,13.346 61.857,13.422 62.033,13.534C62.209,13.646 62.427,13.758 62.687,13.87C62.947,13.982 63.237,14.082 63.557,14.17C63.877,14.258 64.201,14.302 64.529,14.302C65.225,14.302 65.573,14.09 65.573,13.666C65.573,13.506 65.521,13.374 65.417,13.27C65.313,13.166 65.169,13.072 64.985,12.988C64.801,12.904 64.583,12.826 64.331,12.754C64.079,12.682 63.805,12.602 63.509,12.514C63.117,12.394 62.777,12.264 62.489,12.124C62.201,11.984 61.963,11.822 61.775,11.638C61.587,11.454 61.447,11.242 61.355,11.002C61.263,10.762 61.217,10.482 61.217,10.162C61.217,9.714 61.301,9.318 61.469,8.974C61.637,8.63 61.865,8.34 62.153,8.104C62.441,7.868 62.775,7.69 63.155,7.57C63.535,7.45 63.937,7.39 64.361,7.39C64.657,7.39 64.949,7.418 65.237,7.474C65.525,7.53 65.801,7.602 66.065,7.69C66.329,7.778 66.575,7.878 66.803,7.99C67.031,8.102 67.241,8.214 67.433,8.326L66.569,9.958Z"
   style="fill-rule:nonzero;"
   id="path149" />
            <path
   d="M70.589,16.102C69.941,16.102 69.451,15.9 69.119,15.496C68.787,15.092 68.621,14.498 68.621,13.714L68.621,9.682L70.541,9.682L70.541,13.294C70.541,13.678 70.617,13.972 70.769,14.176C70.921,14.38 71.137,14.482 71.417,14.482C71.673,14.482 71.921,14.414 72.161,14.278C72.401,14.142 72.613,13.906 72.797,13.57L72.797,9.682L74.717,9.682L74.717,13.822C74.717,14.014 74.747,14.148 74.807,14.224C74.867,14.3 74.973,14.346 75.125,14.362L75.125,15.982C74.941,16.022 74.785,16.048 74.657,16.06C74.529,16.072 74.413,16.078 74.309,16.078C73.621,16.078 73.229,15.81 73.133,15.274L73.097,14.89C72.809,15.306 72.451,15.612 72.023,15.808C71.595,16.004 71.117,16.102 70.589,16.102Z"
   style="fill-rule:nonzero;"
   id="path151" />
            <path
   d="M78.689,16.102C78.153,16.102 77.625,16.016 77.105,15.844C76.585,15.672 76.145,15.422 75.785,15.094L76.469,13.918C76.853,14.182 77.227,14.386 77.591,14.53C77.955,14.674 78.305,14.746 78.641,14.746C78.889,14.746 79.081,14.702 79.217,14.614C79.353,14.526 79.421,14.398 79.421,14.23C79.421,14.062 79.335,13.928 79.163,13.828C78.991,13.728 78.689,13.622 78.257,13.51C77.833,13.39 77.475,13.274 77.183,13.162C76.891,13.05 76.653,12.926 76.469,12.79C76.285,12.654 76.153,12.498 76.073,12.322C75.993,12.146 75.953,11.938 75.953,11.698C75.953,11.378 76.017,11.086 76.145,10.822C76.273,10.558 76.449,10.334 76.673,10.15C76.897,9.966 77.163,9.822 77.471,9.718C77.779,9.614 78.113,9.562 78.473,9.562C78.945,9.562 79.387,9.626 79.799,9.754C80.211,9.882 80.609,10.114 80.993,10.45L80.249,11.602C79.889,11.354 79.569,11.174 79.289,11.062C79.009,10.95 78.737,10.894 78.473,10.894C78.265,10.894 78.089,10.936 77.945,11.02C77.801,11.104 77.729,11.238 77.729,11.422C77.729,11.598 77.807,11.73 77.963,11.818C78.119,11.906 78.409,12.002 78.833,12.106C79.281,12.226 79.659,12.346 79.967,12.466C80.275,12.586 80.525,12.72 80.717,12.868C80.909,13.016 81.049,13.186 81.137,13.378C81.225,13.57 81.269,13.798 81.269,14.062C81.269,14.686 81.037,15.182 80.573,15.55C80.109,15.918 79.481,16.102 78.689,16.102Z"
   style="fill-rule:nonzero;"
   id="path153" />
            <path
   d="M83.981,16.102C83.669,16.102 83.379,16.052 83.111,15.952C82.843,15.852 82.613,15.712 82.421,15.532C82.229,15.352 82.077,15.14 81.965,14.896C81.853,14.652 81.797,14.386 81.797,14.098C81.797,13.786 81.863,13.502 81.995,13.246C82.127,12.99 82.313,12.77 82.553,12.586C82.793,12.402 83.077,12.258 83.405,12.154C83.733,12.05 84.097,11.998 84.497,11.998C84.761,11.998 85.017,12.02 85.265,12.064C85.513,12.108 85.729,12.174 85.913,12.262L85.913,11.974C85.913,11.246 85.493,10.882 84.653,10.882C84.309,10.882 83.981,10.94 83.669,11.056C83.357,11.172 83.029,11.346 82.685,11.578L82.121,10.378C82.537,10.106 82.969,9.902 83.417,9.766C83.865,9.63 84.341,9.562 84.845,9.562C85.797,9.562 86.533,9.786 87.053,10.234C87.573,10.682 87.833,11.338 87.833,12.202L87.833,13.822C87.833,14.014 87.863,14.148 87.923,14.224C87.983,14.3 88.089,14.346 88.241,14.362L88.241,15.982C88.073,16.022 87.921,16.048 87.785,16.06C87.649,16.072 87.525,16.078 87.413,16.078C87.053,16.078 86.781,16.008 86.597,15.868C86.413,15.728 86.297,15.53 86.249,15.274L86.213,14.986C85.933,15.346 85.599,15.622 85.211,15.814C84.823,16.006 84.413,16.102 83.981,16.102ZM84.545,14.722C84.753,14.722 84.955,14.686 85.151,14.614C85.347,14.542 85.509,14.446 85.637,14.326C85.821,14.182 85.913,14.03 85.913,13.87L85.913,13.27C85.745,13.206 85.563,13.156 85.367,13.12C85.171,13.084 84.989,13.066 84.821,13.066C84.469,13.066 84.179,13.146 83.951,13.306C83.723,13.466 83.609,13.674 83.609,13.93C83.609,14.162 83.697,14.352 83.873,14.5C84.049,14.648 84.273,14.722 84.545,14.722Z"
   style="fill-rule:nonzero;"
   id="path155" />
            <path
   d="M95.297,15.982L93.377,15.982L93.377,12.442C93.377,12.026 93.299,11.724 93.143,11.536C92.987,11.348 92.781,11.254 92.525,11.254C92.389,11.254 92.253,11.282 92.117,11.338C91.981,11.394 91.849,11.472 91.721,11.572C91.593,11.672 91.479,11.79 91.379,11.926C91.279,12.062 91.201,12.21 91.145,12.37L91.145,15.982L89.225,15.982L89.225,9.682L90.953,9.682L90.953,10.738C91.185,10.362 91.513,10.072 91.937,9.868C92.361,9.664 92.849,9.562 93.401,9.562C93.809,9.562 94.137,9.636 94.385,9.784C94.633,9.932 94.825,10.124 94.961,10.36C95.097,10.596 95.187,10.854 95.231,11.134C95.275,11.414 95.297,11.686 95.297,11.95L95.297,15.982Z"
   style="fill-rule:nonzero;"
   id="path157" />
        </g>
    </g>
<g
   aria-label="post"
   id="text172"
   style="font-size:8px;line-height:1.25;font-family:Raleway;-inkscape-font-specification:Raleway"
   transform="translate(0,-2)"><path
     d="m 105.61235,78.733061 q -0.528,0 -0.936,-0.264 -0.4,-0.272 -0.648,-0.68 v 2.568 h -0.544 v -5.872 h 0.488 v 0.808 q 0.256,-0.392 0.664,-0.632 0.408,-0.248 0.888,-0.248 0.432,0 0.792,0.184 0.36,0.176 0.624,0.48 0.264,0.296 0.408,0.688 0.152,0.392 0.152,0.808 0,0.44 -0.136,0.832 -0.136,0.392 -0.392,0.688 -0.248,0.296 -0.6,0.472 -0.344,0.168 -0.76,0.168 z m -0.152,-0.48 q 0.336,0 0.608,-0.144 0.28,-0.144 0.472,-0.376 0.2,-0.24 0.304,-0.536 0.104,-0.304 0.104,-0.624 0,-0.336 -0.12,-0.64 -0.12,-0.304 -0.328,-0.536 -0.208,-0.232 -0.496,-0.368 -0.28,-0.136 -0.608,-0.136 -0.208,0 -0.44,0.088 -0.224,0.08 -0.424,0.224 -0.192,0.136 -0.336,0.328 -0.136,0.184 -0.168,0.392 v 1.28 q 0.096,0.224 0.24,0.416 0.152,0.192 0.336,0.336 0.192,0.136 0.408,0.216 0.216,0.08 0.448,0.08 z"
     style="font-style:normal;font-variant:normal;font-weight:normal;font-stretch:normal;font-size:8px;font-family:Raleway;-inkscape-font-specification:Raleway"
     id="path715" /><path
     d="m 110.19785,78.733061 q -0.456,0 -0.832,-0.168 -0.376,-0.176 -0.656,-0.472 -0.272,-0.296 -0.424,-0.688 -0.152,-0.392 -0.152,-0.824 0,-0.44 0.152,-0.832 0.16,-0.392 0.432,-0.688 0.28,-0.296 0.656,-0.472 0.376,-0.176 0.824,-0.176 0.448,0 0.824,0.176 0.384,0.176 0.656,0.472 0.28,0.296 0.432,0.688 0.16,0.392 0.16,0.832 0,0.432 -0.152,0.824 -0.152,0.392 -0.432,0.688 -0.272,0.296 -0.656,0.472 -0.376,0.168 -0.832,0.168 z m -1.512,-2.144 q 0,0.352 0.12,0.656 0.12,0.296 0.32,0.528 0.208,0.224 0.48,0.352 0.28,0.128 0.592,0.128 0.312,0 0.584,-0.128 0.28,-0.136 0.488,-0.36 0.208,-0.232 0.328,-0.536 0.12,-0.304 0.12,-0.656 0,-0.344 -0.12,-0.648 -0.12,-0.312 -0.328,-0.536 -0.208,-0.232 -0.488,-0.36 -0.272,-0.136 -0.584,-0.136 -0.312,0 -0.584,0.136 -0.272,0.128 -0.48,0.36 -0.208,0.232 -0.328,0.544 -0.12,0.304 -0.12,0.656 z"
     style="font-style:normal;font-variant:normal;font-weight:normal;font-stretch:normal;font-size:8px;font-family:Raleway;-inkscape-font-specification:Raleway"
     id="path717" /><path
     d="m 114.57148,78.733061 q -0.488,0 -0.952,-0.16 -0.464,-0.16 -0.8,-0.464 l 0.248,-0.368 q 0.352,0.288 0.712,0.432 0.368,0.144 0.784,0.144 0.504,0 0.8,-0.2 0.304,-0.208 0.304,-0.584 0,-0.176 -0.08,-0.288 -0.08,-0.12 -0.24,-0.208 -0.152,-0.088 -0.392,-0.152 -0.232,-0.072 -0.544,-0.144 -0.36,-0.088 -0.624,-0.176 -0.264,-0.088 -0.44,-0.2 -0.168,-0.112 -0.256,-0.272 -0.08,-0.168 -0.08,-0.416 0,-0.312 0.12,-0.552 0.128,-0.24 0.336,-0.392 0.216,-0.16 0.496,-0.24 0.288,-0.08 0.608,-0.08 0.48,0 0.872,0.16 0.392,0.152 0.632,0.408 l -0.264,0.32 q -0.232,-0.24 -0.568,-0.36 -0.328,-0.12 -0.688,-0.12 -0.216,0 -0.4,0.048 -0.184,0.04 -0.328,0.136 -0.136,0.096 -0.216,0.248 -0.08,0.144 -0.08,0.344 0,0.168 0.056,0.272 0.056,0.104 0.184,0.184 0.128,0.072 0.32,0.136 0.2,0.056 0.48,0.12 0.4,0.096 0.704,0.192 0.304,0.096 0.504,0.224 0.208,0.128 0.312,0.312 0.104,0.184 0.104,0.448 0,0.576 -0.44,0.912 -0.44,0.336 -1.184,0.336 z"
     style="font-style:normal;font-variant:normal;font-weight:normal;font-stretch:normal;font-size:8px;font-family:Raleway;-inkscape-font-specification:Raleway"
     id="path719" /><path
     d="m 119.0781,78.453061 q -0.048,0.024 -0.144,0.064 -0.088,0.04 -0.208,0.08 -0.12,0.04 -0.272,0.072 -0.152,0.032 -0.32,0.032 -0.176,0 -0.336,-0.048 -0.16,-0.048 -0.28,-0.144 -0.12,-0.104 -0.192,-0.256 -0.072,-0.152 -0.072,-0.352 v -2.984 h -0.576 v -0.432 h 0.576 v -1.408 h 0.544 v 1.408 h 0.96 v 0.432 h -0.96 v 2.832 q 0.016,0.232 0.16,0.344 0.152,0.104 0.344,0.104 0.232,0 0.408,-0.072 0.176,-0.08 0.224,-0.112 z"
     style="font-style:normal;font-variant:normal;font-weight:normal;font-stretch:normal;font-size:8px;font-family:Raleway;-inkscape-font-specification:Raleway"
     id="path721" /></g><g
   aria-label="pre"
   id="text172-3"
   style="font-size:8px;line-height:1.25;font-family:Raleway;-inkscape-font-specification:Raleway;clip-rule:evenodd;fill-rule:evenodd;stroke-linejoin:round;stroke-miterlimit:1.41421"><path
     d="m 105.45365,89.11965 q -0.528,0 -0.936,-0.264 -0.4,-0.272 -0.648,-0.68 v 2.568 h -0.544 v -5.872 h 0.488 v 0.808 q 0.256,-0.392 0.664,-0.632 0.408,-0.248 0.888,-0.248 0.432,0 0.792,0.184 0.36,0.176 0.624,0.48 0.264,0.296 0.408,0.688 0.152,0.392 0.152,0.808 0,0.44 -0.136,0.832 -0.136,0.392 -0.392,0.688 -0.248,0.296 -0.6,0.472 -0.344,0.168 -0.76,0.168 z m -0.152,-0.48 q 0.336,0 0.608,-0.144 0.28,-0.144 0.472,-0.376 0.2,-0.24 0.304,-0.536 0.104,-0.304 0.104,-0.624 0,-0.336 -0.12,-0.64 -0.12,-0.304 -0.328,-0.536 -0.208,-0.232 -0.496,-0.368 -0.28,-0.136 -0.608,-0.136 -0.208,0 -0.44,0.088 -0.224,0.08 -0.424,0.224 -0.192,0.136 -0.336,0.328 -0.136,0.184 -0.168,0.392 v 1.28 q 0.096,0.224 0.24,0.416 0.152,0.192 0.336,0.336 0.192,0.136 0.408,0.216 0.216,0.08 0.448,0.08 z"
     style="font-style:normal;font-variant:normal;font-weight:normal;font-stretch:normal;font-size:8px;font-family:Raleway;-inkscape-font-specification:Raleway"
     id="path724" /><path
     d="m 110.34315,85.35165 q -0.552,0.016 -0.96,0.304 -0.408,0.288 -0.576,0.792 v 2.592 h -0.544 v -4.168 h 0.512 v 1 q 0.232,-0.48 0.624,-0.752 0.392,-0.272 0.84,-0.272 0.064,0 0.104,0.008 z"
     style="font-style:normal;font-variant:normal;font-weight:normal;font-stretch:normal;font-size:8px;font-family:Raleway;-inkscape-font-specification:Raleway"
     id="path726" /><path
     d="m 112.67252,89.11965 q -0.456,0 -0.84,-0.168 -0.376,-0.176 -0.656,-0.472 -0.28,-0.304 -0.44,-0.696 -0.152,-0.392 -0.152,-0.84 0,-0.44 0.152,-0.824 0.16,-0.392 0.432,-0.68 0.28,-0.296 0.664,-0.464 0.384,-0.176 0.832,-0.176 0.456,0 0.832,0.176 0.384,0.168 0.656,0.464 0.272,0.296 0.424,0.68 0.152,0.384 0.152,0.816 0,0.064 0,0.128 0,0.064 -0.008,0.088 h -3.568 q 0.024,0.336 0.152,0.624 0.136,0.28 0.344,0.488 0.208,0.208 0.472,0.328 0.272,0.112 0.576,0.112 0.2,0 0.4,-0.056 0.2,-0.056 0.368,-0.152 0.168,-0.096 0.304,-0.232 0.136,-0.144 0.208,-0.312 l 0.472,0.128 q -0.096,0.232 -0.272,0.424 -0.176,0.184 -0.408,0.328 -0.232,0.136 -0.512,0.208 -0.28,0.08 -0.584,0.08 z m 1.536,-2.384 q -0.024,-0.336 -0.16,-0.608 -0.128,-0.28 -0.336,-0.48 -0.2,-0.2 -0.472,-0.312 -0.264,-0.112 -0.568,-0.112 -0.304,0 -0.576,0.112 -0.272,0.112 -0.48,0.312 -0.2,0.2 -0.328,0.48 -0.12,0.28 -0.144,0.608 z"
     style="font-style:normal;font-variant:normal;font-weight:normal;font-stretch:normal;font-size:8px;font-family:Raleway;-inkscape-font-specification:Raleway"
     id="path728" /></g></svg>
