<?xml version="1.0" encoding="utf-8"?>
<!-- Generator: Adobe Illustrator 16.0.0, SVG Export Plug-In . SVG Version: 6.00 Build 0)  -->
<!DOCTYPE svg PUBLIC "-//W3C//DTD SVG 1.1//EN" "http://www.w3.org/Graphics/SVG/1.1/DTD/svg11.dtd">
<svg version="1.1" id="Layer_1" xmlns:serif="http://www.serif.com/"
	 xmlns="http://www.w3.org/2000/svg" xmlns:xlink="http://www.w3.org/1999/xlink" x="0px" y="0px" width="1920px" height="1080px"
	 viewBox="0 0 1920 1080" enable-background="new 0 0 1920 1080" xml:space="preserve">
<g id="Layer-1" transform="matrix(1,0,0,1,15,-742.52)" serif:id="Layer 1">
	<g id="background" transform="matrix(1.33333,0,0,1,-15,5.68434e-14)">
		<rect x="592.107" y="742.52" fill="#F0F0F0" width="255.789" height="1080"/>
	</g>
	<g transform="matrix(1,0,0,1,-9,740.52)">
		<path d="M831.926,277.303v2.814H821.07v-2.814h4.035v-9.919c-0.17,0.228-0.438,0.463-0.797,0.71
			c-0.359,0.247-0.759,0.475-1.192,0.682c-0.438,0.208-0.894,0.384-1.364,0.526c-0.475,0.142-0.893,0.213-1.25,0.213v-2.927
			c0.378,0,0.818-0.114,1.321-0.341c0.5-0.228,0.982-0.492,1.448-0.796c0.463-0.304,0.87-0.605,1.224-0.91
			c0.35-0.304,0.554-0.52,0.61-0.653h3.211v13.415H831.926z"/>
	</g>
	<g transform="matrix(1,0,0,1,-9,776.52)">
		<path d="M820.357,346.433c0-0.796,0.065-1.533,0.199-2.217c0.131-0.682,0.369-1.321,0.71-1.918
			c0.343-0.597,0.806-1.165,1.394-1.705c0.586-0.54,1.345-1.065,2.273-1.578c0.662-0.359,1.287-0.689,1.876-0.993
			c0.585-0.306,1.104-0.604,1.55-0.896c0.442-0.293,0.798-0.605,1.064-0.938c0.266-0.333,0.397-0.718,0.397-1.151
			c0-0.605-0.262-1.151-0.781-1.635c-0.522-0.482-1.276-0.726-2.26-0.726c-0.513,0-0.98,0.071-1.406,0.214
			c-0.427,0.143-0.816,0.32-1.166,0.54c-0.353,0.22-0.659,0.46-0.923,0.726c-0.269,0.264-0.503,0.52-0.711,0.767l-1.989-2.302
			c0.188-0.207,0.486-0.469,0.896-0.781c0.406-0.312,0.897-0.61,1.479-0.896c0.577-0.284,1.236-0.525,1.976-0.726
			c0.738-0.199,1.544-0.299,2.415-0.299c0.91,0,1.729,0.12,2.459,0.355c0.729,0.235,1.344,0.562,1.849,0.979
			c0.5,0.418,0.884,0.915,1.149,1.492s0.398,1.199,0.398,1.861c0,0.701-0.143,1.326-0.427,1.876
			c-0.284,0.549-0.638,1.031-1.053,1.448c-0.418,0.418-0.872,0.773-1.363,1.066c-0.494,0.293-0.949,0.546-1.364,0.753
			c-0.397,0.19-0.85,0.412-1.35,0.668c-0.504,0.256-0.992,0.549-1.465,0.881c-0.475,0.333-0.899,0.688-1.277,1.066
			c-0.381,0.378-0.646,0.795-0.797,1.25h9.407v2.812h-13.159V346.433z"/>
	</g>
	<g transform="matrix(1,0,0,1,-9,812.52)">
		<path d="M829.709,406.041c0.586,0.114,1.125,0.318,1.62,0.611c0.491,0.293,0.909,0.658,1.25,1.094
			c0.342,0.436,0.604,0.938,0.796,1.507c0.188,0.568,0.284,1.185,0.284,1.847c0,0.891-0.167,1.691-0.497,2.402
			c-0.332,0.71-0.807,1.321-1.421,1.833c-0.617,0.512-1.361,0.903-2.231,1.18c-0.872,0.275-1.847,0.412-2.927,0.412
			c-1.441,0-2.712-0.25-3.81-0.754c-1.101-0.503-1.98-1.228-2.644-2.174l1.904-2.16c0.455,0.702,1.04,1.251,1.762,1.648
			c0.72,0.397,1.629,0.597,2.729,0.597c1.25,0,2.212-0.264,2.885-0.796c0.671-0.531,1.01-1.327,1.01-2.387
			c0-1.102-0.381-1.962-1.137-2.588c-0.76-0.625-1.876-0.938-3.354-0.938h-0.767v-2.444h0.853c1.269,0,2.245-0.298,2.927-0.896
			c0.684-0.597,1.023-1.351,1.023-2.259c0-0.91-0.305-1.578-0.909-2.004c-0.607-0.428-1.393-0.641-2.358-0.641
			c-0.967,0-1.819,0.208-2.559,0.625c-0.738,0.418-1.326,1.016-1.763,1.791l-1.961-2.132c0.265-0.455,0.626-0.867,1.08-1.236
			c0.455-0.369,0.97-0.689,1.549-0.966c0.577-0.276,1.202-0.482,1.876-0.626c0.671-0.142,1.367-0.213,2.089-0.213
			c0.927,0,1.776,0.122,2.544,0.369c0.769,0.248,1.43,0.589,1.989,1.022c0.558,0.436,0.989,0.968,1.293,1.593
			c0.302,0.625,0.455,1.314,0.455,2.073c0,0.568-0.085,1.108-0.256,1.62c-0.171,0.513-0.412,0.977-0.726,1.394
			c-0.312,0.418-0.688,0.762-1.123,1.038C830.749,405.763,830.258,405.947,829.709,406.041z"/>
	</g>
	<g transform="matrix(1,0,0,1,-9,847.52)">
		<path d="M828.572,480.832v-4.52h-8.727v-2.785l9.721-12.533h2.132v12.477h2.501v2.843h-2.501v4.52L828.572,480.832
			L828.572,480.832z M823.03,473.471h5.883v-7.702L823.03,473.471z"/>
	</g>
	<g transform="matrix(1,0,0,1,-9,883.52)">
		<path d="M827.321,534.528c0.945,0,1.821,0.162,2.629,0.482c0.805,0.321,1.507,0.769,2.104,1.336
			c0.598,0.568,1.061,1.25,1.394,2.046c0.33,0.797,0.497,1.67,0.497,2.615c0,1.003-0.186,1.924-0.555,2.757
			c-0.37,0.833-0.881,1.55-1.534,2.146s-1.428,1.058-2.316,1.379c-0.893,0.32-1.847,0.482-2.87,0.482
			c-1.461,0-2.769-0.326-3.922-0.98c-1.157-0.653-2.038-1.54-2.644-2.657l1.875-1.79c0.528,0.796,1.212,1.44,2.047,1.934
			c0.833,0.491,1.723,0.737,2.672,0.737c1.174,0,2.14-0.359,2.898-1.08c0.756-0.719,1.138-1.677,1.138-2.869
			c0-0.568-0.101-1.086-0.3-1.55c-0.198-0.464-0.469-0.86-0.81-1.192c-0.341-0.333-0.745-0.592-1.208-0.782
			c-0.467-0.19-0.973-0.284-1.521-0.284c-0.722,0-1.393,0.156-2.019,0.469c-0.625,0.313-1.137,0.773-1.534,1.38h-2.757
			c0.017-0.077,0.06-0.305,0.128-0.684c0.065-0.378,0.156-0.853,0.271-1.421s0.235-1.202,0.37-1.904
			c0.131-0.701,0.271-1.411,0.426-2.131c0.342-1.686,0.711-3.572,1.107-5.655h9.862v2.869h-7.588l-1.023,5.515
			c0.321-0.36,0.753-0.646,1.294-0.854C825.972,534.634,826.6,534.528,827.321,534.528z"/>
	</g>
	<g transform="matrix(1,0,0,1,-10,921.52)">
		<path d="M833.409,606.831c0,0.966-0.186,1.875-0.556,2.729c-0.368,0.854-0.881,1.598-1.533,2.23
			c-0.654,0.634-1.428,1.131-2.316,1.492c-0.893,0.36-1.848,0.54-2.871,0.54c-1.119,0-2.131-0.205-3.041-0.611
			c-0.908-0.406-1.688-0.994-2.33-1.762c-0.646-0.769-1.143-1.705-1.492-2.813c-0.353-1.107-0.524-2.365-0.524-3.766
			c0-1.934,0.185-3.624,0.554-5.073c0.37-1.45,0.884-2.663,1.549-3.639c0.662-0.976,1.467-1.711,2.416-2.202
			c0.946-0.492,2.008-0.739,3.185-0.739c1.287,0,2.467,0.293,3.538,0.881c1.067,0.589,1.936,1.422,2.601,2.502l-1.848,1.933
			c-0.438-0.795-1.037-1.427-1.806-1.891c-0.768-0.463-1.616-0.695-2.543-0.695c-1.422,0-2.556,0.603-3.396,1.805
			c-0.844,1.202-1.284,2.894-1.321,5.073c0.415-0.854,1.04-1.526,1.876-2.019c0.833-0.492,1.791-0.739,2.871-0.739
			c0.982,0,1.903,0.178,2.756,0.525c0.854,0.35,1.592,0.83,2.217,1.437c0.627,0.604,1.117,1.321,1.479,2.146
			C833.229,604.997,833.409,605.885,833.409,606.831z M826.133,611.15c0.586,0,1.141-0.113,1.663-0.342
			c0.521-0.228,0.976-0.539,1.364-0.938c0.387-0.398,0.695-0.858,0.924-1.379s0.341-1.074,0.341-1.662
			c0-0.589-0.112-1.138-0.341-1.648c-0.229-0.512-0.537-0.961-0.924-1.351c-0.391-0.389-0.844-0.696-1.364-0.924
			c-0.521-0.228-1.077-0.341-1.663-0.341c-0.588,0-1.143,0.113-1.662,0.341c-0.522,0.228-0.978,0.535-1.363,0.924
			c-0.391,0.39-0.696,0.839-0.925,1.351c-0.228,0.512-0.341,1.061-0.341,1.648s0.113,1.143,0.341,1.662
			c0.229,0.521,0.534,0.979,0.925,1.379c0.387,0.396,0.841,0.71,1.363,0.938C824.99,611.037,825.545,611.15,826.133,611.15z"/>
	</g>
	<g transform="matrix(1,0,0,1,-9,957.52)">
		<path d="M829.794,666.155h-9.776v-2.871h14.723l-10.089,20.179h-3.554L829.794,666.155z"/>
	</g>
	<g transform="matrix(1,0,0,1,-10,993.52)">
		<path d="M833.125,740.344c0,0.909-0.196,1.739-0.583,2.486c-0.39,0.748-0.915,1.387-1.577,1.919
			c-0.665,0.531-1.433,0.938-2.302,1.222c-0.873,0.284-1.802,0.428-2.786,0.428c-1.006,0-1.946-0.157-2.827-0.471
			c-0.882-0.312-1.646-0.744-2.288-1.293c-0.646-0.549-1.15-1.202-1.521-1.961s-0.556-1.583-0.556-2.473
			c0-0.588,0.104-1.137,0.313-1.648c0.207-0.512,0.477-0.972,0.81-1.378c0.33-0.407,0.705-0.762,1.123-1.065
			c0.415-0.305,0.832-0.549,1.25-0.738c-0.777-0.342-1.439-0.861-1.988-1.563c-0.553-0.701-0.824-1.497-0.824-2.388
			c0-0.872,0.199-1.643,0.597-2.315c0.397-0.674,0.909-1.242,1.535-1.705c0.625-0.464,1.324-0.815,2.103-1.053
			c0.776-0.234,1.545-0.354,2.304-0.354c0.756,0,1.527,0.12,2.315,0.354c0.784,0.236,1.494,0.583,2.131,1.038
			c0.635,0.454,1.151,1.018,1.549,1.69c0.398,0.674,0.599,1.444,0.599,2.315c0,0.891-0.281,1.691-0.839,2.401
			c-0.561,0.711-1.236,1.236-2.032,1.578c0.455,0.207,0.896,0.469,1.322,0.781c0.426,0.312,0.798,0.682,1.122,1.107
			c0.32,0.427,0.576,0.896,0.768,1.406C833.028,739.178,833.125,739.738,833.125,740.344z M829.97,740.145
			c0-0.549-0.119-1.036-0.354-1.464c-0.239-0.427-0.552-0.79-0.938-1.094c-0.39-0.305-0.824-0.532-1.308-0.683
			c-0.482-0.15-0.972-0.229-1.463-0.229c-0.513,0-1.011,0.08-1.492,0.242c-0.483,0.162-0.91,0.393-1.279,0.696
			s-0.668,0.668-0.896,1.094c-0.229,0.427-0.342,0.904-0.342,1.436c0,0.532,0.116,1.01,0.355,1.437
			c0.235,0.426,0.543,0.787,0.924,1.08c0.378,0.292,0.811,0.52,1.293,0.682c0.483,0.162,0.969,0.241,1.465,0.241
			c0.512,0,1.009-0.085,1.491-0.256c0.482-0.17,0.912-0.406,1.293-0.71c0.378-0.305,0.683-0.662,0.909-1.08
			S829.97,740.656,829.97,740.145z M822.523,731.533c0,0.454,0.103,0.853,0.312,1.192c0.208,0.342,0.474,0.625,0.796,0.854
			c0.321,0.228,0.684,0.403,1.08,0.525c0.398,0.122,0.796,0.186,1.194,0.186c0.396,0,0.798-0.062,1.207-0.186
			c0.407-0.122,0.771-0.305,1.095-0.54c0.321-0.235,0.585-0.531,0.796-0.881c0.207-0.351,0.312-0.754,0.312-1.209
			c0-0.416-0.097-0.789-0.283-1.121c-0.19-0.333-0.44-0.617-0.753-0.854s-0.675-0.418-1.08-0.54
			c-0.409-0.122-0.839-0.185-1.293-0.185c-0.455,0-0.888,0.064-1.294,0.197c-0.409,0.135-0.768,0.318-1.079,0.556
			c-0.313,0.234-0.562,0.524-0.739,0.866C822.612,730.737,822.523,731.115,822.523,731.533z"/>
	</g>
	<g transform="matrix(1,0,0,1,15.218,809.442)">
		<path d="M850.382,123.533c-0.646,0-1.246-0.105-1.802-0.321c-0.554-0.213-1.03-0.506-1.433-0.881
			c-0.4-0.375-0.719-0.819-0.946-1.33c-0.229-0.512-0.347-1.066-0.347-1.663c0-0.631,0.137-1.203,0.409-1.714
			c0.272-0.512,0.659-0.955,1.166-1.33c0.503-0.375,1.1-0.665,1.79-0.87c0.689-0.205,1.451-0.307,2.287-0.307
			c0.632,0,1.254,0.054,1.867,0.165c0.614,0.111,1.168,0.261,1.663,0.449v-0.921c0-0.989-0.282-1.762-0.845-2.316
			c-0.562-0.551-1.372-0.83-2.43-0.83c-0.717,0-1.418,0.131-2.112,0.395c-0.688,0.264-1.4,0.645-2.134,1.14l-0.87-1.791
			c1.723-1.16,3.513-1.739,5.372-1.739c1.842,0,3.273,0.469,4.297,1.407s1.535,2.285,1.535,4.042v4.834
			c0,0.597,0.247,0.904,0.741,0.921v2.404c-0.272,0.051-0.507,0.085-0.701,0.103c-0.199,0.017-0.39,0.025-0.577,0.025
			c-0.546,0-0.97-0.137-1.268-0.409c-0.3-0.273-0.48-0.623-0.55-1.049l-0.077-0.844c-0.597,0.785-1.332,1.384-2.211,1.802
			C852.332,123.326,851.387,123.533,850.382,123.533z M851.149,121.461c0.683,0,1.327-0.125,1.933-0.373
			c0.606-0.248,1.077-0.591,1.419-1.035c0.357-0.307,0.537-0.631,0.537-0.972v-1.765c-0.478-0.188-0.984-0.333-1.521-0.435
			c-0.539-0.103-1.062-0.154-1.574-0.154c-1.006,0-1.827,0.216-2.467,0.651c-0.641,0.435-0.961,1.012-0.961,1.728
			c0,0.665,0.247,1.222,0.741,1.674C849.751,121.234,850.382,121.461,851.149,121.461z"/>
		<path d="M868.594,122.587c-0.358,0.17-0.854,0.361-1.484,0.574s-1.305,0.321-2.021,0.321c-0.442,0-0.859-0.06-1.253-0.179
			c-0.393-0.119-0.739-0.298-1.034-0.537c-0.299-0.239-0.534-0.551-0.704-0.935c-0.171-0.383-0.257-0.847-0.257-1.393v-8.364h-1.765
			V109.9h1.765v-4.4h2.813v4.399h2.916v2.174h-2.916v7.469c0.034,0.478,0.185,0.821,0.449,1.034
			c0.264,0.216,0.591,0.321,0.982,0.321c0.393,0,0.769-0.068,1.125-0.205c0.358-0.136,0.623-0.247,0.793-0.333L868.594,122.587z"/>
		<path d="M877.981,122.587c-0.357,0.17-0.854,0.361-1.483,0.574c-0.631,0.213-1.304,0.321-2.021,0.321
			c-0.443,0-0.861-0.06-1.253-0.179c-0.394-0.119-0.736-0.298-1.035-0.537c-0.298-0.239-0.534-0.551-0.704-0.935
			c-0.171-0.383-0.256-0.847-0.256-1.393v-8.364h-1.766V109.9h1.766v-4.4h2.812v4.399h2.916v2.174h-2.916v7.469
			c0.034,0.478,0.186,0.821,0.449,1.034c0.264,0.216,0.591,0.321,0.983,0.321c0.392,0,0.767-0.068,1.125-0.205
			c0.357-0.137,0.622-0.247,0.793-0.333L877.981,122.587z"/>
	</g>
	<g transform="matrix(1,0,0,1,-14,723.336)">
		<path d="M817.725,208.61c-0.647,0-1.25-0.105-1.805-0.318s-1.031-0.509-1.433-0.884c-0.4-0.375-0.716-0.818-0.946-1.33
			c-0.23-0.511-0.344-1.065-0.344-1.663c0-0.631,0.137-1.202,0.408-1.713c0.272-0.512,0.659-0.955,1.162-1.33
			c0.504-0.375,1.102-0.666,1.791-0.87c0.69-0.204,1.455-0.307,2.29-0.307c0.632,0,1.255,0.057,1.868,0.167
			c0.613,0.111,1.168,0.259,1.662,0.446v-0.921c0-0.989-0.281-1.759-0.844-2.313c-0.563-0.554-1.373-0.833-2.432-0.833
			c-0.716,0-1.421,0.133-2.11,0.397c-0.69,0.265-1.401,0.643-2.136,1.137l-0.868-1.791c1.723-1.16,3.513-1.739,5.37-1.739
			c1.843,0,3.274,0.469,4.299,1.407c1.021,0.938,1.533,2.285,1.533,4.042v4.834c0,0.597,0.248,0.904,0.742,0.921v2.405
			c-0.272,0.051-0.509,0.085-0.705,0.102c-0.195,0.017-0.387,0.026-0.574,0.026c-0.545,0-0.969-0.137-1.268-0.41
			c-0.298-0.272-0.479-0.622-0.548-1.048l-0.077-0.844c-0.597,0.784-1.336,1.387-2.214,1.805S818.73,208.61,817.725,208.61z
			 M818.492,206.538c0.682,0,1.324-0.122,1.93-0.369c0.605-0.248,1.08-0.594,1.421-1.038c0.358-0.307,0.537-0.631,0.537-0.972
			v-1.765c-0.478-0.188-0.985-0.333-1.522-0.435s-1.061-0.153-1.571-0.153c-1.006,0-1.83,0.219-2.47,0.654
			c-0.641,0.435-0.958,1.009-0.958,1.725c0,0.665,0.247,1.225,0.741,1.677C817.094,206.314,817.725,206.538,818.492,206.538z"/>
		<path d="M827.727,201.653c0-0.938,0.161-1.825,0.485-2.66c0.324-0.836,0.787-1.569,1.394-2.2c0.604-0.631,1.336-1.128,2.188-1.495
			c0.852-0.367,1.809-0.551,2.865-0.551c1.381,0,2.568,0.304,3.565,0.909c0.998,0.605,1.745,1.41,2.24,2.416l-2.737,0.87
			c-0.323-0.563-0.759-1-1.305-1.316s-1.15-0.475-1.816-0.475c-0.562,0-1.088,0.111-1.573,0.333
			c-0.486,0.222-0.906,0.534-1.265,0.935c-0.358,0.4-0.641,0.873-0.845,1.418c-0.205,0.546-0.308,1.151-0.308,1.816
			c0,0.648,0.104,1.25,0.318,1.805c0.213,0.554,0.502,1.034,0.869,1.444c0.366,0.409,0.793,0.73,1.278,0.96
			c0.486,0.23,1.004,0.344,1.55,0.344c0.341,0,0.682-0.045,1.022-0.139c0.34-0.094,0.65-0.227,0.933-0.398
			c0.281-0.17,0.528-0.367,0.741-0.588c0.214-0.222,0.373-0.46,0.475-0.716l2.763,0.819c-0.442,1.006-1.185,1.83-2.225,2.47
			c-1.041,0.64-2.269,0.958-3.684,0.958c-1.041,0-1.987-0.188-2.84-0.562c-0.854-0.374-1.584-0.881-2.188-1.521
			c-0.604-0.64-1.074-1.378-1.406-2.214C827.891,203.477,827.727,202.59,827.727,201.653z"/>
		<path d="M850.338,207.664c-0.357,0.171-0.853,0.364-1.482,0.577c-0.631,0.213-1.306,0.318-2.021,0.318
			c-0.443,0-0.861-0.06-1.254-0.179c-0.393-0.119-0.739-0.298-1.037-0.537c-0.299-0.239-0.531-0.548-0.702-0.932
			c-0.171-0.384-0.256-0.85-0.256-1.396v-8.364h-1.765v-2.174h1.765v-4.399h2.813v4.399h2.916v2.174h-2.916v7.469
			c0.033,0.478,0.182,0.824,0.445,1.038c0.264,0.214,0.594,0.318,0.986,0.318c0.392,0,0.768-0.068,1.126-0.205
			c0.356-0.137,0.622-0.248,0.793-0.333L850.338,207.664z"/>
		<rect x="852.154" y="205.08" width="2.326" height="3.274"/>
	</g>
	<g transform="matrix(1,0,0,1,-38,727.412)">
		<path d="M985.271,186.629h2.812v14.81c0,0.495,0.129,0.881,0.384,1.163c0.256,0.281,0.614,0.423,1.075,0.423
			c0.188,0,0.403-0.034,0.65-0.103c0.246-0.068,0.482-0.145,0.705-0.23l0.408,2.2c-0.408,0.188-0.896,0.335-1.458,0.446
			c-0.562,0.111-1.065,0.167-1.51,0.167c-0.972,0-1.728-0.264-2.265-0.793c-0.537-0.528-0.805-1.279-0.805-2.25v-15.833H985.271z"/>
		<path d="M1000.541,205.557c-1.074,0-2.021-0.256-2.839-0.768c-0.818-0.511-1.467-1.176-1.944-1.995v7.955h-2.812v-18.826h2.48
			v2.405c0.513-0.802,1.172-1.441,1.98-1.918c0.811-0.478,1.729-0.716,2.752-0.716c0.92,0,1.765,0.188,2.532,0.563
			c0.767,0.375,1.432,0.878,1.995,1.509c0.562,0.631,1,1.364,1.314,2.2c0.315,0.835,0.475,1.713,0.475,2.634
			c0,0.972-0.145,1.879-0.435,2.723c-0.29,0.844-0.699,1.578-1.228,2.2c-0.529,0.623-1.157,1.117-1.883,1.484
			C1002.205,205.374,1001.411,205.557,1000.541,205.557z M999.621,203.153c0.597,0,1.137-0.128,1.622-0.384
			c0.485-0.256,0.903-0.597,1.254-1.023c0.35-0.426,0.619-0.913,0.807-1.458c0.188-0.546,0.281-1.108,0.281-1.688
			c0-0.614-0.106-1.194-0.321-1.739c-0.213-0.546-0.503-1.023-0.869-1.433c-0.366-0.409-0.805-0.733-1.315-0.972
			c-0.511-0.239-1.065-0.358-1.662-0.358c-0.358,0-0.733,0.068-1.125,0.205c-0.393,0.137-0.76,0.324-1.101,0.563
			c-0.342,0.239-0.641,0.514-0.896,0.83s-0.435,0.663-0.537,1.038v3.504c0.171,0.409,0.394,0.793,0.665,1.151
			c0.273,0.358,0.574,0.665,0.907,0.921c0.332,0.256,0.696,0.46,1.088,0.614C998.811,203.076,999.211,203.153,999.621,203.153z"/>
		<path d="M1009.57,205.301V194.43h-1.79v-2.174h1.79v-0.537c0-1.654,0.384-2.959,1.15-3.914c0.769-0.955,1.809-1.432,3.121-1.432
			c0.546,0,1.083,0.071,1.611,0.216c0.527,0.145,1.031,0.347,1.509,0.603l-0.613,2.098c-0.256-0.154-0.561-0.282-0.909-0.384
			c-0.35-0.102-0.686-0.153-1.01-0.153c-0.664,0-1.174,0.247-1.522,0.742c-0.349,0.495-0.522,1.211-0.522,2.148v0.614h3.428v2.174
			h-3.428v10.871L1009.57,205.301L1009.57,205.301z"/>
	</g>
	<g transform="matrix(1,0,0,1,-8.21412,727.052)">
		<path d="M1046.125,204.894c-1.059,0-2.011-0.188-2.854-0.563c-0.845-0.375-1.562-0.878-2.16-1.509
			c-0.597-0.631-1.058-1.37-1.381-2.214c-0.324-0.844-0.485-1.725-0.485-2.646s0.161-1.805,0.485-2.649
			c0.323-0.844,0.787-1.58,1.394-2.211c0.604-0.631,1.329-1.134,2.174-1.509c0.844-0.375,1.788-0.562,2.828-0.562
			s1.979,0.188,2.824,0.562c0.845,0.375,1.568,0.878,2.175,1.509c0.605,0.631,1.07,1.367,1.396,2.211
			c0.325,0.844,0.486,1.729,0.486,2.649s-0.162,1.802-0.486,2.646c-0.324,0.844-0.79,1.583-1.396,2.214s-1.33,1.134-2.175,1.509
			C1048.106,204.706,1047.165,204.894,1046.125,204.894z M1042.135,197.988c0,0.648,0.103,1.245,0.307,1.791
			c0.204,0.545,0.486,1.017,0.845,1.418c0.357,0.401,0.778,0.716,1.265,0.946s1.012,0.347,1.575,0.347
			c0.562,0,1.085-0.116,1.57-0.347c0.486-0.23,0.91-0.548,1.269-0.958c0.358-0.41,0.64-0.887,0.844-1.433
			c0.205-0.545,0.308-1.143,0.308-1.791c0-0.631-0.103-1.225-0.308-1.779c-0.204-0.554-0.485-1.034-0.844-1.443
			c-0.357-0.41-0.781-0.73-1.269-0.961c-0.485-0.23-1.009-0.344-1.57-0.344c-0.546,0-1.063,0.119-1.549,0.358
			c-0.486,0.239-0.907,0.563-1.266,0.972c-0.357,0.409-0.646,0.89-0.857,1.444C1042.24,196.763,1042.135,197.357,1042.135,197.988z"
			/>
		<path d="M1059.631,204.894c-1.398,0-2.456-0.458-3.172-1.37c-0.718-0.912-1.074-2.271-1.074-4.079v-8.185h2.813v7.623
			c0,2.404,0.853,3.606,2.558,3.606c0.802,0,1.561-0.247,2.276-0.742c0.717-0.495,1.271-1.21,1.662-2.148v-8.339h2.813v10.053
			c0,0.324,0.054,0.554,0.165,0.69c0.109,0.136,0.312,0.213,0.603,0.23v2.405c-0.29,0.051-0.528,0.085-0.717,0.102
			c-0.188,0.017-0.366,0.026-0.537,0.026c-0.512,0-0.946-0.142-1.305-0.423c-0.357-0.282-0.545-0.643-0.562-1.086l-0.051-1.33
			c-0.597,0.972-1.373,1.708-2.328,2.211S1060.773,204.894,1059.631,204.894z"/>
		<path d="M1078.532,203.948c-0.357,0.171-0.853,0.361-1.482,0.574c-0.631,0.213-1.305,0.321-2.021,0.321
			c-0.442,0-0.86-0.06-1.254-0.179c-0.392-0.119-0.738-0.298-1.037-0.537c-0.299-0.239-0.53-0.551-0.701-0.935
			c-0.171-0.384-0.257-0.847-0.257-1.393v-8.364h-1.765v-2.174h1.765v-4.399h2.813v4.399h2.916v2.174h-2.916v7.469
			c0.034,0.478,0.183,0.822,0.446,1.035c0.265,0.213,0.595,0.321,0.985,0.321c0.394,0,0.769-0.068,1.126-0.205
			c0.357-0.137,0.622-0.248,0.793-0.333L1078.532,203.948z"/>
	</g>
	<g transform="matrix(1,0,0,1,-39.17,756.43)">
		<path d="M833.309,1015.466c-1.058,0-2.01-0.188-2.854-0.562c-0.845-0.375-1.563-0.879-2.16-1.51
			c-0.597-0.632-1.058-1.367-1.382-2.212c-0.323-0.844-0.485-1.728-0.485-2.647s0.162-1.803,0.485-2.646
			c0.324-0.844,0.788-1.583,1.393-2.214c0.605-0.631,1.33-1.134,2.175-1.509s1.787-0.562,2.828-0.562c1.04,0,1.98,0.188,2.824,0.562
			c0.845,0.375,1.569,0.878,2.175,1.509c0.606,0.631,1.071,1.37,1.396,2.214c0.323,0.845,0.485,1.727,0.485,2.646
			s-0.162,1.805-0.485,2.647c-0.324,0.845-0.79,1.58-1.396,2.212c-0.604,0.631-1.33,1.135-2.175,1.51
			C835.289,1015.28,834.349,1015.466,833.309,1015.466z M829.318,1008.56c0,0.648,0.102,1.245,0.307,1.791
			c0.204,0.545,0.486,1.021,0.844,1.421c0.358,0.4,0.779,0.717,1.266,0.946c0.485,0.23,1.012,0.344,1.574,0.344
			s1.086-0.112,1.571-0.344c0.486-0.231,0.909-0.552,1.269-0.961c0.358-0.409,0.64-0.887,0.844-1.433
			c0.205-0.545,0.308-1.144,0.308-1.79c0-0.631-0.103-1.224-0.308-1.776c-0.204-0.555-0.485-1.037-0.844-1.446
			c-0.359-0.408-0.781-0.728-1.269-0.958c-0.487-0.229-1.009-0.347-1.571-0.347c-0.546,0-1.062,0.119-1.549,0.358
			c-0.486,0.237-0.906,0.562-1.266,0.972c-0.357,0.409-0.646,0.893-0.858,1.446C829.423,1007.338,829.318,1007.929,829.318,1008.56z
			"/>
		<path d="M847.556,1015.466c-1.073,0-2.146-0.173-3.212-0.522c-1.064-0.35-1.979-0.85-2.748-1.497l1.125-1.791
			c0.803,0.579,1.596,1.021,2.379,1.318c0.785,0.298,1.586,0.446,2.405,0.446c0.835,0,1.494-0.162,1.98-0.486
			c0.485-0.324,0.729-0.784,0.729-1.381c0-0.562-0.271-0.973-0.818-1.229c-0.545-0.257-1.397-0.537-2.558-0.845
			c-0.836-0.222-1.553-0.435-2.148-0.64c-0.598-0.204-1.083-0.443-1.458-0.716c-0.375-0.273-0.647-0.589-0.818-0.946
			c-0.17-0.357-0.256-0.793-0.256-1.305c0-0.684,0.131-1.288,0.396-1.816c0.266-0.527,0.632-0.975,1.101-1.341
			c0.469-0.367,1.021-0.646,1.65-0.833c0.631-0.188,1.312-0.281,2.047-0.281c1.007,0,1.943,0.153,2.813,0.46
			c0.869,0.308,1.646,0.75,2.327,1.33l-1.202,1.688c-1.245-0.989-2.565-1.483-3.965-1.483c-0.716,0-1.318,0.15-1.806,0.449
			c-0.484,0.298-0.728,0.77-0.728,1.418c0,0.272,0.051,0.503,0.153,0.69c0.102,0.187,0.268,0.35,0.498,0.485
			c0.229,0.136,0.527,0.261,0.895,0.372c0.367,0.11,0.824,0.232,1.37,0.369c0.904,0.222,1.683,0.443,2.339,0.665
			c0.657,0.222,1.2,0.483,1.626,0.782c0.427,0.298,0.742,0.646,0.946,1.049c0.205,0.4,0.308,0.881,0.308,1.443
			c0,1.278-0.482,2.291-1.446,3.031C850.518,1015.097,849.21,1015.466,847.556,1015.466z"/>
		<path d="M854.513,1008.509c0-0.938,0.162-1.825,0.486-2.66c0.324-0.836,0.787-1.568,1.393-2.2
			c0.606-0.631,1.337-1.128,2.188-1.494c0.853-0.366,1.808-0.552,2.865-0.552c1.381,0,2.568,0.305,3.565,0.909
			c0.998,0.605,1.745,1.41,2.24,2.416l-2.737,0.869c-0.324-0.562-0.759-1-1.305-1.315c-0.546-0.314-1.151-0.475-1.816-0.475
			c-0.562,0-1.088,0.11-1.573,0.332c-0.486,0.222-0.906,0.534-1.266,0.936c-0.357,0.4-0.64,0.872-0.844,1.418
			c-0.205,0.547-0.308,1.151-0.308,1.816c0,0.647,0.104,1.25,0.317,1.805c0.214,0.555,0.503,1.034,0.87,1.443
			c0.366,0.409,0.793,0.729,1.278,0.961c0.485,0.229,1.004,0.344,1.55,0.344c0.341,0,0.682-0.046,1.021-0.14
			c0.341-0.094,0.651-0.228,0.934-0.397s0.527-0.365,0.741-0.588c0.214-0.222,0.373-0.461,0.475-0.717l2.763,0.818
			c-0.442,1.007-1.185,1.831-2.225,2.47c-1.041,0.64-2.27,0.958-3.684,0.958c-1.041,0-1.987-0.188-2.841-0.562
			c-0.853-0.374-1.583-0.881-2.188-1.521c-0.605-0.64-1.074-1.379-1.406-2.214C854.678,1010.333,854.513,1009.448,854.513,1008.509z
			"/>
		<path d="M875.999,1015.21v-13.378h2.813v13.378H875.999z M875.999,999.633v-3.096h2.813v3.096H875.999z"/>
		<path d="M894.186,1015.21h-2.812v-7.494c0-1.262-0.201-2.178-0.604-2.749c-0.399-0.57-0.99-0.857-1.775-0.857
			c-0.409,0-0.818,0.076-1.229,0.229s-0.793,0.372-1.149,0.654c-0.358,0.28-0.681,0.612-0.962,0.997
			c-0.28,0.384-0.497,0.805-0.65,1.265v7.955h-2.812v-13.378h2.558v2.687c0.512-0.903,1.254-1.613,2.226-2.135
			c0.974-0.521,2.047-0.781,3.224-0.781c0.802,0,1.458,0.146,1.97,0.436s0.915,0.688,1.214,1.189s0.509,1.083,0.628,1.739
			c0.119,0.657,0.179,1.352,0.179,2.084v8.159H894.186z"/>
		<path d="M905.057,1015.466c-1.074,0-2.021-0.256-2.839-0.768c-0.817-0.512-1.467-1.178-1.944-1.995v7.955h-2.812v-18.826h2.481
			v2.404c0.512-0.802,1.171-1.44,1.979-1.919c0.811-0.478,1.729-0.716,2.752-0.716c0.92,0,1.766,0.188,2.532,0.562
			c0.767,0.375,1.433,0.878,1.995,1.509c0.562,0.631,1,1.364,1.314,2.2c0.315,0.835,0.476,1.714,0.476,2.635
			c0,0.972-0.146,1.881-0.436,2.726s-0.698,1.577-1.228,2.199c-0.529,0.623-1.157,1.117-1.882,1.483
			C906.723,1015.284,905.927,1015.466,905.057,1015.466z M904.137,1013.062c0.598,0,1.137-0.128,1.622-0.384
			c0.486-0.256,0.904-0.597,1.254-1.022c0.351-0.427,0.619-0.912,0.808-1.457c0.188-0.546,0.281-1.109,0.281-1.688
			c0-0.614-0.107-1.193-0.321-1.739c-0.213-0.546-0.502-1.022-0.869-1.433s-0.806-0.733-1.316-0.972
			c-0.511-0.239-1.064-0.358-1.661-0.358c-0.358,0-0.733,0.068-1.125,0.204c-0.394,0.137-0.761,0.324-1.102,0.563
			c-0.341,0.237-0.64,0.517-0.896,0.831c-0.256,0.315-0.435,0.659-0.536,1.035v3.504c0.171,0.409,0.393,0.793,0.665,1.151
			c0.272,0.357,0.573,0.665,0.906,0.921c0.332,0.256,0.696,0.46,1.088,0.613C903.326,1012.985,903.727,1013.062,904.137,1013.062z"
			/>
		<path d="M917.642,1015.466c-1.396,0-2.454-0.454-3.171-1.367c-0.717-0.912-1.074-2.272-1.074-4.081v-8.186h2.812v7.623
			c0,2.403,0.854,3.605,2.559,3.605c0.802,0,1.562-0.247,2.276-0.742c0.716-0.493,1.271-1.21,1.663-2.147v-8.339h2.812v10.053
			c0,0.324,0.055,0.555,0.165,0.69c0.11,0.137,0.312,0.214,0.603,0.229v2.404c-0.289,0.052-0.528,0.085-0.716,0.103
			c-0.188,0.019-0.366,0.025-0.537,0.025c-0.513,0-0.946-0.139-1.306-0.421c-0.357-0.281-0.546-0.646-0.562-1.088l-0.051-1.33
			c-0.598,0.972-1.373,1.711-2.328,2.214S918.784,1015.466,917.642,1015.466z"/>
		<path d="M936.545,1014.52c-0.357,0.171-0.854,0.364-1.482,0.577c-0.631,0.213-1.306,0.318-2.021,0.318
			c-0.443,0-0.861-0.061-1.254-0.181c-0.394-0.118-0.739-0.298-1.037-0.536c-0.299-0.238-0.531-0.548-0.702-0.933
			c-0.171-0.384-0.256-0.85-0.256-1.396v-8.364h-1.765v-2.175h1.765v-4.399h2.813v4.399h2.916v2.175h-2.916v7.469
			c0.033,0.479,0.182,0.824,0.445,1.037c0.266,0.214,0.594,0.318,0.986,0.318c0.392,0,0.768-0.068,1.126-0.204
			c0.356-0.137,0.622-0.248,0.792-0.333L936.545,1014.52z"/>
	</g>
	<g transform="matrix(1,0,0,1,18.8863,755.454)">
		<rect x="934.115" y="1005.15" width="7.648" height="2.533"/>
		<path d="M954.22,1010.88v2.531h-9.771v-2.531h3.634v-8.929c-0.153,0.205-0.394,0.418-0.718,0.641
			c-0.323,0.222-0.682,0.427-1.073,0.613c-0.393,0.188-0.803,0.348-1.229,0.476c-0.427,0.128-0.802,0.189-1.125,0.189v-2.635
			c0.341,0,0.735-0.103,1.188-0.307c0.453-0.205,0.888-0.443,1.306-0.717c0.418-0.272,0.784-0.547,1.1-0.818
			c0.316-0.272,0.5-0.469,0.552-0.588h2.891v12.072h3.247V1010.88z"/>
		<path d="M956.702,1015.893l0.613-2.634h-0.921v-3.121h2.532v3.121l-0.896,2.634H956.702z"/>
		<path d="M978.239,1010.88v2.531h-9.771v-2.531h3.633v-8.929c-0.153,0.205-0.394,0.418-0.717,0.641
			c-0.323,0.222-0.683,0.427-1.074,0.613c-0.392,0.188-0.801,0.348-1.228,0.476c-0.428,0.128-0.803,0.189-1.127,0.189v-2.635
			c0.343,0,0.736-0.103,1.188-0.307c0.452-0.205,0.887-0.443,1.305-0.717c0.419-0.272,0.784-0.547,1.101-0.818
			c0.315-0.272,0.5-0.469,0.552-0.588h2.891v12.072h3.247V1010.88z"/>
	</g>
	<g transform="matrix(1,0,0,1,18.4867,767.679)">
		<rect x="933.379" y="1027.67" width="7.648" height="2.532"/>
		<path d="M953.484,1033.4v2.532h-9.771v-2.532h3.634v-8.927c-0.154,0.205-0.394,0.418-0.718,0.641
			c-0.323,0.222-0.682,0.426-1.073,0.612c-0.393,0.188-0.802,0.349-1.229,0.477s-0.802,0.189-1.126,0.189v-2.635
			c0.342,0,0.736-0.104,1.188-0.308s0.887-0.443,1.305-0.717c0.418-0.272,0.784-0.546,1.101-0.817
			c0.314-0.273,0.5-0.469,0.552-0.589h2.891v12.072L953.484,1033.4L953.484,1033.4z"/>
		<path d="M968.499,1028.438c0,1.125-0.167,2.163-0.5,3.109s-0.793,1.765-1.382,2.455c-0.588,0.69-1.277,1.229-2.07,1.612
			c-0.793,0.383-1.657,0.572-2.596,0.572c-0.938,0-1.808-0.189-2.608-0.572c-0.803-0.385-1.492-0.922-2.072-1.612
			c-0.579-0.69-1.037-1.509-1.369-2.455c-0.333-0.946-0.498-1.984-0.498-3.109c0-1.126,0.165-2.16,0.498-3.105
			c0.332-0.946,0.79-1.766,1.369-2.455c0.58-0.691,1.271-1.234,2.072-1.626c0.802-0.394,1.671-0.589,2.608-0.589
			c0.938,0,1.803,0.195,2.596,0.589c0.793,0.392,1.482,0.935,2.07,1.626c0.589,0.689,1.049,1.509,1.382,2.455
			S968.499,1027.312,968.499,1028.438z M965.634,1028.438c0-0.768-0.093-1.467-0.271-2.098s-0.435-1.177-0.768-1.637
			c-0.332-0.461-0.726-0.813-1.178-1.062c-0.451-0.247-0.939-0.372-1.469-0.372c-0.562,0-1.07,0.125-1.523,0.372
			c-0.451,0.247-0.844,0.601-1.177,1.062c-0.333,0.46-0.588,1.006-0.768,1.637c-0.179,0.631-0.267,1.33-0.267,2.098
			c0,0.769,0.088,1.468,0.267,2.099c0.18,0.631,0.435,1.174,0.768,1.626c0.333,0.451,0.726,0.801,1.177,1.048
			c0.453,0.248,0.962,0.37,1.523,0.37c0.528,0,1.018-0.122,1.469-0.37c0.452-0.247,0.846-0.598,1.178-1.048
			c0.333-0.452,0.589-0.995,0.768-1.626S965.634,1029.205,965.634,1028.438z"/>
		<path d="M971.672,1038.413l0.613-2.636h-0.921v-3.119h2.532v3.119l-0.896,2.636H971.672z"/>
		<path d="M993.209,1033.4v2.532h-9.771v-2.532h3.632v-8.927c-0.153,0.205-0.392,0.418-0.716,0.641
			c-0.324,0.222-0.683,0.426-1.074,0.612c-0.393,0.188-0.802,0.349-1.229,0.477s-0.802,0.189-1.125,0.189v-2.635
			c0.341,0,0.735-0.104,1.188-0.308s0.888-0.443,1.306-0.717c0.418-0.272,0.784-0.546,1.1-0.817
			c0.315-0.273,0.501-0.469,0.552-0.589h2.892v12.072L993.209,1033.4L993.209,1033.4z"/>
		<path d="M1008.223,1028.438c0,1.125-0.168,2.163-0.501,3.109c-0.332,0.946-0.793,1.765-1.381,2.455s-1.279,1.229-2.072,1.612
			c-0.793,0.383-1.656,0.572-2.595,0.572s-1.809-0.189-2.608-0.572c-0.802-0.385-1.492-0.922-2.072-1.612s-1.037-1.509-1.369-2.455
			s-0.498-1.984-0.498-3.109c0-1.126,0.166-2.16,0.498-3.105c0.332-0.946,0.789-1.766,1.369-2.455
			c0.58-0.691,1.271-1.234,2.072-1.626c0.801-0.394,1.671-0.589,2.608-0.589s1.802,0.195,2.595,0.589
			c0.793,0.392,1.484,0.935,2.072,1.626c0.588,0.689,1.049,1.509,1.381,2.455
			C1008.055,1026.278,1008.223,1027.312,1008.223,1028.438z M1005.358,1028.438c0-0.768-0.091-1.467-0.271-2.098
			s-0.436-1.177-0.768-1.637c-0.333-0.461-0.725-0.813-1.177-1.062s-0.94-0.372-1.47-0.372c-0.562,0-1.071,0.125-1.523,0.372
			c-0.451,0.247-0.844,0.601-1.177,1.062c-0.332,0.46-0.589,1.006-0.768,1.637c-0.18,0.631-0.268,1.33-0.268,2.098
			c0,0.769,0.088,1.468,0.268,2.099c0.179,0.631,0.436,1.174,0.768,1.626c0.333,0.451,0.726,0.801,1.177,1.048
			c0.452,0.248,0.961,0.37,1.523,0.37c0.528,0,1.018-0.122,1.47-0.37c0.452-0.247,0.844-0.598,1.177-1.048
			c0.332-0.452,0.588-0.995,0.768-1.626S1005.358,1029.205,1005.358,1028.438z"/>
	</g>
	<g transform="matrix(1,0,0,1,8,741.52)">
		<path d="M885.169,55.909v24.215h-4.673V69.79h-10.981v10.334h-4.706V55.909h4.706v9.788h10.981v-9.788H885.169z"/>
		<path d="M897.787,80.465c-1.455,0-2.762-0.25-3.922-0.75c-1.159-0.5-2.144-1.177-2.95-2.029c-0.808-0.853-1.427-1.836-1.858-2.95
			c-0.431-1.114-0.647-2.285-0.647-3.513c0-1.25,0.217-2.433,0.647-3.547c0.433-1.114,1.053-2.098,1.858-2.95
			c0.808-0.853,1.791-1.529,2.95-2.029c1.16-0.5,2.467-0.75,3.922-0.75c1.456,0,2.758,0.25,3.905,0.75s2.126,1.177,2.934,2.029
			c0.808,0.853,1.427,1.836,1.858,2.95c0.432,1.114,0.647,2.296,0.647,3.547c0,1.228-0.217,2.398-0.647,3.513
			c-0.432,1.115-1.047,2.098-1.842,2.95c-0.797,0.852-1.773,1.529-2.934,2.029C900.55,80.215,899.243,80.465,897.787,80.465z
			 M893.115,71.223c0,0.796,0.119,1.518,0.357,2.166s0.568,1.211,0.989,1.688c0.42,0.478,0.915,0.847,1.483,1.109
			c0.567,0.261,1.182,0.392,1.841,0.392c0.66,0,1.272-0.131,1.842-0.392c0.568-0.262,1.063-0.631,1.484-1.109
			c0.42-0.477,0.75-1.046,0.987-1.705c0.239-0.659,0.358-1.387,0.358-2.183c0-0.773-0.119-1.489-0.358-2.148
			c-0.237-0.66-0.567-1.228-0.987-1.706c-0.421-0.478-0.916-0.847-1.484-1.108c-0.568-0.261-1.182-0.392-1.842-0.392
			c-0.659,0-1.272,0.136-1.841,0.409c-0.569,0.273-1.063,0.648-1.483,1.125c-0.421,0.478-0.751,1.046-0.989,1.705
			C893.234,69.733,893.115,70.45,893.115,71.223z"/>
		<path d="M910.168,55.227h4.57v19.167c0,0.659,0.158,1.171,0.478,1.535c0.317,0.364,0.772,0.545,1.364,0.545
			c0.271,0,0.573-0.045,0.903-0.136c0.33-0.091,0.643-0.205,0.938-0.341l0.614,3.479c-0.614,0.295-1.33,0.523-2.148,0.682
			c-0.817,0.159-1.558,0.239-2.217,0.239c-1.433,0-2.541-0.381-3.325-1.143c-0.784-0.762-1.177-1.847-1.177-3.257V55.227
			L910.168,55.227z"/>
		<path d="M929.268,80.465c-1.455,0-2.764-0.25-3.923-0.75s-2.144-1.177-2.95-2.029c-0.806-0.852-1.427-1.836-1.857-2.95
			c-0.434-1.114-0.648-2.285-0.648-3.513c0-1.25,0.217-2.433,0.648-3.547c0.432-1.114,1.052-2.098,1.857-2.95
			c0.807-0.852,1.791-1.529,2.95-2.029s2.468-0.75,3.923-0.75c1.454,0,2.757,0.25,3.904,0.75c1.148,0.5,2.126,1.177,2.934,2.029
			c0.808,0.853,1.427,1.836,1.858,2.95c0.433,1.114,0.647,2.296,0.647,3.547c0,1.228-0.217,2.398-0.647,3.513
			c-0.433,1.114-1.046,2.098-1.842,2.95s-1.772,1.529-2.935,2.029C932.029,80.215,930.722,80.465,929.268,80.465z M924.595,71.223
			c0,0.796,0.119,1.518,0.357,2.166c0.239,0.648,0.567,1.211,0.989,1.688c0.421,0.478,0.914,0.847,1.482,1.109
			c0.568,0.261,1.184,0.392,1.842,0.392c0.659,0,1.273-0.131,1.842-0.392c0.568-0.262,1.063-0.631,1.483-1.109
			c0.421-0.477,0.751-1.046,0.989-1.705s0.357-1.387,0.357-2.183c0-0.773-0.119-1.489-0.357-2.148
			c-0.238-0.66-0.568-1.228-0.989-1.706c-0.42-0.478-0.915-0.847-1.483-1.108c-0.567-0.261-1.183-0.392-1.842-0.392
			c-0.658,0-1.272,0.136-1.842,0.409c-0.568,0.273-1.062,0.648-1.482,1.125c-0.422,0.477-0.75,1.046-0.989,1.705
			C924.714,69.733,924.595,70.45,924.595,71.223z"/>
		<path d="M958.29,80.124h-4.569V70.097c0-1.433-0.251-2.479-0.751-3.138c-0.5-0.66-1.192-0.989-2.08-0.989
			c-0.454,0-0.921,0.091-1.397,0.273c-0.478,0.182-0.928,0.438-1.348,0.768c-0.421,0.33-0.802,0.722-1.143,1.176
			c-0.342,0.455-0.592,0.955-0.751,1.501v10.436h-4.569V62.253h4.127v3.308c0.658-1.137,1.613-2.023,2.864-2.66
			c1.25-0.637,2.66-0.955,4.229-0.955c1.113,0,2.023,0.205,2.729,0.614c0.705,0.41,1.251,0.944,1.639,1.603
			c0.386,0.66,0.652,1.41,0.801,2.251c0.147,0.841,0.222,1.694,0.222,2.558v11.152H958.29z"/>
		<rect x="962.179" y="75.213" width="3.751" height="4.911"/>
		<path d="M969.954,80.124V62.253h4.569v17.871H969.954z M969.954,59.763v-4.536h4.569v4.536H969.954z"/>
		<path d="M985.404,80.465c-1.501,0-2.969-0.238-4.4-0.716s-2.66-1.16-3.683-2.046l1.705-2.865c1.091,0.773,2.153,1.358,3.188,1.756
			c1.035,0.398,2.063,0.597,3.087,0.597c0.909,0,1.626-0.17,2.148-0.512c0.522-0.341,0.783-0.83,0.783-1.466
			c0-0.636-0.307-1.103-0.92-1.398s-1.614-0.637-3.002-1.023c-1.158-0.318-2.147-0.625-2.967-0.921
			c-0.818-0.296-1.479-0.631-1.979-1.006s-0.863-0.807-1.092-1.296c-0.228-0.489-0.342-1.074-0.342-1.756
			c0-0.91,0.178-1.728,0.529-2.456s0.847-1.347,1.483-1.859c0.637-0.511,1.381-0.904,2.233-1.176c0.853-0.273,1.778-0.41,2.779-0.41
			c1.341,0,2.598,0.193,3.769,0.58c1.171,0.386,2.245,1.012,3.224,1.875l-1.842,2.763c-0.909-0.682-1.79-1.182-2.644-1.5
			c-0.853-0.318-1.7-0.478-2.541-0.478c-0.772,0-1.421,0.159-1.944,0.478c-0.521,0.318-0.783,0.83-0.783,1.535
			c0,0.318,0.062,0.58,0.188,0.784c0.125,0.205,0.324,0.387,0.598,0.546c0.272,0.159,0.631,0.312,1.073,0.46
			c0.443,0.148,0.995,0.301,1.654,0.46c1.228,0.318,2.279,0.637,3.154,0.955c0.876,0.318,1.592,0.682,2.148,1.091
			c0.558,0.409,0.966,0.881,1.229,1.415c0.262,0.535,0.393,1.177,0.393,1.927c0,1.75-0.647,3.132-1.944,4.145
			C989.393,79.959,987.632,80.465,985.404,80.465z"/>
		<path d="M1006.311,79.203c-0.613,0.273-1.363,0.546-2.25,0.818c-0.888,0.273-1.819,0.41-2.798,0.41
			c-0.637,0-1.232-0.08-1.79-0.239c-0.558-0.159-1.046-0.415-1.467-0.768c-0.421-0.353-0.756-0.807-1.006-1.364
			s-0.375-1.233-0.375-2.029V65.766h-2.354v-3.513h2.354v-5.798h4.57v5.798h3.751v3.513h-3.751v8.731
			c0,0.637,0.164,1.086,0.494,1.347c0.33,0.262,0.732,0.392,1.211,0.392c0.477,0,0.942-0.08,1.397-0.239
			c0.454-0.159,0.818-0.295,1.091-0.409L1006.311,79.203z"/>
	</g>
	<g transform="matrix(1,0,0,1,13,745.504)">
		<path d="M876.341,91.721h2.898l-0.739,3.325c0.723-1.023,1.535-1.847,2.444-2.473c0.909-0.625,1.811-0.938,2.7-0.938
			c0.189,0,0.338,0.003,0.439,0.014c0.105,0.009,0.205,0.023,0.299,0.043l-0.597,2.728c-1.138,0.037-2.197,0.315-3.185,0.839
			c-0.982,0.52-1.778,1.265-2.388,2.231l-1.933,9.095h-3.126L876.341,91.721z"/>
		<path d="M889.329,106.869c-0.946,0-1.785-0.162-2.517-0.483c-0.728-0.324-1.35-0.764-1.86-1.321
			c-0.513-0.56-0.898-1.222-1.165-1.99c-0.266-0.767-0.398-1.597-0.398-2.487c0-1.213,0.233-2.37,0.696-3.467
			c0.466-1.1,1.108-2.066,1.933-2.899c0.824-0.835,1.803-1.503,2.929-2.004c1.128-0.503,2.345-0.753,3.651-0.753
			c1.534,0,2.762,0.344,3.68,1.038c0.922,0.69,1.38,1.708,1.38,3.055c0,3.106-2.773,4.661-8.327,4.661
			c-0.813,0-1.734-0.028-2.757-0.085v0.512c0,0.548,0.067,1.06,0.197,1.535c0.134,0.472,0.333,0.89,0.599,1.25
			c0.267,0.358,0.606,0.64,1.021,0.838c0.418,0.199,0.91,0.298,1.479,0.298c0.814,0,1.603-0.205,2.357-0.611
			c0.759-0.41,1.356-0.963,1.791-1.663l2.474,0.767c-0.358,0.568-0.799,1.083-1.322,1.549c-0.52,0.463-1.094,0.861-1.719,1.194
			c-0.626,0.33-1.288,0.591-1.989,0.782C890.762,106.772,890.051,106.869,889.329,106.869z M892.199,93.767
			c-0.683,0-1.309,0.116-1.876,0.355c-0.568,0.236-1.068,0.554-1.506,0.952c-0.436,0.398-0.806,0.855-1.108,1.378
			c-0.302,0.52-0.549,1.066-0.739,1.634c0.873,0.057,1.677,0.085,2.416,0.085c1.007,0,1.849-0.062,2.529-0.185
			c0.683-0.125,1.236-0.295,1.663-0.511c0.426-0.219,0.73-0.483,0.909-0.796c0.182-0.312,0.27-0.66,0.27-1.038
			c0-0.645-0.227-1.12-0.682-1.421C893.62,93.917,892.995,93.767,892.199,93.767z"/>
		<path d="M904.762,106.869c-0.945,0-1.791-0.168-2.528-0.498c-0.739-0.333-1.359-0.781-1.862-1.35
			c-0.5-0.568-0.881-1.233-1.137-1.989c-0.256-0.759-0.385-1.563-0.385-2.416c0-1.193,0.233-2.342,0.696-3.439
			c0.467-1.1,1.108-2.072,1.933-2.913c0.824-0.844,1.791-1.521,2.899-2.032c1.108-0.511,2.316-0.767,3.624-0.767
			c1.479,0,2.671,0.335,3.58,1.009c0.91,0.671,1.52,1.566,1.819,2.686l-3.24,0.966c-0.207-0.625-0.554-1.114-1.037-1.464
			c-0.483-0.353-1.065-0.526-1.748-0.526c-0.682,0-1.339,0.156-1.976,0.469c-0.633,0.312-1.196,0.748-1.69,1.307
			c-0.492,0.557-0.884,1.208-1.18,1.947c-0.293,0.739-0.44,1.535-0.44,2.388c0,0.568,0.077,1.094,0.229,1.577
			c0.152,0.483,0.369,0.898,0.652,1.25c0.284,0.35,0.623,0.625,1.01,0.824c0.39,0.199,0.82,0.298,1.294,0.298
			c0.359,0,0.722-0.054,1.079-0.156c0.36-0.105,0.707-0.253,1.037-0.44c0.332-0.19,0.631-0.409,0.896-0.654
			c0.268-0.247,0.483-0.511,0.654-0.796l2.87,0.91c-0.342,0.548-0.763,1.055-1.266,1.521c-0.5,0.463-1.055,0.867-1.662,1.208
			c-0.604,0.341-1.26,0.605-1.961,0.796C906.223,106.772,905.5,106.869,904.762,106.869z"/>
		<path d="M919.91,106.869c-0.946,0-1.785-0.162-2.516-0.483c-0.729-0.324-1.351-0.764-1.861-1.321
			c-0.512-0.56-0.898-1.222-1.165-1.99c-0.265-0.767-0.398-1.597-0.398-2.487c0-1.213,0.233-2.37,0.696-3.467
			c0.467-1.1,1.107-2.066,1.933-2.899c0.824-0.835,1.802-1.503,2.929-2.004c1.128-0.503,2.345-0.753,3.651-0.753
			c1.534,0,2.763,0.344,3.681,1.038c0.921,0.69,1.379,1.708,1.379,3.055c0,3.106-2.774,4.661-8.327,4.661
			c-0.813,0-1.734-0.028-2.757-0.085v0.512c0,0.548,0.066,1.06,0.197,1.535c0.135,0.472,0.333,0.89,0.599,1.25
			c0.267,0.358,0.606,0.64,1.021,0.838c0.418,0.199,0.91,0.298,1.479,0.298c0.814,0,1.603-0.205,2.357-0.611
			c0.76-0.41,1.355-0.963,1.791-1.663l2.474,0.767c-0.358,0.568-0.8,1.083-1.322,1.549c-0.521,0.463-1.094,0.861-1.719,1.194
			c-0.626,0.33-1.288,0.591-1.99,0.782C921.342,106.772,920.632,106.869,919.91,106.869z M922.78,93.767
			c-0.683,0-1.309,0.116-1.876,0.355c-0.568,0.236-1.068,0.554-1.506,0.952c-0.436,0.398-0.806,0.855-1.108,1.378
			c-0.302,0.52-0.549,1.066-0.739,1.634c0.873,0.057,1.678,0.085,2.416,0.085c1.006,0,1.849-0.062,2.529-0.185
			c0.683-0.125,1.236-0.295,1.663-0.511c0.426-0.219,0.729-0.483,0.909-0.796c0.182-0.312,0.27-0.66,0.27-1.038
			c0-0.645-0.227-1.12-0.682-1.421C924.201,93.917,923.576,93.767,922.78,93.767z"/>
		<path d="M932.074,91.721h3.126l-3.184,14.864h-3.127L932.074,91.721z M933.296,85.837h3.127l-0.711,3.439h-3.126L933.296,85.837z"
			/>
		<path d="M937.189,91.721h3.239l1.309,12.221c1.439-2.104,2.669-4.141,3.681-6.111c1.016-1.972,1.816-4.007,2.401-6.11h2.928
			c-0.683,2.481-1.708,4.959-3.084,7.432c-1.373,2.473-3.026,4.948-4.96,7.432h-3.325L937.189,91.721z"/>
		<path d="M956.688,106.869c-0.946,0-1.784-0.162-2.516-0.483c-0.729-0.324-1.351-0.764-1.861-1.321
			c-0.512-0.56-0.897-1.222-1.166-1.99c-0.265-0.767-0.396-1.597-0.396-2.487c0-1.213,0.232-2.37,0.696-3.467
			c0.466-1.1,1.107-2.066,1.933-2.899c0.824-0.835,1.802-1.503,2.927-2.004c1.13-0.503,2.345-0.753,3.652-0.753
			c1.535,0,2.763,0.344,3.681,1.038c0.922,0.69,1.378,1.708,1.378,3.055c0,3.106-2.772,4.661-8.327,4.661
			c-0.812,0-1.732-0.028-2.757-0.085v0.512c0,0.548,0.068,1.06,0.199,1.535c0.134,0.472,0.332,0.89,0.597,1.25
			c0.269,0.358,0.608,0.64,1.023,0.838c0.418,0.199,0.909,0.298,1.479,0.298c0.814,0,1.604-0.205,2.358-0.611
			c0.759-0.41,1.354-0.963,1.79-1.663l2.473,0.767c-0.357,0.568-0.799,1.083-1.32,1.549c-0.521,0.463-1.096,0.861-1.721,1.194
			c-0.625,0.33-1.287,0.591-1.988,0.782C958.119,106.772,957.408,106.869,956.688,106.869z M959.558,93.767
			c-0.683,0-1.308,0.116-1.876,0.355c-0.567,0.236-1.067,0.554-1.507,0.952c-0.435,0.398-0.804,0.855-1.107,1.378
			c-0.302,0.52-0.548,1.066-0.738,1.634c0.872,0.057,1.677,0.085,2.415,0.085c1.007,0,1.848-0.062,2.53-0.185
			c0.682-0.125,1.235-0.295,1.661-0.511c0.428-0.219,0.73-0.483,0.909-0.796c0.184-0.312,0.271-0.66,0.271-1.038
			c0-0.645-0.229-1.12-0.683-1.421C960.979,93.917,960.354,93.767,959.558,93.767z"/>
		<path d="M968.852,91.721h2.898l-0.739,3.325c0.722-1.023,1.535-1.847,2.444-2.473s1.811-0.938,2.7-0.938
			c0.189,0,0.338,0.003,0.439,0.014c0.105,0.009,0.205,0.023,0.3,0.043l-0.599,2.728c-1.137,0.037-2.196,0.315-3.183,0.839
			c-0.983,0.52-1.779,1.265-2.389,2.231l-1.933,9.095h-3.126L968.852,91.721z"/>
	</g>
	<g id="Layer_2">
		<g id="logo">
			<g>
				<g>
					<g>
						<path d="M854.15,841.185c2.693,2.762,2.924,4.133,2.856,4.66c-0.094,0.758-1.202,1.248-2.11,1.526
							c-3.408,1.036-7.909,0.858-12.394,0.075c-1.036,0.387-3.433,1.249-5.178,1.873c3.899,1.002,8.134,1.695,12.004,1.695
							c2.17,0.037,4.334-0.243,6.423-0.83c1.745-0.531,3.889-1.651,4.18-3.98c0.233-1.872-0.869-4.12-3.434-6.835
							C855.771,839.984,854.989,840.59,854.15,841.185"/>
						<path d="M861.632,824.021c0.188-4.803-2.26-9.264-7.282-13.29c4.098-3.661,5.877-6.511,5.584-8.892
							c-0.287-2.322-2.432-3.458-4.18-3.989c-6.479-1.969-16.165-0.128-23.253,2.307c-7.091-2.435-16.776-4.276-23.256-2.307
							c-1.679,0.509-3.739,1.598-4.014,3.883c-0.187,1.492,0.312,3.646,3.833,7.241c1.778,1.742,3.664,3.378,5.637,4.9
							c0.452,0.35,0.925,0.708,1.42,1.077l0.418,0.312c3.34,2.469,7.628,5.35,13.109,8.739c-7.123,4.342-12.734,8.159-16.717,11.368
							c-4.578-3.511-6.784-7.272-6.617-11.287v-0.128c-0.146-3.302,1.343-6.446,4.46-9.432c-0.812-0.67-1.55-1.316-2.222-1.938
							c-3.605,3.527-5.347,7.356-5.194,11.436c-0.188,4.8,2.259,9.261,7.282,13.287c-4.098,3.661-5.877,6.511-5.584,8.895
							c0.287,2.332,2.432,3.456,4.18,3.986c6.242,1.9,15.478,0.253,22.488-2.051l0.752-0.253h0.016l0.989-0.355
							c1.352-0.446,2.578-0.884,3.771-1.327l0.752-0.28l0.387-0.144c5.444-2.073,9.854-4.248,13.381-6.596l0.134-0.09
							c0.856-0.536,1.671-1.133,2.44-1.789C859.375,833.279,861.819,828.819,861.632,824.021 M854.896,800.668
							c0.914,0.278,2.02,0.768,2.11,1.529c0.081,0.652-0.287,2.569-5.094,6.751l-0.134-0.09c-3.789-2.522-8.596-4.844-14.617-7.057
							C843.176,800.141,850.111,799.205,854.896,800.668 M852.068,835.361c-3.437-2.784-8.062-5.968-13.92-9.629l-2.812,1.723
							c5.905,3.649,10.668,6.892,14.208,9.676c-4.228,2.705-9.907,5.245-17.036,7.619c-5.676-1.894-10.435-3.891-14.273-5.993
							c-0.899,0.68-1.731,1.338-2.497,1.972c3.874,2.18,7.928,4.023,12.117,5.509c-6.03,1.658-12.968,2.594-17.75,1.133
							c-0.914-0.278-2.021-0.768-2.113-1.53c-0.082-0.649,0.287-2.543,4.994-6.667c0.625-0.562,1.311-1.168,2.497-2.045
							c3.983-3.149,9.561-6.892,16.592-11.146c1.42-0.853,2.054-1.186,3.299-1.957c5.787-3.54,10.578-6.72,14.304-9.514
							c-0.832-0.568-1.724-1.13-2.675-1.686c-3.798,2.781-8.646,5.952-14.479,9.473c-7.94-4.826-13.3-8.577-16.936-11.47
							c3.288-2.081,7.442-4.068,12.463-5.962c-1.598-0.483-3.318-0.961-4.719-1.295c-3.528,1.44-6.914,3.208-10.112,5.281
							c-4.74-4.167-5.154-6.08-5.07-6.763c0.084-0.684,1.108-1.168,1.953-1.424c1.826-0.51,3.722-0.752,5.617-0.718
							c3.351,0.057,6.683,0.491,9.934,1.295l0.064,0.019c0.344,0.081,0.688,0.165,1.026,0.252c1.666,0.385,3.31,0.863,4.922,1.433
							l1.386,0.49v0.041c6.867,2.324,12.365,4.804,16.496,7.438c0.938,0.578,1.84,1.213,2.7,1.901
							c0.702,0.546,1.349,1.102,1.935,1.66l0.037,0.034c3.122,2.987,4.623,6.14,4.479,9.448v0.128
							C858.86,828.076,856.645,831.843,852.068,835.361"/>
					</g>
				</g>
			</g>
		</g>
	</g>
</g>
</svg>
