<?xml version="1.0" encoding="UTF-8" standalone="no"?>
<!DOCTYPE svg PUBLIC "-//W3C//DTD SVG 1.1//EN" "http://www.w3.org/Graphics/SVG/1.1/DTD/svg11.dtd">
<svg width="100%" height="100%" viewBox="0 0 60 380" version="1.1" xmlns="http://www.w3.org/2000/svg" xmlns:xlink="http://www.w3.org/1999/xlink" xml:space="preserve" xmlns:serif="http://www.serif.com/" style="fill-rule:evenodd;clip-rule:evenodd;stroke-linejoin:round;stroke-miterlimit:1.41421;">
    <g id="Layer-1" serif:id="Layer 1" transform="matrix(1,0,0,1,-15,-742.52)">
        <g id="background" transform="matrix(0.671005,0,0,1,14.219,-0.162011)">
            <rect x="0" y="742.52" width="90" height="380" style="fill:rgb(240,240,240);"/>
        </g>
        <g transform="matrix(1,0,0,1,15,728.106)">
            <path d="M10.655,58.132C10.655,57.765 10.719,57.419 10.845,57.092C10.972,56.765 11.154,56.479 11.39,56.232C11.627,55.985 11.912,55.79 12.245,55.647C12.579,55.504 12.952,55.432 13.365,55.432C13.905,55.432 14.37,55.55 14.76,55.787C15.15,56.024 15.442,56.339 15.635,56.732L14.565,57.072C14.439,56.852 14.269,56.68 14.055,56.557C13.842,56.434 13.605,56.372 13.345,56.372C13.125,56.372 12.92,56.415 12.73,56.502C12.54,56.589 12.375,56.71 12.235,56.867C12.095,57.024 11.985,57.209 11.905,57.422C11.825,57.635 11.785,57.872 11.785,58.132C11.785,58.385 11.827,58.62 11.91,58.837C11.994,59.054 12.107,59.242 12.25,59.402C12.394,59.562 12.56,59.687 12.75,59.777C12.94,59.867 13.142,59.912 13.355,59.912C13.489,59.912 13.622,59.894 13.755,59.857C13.889,59.82 14.01,59.769 14.12,59.702C14.23,59.635 14.327,59.559 14.41,59.472C14.494,59.385 14.555,59.292 14.595,59.192L15.675,59.512C15.502,59.905 15.212,60.227 14.805,60.477C14.399,60.727 13.919,60.852 13.365,60.852C12.959,60.852 12.589,60.779 12.255,60.632C11.922,60.485 11.637,60.287 11.4,60.037C11.164,59.787 10.98,59.499 10.85,59.172C10.72,58.845 10.655,58.499 10.655,58.132Z" style="fill-rule:nonzero;"/>
            <path d="M16.595,53.452L17.695,53.452L17.695,59.242C17.695,59.435 17.745,59.587 17.845,59.697C17.945,59.807 18.085,59.862 18.265,59.862C18.339,59.862 18.424,59.849 18.52,59.822C18.617,59.795 18.709,59.765 18.795,59.732L18.955,60.592C18.795,60.665 18.605,60.724 18.385,60.767C18.165,60.81 17.969,60.832 17.795,60.832C17.415,60.832 17.12,60.729 16.91,60.522C16.7,60.315 16.595,60.022 16.595,59.642L16.595,53.452Z" style="fill-rule:nonzero;"/>
            <path d="M23.235,60.752L21.565,58.342L20.695,59.162L20.695,60.752L19.595,60.752L19.595,53.452L20.695,53.452L20.695,58.082L23.095,55.532L24.295,55.532L22.265,57.722L24.405,60.752L23.235,60.752Z" style="fill-rule:nonzero;"/>
        </g>
        <g transform="matrix(1,0,0,1,24,742.52)">
            <path d="M13.853,25.938C13.173,26.618 12.381,26.958 11.477,26.958C10.917,26.958 10.391,26.846 9.899,26.622C9.407,26.398 8.979,26.09 8.615,25.698C8.251,25.306 7.963,24.844 7.751,24.312C7.539,23.78 7.433,23.206 7.433,22.59C7.433,22.006 7.539,21.456 7.751,20.94C7.963,20.424 8.255,19.972 8.627,19.584C8.999,19.196 9.437,18.888 9.941,18.66C10.445,18.432 10.993,18.318 11.585,18.318C12.385,18.318 13.071,18.486 13.643,18.822C14.215,19.158 14.645,19.61 14.933,20.178L13.697,21.09C13.481,20.666 13.179,20.342 12.791,20.118C12.403,19.894 11.981,19.782 11.525,19.782C11.165,19.782 10.835,19.858 10.535,20.01C10.235,20.162 9.979,20.37 9.767,20.634C9.555,20.898 9.391,21.202 9.275,21.546C9.159,21.89 9.101,22.254 9.101,22.638C9.101,23.038 9.165,23.412 9.293,23.76C9.421,24.108 9.597,24.41 9.821,24.666C10.045,24.922 10.311,25.124 10.619,25.272C10.927,25.42 11.261,25.494 11.621,25.494C12.445,25.494 13.189,25.106 13.853,24.33L13.853,23.73L12.137,23.73L12.137,22.518L15.221,22.518L15.221,26.898L13.853,26.898L13.853,25.938Z" style="fill-rule:nonzero;"/>
            <path d="M18.197,27.018C17.893,27.018 17.609,26.968 17.345,26.868C17.081,26.768 16.853,26.628 16.661,26.448C16.469,26.268 16.319,26.058 16.211,25.818C16.103,25.578 16.049,25.314 16.049,25.026C16.049,24.73 16.115,24.456 16.247,24.204C16.379,23.952 16.563,23.738 16.799,23.562C17.035,23.386 17.317,23.248 17.645,23.148C17.973,23.048 18.333,22.998 18.725,22.998C19.005,22.998 19.279,23.022 19.547,23.07C19.815,23.118 20.053,23.186 20.261,23.274L20.261,22.914C20.261,22.498 20.143,22.178 19.907,21.954C19.671,21.73 19.321,21.618 18.857,21.618C18.521,21.618 18.193,21.678 17.873,21.798C17.553,21.918 17.225,22.094 16.889,22.326L16.397,21.306C17.205,20.77 18.077,20.502 19.013,20.502C19.917,20.502 20.619,20.724 21.119,21.168C21.619,21.612 21.869,22.254 21.869,23.094L21.869,25.05C21.869,25.218 21.899,25.338 21.959,25.41C22.019,25.482 22.117,25.522 22.253,25.53L22.253,26.898C21.981,26.954 21.745,26.982 21.545,26.982C21.241,26.982 21.007,26.914 20.843,26.778C20.679,26.642 20.577,26.462 20.537,26.238L20.501,25.89C20.221,26.258 19.881,26.538 19.481,26.73C19.081,26.922 18.653,27.018 18.197,27.018ZM18.653,25.842C18.925,25.842 19.183,25.794 19.427,25.698C19.671,25.602 19.861,25.474 19.997,25.314C20.173,25.178 20.261,25.026 20.261,24.858L20.261,24.138C20.069,24.066 19.861,24.008 19.637,23.964C19.413,23.92 19.197,23.898 18.989,23.898C18.573,23.898 18.233,23.992 17.969,24.18C17.705,24.368 17.573,24.606 17.573,24.894C17.573,25.166 17.677,25.392 17.885,25.572C18.093,25.752 18.349,25.842 18.653,25.842Z" style="fill-rule:nonzero;"/>
            <path d="M27.137,27.018C26.641,27.018 26.209,26.908 25.841,26.688C25.473,26.468 25.185,26.17 24.977,25.794L24.977,29.454L23.369,29.454L23.369,20.61L24.773,20.61L24.773,21.69C25.005,21.322 25.305,21.032 25.673,20.82C26.041,20.608 26.465,20.502 26.945,20.502C27.369,20.502 27.761,20.588 28.121,20.76C28.481,20.932 28.791,21.164 29.051,21.456C29.311,21.748 29.515,22.092 29.663,22.488C29.811,22.884 29.885,23.302 29.885,23.742C29.885,24.198 29.817,24.626 29.681,25.026C29.545,25.426 29.355,25.774 29.111,26.07C28.867,26.366 28.577,26.598 28.241,26.766C27.905,26.934 27.537,27.018 27.137,27.018ZM26.597,25.65C26.837,25.65 27.059,25.598 27.263,25.494C27.467,25.39 27.641,25.25 27.785,25.074C27.929,24.898 28.041,24.694 28.121,24.462C28.201,24.23 28.241,23.99 28.241,23.742C28.241,23.478 28.197,23.232 28.109,23.004C28.021,22.776 27.899,22.578 27.743,22.41C27.587,22.242 27.403,22.11 27.191,22.014C26.979,21.918 26.749,21.87 26.501,21.87C26.349,21.87 26.193,21.896 26.033,21.948C25.873,22 25.725,22.074 25.589,22.17C25.453,22.266 25.331,22.378 25.223,22.506C25.115,22.634 25.033,22.774 24.977,22.926L24.977,24.402C25.121,24.762 25.341,25.06 25.637,25.296C25.933,25.532 26.253,25.65 26.597,25.65Z" style="fill-rule:nonzero;"/>
            <path d="M33.353,27.018C32.825,27.018 32.309,26.934 31.805,26.766C31.301,26.598 30.869,26.358 30.509,26.046L31.109,25.038C31.493,25.31 31.867,25.516 32.231,25.656C32.595,25.796 32.957,25.866 33.317,25.866C33.637,25.866 33.889,25.806 34.073,25.686C34.257,25.566 34.349,25.394 34.349,25.17C34.349,24.946 34.241,24.782 34.025,24.678C33.809,24.574 33.457,24.454 32.969,24.318C32.561,24.206 32.213,24.098 31.925,23.994C31.637,23.89 31.405,23.772 31.229,23.64C31.053,23.508 30.925,23.356 30.845,23.184C30.765,23.012 30.725,22.806 30.725,22.566C30.725,22.246 30.787,21.958 30.911,21.702C31.035,21.446 31.209,21.228 31.433,21.048C31.657,20.868 31.919,20.73 32.219,20.634C32.519,20.538 32.845,20.49 33.197,20.49C33.669,20.49 34.111,20.558 34.523,20.694C34.935,20.83 35.313,21.05 35.657,21.354L35.009,22.326C34.689,22.086 34.379,21.91 34.079,21.798C33.779,21.686 33.481,21.63 33.185,21.63C32.913,21.63 32.685,21.686 32.501,21.798C32.317,21.91 32.225,22.09 32.225,22.338C32.225,22.45 32.247,22.542 32.291,22.614C32.335,22.686 32.405,22.75 32.501,22.806C32.597,22.862 32.723,22.916 32.879,22.968C33.035,23.02 33.229,23.074 33.461,23.13C33.893,23.242 34.263,23.354 34.571,23.466C34.879,23.578 35.131,23.706 35.327,23.85C35.523,23.994 35.667,24.16 35.759,24.348C35.851,24.536 35.897,24.762 35.897,25.026C35.897,25.642 35.669,26.128 35.213,26.484C34.757,26.84 34.137,27.018 33.353,27.018Z" style="fill-rule:nonzero;"/>
        </g>
        <g transform="matrix(1,0,0,1,15,730.641)">
            <path d="M39.778,54.228C39.352,54.241 38.973,54.34 38.643,54.523C38.313,54.706 38.078,54.968 37.938,55.308L37.938,58.508L36.838,58.508L36.838,53.278L37.858,53.278L37.858,54.448C38.038,54.088 38.273,53.8 38.563,53.583C38.853,53.366 39.165,53.248 39.498,53.228C39.565,53.228 39.62,53.228 39.663,53.228C39.707,53.228 39.745,53.231 39.778,53.238L39.778,54.228Z" style="fill-rule:nonzero;"/>
            <path d="M42.478,58.608C42.058,58.608 41.64,58.54 41.223,58.403C40.807,58.266 40.448,58.071 40.148,57.818L40.588,57.118C40.902,57.345 41.212,57.516 41.518,57.633C41.825,57.75 42.138,57.808 42.458,57.808C42.785,57.808 43.043,57.745 43.233,57.618C43.423,57.491 43.518,57.311 43.518,57.078C43.518,56.858 43.412,56.698 43.198,56.598C42.985,56.498 42.652,56.388 42.198,56.268C41.872,56.181 41.592,56.098 41.358,56.018C41.125,55.938 40.935,55.845 40.788,55.738C40.642,55.631 40.535,55.508 40.468,55.368C40.402,55.228 40.368,55.058 40.368,54.858C40.368,54.591 40.42,54.355 40.523,54.148C40.627,53.941 40.77,53.766 40.953,53.623C41.137,53.48 41.352,53.371 41.598,53.298C41.845,53.225 42.112,53.188 42.398,53.188C42.792,53.188 43.158,53.248 43.498,53.368C43.838,53.488 44.142,53.661 44.408,53.888L43.938,54.548C43.452,54.161 42.935,53.968 42.388,53.968C42.108,53.968 41.873,54.026 41.683,54.143C41.493,54.26 41.398,54.445 41.398,54.698C41.398,54.805 41.418,54.895 41.458,54.968C41.498,55.041 41.563,55.105 41.653,55.158C41.743,55.211 41.86,55.26 42.003,55.303C42.147,55.346 42.325,55.395 42.538,55.448C42.892,55.535 43.197,55.621 43.453,55.708C43.71,55.795 43.922,55.896 44.088,56.013C44.255,56.13 44.378,56.266 44.458,56.423C44.538,56.58 44.578,56.768 44.578,56.988C44.578,57.488 44.39,57.883 44.013,58.173C43.637,58.463 43.125,58.608 42.478,58.608Z" style="fill-rule:nonzero;"/>
            <path d="M48.448,58.238C48.308,58.305 48.115,58.38 47.868,58.463C47.622,58.546 47.358,58.588 47.078,58.588C46.905,58.588 46.742,58.565 46.588,58.518C46.435,58.471 46.3,58.401 46.183,58.308C46.067,58.215 45.975,58.093 45.908,57.943C45.842,57.793 45.808,57.611 45.808,57.398L45.808,54.128L45.118,54.128L45.118,53.278L45.808,53.278L45.808,51.558L46.908,51.558L46.908,53.278L48.048,53.278L48.048,54.128L46.908,54.128L46.908,57.048C46.922,57.235 46.98,57.37 47.083,57.453C47.187,57.536 47.315,57.578 47.468,57.578C47.622,57.578 47.768,57.551 47.908,57.498C48.048,57.445 48.152,57.401 48.218,57.368L48.448,58.238Z" style="fill-rule:nonzero;"/>
        </g>
    </g>
</svg>
