<?xml version="1.0" encoding="UTF-8" standalone="no"?>
<!DOCTYPE svg PUBLIC "-//W3C//DTD SVG 1.1//EN" "http://www.w3.org/Graphics/SVG/1.1/DTD/svg11.dtd">
<svg width="100%" height="100%" viewBox="0 0 120 380" version="1.1" xmlns="http://www.w3.org/2000/svg" xmlns:xlink="http://www.w3.org/1999/xlink" xml:space="preserve" xmlns:serif="http://www.serif.com/" style="fill-rule:evenodd;clip-rule:evenodd;stroke-linejoin:round;stroke-miterlimit:1.41421;">
    <g id="Layer-1" serif:id="Layer 1" transform="matrix(1,0,0,1,15,-742.52)">
        <g id="rect4068" transform="matrix(1.33333,0,0,1,-15,0.181716)">
            <rect x="0" y="742.52" width="90" height="380" style="fill:rgb(240,240,240);"/>
        </g>
        <g transform="matrix(1,0,0,1,-9.52717,784.406)">
            <path d="M30.377,93.412C30.237,93.479 30.044,93.554 29.797,93.637C29.551,93.72 29.287,93.762 29.007,93.762C28.834,93.762 28.671,93.739 28.517,93.692C28.364,93.645 28.229,93.575 28.112,93.482C27.996,93.389 27.904,93.267 27.837,93.117C27.771,92.967 27.737,92.785 27.737,92.572L27.737,89.302L27.047,89.302L27.047,88.452L27.737,88.452L27.737,86.732L28.837,86.732L28.837,88.452L29.977,88.452L29.977,89.302L28.837,89.302L28.837,92.222C28.851,92.409 28.909,92.544 29.012,92.627C29.116,92.71 29.244,92.752 29.397,92.752C29.551,92.752 29.697,92.725 29.837,92.672C29.977,92.619 30.081,92.575 30.147,92.542L30.377,93.412Z" style="fill-rule:nonzero;"/>
            <path d="M34.077,89.402C33.651,89.415 33.272,89.514 32.942,89.697C32.612,89.88 32.377,90.142 32.237,90.482L32.237,93.682L31.137,93.682L31.137,88.452L32.157,88.452L32.157,89.622C32.337,89.262 32.572,88.974 32.862,88.757C33.152,88.54 33.464,88.422 33.797,88.402C33.864,88.402 33.919,88.402 33.962,88.402C34.006,88.402 34.044,88.405 34.077,88.412L34.077,89.402Z" style="fill-rule:nonzero;"/>
            <path d="M34.877,93.682L34.877,88.452L35.977,88.452L35.977,93.682L34.877,93.682ZM34.877,87.592L34.877,86.382L35.977,86.382L35.977,87.592L34.877,87.592Z" style="fill-rule:nonzero;"/>
            <path d="M39.367,93.732C39.014,93.732 38.691,93.66 38.397,93.517C38.104,93.374 37.852,93.179 37.642,92.932C37.432,92.685 37.269,92.402 37.152,92.082C37.036,91.762 36.977,91.425 36.977,91.072C36.977,90.699 37.037,90.347 37.157,90.017C37.277,89.687 37.444,89.4 37.657,89.157C37.871,88.914 38.126,88.72 38.422,88.577C38.719,88.434 39.047,88.362 39.407,88.362C39.827,88.362 40.196,88.462 40.512,88.662C40.829,88.862 41.091,89.122 41.297,89.442L41.297,88.452L42.267,88.452L42.267,93.532C42.267,93.912 42.197,94.249 42.057,94.542C41.917,94.835 41.722,95.084 41.472,95.287C41.222,95.49 40.927,95.645 40.587,95.752C40.247,95.859 39.881,95.912 39.487,95.912C38.907,95.912 38.426,95.814 38.042,95.617C37.659,95.42 37.337,95.145 37.077,94.792L37.697,94.212C37.897,94.492 38.156,94.705 38.472,94.852C38.789,94.999 39.127,95.072 39.487,95.072C39.714,95.072 39.929,95.042 40.132,94.982C40.336,94.922 40.514,94.829 40.667,94.702C40.821,94.575 40.942,94.415 41.032,94.222C41.122,94.029 41.167,93.799 41.167,93.532L41.167,92.732C40.981,93.052 40.724,93.299 40.397,93.472C40.071,93.645 39.727,93.732 39.367,93.732ZM39.727,92.842C39.894,92.842 40.054,92.814 40.207,92.757C40.361,92.7 40.502,92.624 40.632,92.527C40.762,92.43 40.874,92.32 40.967,92.197C41.061,92.074 41.127,91.942 41.167,91.802L41.167,90.432C41.101,90.265 41.014,90.114 40.907,89.977C40.801,89.84 40.679,89.722 40.542,89.622C40.406,89.522 40.261,89.444 40.107,89.387C39.954,89.33 39.801,89.302 39.647,89.302C39.407,89.302 39.192,89.354 39.002,89.457C38.812,89.56 38.651,89.697 38.517,89.867C38.384,90.037 38.281,90.229 38.207,90.442C38.134,90.655 38.097,90.875 38.097,91.102C38.097,91.342 38.139,91.567 38.222,91.777C38.306,91.987 38.421,92.17 38.567,92.327C38.714,92.484 38.886,92.609 39.082,92.702C39.279,92.795 39.494,92.842 39.727,92.842Z" style="fill-rule:nonzero;"/>
        </g>
        <g transform="matrix(1,0,0,1,-3.23387,769.502)">
            <path d="M24.24,76.72C24.24,76.353 24.303,76.006 24.43,75.68C24.556,75.353 24.738,75.066 24.975,74.82C25.211,74.573 25.496,74.378 25.83,74.235C26.163,74.091 26.536,74.02 26.95,74.02C27.49,74.02 27.955,74.138 28.345,74.375C28.735,74.611 29.026,74.926 29.22,75.32L28.15,75.66C28.023,75.44 27.853,75.268 27.64,75.145C27.426,75.021 27.19,74.96 26.93,74.96C26.71,74.96 26.505,75.003 26.315,75.09C26.125,75.176 25.96,75.298 25.82,75.455C25.68,75.611 25.57,75.796 25.49,76.01C25.41,76.223 25.37,76.46 25.37,76.72C25.37,76.973 25.411,77.208 25.495,77.425C25.578,77.641 25.691,77.83 25.835,77.99C25.978,78.15 26.145,78.275 26.335,78.365C26.525,78.455 26.726,78.5 26.94,78.5C27.073,78.5 27.206,78.481 27.34,78.445C27.473,78.408 27.595,78.356 27.705,78.29C27.815,78.223 27.911,78.146 27.995,78.06C28.078,77.973 28.14,77.88 28.18,77.78L29.26,78.1C29.086,78.493 28.796,78.815 28.39,79.065C27.983,79.315 27.503,79.44 26.95,79.44C26.543,79.44 26.173,79.366 25.84,79.22C25.506,79.073 25.221,78.875 24.985,78.625C24.748,78.375 24.565,78.086 24.435,77.76C24.305,77.433 24.24,77.086 24.24,76.72Z" style="fill-rule:nonzero;"/>
            <path d="M31.57,79.34L29.57,74.11L30.7,74.11L32.2,78.41L33.71,74.11L34.75,74.11L32.75,79.34L31.57,79.34Z" style="fill-rule:nonzero;"/>
        </g>
        <g transform="matrix(1,0,0,1,-9.52717,849.406)">
            <path d="M30.377,93.412C30.237,93.479 30.044,93.554 29.797,93.637C29.551,93.72 29.287,93.762 29.007,93.762C28.834,93.762 28.671,93.739 28.517,93.692C28.364,93.645 28.229,93.575 28.112,93.482C27.996,93.389 27.904,93.267 27.837,93.117C27.771,92.967 27.737,92.785 27.737,92.572L27.737,89.302L27.047,89.302L27.047,88.452L27.737,88.452L27.737,86.732L28.837,86.732L28.837,88.452L29.977,88.452L29.977,89.302L28.837,89.302L28.837,92.222C28.851,92.409 28.909,92.544 29.012,92.627C29.116,92.71 29.244,92.752 29.397,92.752C29.551,92.752 29.697,92.725 29.837,92.672C29.977,92.619 30.081,92.575 30.147,92.542L30.377,93.412Z" style="fill-rule:nonzero;"/>
            <path d="M34.077,89.402C33.651,89.415 33.272,89.514 32.942,89.697C32.612,89.88 32.377,90.142 32.237,90.482L32.237,93.682L31.137,93.682L31.137,88.452L32.157,88.452L32.157,89.622C32.337,89.262 32.572,88.974 32.862,88.757C33.152,88.54 33.464,88.422 33.797,88.402C33.864,88.402 33.919,88.402 33.962,88.402C34.006,88.402 34.044,88.405 34.077,88.412L34.077,89.402Z" style="fill-rule:nonzero;"/>
            <path d="M34.877,93.682L34.877,88.452L35.977,88.452L35.977,93.682L34.877,93.682ZM34.877,87.592L34.877,86.382L35.977,86.382L35.977,87.592L34.877,87.592Z" style="fill-rule:nonzero;"/>
            <path d="M39.367,93.732C39.014,93.732 38.691,93.66 38.397,93.517C38.104,93.374 37.852,93.179 37.642,92.932C37.432,92.685 37.269,92.402 37.152,92.082C37.036,91.762 36.977,91.425 36.977,91.072C36.977,90.699 37.037,90.347 37.157,90.017C37.277,89.687 37.444,89.4 37.657,89.157C37.871,88.914 38.126,88.72 38.422,88.577C38.719,88.434 39.047,88.362 39.407,88.362C39.827,88.362 40.196,88.462 40.512,88.662C40.829,88.862 41.091,89.122 41.297,89.442L41.297,88.452L42.267,88.452L42.267,93.532C42.267,93.912 42.197,94.249 42.057,94.542C41.917,94.835 41.722,95.084 41.472,95.287C41.222,95.49 40.927,95.645 40.587,95.752C40.247,95.859 39.881,95.912 39.487,95.912C38.907,95.912 38.426,95.814 38.042,95.617C37.659,95.42 37.337,95.145 37.077,94.792L37.697,94.212C37.897,94.492 38.156,94.705 38.472,94.852C38.789,94.999 39.127,95.072 39.487,95.072C39.714,95.072 39.929,95.042 40.132,94.982C40.336,94.922 40.514,94.829 40.667,94.702C40.821,94.575 40.942,94.415 41.032,94.222C41.122,94.029 41.167,93.799 41.167,93.532L41.167,92.732C40.981,93.052 40.724,93.299 40.397,93.472C40.071,93.645 39.727,93.732 39.367,93.732ZM39.727,92.842C39.894,92.842 40.054,92.814 40.207,92.757C40.361,92.7 40.502,92.624 40.632,92.527C40.762,92.43 40.874,92.32 40.967,92.197C41.061,92.074 41.127,91.942 41.167,91.802L41.167,90.432C41.101,90.265 41.014,90.114 40.907,89.977C40.801,89.84 40.679,89.722 40.542,89.622C40.406,89.522 40.261,89.444 40.107,89.387C39.954,89.33 39.801,89.302 39.647,89.302C39.407,89.302 39.192,89.354 39.002,89.457C38.812,89.56 38.651,89.697 38.517,89.867C38.384,90.037 38.281,90.229 38.207,90.442C38.134,90.655 38.097,90.875 38.097,91.102C38.097,91.342 38.139,91.567 38.222,91.777C38.306,91.987 38.421,92.17 38.567,92.327C38.714,92.484 38.886,92.609 39.082,92.702C39.279,92.795 39.494,92.842 39.727,92.842Z" style="fill-rule:nonzero;"/>
        </g>
        <g transform="matrix(1,0,0,1,-3.23387,834.502)">
            <path d="M24.24,76.72C24.24,76.353 24.303,76.006 24.43,75.68C24.556,75.353 24.738,75.066 24.975,74.82C25.211,74.573 25.496,74.378 25.83,74.235C26.163,74.091 26.536,74.02 26.95,74.02C27.49,74.02 27.955,74.138 28.345,74.375C28.735,74.611 29.026,74.926 29.22,75.32L28.15,75.66C28.023,75.44 27.853,75.268 27.64,75.145C27.426,75.021 27.19,74.96 26.93,74.96C26.71,74.96 26.505,75.003 26.315,75.09C26.125,75.176 25.96,75.298 25.82,75.455C25.68,75.611 25.57,75.796 25.49,76.01C25.41,76.223 25.37,76.46 25.37,76.72C25.37,76.973 25.411,77.208 25.495,77.425C25.578,77.641 25.691,77.83 25.835,77.99C25.978,78.15 26.145,78.275 26.335,78.365C26.525,78.455 26.726,78.5 26.94,78.5C27.073,78.5 27.206,78.481 27.34,78.445C27.473,78.408 27.595,78.356 27.705,78.29C27.815,78.223 27.911,78.146 27.995,78.06C28.078,77.973 28.14,77.88 28.18,77.78L29.26,78.1C29.086,78.493 28.796,78.815 28.39,79.065C27.983,79.315 27.503,79.44 26.95,79.44C26.543,79.44 26.173,79.366 25.84,79.22C25.506,79.073 25.221,78.875 24.985,78.625C24.748,78.375 24.565,78.086 24.435,77.76C24.305,77.433 24.24,77.086 24.24,76.72Z" style="fill-rule:nonzero;"/>
            <path d="M31.57,79.34L29.57,74.11L30.7,74.11L32.2,78.41L33.71,74.11L34.75,74.11L32.75,79.34L31.57,79.34Z" style="fill-rule:nonzero;"/>
        </g>
        <g transform="matrix(1,0,0,1,-9.52717,914.406)">
            <path d="M30.377,93.412C30.237,93.479 30.044,93.554 29.797,93.637C29.551,93.72 29.287,93.762 29.007,93.762C28.834,93.762 28.671,93.739 28.517,93.692C28.364,93.645 28.229,93.575 28.112,93.482C27.996,93.389 27.904,93.267 27.837,93.117C27.771,92.967 27.737,92.785 27.737,92.572L27.737,89.302L27.047,89.302L27.047,88.452L27.737,88.452L27.737,86.732L28.837,86.732L28.837,88.452L29.977,88.452L29.977,89.302L28.837,89.302L28.837,92.222C28.851,92.409 28.909,92.544 29.012,92.627C29.116,92.71 29.244,92.752 29.397,92.752C29.551,92.752 29.697,92.725 29.837,92.672C29.977,92.619 30.081,92.575 30.147,92.542L30.377,93.412Z" style="fill-rule:nonzero;"/>
            <path d="M34.077,89.402C33.651,89.415 33.272,89.514 32.942,89.697C32.612,89.88 32.377,90.142 32.237,90.482L32.237,93.682L31.137,93.682L31.137,88.452L32.157,88.452L32.157,89.622C32.337,89.262 32.572,88.974 32.862,88.757C33.152,88.54 33.464,88.422 33.797,88.402C33.864,88.402 33.919,88.402 33.962,88.402C34.006,88.402 34.044,88.405 34.077,88.412L34.077,89.402Z" style="fill-rule:nonzero;"/>
            <path d="M34.877,93.682L34.877,88.452L35.977,88.452L35.977,93.682L34.877,93.682ZM34.877,87.592L34.877,86.382L35.977,86.382L35.977,87.592L34.877,87.592Z" style="fill-rule:nonzero;"/>
            <path d="M39.367,93.732C39.014,93.732 38.691,93.66 38.397,93.517C38.104,93.374 37.852,93.179 37.642,92.932C37.432,92.685 37.269,92.402 37.152,92.082C37.036,91.762 36.977,91.425 36.977,91.072C36.977,90.699 37.037,90.347 37.157,90.017C37.277,89.687 37.444,89.4 37.657,89.157C37.871,88.914 38.126,88.72 38.422,88.577C38.719,88.434 39.047,88.362 39.407,88.362C39.827,88.362 40.196,88.462 40.512,88.662C40.829,88.862 41.091,89.122 41.297,89.442L41.297,88.452L42.267,88.452L42.267,93.532C42.267,93.912 42.197,94.249 42.057,94.542C41.917,94.835 41.722,95.084 41.472,95.287C41.222,95.49 40.927,95.645 40.587,95.752C40.247,95.859 39.881,95.912 39.487,95.912C38.907,95.912 38.426,95.814 38.042,95.617C37.659,95.42 37.337,95.145 37.077,94.792L37.697,94.212C37.897,94.492 38.156,94.705 38.472,94.852C38.789,94.999 39.127,95.072 39.487,95.072C39.714,95.072 39.929,95.042 40.132,94.982C40.336,94.922 40.514,94.829 40.667,94.702C40.821,94.575 40.942,94.415 41.032,94.222C41.122,94.029 41.167,93.799 41.167,93.532L41.167,92.732C40.981,93.052 40.724,93.299 40.397,93.472C40.071,93.645 39.727,93.732 39.367,93.732ZM39.727,92.842C39.894,92.842 40.054,92.814 40.207,92.757C40.361,92.7 40.502,92.624 40.632,92.527C40.762,92.43 40.874,92.32 40.967,92.197C41.061,92.074 41.127,91.942 41.167,91.802L41.167,90.432C41.101,90.265 41.014,90.114 40.907,89.977C40.801,89.84 40.679,89.722 40.542,89.622C40.406,89.522 40.261,89.444 40.107,89.387C39.954,89.33 39.801,89.302 39.647,89.302C39.407,89.302 39.192,89.354 39.002,89.457C38.812,89.56 38.651,89.697 38.517,89.867C38.384,90.037 38.281,90.229 38.207,90.442C38.134,90.655 38.097,90.875 38.097,91.102C38.097,91.342 38.139,91.567 38.222,91.777C38.306,91.987 38.421,92.17 38.567,92.327C38.714,92.484 38.886,92.609 39.082,92.702C39.279,92.795 39.494,92.842 39.727,92.842Z" style="fill-rule:nonzero;"/>
        </g>
        <g transform="matrix(1,0,0,1,-3.23387,899.502)">
            <path d="M24.24,76.72C24.24,76.353 24.303,76.006 24.43,75.68C24.556,75.353 24.738,75.066 24.975,74.82C25.211,74.573 25.496,74.378 25.83,74.235C26.163,74.091 26.536,74.02 26.95,74.02C27.49,74.02 27.955,74.138 28.345,74.375C28.735,74.611 29.026,74.926 29.22,75.32L28.15,75.66C28.023,75.44 27.853,75.268 27.64,75.145C27.426,75.021 27.19,74.96 26.93,74.96C26.71,74.96 26.505,75.003 26.315,75.09C26.125,75.176 25.96,75.298 25.82,75.455C25.68,75.611 25.57,75.796 25.49,76.01C25.41,76.223 25.37,76.46 25.37,76.72C25.37,76.973 25.411,77.208 25.495,77.425C25.578,77.641 25.691,77.83 25.835,77.99C25.978,78.15 26.145,78.275 26.335,78.365C26.525,78.455 26.726,78.5 26.94,78.5C27.073,78.5 27.206,78.481 27.34,78.445C27.473,78.408 27.595,78.356 27.705,78.29C27.815,78.223 27.911,78.146 27.995,78.06C28.078,77.973 28.14,77.88 28.18,77.78L29.26,78.1C29.086,78.493 28.796,78.815 28.39,79.065C27.983,79.315 27.503,79.44 26.95,79.44C26.543,79.44 26.173,79.366 25.84,79.22C25.506,79.073 25.221,78.875 24.985,78.625C24.748,78.375 24.565,78.086 24.435,77.76C24.305,77.433 24.24,77.086 24.24,76.72Z" style="fill-rule:nonzero;"/>
            <path d="M31.57,79.34L29.57,74.11L30.7,74.11L32.2,78.41L33.71,74.11L34.75,74.11L32.75,79.34L31.57,79.34Z" style="fill-rule:nonzero;"/>
        </g>
        <g transform="matrix(1,0,0,1,-9.52717,979.406)">
            <path d="M30.377,93.412C30.237,93.479 30.044,93.554 29.797,93.637C29.551,93.72 29.287,93.762 29.007,93.762C28.834,93.762 28.671,93.739 28.517,93.692C28.364,93.645 28.229,93.575 28.112,93.482C27.996,93.389 27.904,93.267 27.837,93.117C27.771,92.967 27.737,92.785 27.737,92.572L27.737,89.302L27.047,89.302L27.047,88.452L27.737,88.452L27.737,86.732L28.837,86.732L28.837,88.452L29.977,88.452L29.977,89.302L28.837,89.302L28.837,92.222C28.851,92.409 28.909,92.544 29.012,92.627C29.116,92.71 29.244,92.752 29.397,92.752C29.551,92.752 29.697,92.725 29.837,92.672C29.977,92.619 30.081,92.575 30.147,92.542L30.377,93.412Z" style="fill-rule:nonzero;"/>
            <path d="M34.077,89.402C33.651,89.415 33.272,89.514 32.942,89.697C32.612,89.88 32.377,90.142 32.237,90.482L32.237,93.682L31.137,93.682L31.137,88.452L32.157,88.452L32.157,89.622C32.337,89.262 32.572,88.974 32.862,88.757C33.152,88.54 33.464,88.422 33.797,88.402C33.864,88.402 33.919,88.402 33.962,88.402C34.006,88.402 34.044,88.405 34.077,88.412L34.077,89.402Z" style="fill-rule:nonzero;"/>
            <path d="M34.877,93.682L34.877,88.452L35.977,88.452L35.977,93.682L34.877,93.682ZM34.877,87.592L34.877,86.382L35.977,86.382L35.977,87.592L34.877,87.592Z" style="fill-rule:nonzero;"/>
            <path d="M39.367,93.732C39.014,93.732 38.691,93.66 38.397,93.517C38.104,93.374 37.852,93.179 37.642,92.932C37.432,92.685 37.269,92.402 37.152,92.082C37.036,91.762 36.977,91.425 36.977,91.072C36.977,90.699 37.037,90.347 37.157,90.017C37.277,89.687 37.444,89.4 37.657,89.157C37.871,88.914 38.126,88.72 38.422,88.577C38.719,88.434 39.047,88.362 39.407,88.362C39.827,88.362 40.196,88.462 40.512,88.662C40.829,88.862 41.091,89.122 41.297,89.442L41.297,88.452L42.267,88.452L42.267,93.532C42.267,93.912 42.197,94.249 42.057,94.542C41.917,94.835 41.722,95.084 41.472,95.287C41.222,95.49 40.927,95.645 40.587,95.752C40.247,95.859 39.881,95.912 39.487,95.912C38.907,95.912 38.426,95.814 38.042,95.617C37.659,95.42 37.337,95.145 37.077,94.792L37.697,94.212C37.897,94.492 38.156,94.705 38.472,94.852C38.789,94.999 39.127,95.072 39.487,95.072C39.714,95.072 39.929,95.042 40.132,94.982C40.336,94.922 40.514,94.829 40.667,94.702C40.821,94.575 40.942,94.415 41.032,94.222C41.122,94.029 41.167,93.799 41.167,93.532L41.167,92.732C40.981,93.052 40.724,93.299 40.397,93.472C40.071,93.645 39.727,93.732 39.367,93.732ZM39.727,92.842C39.894,92.842 40.054,92.814 40.207,92.757C40.361,92.7 40.502,92.624 40.632,92.527C40.762,92.43 40.874,92.32 40.967,92.197C41.061,92.074 41.127,91.942 41.167,91.802L41.167,90.432C41.101,90.265 41.014,90.114 40.907,89.977C40.801,89.84 40.679,89.722 40.542,89.622C40.406,89.522 40.261,89.444 40.107,89.387C39.954,89.33 39.801,89.302 39.647,89.302C39.407,89.302 39.192,89.354 39.002,89.457C38.812,89.56 38.651,89.697 38.517,89.867C38.384,90.037 38.281,90.229 38.207,90.442C38.134,90.655 38.097,90.875 38.097,91.102C38.097,91.342 38.139,91.567 38.222,91.777C38.306,91.987 38.421,92.17 38.567,92.327C38.714,92.484 38.886,92.609 39.082,92.702C39.279,92.795 39.494,92.842 39.727,92.842Z" style="fill-rule:nonzero;"/>
        </g>
        <g transform="matrix(1,0,0,1,-3.23387,964.502)">
            <path d="M24.24,76.72C24.24,76.353 24.303,76.006 24.43,75.68C24.556,75.353 24.738,75.066 24.975,74.82C25.211,74.573 25.496,74.378 25.83,74.235C26.163,74.091 26.536,74.02 26.95,74.02C27.49,74.02 27.955,74.138 28.345,74.375C28.735,74.611 29.026,74.926 29.22,75.32L28.15,75.66C28.023,75.44 27.853,75.268 27.64,75.145C27.426,75.021 27.19,74.96 26.93,74.96C26.71,74.96 26.505,75.003 26.315,75.09C26.125,75.176 25.96,75.298 25.82,75.455C25.68,75.611 25.57,75.796 25.49,76.01C25.41,76.223 25.37,76.46 25.37,76.72C25.37,76.973 25.411,77.208 25.495,77.425C25.578,77.641 25.691,77.83 25.835,77.99C25.978,78.15 26.145,78.275 26.335,78.365C26.525,78.455 26.726,78.5 26.94,78.5C27.073,78.5 27.206,78.481 27.34,78.445C27.473,78.408 27.595,78.356 27.705,78.29C27.815,78.223 27.911,78.146 27.995,78.06C28.078,77.973 28.14,77.88 28.18,77.78L29.26,78.1C29.086,78.493 28.796,78.815 28.39,79.065C27.983,79.315 27.503,79.44 26.95,79.44C26.543,79.44 26.173,79.366 25.84,79.22C25.506,79.073 25.221,78.875 24.985,78.625C24.748,78.375 24.565,78.086 24.435,77.76C24.305,77.433 24.24,77.086 24.24,76.72Z" style="fill-rule:nonzero;"/>
            <path d="M31.57,79.34L29.57,74.11L30.7,74.11L32.2,78.41L33.71,74.11L34.75,74.11L32.75,79.34L31.57,79.34Z" style="fill-rule:nonzero;"/>
        </g>
        <g transform="matrix(1,0,0,1,-12.0417,763.571)">
            <path d="M38.695,64.556C38.555,64.623 38.361,64.698 38.115,64.781C37.868,64.865 37.605,64.906 37.325,64.906C37.151,64.906 36.988,64.883 36.835,64.836C36.681,64.79 36.546,64.72 36.43,64.626C36.313,64.533 36.221,64.411 36.155,64.261C36.088,64.111 36.055,63.93 36.055,63.716L36.055,60.446L35.365,60.446L35.365,59.596L36.055,59.596L36.055,57.876L37.155,57.876L37.155,59.596L38.295,59.596L38.295,60.446L37.155,60.446L37.155,63.366C37.168,63.553 37.226,63.688 37.33,63.771C37.433,63.855 37.561,63.896 37.715,63.896C37.868,63.896 38.015,63.87 38.155,63.816C38.295,63.763 38.398,63.72 38.465,63.686L38.695,64.556Z" style="fill-rule:nonzero;"/>
            <path d="M42.395,60.546C41.968,60.56 41.59,60.658 41.26,60.841C40.93,61.025 40.695,61.286 40.555,61.626L40.555,64.826L39.455,64.826L39.455,59.596L40.475,59.596L40.475,60.766C40.655,60.406 40.89,60.118 41.18,59.901C41.47,59.685 41.781,59.566 42.115,59.546C42.181,59.546 42.236,59.546 42.28,59.546C42.323,59.546 42.361,59.55 42.395,59.556L42.395,60.546Z" style="fill-rule:nonzero;"/>
            <path d="M44.515,64.926C44.261,64.926 44.026,64.885 43.81,64.801C43.593,64.718 43.406,64.603 43.25,64.456C43.093,64.31 42.97,64.136 42.88,63.936C42.79,63.736 42.745,63.52 42.745,63.286C42.745,63.04 42.798,62.816 42.905,62.616C43.011,62.416 43.163,62.243 43.36,62.096C43.556,61.95 43.79,61.836 44.06,61.756C44.33,61.676 44.628,61.636 44.955,61.636C45.201,61.636 45.445,61.658 45.685,61.701C45.925,61.745 46.141,61.803 46.335,61.876L46.335,61.516C46.335,61.13 46.225,60.828 46.005,60.611C45.785,60.395 45.468,60.286 45.055,60.286C44.775,60.286 44.5,60.338 44.23,60.441C43.96,60.545 43.681,60.693 43.395,60.886L43.055,60.186C43.728,59.733 44.428,59.506 45.155,59.506C45.875,59.506 46.435,59.69 46.835,60.056C47.235,60.423 47.435,60.95 47.435,61.636L47.435,63.526C47.435,63.76 47.531,63.88 47.725,63.886L47.725,64.826C47.618,64.846 47.526,64.86 47.45,64.866C47.373,64.873 47.298,64.876 47.225,64.876C47.011,64.876 46.846,64.823 46.73,64.716C46.613,64.61 46.541,64.473 46.515,64.306L46.485,63.976C46.251,64.283 45.963,64.518 45.62,64.681C45.276,64.845 44.908,64.926 44.515,64.926ZM44.815,64.116C45.081,64.116 45.333,64.068 45.57,63.971C45.806,63.875 45.991,63.74 46.125,63.566C46.265,63.446 46.335,63.32 46.335,63.186L46.335,62.496C46.148,62.423 45.95,62.366 45.74,62.326C45.53,62.286 45.325,62.266 45.125,62.266C44.731,62.266 44.41,62.351 44.16,62.521C43.91,62.691 43.785,62.916 43.785,63.196C43.785,63.456 43.881,63.675 44.075,63.851C44.268,64.028 44.515,64.116 44.815,64.116Z" style="fill-rule:nonzero;"/>
            <path d="M53.455,64.826L52.355,64.826L52.355,61.896C52.355,61.403 52.276,61.045 52.12,60.821C51.963,60.598 51.731,60.486 51.425,60.486C51.265,60.486 51.105,60.516 50.945,60.576C50.785,60.636 50.635,60.721 50.495,60.831C50.355,60.941 50.23,61.071 50.12,61.221C50.01,61.371 49.925,61.536 49.865,61.716L49.865,64.826L48.765,64.826L48.765,59.596L49.765,59.596L49.765,60.646C49.965,60.293 50.255,60.015 50.635,59.811C51.015,59.608 51.435,59.506 51.895,59.506C52.208,59.506 52.465,59.563 52.665,59.676C52.865,59.79 53.023,59.945 53.14,60.141C53.256,60.338 53.338,60.565 53.385,60.821C53.431,61.078 53.455,61.35 53.455,61.636L53.455,64.826Z" style="fill-rule:nonzero;"/>
            <path d="M56.635,64.926C56.215,64.926 55.796,64.858 55.38,64.721C54.963,64.585 54.605,64.39 54.305,64.136L54.745,63.436C55.058,63.663 55.368,63.835 55.675,63.951C55.981,64.068 56.295,64.126 56.615,64.126C56.941,64.126 57.2,64.063 57.39,63.936C57.58,63.81 57.675,63.63 57.675,63.396C57.675,63.176 57.568,63.016 57.355,62.916C57.141,62.816 56.808,62.706 56.355,62.586C56.028,62.5 55.748,62.416 55.515,62.336C55.281,62.256 55.091,62.163 54.945,62.056C54.798,61.95 54.691,61.826 54.625,61.686C54.558,61.546 54.525,61.376 54.525,61.176C54.525,60.91 54.576,60.673 54.68,60.466C54.783,60.26 54.926,60.085 55.11,59.941C55.293,59.798 55.508,59.69 55.755,59.616C56.001,59.543 56.268,59.506 56.555,59.506C56.948,59.506 57.315,59.566 57.655,59.686C57.995,59.806 58.298,59.98 58.565,60.206L58.095,60.866C57.608,60.48 57.091,60.286 56.545,60.286C56.265,60.286 56.03,60.345 55.84,60.461C55.65,60.578 55.555,60.763 55.555,61.016C55.555,61.123 55.575,61.213 55.615,61.286C55.655,61.36 55.72,61.423 55.81,61.476C55.9,61.53 56.016,61.578 56.16,61.621C56.303,61.665 56.481,61.713 56.695,61.766C57.048,61.853 57.353,61.94 57.61,62.026C57.866,62.113 58.078,62.215 58.245,62.331C58.411,62.448 58.535,62.585 58.615,62.741C58.695,62.898 58.735,63.086 58.735,63.306C58.735,63.806 58.546,64.201 58.17,64.491C57.793,64.781 57.281,64.926 56.635,64.926Z" style="fill-rule:nonzero;"/>
            <path d="M62.665,64.926C62.245,64.926 61.875,64.826 61.555,64.626C61.235,64.426 60.981,64.166 60.795,63.846L60.795,66.956L59.695,66.956L59.695,59.596L60.665,59.596L60.665,60.536C60.865,60.223 61.123,59.973 61.44,59.786C61.756,59.6 62.115,59.506 62.515,59.506C62.875,59.506 63.205,59.58 63.505,59.726C63.805,59.873 64.065,60.07 64.285,60.316C64.505,60.563 64.676,60.85 64.8,61.176C64.923,61.503 64.985,61.846 64.985,62.206C64.985,62.586 64.928,62.941 64.815,63.271C64.701,63.601 64.541,63.888 64.335,64.131C64.128,64.375 63.883,64.568 63.6,64.711C63.316,64.855 63.005,64.926 62.665,64.926ZM62.305,63.986C62.538,63.986 62.75,63.936 62.94,63.836C63.13,63.736 63.293,63.603 63.43,63.436C63.566,63.27 63.671,63.08 63.745,62.866C63.818,62.653 63.855,62.433 63.855,62.206C63.855,61.966 63.813,61.74 63.73,61.526C63.646,61.313 63.533,61.126 63.39,60.966C63.246,60.806 63.075,60.68 62.875,60.586C62.675,60.493 62.458,60.446 62.225,60.446C62.085,60.446 61.938,60.473 61.785,60.526C61.631,60.58 61.488,60.653 61.355,60.746C61.221,60.84 61.105,60.948 61.005,61.071C60.905,61.195 60.835,61.33 60.795,61.476L60.795,62.846C60.861,63.006 60.948,63.156 61.055,63.296C61.161,63.436 61.28,63.556 61.41,63.656C61.54,63.756 61.681,63.836 61.835,63.896C61.988,63.956 62.145,63.986 62.305,63.986Z" style="fill-rule:nonzero;"/>
            <path d="M68.325,64.926C67.911,64.926 67.54,64.853 67.21,64.706C66.88,64.56 66.598,64.363 66.365,64.116C66.131,63.87 65.951,63.581 65.825,63.251C65.698,62.921 65.635,62.576 65.635,62.216C65.635,61.856 65.698,61.511 65.825,61.181C65.951,60.851 66.133,60.563 66.37,60.316C66.606,60.07 66.89,59.873 67.22,59.726C67.55,59.58 67.918,59.506 68.325,59.506C68.731,59.506 69.1,59.58 69.43,59.726C69.76,59.873 70.043,60.07 70.28,60.316C70.516,60.563 70.698,60.851 70.825,61.181C70.951,61.511 71.015,61.856 71.015,62.216C71.015,62.576 70.951,62.921 70.825,63.251C70.698,63.581 70.516,63.87 70.28,64.116C70.043,64.363 69.76,64.56 69.43,64.706C69.1,64.853 68.731,64.926 68.325,64.926ZM66.765,62.226C66.765,62.48 66.805,62.713 66.885,62.926C66.965,63.14 67.075,63.325 67.215,63.481C67.355,63.638 67.52,63.761 67.71,63.851C67.9,63.941 68.105,63.986 68.325,63.986C68.545,63.986 68.75,63.941 68.94,63.851C69.13,63.761 69.295,63.636 69.435,63.476C69.575,63.316 69.685,63.13 69.765,62.916C69.845,62.703 69.885,62.47 69.885,62.216C69.885,61.97 69.845,61.738 69.765,61.521C69.685,61.305 69.575,61.116 69.435,60.956C69.295,60.796 69.13,60.671 68.94,60.581C68.75,60.491 68.545,60.446 68.325,60.446C68.111,60.446 67.91,60.493 67.72,60.586C67.53,60.68 67.365,60.806 67.225,60.966C67.085,61.126 66.973,61.315 66.89,61.531C66.806,61.748 66.765,61.98 66.765,62.226Z" style="fill-rule:nonzero;"/>
            <path d="M73.895,64.926C73.475,64.926 73.056,64.858 72.64,64.721C72.223,64.585 71.865,64.39 71.565,64.136L72.005,63.436C72.318,63.663 72.628,63.835 72.935,63.951C73.241,64.068 73.555,64.126 73.875,64.126C74.201,64.126 74.46,64.063 74.65,63.936C74.84,63.81 74.935,63.63 74.935,63.396C74.935,63.176 74.828,63.016 74.615,62.916C74.401,62.816 74.068,62.706 73.615,62.586C73.288,62.5 73.008,62.416 72.775,62.336C72.541,62.256 72.351,62.163 72.205,62.056C72.058,61.95 71.951,61.826 71.885,61.686C71.818,61.546 71.785,61.376 71.785,61.176C71.785,60.91 71.836,60.673 71.94,60.466C72.043,60.26 72.186,60.085 72.37,59.941C72.553,59.798 72.768,59.69 73.015,59.616C73.261,59.543 73.528,59.506 73.815,59.506C74.208,59.506 74.575,59.566 74.915,59.686C75.255,59.806 75.558,59.98 75.825,60.206L75.355,60.866C74.868,60.48 74.351,60.286 73.805,60.286C73.525,60.286 73.29,60.345 73.1,60.461C72.91,60.578 72.815,60.763 72.815,61.016C72.815,61.123 72.835,61.213 72.875,61.286C72.915,61.36 72.98,61.423 73.07,61.476C73.16,61.53 73.276,61.578 73.42,61.621C73.563,61.665 73.741,61.713 73.955,61.766C74.308,61.853 74.613,61.94 74.87,62.026C75.126,62.113 75.338,62.215 75.505,62.331C75.671,62.448 75.795,62.585 75.875,62.741C75.955,62.898 75.995,63.086 75.995,63.306C75.995,63.806 75.806,64.201 75.43,64.491C75.053,64.781 74.541,64.926 73.895,64.926Z" style="fill-rule:nonzero;"/>
            <path d="M79.325,64.926C78.918,64.926 78.548,64.855 78.215,64.711C77.881,64.568 77.596,64.373 77.36,64.126C77.123,63.88 76.94,63.593 76.81,63.266C76.68,62.94 76.615,62.593 76.615,62.226C76.615,61.86 76.68,61.511 76.81,61.181C76.94,60.851 77.123,60.561 77.36,60.311C77.596,60.061 77.881,59.865 78.215,59.721C78.548,59.578 78.921,59.506 79.335,59.506C79.741,59.506 80.11,59.58 80.44,59.726C80.77,59.873 81.051,60.068 81.285,60.311C81.518,60.555 81.696,60.838 81.82,61.161C81.943,61.485 82.005,61.823 82.005,62.176C82.005,62.256 82.001,62.331 81.995,62.401C81.988,62.471 81.981,62.53 81.975,62.576L77.785,62.576C77.805,62.81 77.86,63.02 77.95,63.206C78.04,63.393 78.156,63.555 78.3,63.691C78.443,63.828 78.606,63.933 78.79,64.006C78.973,64.08 79.165,64.116 79.365,64.116C79.511,64.116 79.656,64.098 79.8,64.061C79.943,64.025 80.075,63.971 80.195,63.901C80.315,63.831 80.421,63.746 80.515,63.646C80.608,63.546 80.681,63.436 80.735,63.316L81.675,63.586C81.495,63.98 81.196,64.301 80.78,64.551C80.363,64.801 79.878,64.926 79.325,64.926ZM80.915,61.816C80.895,61.596 80.84,61.393 80.75,61.206C80.66,61.02 80.545,60.861 80.405,60.731C80.265,60.601 80.101,60.5 79.915,60.426C79.728,60.353 79.531,60.316 79.325,60.316C79.118,60.316 78.923,60.353 78.74,60.426C78.556,60.5 78.395,60.601 78.255,60.731C78.115,60.861 78.001,61.02 77.915,61.206C77.828,61.393 77.775,61.596 77.755,61.816L80.915,61.816Z" style="fill-rule:nonzero;"/>
        </g>
        <g transform="matrix(1,0,0,1,0.419547,743.407)">
            <path d="M16.798,37.949C16.378,37.949 15.96,37.881 15.543,37.744C15.127,37.608 14.768,37.413 14.468,37.159L14.908,36.459C15.222,36.686 15.532,36.858 15.838,36.974C16.145,37.091 16.458,37.149 16.778,37.149C17.105,37.149 17.363,37.086 17.553,36.959C17.743,36.833 17.838,36.653 17.838,36.419C17.838,36.199 17.732,36.039 17.518,35.939C17.305,35.839 16.972,35.729 16.518,35.609C16.192,35.523 15.912,35.439 15.678,35.359C15.445,35.279 15.255,35.186 15.108,35.079C14.962,34.973 14.855,34.849 14.788,34.709C14.722,34.569 14.688,34.399 14.688,34.199C14.688,33.933 14.74,33.696 14.843,33.489C14.947,33.283 15.09,33.108 15.273,32.964C15.457,32.821 15.672,32.713 15.918,32.639C16.165,32.566 16.432,32.529 16.718,32.529C17.112,32.529 17.478,32.589 17.818,32.709C18.158,32.829 18.462,33.003 18.728,33.229L18.258,33.889C17.772,33.503 17.255,33.309 16.708,33.309C16.428,33.309 16.193,33.368 16.003,33.484C15.813,33.601 15.718,33.786 15.718,34.039C15.718,34.146 15.738,34.236 15.778,34.309C15.818,34.383 15.883,34.446 15.973,34.499C16.063,34.553 16.18,34.601 16.323,34.644C16.467,34.688 16.645,34.736 16.858,34.789C17.212,34.876 17.517,34.963 17.773,35.049C18.03,35.136 18.242,35.238 18.408,35.354C18.575,35.471 18.698,35.608 18.778,35.764C18.858,35.921 18.898,36.109 18.898,36.329C18.898,36.829 18.71,37.224 18.333,37.514C17.957,37.804 17.445,37.949 16.798,37.949Z" style="fill-rule:nonzero;"/>
            <path d="M19.518,35.229C19.518,34.863 19.582,34.516 19.708,34.189C19.835,33.863 20.017,33.576 20.253,33.329C20.49,33.083 20.775,32.888 21.108,32.744C21.442,32.601 21.815,32.529 22.228,32.529C22.768,32.529 23.233,32.648 23.623,32.884C24.013,33.121 24.305,33.436 24.498,33.829L23.428,34.169C23.302,33.949 23.132,33.778 22.918,33.654C22.705,33.531 22.468,33.469 22.208,33.469C21.988,33.469 21.783,33.513 21.593,33.599C21.403,33.686 21.238,33.808 21.098,33.964C20.958,34.121 20.848,34.306 20.768,34.519C20.688,34.733 20.648,34.969 20.648,35.229C20.648,35.483 20.69,35.718 20.773,35.934C20.857,36.151 20.97,36.339 21.113,36.499C21.257,36.659 21.423,36.784 21.613,36.874C21.803,36.964 22.005,37.009 22.218,37.009C22.352,37.009 22.485,36.991 22.618,36.954C22.752,36.918 22.873,36.866 22.983,36.799C23.093,36.733 23.19,36.656 23.273,36.569C23.357,36.483 23.418,36.389 23.458,36.289L24.538,36.609C24.365,37.003 24.075,37.324 23.668,37.574C23.262,37.824 22.782,37.949 22.228,37.949C21.822,37.949 21.452,37.876 21.118,37.729C20.785,37.583 20.5,37.384 20.263,37.134C20.027,36.884 19.843,36.596 19.713,36.269C19.583,35.943 19.518,35.596 19.518,35.229Z" style="fill-rule:nonzero;"/>
            <path d="M26.838,37.949C26.585,37.949 26.35,37.908 26.133,37.824C25.917,37.741 25.73,37.626 25.573,37.479C25.417,37.333 25.293,37.159 25.203,36.959C25.113,36.759 25.068,36.543 25.068,36.309C25.068,36.063 25.122,35.839 25.228,35.639C25.335,35.439 25.487,35.266 25.683,35.119C25.88,34.973 26.113,34.859 26.383,34.779C26.653,34.699 26.952,34.659 27.278,34.659C27.525,34.659 27.768,34.681 28.008,34.724C28.248,34.768 28.465,34.826 28.658,34.899L28.658,34.539C28.658,34.153 28.548,33.851 28.328,33.634C28.108,33.418 27.792,33.309 27.378,33.309C27.098,33.309 26.823,33.361 26.553,33.464C26.283,33.568 26.005,33.716 25.718,33.909L25.378,33.209C26.052,32.756 26.752,32.529 27.478,32.529C28.198,32.529 28.758,32.713 29.158,33.079C29.558,33.446 29.758,33.973 29.758,34.659L29.758,36.549C29.758,36.783 29.855,36.903 30.048,36.909L30.048,37.849C29.942,37.869 29.85,37.883 29.773,37.889C29.697,37.896 29.622,37.899 29.548,37.899C29.335,37.899 29.17,37.846 29.053,37.739C28.937,37.633 28.865,37.496 28.838,37.329L28.808,36.999C28.575,37.306 28.287,37.541 27.943,37.704C27.6,37.868 27.232,37.949 26.838,37.949ZM27.138,37.139C27.405,37.139 27.657,37.091 27.893,36.994C28.13,36.898 28.315,36.763 28.448,36.589C28.588,36.469 28.658,36.343 28.658,36.209L28.658,35.519C28.472,35.446 28.273,35.389 28.063,35.349C27.853,35.309 27.648,35.289 27.448,35.289C27.055,35.289 26.733,35.374 26.483,35.544C26.233,35.714 26.108,35.939 26.108,36.219C26.108,36.479 26.205,36.698 26.398,36.874C26.592,37.051 26.838,37.139 27.138,37.139Z" style="fill-rule:nonzero;"/>
            <path d="M31.098,30.549L32.198,30.549L32.198,36.339C32.198,36.533 32.248,36.684 32.348,36.794C32.448,36.904 32.588,36.959 32.768,36.959C32.842,36.959 32.927,36.946 33.023,36.919C33.12,36.893 33.212,36.863 33.298,36.829L33.458,37.689C33.298,37.763 33.108,37.821 32.888,37.864C32.668,37.908 32.472,37.929 32.298,37.929C31.918,37.929 31.623,37.826 31.413,37.619C31.203,37.413 31.098,37.119 31.098,36.739L31.098,30.549Z" style="fill-rule:nonzero;"/>
            <path d="M36.468,37.949C36.062,37.949 35.692,37.878 35.358,37.734C35.025,37.591 34.74,37.396 34.503,37.149C34.267,36.903 34.083,36.616 33.953,36.289C33.823,35.963 33.758,35.616 33.758,35.249C33.758,34.883 33.823,34.534 33.953,34.204C34.083,33.874 34.267,33.584 34.503,33.334C34.74,33.084 35.025,32.888 35.358,32.744C35.692,32.601 36.065,32.529 36.478,32.529C36.885,32.529 37.253,32.603 37.583,32.749C37.913,32.896 38.195,33.091 38.428,33.334C38.662,33.578 38.84,33.861 38.963,34.184C39.087,34.508 39.148,34.846 39.148,35.199C39.148,35.279 39.145,35.354 39.138,35.424C39.132,35.494 39.125,35.553 39.118,35.599L34.928,35.599C34.948,35.833 35.003,36.043 35.093,36.229C35.183,36.416 35.3,36.578 35.443,36.714C35.587,36.851 35.75,36.956 35.933,37.029C36.117,37.103 36.308,37.139 36.508,37.139C36.655,37.139 36.8,37.121 36.943,37.084C37.087,37.048 37.218,36.994 37.338,36.924C37.458,36.854 37.565,36.769 37.658,36.669C37.752,36.569 37.825,36.459 37.878,36.339L38.818,36.609C38.638,37.003 38.34,37.324 37.923,37.574C37.507,37.824 37.022,37.949 36.468,37.949ZM38.058,34.839C38.038,34.619 37.983,34.416 37.893,34.229C37.803,34.043 37.688,33.884 37.548,33.754C37.408,33.624 37.245,33.523 37.058,33.449C36.872,33.376 36.675,33.339 36.468,33.339C36.262,33.339 36.067,33.376 35.883,33.449C35.7,33.523 35.538,33.624 35.398,33.754C35.258,33.884 35.145,34.043 35.058,34.229C34.972,34.416 34.918,34.619 34.898,34.839L38.058,34.839Z" style="fill-rule:nonzero;"/>
        </g>
        <g transform="matrix(1,0,0,1,-4.6795,758.247)">
            <path d="M27.693,11.286C27.389,11.454 27.063,11.586 26.715,11.682C26.367,11.778 26.001,11.826 25.617,11.826C24.985,11.826 24.409,11.704 23.889,11.46C23.369,11.216 22.925,10.892 22.557,10.488C22.189,10.084 21.903,9.622 21.699,9.102C21.495,8.582 21.393,8.046 21.393,7.494C21.393,6.934 21.499,6.394 21.711,5.874C21.923,5.354 22.219,4.894 22.599,4.494C22.979,4.094 23.429,3.776 23.949,3.54C24.469,3.304 25.037,3.186 25.653,3.186C26.285,3.186 26.861,3.312 27.381,3.564C27.901,3.816 28.345,4.146 28.713,4.554C29.081,4.962 29.365,5.426 29.565,5.946C29.765,6.466 29.865,6.994 29.865,7.53C29.865,8.074 29.769,8.594 29.577,9.09C29.385,9.586 29.113,10.03 28.761,10.422L29.985,11.766L28.137,11.766L27.693,11.286ZM25.629,10.074C25.949,10.074 26.229,10.022 26.469,9.918L25.101,8.406L26.949,8.406L27.477,8.994C27.605,8.77 27.701,8.53 27.765,8.274C27.829,8.018 27.861,7.758 27.861,7.494C27.861,7.166 27.813,6.848 27.717,6.54C27.621,6.232 27.477,5.96 27.285,5.724C27.093,5.488 26.859,5.298 26.583,5.154C26.307,5.01 25.989,4.938 25.629,4.938C25.253,4.938 24.927,5.012 24.651,5.16C24.375,5.308 24.143,5.504 23.955,5.748C23.767,5.992 23.627,6.268 23.535,6.576C23.443,6.884 23.397,7.198 23.397,7.518C23.397,7.846 23.445,8.164 23.541,8.472C23.637,8.78 23.779,9.052 23.967,9.288C24.155,9.524 24.389,9.714 24.669,9.858C24.949,10.002 25.269,10.074 25.629,10.074Z" style="fill-rule:nonzero;"/>
            <path d="M32.745,11.886C32.097,11.886 31.607,11.684 31.275,11.28C30.943,10.876 30.777,10.282 30.777,9.498L30.777,5.466L32.697,5.466L32.697,9.078C32.697,9.462 32.773,9.756 32.925,9.96C33.077,10.164 33.293,10.266 33.573,10.266C33.829,10.266 34.077,10.198 34.317,10.062C34.557,9.926 34.769,9.69 34.953,9.354L34.953,5.466L36.873,5.466L36.873,9.606C36.873,9.798 36.903,9.932 36.963,10.008C37.023,10.084 37.129,10.13 37.281,10.146L37.281,11.766C37.097,11.806 36.941,11.832 36.813,11.844C36.685,11.856 36.569,11.862 36.465,11.862C35.777,11.862 35.385,11.594 35.289,11.058L35.253,10.674C34.965,11.09 34.607,11.396 34.179,11.592C33.751,11.788 33.273,11.886 32.745,11.886Z" style="fill-rule:nonzero;"/>
            <path d="M40.149,11.886C39.837,11.886 39.547,11.836 39.279,11.736C39.011,11.636 38.781,11.496 38.589,11.316C38.397,11.136 38.245,10.924 38.133,10.68C38.021,10.436 37.965,10.17 37.965,9.882C37.965,9.57 38.031,9.286 38.163,9.03C38.295,8.774 38.481,8.554 38.721,8.37C38.961,8.186 39.245,8.042 39.573,7.938C39.901,7.834 40.265,7.782 40.665,7.782C40.929,7.782 41.185,7.804 41.433,7.848C41.681,7.892 41.897,7.958 42.081,8.046L42.081,7.758C42.081,7.03 41.661,6.666 40.821,6.666C40.477,6.666 40.149,6.724 39.837,6.84C39.525,6.956 39.197,7.13 38.853,7.362L38.289,6.162C38.705,5.89 39.137,5.686 39.585,5.55C40.033,5.414 40.509,5.346 41.013,5.346C41.965,5.346 42.701,5.57 43.221,6.018C43.741,6.466 44.001,7.122 44.001,7.986L44.001,9.606C44.001,9.798 44.031,9.932 44.091,10.008C44.151,10.084 44.257,10.13 44.409,10.146L44.409,11.766C44.241,11.806 44.089,11.832 43.953,11.844C43.817,11.856 43.693,11.862 43.581,11.862C43.221,11.862 42.949,11.792 42.765,11.652C42.581,11.512 42.465,11.314 42.417,11.058L42.381,10.77C42.101,11.13 41.767,11.406 41.379,11.598C40.991,11.79 40.581,11.886 40.149,11.886ZM40.713,10.506C40.921,10.506 41.123,10.47 41.319,10.398C41.515,10.326 41.677,10.23 41.805,10.11C41.989,9.966 42.081,9.814 42.081,9.654L42.081,9.054C41.913,8.99 41.731,8.94 41.535,8.904C41.339,8.868 41.157,8.85 40.989,8.85C40.637,8.85 40.347,8.93 40.119,9.09C39.891,9.25 39.777,9.458 39.777,9.714C39.777,9.946 39.865,10.136 40.041,10.284C40.217,10.432 40.441,10.506 40.713,10.506Z" style="fill-rule:nonzero;"/>
            <path d="M51.465,11.766L49.545,11.766L49.545,8.226C49.545,7.81 49.467,7.508 49.311,7.32C49.155,7.132 48.949,7.038 48.693,7.038C48.557,7.038 48.421,7.066 48.285,7.122C48.149,7.178 48.017,7.256 47.889,7.356C47.761,7.456 47.647,7.574 47.547,7.71C47.447,7.846 47.369,7.994 47.313,8.154L47.313,11.766L45.393,11.766L45.393,5.466L47.121,5.466L47.121,6.522C47.353,6.146 47.681,5.856 48.105,5.652C48.529,5.448 49.017,5.346 49.569,5.346C49.977,5.346 50.305,5.42 50.553,5.568C50.801,5.716 50.993,5.908 51.129,6.144C51.265,6.38 51.355,6.638 51.399,6.918C51.443,7.198 51.465,7.47 51.465,7.734L51.465,11.766Z" style="fill-rule:nonzero;"/>
            <path d="M56.757,11.43C56.493,11.542 56.191,11.646 55.851,11.742C55.511,11.838 55.169,11.886 54.825,11.886C54.585,11.886 54.359,11.856 54.147,11.796C53.935,11.736 53.749,11.64 53.589,11.508C53.429,11.376 53.303,11.202 53.211,10.986C53.119,10.77 53.073,10.51 53.073,10.206L53.073,6.918L52.269,6.918L52.269,5.466L53.073,5.466L53.073,3.462L54.993,3.462L54.993,5.466L56.277,5.466L56.277,6.918L54.993,6.918L54.993,9.546C54.993,9.754 55.045,9.904 55.149,9.996C55.253,10.088 55.385,10.134 55.545,10.134C55.689,10.134 55.837,10.11 55.989,10.062C56.141,10.014 56.273,9.962 56.385,9.906L56.757,11.43Z" style="fill-rule:nonzero;"/>
            <path d="M57.501,11.766L57.501,5.466L59.421,5.466L59.421,11.766L57.501,11.766ZM57.501,4.746L57.501,3.006L59.421,3.006L59.421,4.746L57.501,4.746Z" style="fill-rule:nonzero;"/>
            <path d="M63.225,11.886C62.689,11.886 62.161,11.8 61.641,11.628C61.121,11.456 60.681,11.206 60.321,10.878L61.005,9.702C61.389,9.966 61.763,10.17 62.127,10.314C62.491,10.458 62.841,10.53 63.177,10.53C63.425,10.53 63.617,10.486 63.753,10.398C63.889,10.31 63.957,10.182 63.957,10.014C63.957,9.846 63.871,9.712 63.699,9.612C63.527,9.512 63.225,9.406 62.793,9.294C62.369,9.174 62.011,9.058 61.719,8.946C61.427,8.834 61.189,8.71 61.005,8.574C60.821,8.438 60.689,8.282 60.609,8.106C60.529,7.93 60.489,7.722 60.489,7.482C60.489,7.162 60.553,6.87 60.681,6.606C60.809,6.342 60.985,6.118 61.209,5.934C61.433,5.75 61.699,5.606 62.007,5.502C62.315,5.398 62.649,5.346 63.009,5.346C63.481,5.346 63.923,5.41 64.335,5.538C64.747,5.666 65.145,5.898 65.529,6.234L64.785,7.386C64.425,7.138 64.105,6.958 63.825,6.846C63.545,6.734 63.273,6.678 63.009,6.678C62.801,6.678 62.625,6.72 62.481,6.804C62.337,6.888 62.265,7.022 62.265,7.206C62.265,7.382 62.343,7.514 62.499,7.602C62.655,7.69 62.945,7.786 63.369,7.89C63.817,8.01 64.195,8.13 64.503,8.25C64.811,8.37 65.061,8.504 65.253,8.652C65.445,8.8 65.585,8.97 65.673,9.162C65.761,9.354 65.805,9.582 65.805,9.846C65.805,10.47 65.573,10.966 65.109,11.334C64.645,11.702 64.017,11.886 63.225,11.886Z" style="fill-rule:nonzero;"/>
            <path d="M69.741,11.886C69.213,11.886 68.739,11.8 68.319,11.628C67.899,11.456 67.543,11.222 67.251,10.926C66.959,10.63 66.737,10.288 66.585,9.9C66.433,9.512 66.357,9.106 66.357,8.682C66.357,8.226 66.433,7.796 66.585,7.392C66.737,6.988 66.957,6.634 67.245,6.33C67.533,6.026 67.887,5.786 68.307,5.61C68.727,5.434 69.205,5.346 69.741,5.346C70.277,5.346 70.753,5.434 71.169,5.61C71.585,5.786 71.937,6.024 72.225,6.324C72.513,6.624 72.731,6.97 72.879,7.362C73.027,7.754 73.101,8.166 73.101,8.598C73.101,8.71 73.097,8.82 73.089,8.928C73.081,9.036 73.069,9.13 73.053,9.21L68.397,9.21C68.429,9.634 68.583,9.956 68.859,10.176C69.135,10.396 69.449,10.506 69.801,10.506C70.081,10.506 70.351,10.438 70.611,10.302C70.871,10.166 71.045,9.982 71.133,9.75L72.765,10.206C72.517,10.702 72.133,11.106 71.613,11.418C71.093,11.73 70.469,11.886 69.741,11.886ZM71.073,8.022C71.033,7.622 70.889,7.306 70.641,7.074C70.393,6.842 70.085,6.726 69.717,6.726C69.341,6.726 69.031,6.844 68.787,7.08C68.543,7.316 68.401,7.63 68.361,8.022L71.073,8.022Z" style="fill-rule:nonzero;"/>
            <path d="M77.973,7.11C77.509,7.118 77.089,7.194 76.713,7.338C76.337,7.482 76.065,7.698 75.897,7.986L75.897,11.766L73.977,11.766L73.977,5.466L75.741,5.466L75.741,6.738C75.957,6.314 76.235,5.982 76.575,5.742C76.915,5.502 77.277,5.378 77.661,5.37C77.749,5.37 77.813,5.37 77.853,5.37C77.893,5.37 77.933,5.374 77.973,5.382L77.973,7.11Z" style="fill-rule:nonzero;"/>
        </g>
    </g>
</svg>
