<?xml version="1.0" encoding="UTF-8" standalone="no"?>
<!DOCTYPE svg PUBLIC "-//W3C//DTD SVG 1.1//EN" "http://www.w3.org/Graphics/SVG/1.1/DTD/svg11.dtd">
<svg width="100%" height="100%" viewBox="0 0 120 380" version="1.1" xmlns="http://www.w3.org/2000/svg" xmlns:xlink="http://www.w3.org/1999/xlink" xml:space="preserve" xmlns:serif="http://www.serif.com/" style="fill-rule:evenodd;clip-rule:evenodd;stroke-linejoin:round;stroke-miterlimit:1.41421;">
    <g id="Layer-1" serif:id="Layer 1" transform="matrix(1,0,0,1,15,-742.52)">
        <g id="rect4068" transform="matrix(1.33333,0,0,1,-15,0.181716)">
            <rect x="0" y="742.52" width="90" height="380" style="fill:rgb(240,240,240);"/>
        </g>
        <g transform="matrix(1,0,0,1,-7.72919,747.524)">
            <path d="M35.009,26.405C34.722,26.572 34.422,26.702 34.109,26.795C33.796,26.888 33.476,26.935 33.149,26.935C32.736,26.935 32.369,26.853 32.049,26.69C31.729,26.527 31.461,26.31 31.244,26.04C31.027,25.77 30.862,25.458 30.749,25.105C30.636,24.752 30.579,24.382 30.579,23.995C30.579,23.455 30.694,22.93 30.924,22.42C31.154,21.91 31.459,21.455 31.839,21.055C32.219,20.655 32.657,20.335 33.154,20.095C33.651,19.855 34.166,19.735 34.699,19.735C35.106,19.735 35.467,19.818 35.784,19.985C36.101,20.152 36.367,20.372 36.584,20.645C36.801,20.918 36.964,21.233 37.074,21.59C37.184,21.947 37.239,22.315 37.239,22.695C37.239,23.288 37.102,23.862 36.829,24.415C36.556,24.968 36.196,25.448 35.749,25.855L36.409,26.885L35.319,26.885L35.009,26.405ZM33.369,25.925C33.576,25.925 33.774,25.897 33.964,25.84C34.154,25.783 34.336,25.705 34.509,25.605L33.759,24.415L34.829,24.415L35.209,25.015C35.489,24.702 35.706,24.348 35.859,23.955C36.012,23.562 36.089,23.168 36.089,22.775C36.089,22.508 36.054,22.252 35.984,22.005C35.914,21.758 35.811,21.542 35.674,21.355C35.537,21.168 35.367,21.02 35.164,20.91C34.961,20.8 34.726,20.745 34.459,20.745C34.072,20.745 33.712,20.84 33.379,21.03C33.046,21.22 32.757,21.467 32.514,21.77C32.271,22.073 32.081,22.413 31.944,22.79C31.807,23.167 31.739,23.538 31.739,23.905C31.739,24.178 31.774,24.437 31.844,24.68C31.914,24.923 32.016,25.137 32.149,25.32C32.282,25.503 32.451,25.65 32.654,25.76C32.857,25.87 33.096,25.925 33.369,25.925Z" style="fill-rule:nonzero;"/>
            <path d="M38.919,26.985C38.106,26.985 37.699,26.552 37.699,25.685C37.699,25.438 37.732,25.162 37.799,24.855L38.489,21.655L39.579,21.655L38.939,24.635C38.892,24.848 38.869,25.048 38.869,25.235C38.869,25.775 39.099,26.045 39.559,26.045C39.852,26.045 40.147,25.948 40.444,25.755C40.741,25.562 41.002,25.282 41.229,24.915L41.919,21.655L43.019,21.655L42.189,25.585C42.169,25.645 42.159,25.695 42.159,25.735C42.159,25.862 42.236,25.932 42.389,25.945L42.199,26.885C42.099,26.898 42.012,26.91 41.939,26.92C41.866,26.93 41.799,26.935 41.739,26.935C41.539,26.935 41.382,26.893 41.269,26.81C41.156,26.727 41.099,26.602 41.099,26.435C41.099,26.382 41.106,26.312 41.119,26.225C41.132,26.138 41.156,26.005 41.189,25.825C40.889,26.205 40.542,26.493 40.149,26.69C39.756,26.887 39.346,26.985 38.919,26.985Z" style="fill-rule:nonzero;"/>
            <path d="M45.329,26.985C45.036,26.985 44.774,26.928 44.544,26.815C44.314,26.702 44.119,26.548 43.959,26.355C43.799,26.162 43.677,25.933 43.594,25.67C43.511,25.407 43.469,25.125 43.469,24.825C43.469,24.398 43.547,23.988 43.704,23.595C43.861,23.202 44.072,22.855 44.339,22.555C44.606,22.255 44.912,22.015 45.259,21.835C45.606,21.655 45.969,21.565 46.349,21.565C46.729,21.565 47.047,21.667 47.304,21.87C47.561,22.073 47.742,22.332 47.849,22.645L48.059,21.665L49.169,21.665L48.329,25.585C48.322,25.618 48.317,25.647 48.314,25.67C48.311,25.693 48.309,25.715 48.309,25.735C48.309,25.868 48.386,25.938 48.539,25.945L48.339,26.885C48.246,26.898 48.161,26.91 48.084,26.92C48.007,26.93 47.942,26.935 47.889,26.935C47.456,26.935 47.239,26.762 47.239,26.415C47.239,26.308 47.262,26.148 47.309,25.935C47.056,26.275 46.749,26.535 46.389,26.715C46.029,26.895 45.676,26.985 45.329,26.985ZM45.809,26.045C45.942,26.045 46.084,26.018 46.234,25.965C46.384,25.912 46.531,25.838 46.674,25.745C46.817,25.652 46.949,25.542 47.069,25.415C47.189,25.288 47.286,25.152 47.359,25.005L47.639,23.635C47.619,23.475 47.574,23.327 47.504,23.19C47.434,23.053 47.346,22.933 47.239,22.83C47.132,22.727 47.016,22.647 46.889,22.59C46.762,22.533 46.629,22.505 46.489,22.505C46.236,22.505 45.997,22.568 45.774,22.695C45.551,22.822 45.354,22.985 45.184,23.185C45.014,23.385 44.879,23.613 44.779,23.87C44.679,24.127 44.629,24.385 44.629,24.645C44.629,24.845 44.656,25.03 44.709,25.2C44.762,25.37 44.841,25.517 44.944,25.64C45.047,25.763 45.172,25.862 45.319,25.935C45.466,26.008 45.629,26.045 45.809,26.045Z" style="fill-rule:nonzero;"/>
            <path d="M50.549,21.655L51.539,21.655L51.319,22.705C51.579,22.352 51.909,22.073 52.309,21.87C52.709,21.667 53.129,21.565 53.569,21.565C53.789,21.565 53.972,21.595 54.119,21.655C54.266,21.715 54.384,21.8 54.474,21.91C54.564,22.02 54.629,22.148 54.669,22.295C54.709,22.442 54.729,22.605 54.729,22.785C54.729,22.925 54.717,23.072 54.694,23.225C54.671,23.378 54.642,23.535 54.609,23.695L53.939,26.885L52.839,26.885L53.459,23.955C53.486,23.828 53.506,23.713 53.519,23.61C53.532,23.507 53.539,23.408 53.539,23.315C53.539,22.802 53.326,22.545 52.899,22.545C52.752,22.545 52.599,22.575 52.439,22.635C52.279,22.695 52.122,22.78 51.969,22.89C51.816,23 51.671,23.13 51.534,23.28C51.397,23.43 51.286,23.595 51.199,23.775L50.529,26.885L49.429,26.885L50.549,21.655Z" style="fill-rule:nonzero;"/>
            <path d="M56.599,26.965C56.312,26.965 56.072,26.897 55.879,26.76C55.686,26.623 55.589,26.405 55.589,26.105C55.589,25.992 55.602,25.882 55.629,25.775L56.329,22.505L55.659,22.505L55.849,21.655L56.499,21.655L56.869,19.935L57.969,19.935L57.599,21.655L58.679,21.655L58.499,22.505L57.429,22.505L56.809,25.425C56.796,25.492 56.789,25.542 56.789,25.575C56.789,25.708 56.829,25.805 56.909,25.865C56.989,25.925 57.086,25.955 57.199,25.955C57.352,25.955 57.499,25.928 57.639,25.875C57.779,25.822 57.886,25.778 57.959,25.745L57.999,26.615C57.846,26.708 57.642,26.79 57.389,26.86C57.136,26.93 56.872,26.965 56.599,26.965Z" style="fill-rule:nonzero;"/>
            <path d="M59.789,21.655L60.889,21.655L59.769,26.885L58.669,26.885L59.789,21.655ZM60.219,19.585L61.319,19.585L61.069,20.795L59.969,20.795L60.219,19.585Z" style="fill-rule:nonzero;"/>
            <path d="M62.869,26.985C62.462,26.985 62.076,26.917 61.709,26.78C61.342,26.643 61.042,26.448 60.809,26.195L61.399,25.495C61.899,25.955 62.436,26.185 63.009,26.185C63.349,26.185 63.622,26.108 63.829,25.955C64.036,25.802 64.139,25.598 64.139,25.345C64.139,25.165 64.054,25.028 63.884,24.935C63.714,24.842 63.449,24.745 63.089,24.645C62.836,24.572 62.616,24.5 62.429,24.43C62.242,24.36 62.089,24.28 61.969,24.19C61.849,24.1 61.759,23.998 61.699,23.885C61.639,23.772 61.609,23.638 61.609,23.485C61.609,23.192 61.672,22.927 61.799,22.69C61.926,22.453 62.096,22.252 62.309,22.085C62.522,21.918 62.769,21.79 63.049,21.7C63.329,21.61 63.626,21.565 63.939,21.565C64.312,21.565 64.646,21.625 64.939,21.745C65.232,21.865 65.486,22.038 65.699,22.265L65.089,22.925C64.896,22.732 64.686,22.587 64.459,22.49C64.232,22.393 63.996,22.345 63.749,22.345C63.456,22.345 63.206,22.415 62.999,22.555C62.792,22.695 62.689,22.908 62.689,23.195C62.689,23.362 62.759,23.487 62.899,23.57C63.039,23.653 63.272,23.738 63.599,23.825C63.879,23.898 64.122,23.975 64.329,24.055C64.536,24.135 64.707,24.223 64.844,24.32C64.981,24.417 65.082,24.528 65.149,24.655C65.216,24.782 65.249,24.928 65.249,25.095C65.249,25.375 65.191,25.63 65.074,25.86C64.957,26.09 64.794,26.288 64.584,26.455C64.374,26.622 64.122,26.752 63.829,26.845C63.536,26.938 63.216,26.985 62.869,26.985Z" style="fill-rule:nonzero;"/>
            <path d="M68.119,26.985C67.786,26.985 67.491,26.928 67.234,26.815C66.977,26.702 66.759,26.547 66.579,26.35C66.399,26.153 66.262,25.92 66.169,25.65C66.076,25.38 66.029,25.088 66.029,24.775C66.029,24.348 66.111,23.942 66.274,23.555C66.437,23.168 66.664,22.828 66.954,22.535C67.244,22.242 67.587,22.007 67.984,21.83C68.381,21.653 68.809,21.565 69.269,21.565C69.809,21.565 70.241,21.687 70.564,21.93C70.887,22.173 71.049,22.532 71.049,23.005C71.049,24.098 70.072,24.645 68.119,24.645C67.832,24.645 67.509,24.635 67.149,24.615L67.149,24.795C67.149,24.988 67.172,25.168 67.219,25.335C67.266,25.502 67.336,25.648 67.429,25.775C67.522,25.902 67.642,26 67.789,26.07C67.936,26.14 68.109,26.175 68.309,26.175C68.596,26.175 68.872,26.103 69.139,25.96C69.406,25.817 69.616,25.622 69.769,25.375L70.639,25.645C70.512,25.845 70.357,26.027 70.174,26.19C69.991,26.353 69.789,26.493 69.569,26.61C69.349,26.727 69.116,26.818 68.869,26.885C68.622,26.952 68.372,26.985 68.119,26.985ZM69.129,22.375C68.889,22.375 68.669,22.417 68.469,22.5C68.269,22.583 68.092,22.695 67.939,22.835C67.786,22.975 67.656,23.137 67.549,23.32C67.442,23.503 67.356,23.695 67.289,23.895C67.596,23.915 67.879,23.925 68.139,23.925C68.492,23.925 68.789,23.903 69.029,23.86C69.269,23.817 69.464,23.757 69.614,23.68C69.764,23.603 69.871,23.51 69.934,23.4C69.997,23.29 70.029,23.168 70.029,23.035C70.029,22.808 69.949,22.642 69.789,22.535C69.629,22.428 69.409,22.375 69.129,22.375Z" style="fill-rule:nonzero;"/>
            <path d="M72.399,21.655L73.419,21.655L73.159,22.825C73.412,22.465 73.699,22.175 74.019,21.955C74.339,21.735 74.656,21.625 74.969,21.625C75.036,21.625 75.087,21.627 75.124,21.63C75.161,21.633 75.196,21.638 75.229,21.645L75.019,22.605C74.619,22.618 74.246,22.717 73.899,22.9C73.552,23.083 73.272,23.345 73.059,23.685L72.379,26.885L71.279,26.885L72.399,21.655Z" style="fill-rule:nonzero;"/>
        </g>
        <g transform="matrix(1,0,0,1,-9.52717,784.406)">
            <path d="M30.377,93.412C30.237,93.479 30.044,93.554 29.797,93.637C29.551,93.72 29.287,93.762 29.007,93.762C28.834,93.762 28.671,93.739 28.517,93.692C28.364,93.645 28.229,93.575 28.112,93.482C27.996,93.389 27.904,93.267 27.837,93.117C27.771,92.967 27.737,92.785 27.737,92.572L27.737,89.302L27.047,89.302L27.047,88.452L27.737,88.452L27.737,86.732L28.837,86.732L28.837,88.452L29.977,88.452L29.977,89.302L28.837,89.302L28.837,92.222C28.851,92.409 28.909,92.544 29.012,92.627C29.116,92.71 29.244,92.752 29.397,92.752C29.551,92.752 29.697,92.725 29.837,92.672C29.977,92.619 30.081,92.575 30.147,92.542L30.377,93.412Z" style="fill-rule:nonzero;"/>
            <path d="M34.077,89.402C33.651,89.415 33.272,89.514 32.942,89.697C32.612,89.88 32.377,90.142 32.237,90.482L32.237,93.682L31.137,93.682L31.137,88.452L32.157,88.452L32.157,89.622C32.337,89.262 32.572,88.974 32.862,88.757C33.152,88.54 33.464,88.422 33.797,88.402C33.864,88.402 33.919,88.402 33.962,88.402C34.006,88.402 34.044,88.405 34.077,88.412L34.077,89.402Z" style="fill-rule:nonzero;"/>
            <path d="M34.877,93.682L34.877,88.452L35.977,88.452L35.977,93.682L34.877,93.682ZM34.877,87.592L34.877,86.382L35.977,86.382L35.977,87.592L34.877,87.592Z" style="fill-rule:nonzero;"/>
            <path d="M39.367,93.732C39.014,93.732 38.691,93.66 38.397,93.517C38.104,93.374 37.852,93.179 37.642,92.932C37.432,92.685 37.269,92.402 37.152,92.082C37.036,91.762 36.977,91.425 36.977,91.072C36.977,90.699 37.037,90.347 37.157,90.017C37.277,89.687 37.444,89.4 37.657,89.157C37.871,88.914 38.126,88.72 38.422,88.577C38.719,88.434 39.047,88.362 39.407,88.362C39.827,88.362 40.196,88.462 40.512,88.662C40.829,88.862 41.091,89.122 41.297,89.442L41.297,88.452L42.267,88.452L42.267,93.532C42.267,93.912 42.197,94.249 42.057,94.542C41.917,94.835 41.722,95.084 41.472,95.287C41.222,95.49 40.927,95.645 40.587,95.752C40.247,95.859 39.881,95.912 39.487,95.912C38.907,95.912 38.426,95.814 38.042,95.617C37.659,95.42 37.337,95.145 37.077,94.792L37.697,94.212C37.897,94.492 38.156,94.705 38.472,94.852C38.789,94.999 39.127,95.072 39.487,95.072C39.714,95.072 39.929,95.042 40.132,94.982C40.336,94.922 40.514,94.829 40.667,94.702C40.821,94.575 40.942,94.415 41.032,94.222C41.122,94.029 41.167,93.799 41.167,93.532L41.167,92.732C40.981,93.052 40.724,93.299 40.397,93.472C40.071,93.645 39.727,93.732 39.367,93.732ZM39.727,92.842C39.894,92.842 40.054,92.814 40.207,92.757C40.361,92.7 40.502,92.624 40.632,92.527C40.762,92.43 40.874,92.32 40.967,92.197C41.061,92.074 41.127,91.942 41.167,91.802L41.167,90.432C41.101,90.265 41.014,90.114 40.907,89.977C40.801,89.84 40.679,89.722 40.542,89.622C40.406,89.522 40.261,89.444 40.107,89.387C39.954,89.33 39.801,89.302 39.647,89.302C39.407,89.302 39.192,89.354 39.002,89.457C38.812,89.56 38.651,89.697 38.517,89.867C38.384,90.037 38.281,90.229 38.207,90.442C38.134,90.655 38.097,90.875 38.097,91.102C38.097,91.342 38.139,91.567 38.222,91.777C38.306,91.987 38.421,92.17 38.567,92.327C38.714,92.484 38.886,92.609 39.082,92.702C39.279,92.795 39.494,92.842 39.727,92.842Z" style="fill-rule:nonzero;"/>
        </g>
        <g transform="matrix(1,0,0,1,-3.23387,769.502)">
            <path d="M24.24,76.72C24.24,76.353 24.303,76.006 24.43,75.68C24.556,75.353 24.738,75.066 24.975,74.82C25.211,74.573 25.496,74.378 25.83,74.235C26.163,74.091 26.536,74.02 26.95,74.02C27.49,74.02 27.955,74.138 28.345,74.375C28.735,74.611 29.026,74.926 29.22,75.32L28.15,75.66C28.023,75.44 27.853,75.268 27.64,75.145C27.426,75.021 27.19,74.96 26.93,74.96C26.71,74.96 26.505,75.003 26.315,75.09C26.125,75.176 25.96,75.298 25.82,75.455C25.68,75.611 25.57,75.796 25.49,76.01C25.41,76.223 25.37,76.46 25.37,76.72C25.37,76.973 25.411,77.208 25.495,77.425C25.578,77.641 25.691,77.83 25.835,77.99C25.978,78.15 26.145,78.275 26.335,78.365C26.525,78.455 26.726,78.5 26.94,78.5C27.073,78.5 27.206,78.481 27.34,78.445C27.473,78.408 27.595,78.356 27.705,78.29C27.815,78.223 27.911,78.146 27.995,78.06C28.078,77.973 28.14,77.88 28.18,77.78L29.26,78.1C29.086,78.493 28.796,78.815 28.39,79.065C27.983,79.315 27.503,79.44 26.95,79.44C26.543,79.44 26.173,79.366 25.84,79.22C25.506,79.073 25.221,78.875 24.985,78.625C24.748,78.375 24.565,78.086 24.435,77.76C24.305,77.433 24.24,77.086 24.24,76.72Z" style="fill-rule:nonzero;"/>
            <path d="M31.57,79.34L29.57,74.11L30.7,74.11L32.2,78.41L33.71,74.11L34.75,74.11L32.75,79.34L31.57,79.34Z" style="fill-rule:nonzero;"/>
        </g>
        <g transform="matrix(1,0,0,1,-9.52717,849.406)">
            <path d="M30.377,93.412C30.237,93.479 30.044,93.554 29.797,93.637C29.551,93.72 29.287,93.762 29.007,93.762C28.834,93.762 28.671,93.739 28.517,93.692C28.364,93.645 28.229,93.575 28.112,93.482C27.996,93.389 27.904,93.267 27.837,93.117C27.771,92.967 27.737,92.785 27.737,92.572L27.737,89.302L27.047,89.302L27.047,88.452L27.737,88.452L27.737,86.732L28.837,86.732L28.837,88.452L29.977,88.452L29.977,89.302L28.837,89.302L28.837,92.222C28.851,92.409 28.909,92.544 29.012,92.627C29.116,92.71 29.244,92.752 29.397,92.752C29.551,92.752 29.697,92.725 29.837,92.672C29.977,92.619 30.081,92.575 30.147,92.542L30.377,93.412Z" style="fill-rule:nonzero;"/>
            <path d="M34.077,89.402C33.651,89.415 33.272,89.514 32.942,89.697C32.612,89.88 32.377,90.142 32.237,90.482L32.237,93.682L31.137,93.682L31.137,88.452L32.157,88.452L32.157,89.622C32.337,89.262 32.572,88.974 32.862,88.757C33.152,88.54 33.464,88.422 33.797,88.402C33.864,88.402 33.919,88.402 33.962,88.402C34.006,88.402 34.044,88.405 34.077,88.412L34.077,89.402Z" style="fill-rule:nonzero;"/>
            <path d="M34.877,93.682L34.877,88.452L35.977,88.452L35.977,93.682L34.877,93.682ZM34.877,87.592L34.877,86.382L35.977,86.382L35.977,87.592L34.877,87.592Z" style="fill-rule:nonzero;"/>
            <path d="M39.367,93.732C39.014,93.732 38.691,93.66 38.397,93.517C38.104,93.374 37.852,93.179 37.642,92.932C37.432,92.685 37.269,92.402 37.152,92.082C37.036,91.762 36.977,91.425 36.977,91.072C36.977,90.699 37.037,90.347 37.157,90.017C37.277,89.687 37.444,89.4 37.657,89.157C37.871,88.914 38.126,88.72 38.422,88.577C38.719,88.434 39.047,88.362 39.407,88.362C39.827,88.362 40.196,88.462 40.512,88.662C40.829,88.862 41.091,89.122 41.297,89.442L41.297,88.452L42.267,88.452L42.267,93.532C42.267,93.912 42.197,94.249 42.057,94.542C41.917,94.835 41.722,95.084 41.472,95.287C41.222,95.49 40.927,95.645 40.587,95.752C40.247,95.859 39.881,95.912 39.487,95.912C38.907,95.912 38.426,95.814 38.042,95.617C37.659,95.42 37.337,95.145 37.077,94.792L37.697,94.212C37.897,94.492 38.156,94.705 38.472,94.852C38.789,94.999 39.127,95.072 39.487,95.072C39.714,95.072 39.929,95.042 40.132,94.982C40.336,94.922 40.514,94.829 40.667,94.702C40.821,94.575 40.942,94.415 41.032,94.222C41.122,94.029 41.167,93.799 41.167,93.532L41.167,92.732C40.981,93.052 40.724,93.299 40.397,93.472C40.071,93.645 39.727,93.732 39.367,93.732ZM39.727,92.842C39.894,92.842 40.054,92.814 40.207,92.757C40.361,92.7 40.502,92.624 40.632,92.527C40.762,92.43 40.874,92.32 40.967,92.197C41.061,92.074 41.127,91.942 41.167,91.802L41.167,90.432C41.101,90.265 41.014,90.114 40.907,89.977C40.801,89.84 40.679,89.722 40.542,89.622C40.406,89.522 40.261,89.444 40.107,89.387C39.954,89.33 39.801,89.302 39.647,89.302C39.407,89.302 39.192,89.354 39.002,89.457C38.812,89.56 38.651,89.697 38.517,89.867C38.384,90.037 38.281,90.229 38.207,90.442C38.134,90.655 38.097,90.875 38.097,91.102C38.097,91.342 38.139,91.567 38.222,91.777C38.306,91.987 38.421,92.17 38.567,92.327C38.714,92.484 38.886,92.609 39.082,92.702C39.279,92.795 39.494,92.842 39.727,92.842Z" style="fill-rule:nonzero;"/>
        </g>
        <g transform="matrix(1,0,0,1,-3.23387,834.502)">
            <path d="M24.24,76.72C24.24,76.353 24.303,76.006 24.43,75.68C24.556,75.353 24.738,75.066 24.975,74.82C25.211,74.573 25.496,74.378 25.83,74.235C26.163,74.091 26.536,74.02 26.95,74.02C27.49,74.02 27.955,74.138 28.345,74.375C28.735,74.611 29.026,74.926 29.22,75.32L28.15,75.66C28.023,75.44 27.853,75.268 27.64,75.145C27.426,75.021 27.19,74.96 26.93,74.96C26.71,74.96 26.505,75.003 26.315,75.09C26.125,75.176 25.96,75.298 25.82,75.455C25.68,75.611 25.57,75.796 25.49,76.01C25.41,76.223 25.37,76.46 25.37,76.72C25.37,76.973 25.411,77.208 25.495,77.425C25.578,77.641 25.691,77.83 25.835,77.99C25.978,78.15 26.145,78.275 26.335,78.365C26.525,78.455 26.726,78.5 26.94,78.5C27.073,78.5 27.206,78.481 27.34,78.445C27.473,78.408 27.595,78.356 27.705,78.29C27.815,78.223 27.911,78.146 27.995,78.06C28.078,77.973 28.14,77.88 28.18,77.78L29.26,78.1C29.086,78.493 28.796,78.815 28.39,79.065C27.983,79.315 27.503,79.44 26.95,79.44C26.543,79.44 26.173,79.366 25.84,79.22C25.506,79.073 25.221,78.875 24.985,78.625C24.748,78.375 24.565,78.086 24.435,77.76C24.305,77.433 24.24,77.086 24.24,76.72Z" style="fill-rule:nonzero;"/>
            <path d="M31.57,79.34L29.57,74.11L30.7,74.11L32.2,78.41L33.71,74.11L34.75,74.11L32.75,79.34L31.57,79.34Z" style="fill-rule:nonzero;"/>
        </g>
        <g transform="matrix(1,0,0,1,-9.52717,914.406)">
            <path d="M30.377,93.412C30.237,93.479 30.044,93.554 29.797,93.637C29.551,93.72 29.287,93.762 29.007,93.762C28.834,93.762 28.671,93.739 28.517,93.692C28.364,93.645 28.229,93.575 28.112,93.482C27.996,93.389 27.904,93.267 27.837,93.117C27.771,92.967 27.737,92.785 27.737,92.572L27.737,89.302L27.047,89.302L27.047,88.452L27.737,88.452L27.737,86.732L28.837,86.732L28.837,88.452L29.977,88.452L29.977,89.302L28.837,89.302L28.837,92.222C28.851,92.409 28.909,92.544 29.012,92.627C29.116,92.71 29.244,92.752 29.397,92.752C29.551,92.752 29.697,92.725 29.837,92.672C29.977,92.619 30.081,92.575 30.147,92.542L30.377,93.412Z" style="fill-rule:nonzero;"/>
            <path d="M34.077,89.402C33.651,89.415 33.272,89.514 32.942,89.697C32.612,89.88 32.377,90.142 32.237,90.482L32.237,93.682L31.137,93.682L31.137,88.452L32.157,88.452L32.157,89.622C32.337,89.262 32.572,88.974 32.862,88.757C33.152,88.54 33.464,88.422 33.797,88.402C33.864,88.402 33.919,88.402 33.962,88.402C34.006,88.402 34.044,88.405 34.077,88.412L34.077,89.402Z" style="fill-rule:nonzero;"/>
            <path d="M34.877,93.682L34.877,88.452L35.977,88.452L35.977,93.682L34.877,93.682ZM34.877,87.592L34.877,86.382L35.977,86.382L35.977,87.592L34.877,87.592Z" style="fill-rule:nonzero;"/>
            <path d="M39.367,93.732C39.014,93.732 38.691,93.66 38.397,93.517C38.104,93.374 37.852,93.179 37.642,92.932C37.432,92.685 37.269,92.402 37.152,92.082C37.036,91.762 36.977,91.425 36.977,91.072C36.977,90.699 37.037,90.347 37.157,90.017C37.277,89.687 37.444,89.4 37.657,89.157C37.871,88.914 38.126,88.72 38.422,88.577C38.719,88.434 39.047,88.362 39.407,88.362C39.827,88.362 40.196,88.462 40.512,88.662C40.829,88.862 41.091,89.122 41.297,89.442L41.297,88.452L42.267,88.452L42.267,93.532C42.267,93.912 42.197,94.249 42.057,94.542C41.917,94.835 41.722,95.084 41.472,95.287C41.222,95.49 40.927,95.645 40.587,95.752C40.247,95.859 39.881,95.912 39.487,95.912C38.907,95.912 38.426,95.814 38.042,95.617C37.659,95.42 37.337,95.145 37.077,94.792L37.697,94.212C37.897,94.492 38.156,94.705 38.472,94.852C38.789,94.999 39.127,95.072 39.487,95.072C39.714,95.072 39.929,95.042 40.132,94.982C40.336,94.922 40.514,94.829 40.667,94.702C40.821,94.575 40.942,94.415 41.032,94.222C41.122,94.029 41.167,93.799 41.167,93.532L41.167,92.732C40.981,93.052 40.724,93.299 40.397,93.472C40.071,93.645 39.727,93.732 39.367,93.732ZM39.727,92.842C39.894,92.842 40.054,92.814 40.207,92.757C40.361,92.7 40.502,92.624 40.632,92.527C40.762,92.43 40.874,92.32 40.967,92.197C41.061,92.074 41.127,91.942 41.167,91.802L41.167,90.432C41.101,90.265 41.014,90.114 40.907,89.977C40.801,89.84 40.679,89.722 40.542,89.622C40.406,89.522 40.261,89.444 40.107,89.387C39.954,89.33 39.801,89.302 39.647,89.302C39.407,89.302 39.192,89.354 39.002,89.457C38.812,89.56 38.651,89.697 38.517,89.867C38.384,90.037 38.281,90.229 38.207,90.442C38.134,90.655 38.097,90.875 38.097,91.102C38.097,91.342 38.139,91.567 38.222,91.777C38.306,91.987 38.421,92.17 38.567,92.327C38.714,92.484 38.886,92.609 39.082,92.702C39.279,92.795 39.494,92.842 39.727,92.842Z" style="fill-rule:nonzero;"/>
        </g>
        <g transform="matrix(1,0,0,1,-3.23387,899.502)">
            <path d="M24.24,76.72C24.24,76.353 24.303,76.006 24.43,75.68C24.556,75.353 24.738,75.066 24.975,74.82C25.211,74.573 25.496,74.378 25.83,74.235C26.163,74.091 26.536,74.02 26.95,74.02C27.49,74.02 27.955,74.138 28.345,74.375C28.735,74.611 29.026,74.926 29.22,75.32L28.15,75.66C28.023,75.44 27.853,75.268 27.64,75.145C27.426,75.021 27.19,74.96 26.93,74.96C26.71,74.96 26.505,75.003 26.315,75.09C26.125,75.176 25.96,75.298 25.82,75.455C25.68,75.611 25.57,75.796 25.49,76.01C25.41,76.223 25.37,76.46 25.37,76.72C25.37,76.973 25.411,77.208 25.495,77.425C25.578,77.641 25.691,77.83 25.835,77.99C25.978,78.15 26.145,78.275 26.335,78.365C26.525,78.455 26.726,78.5 26.94,78.5C27.073,78.5 27.206,78.481 27.34,78.445C27.473,78.408 27.595,78.356 27.705,78.29C27.815,78.223 27.911,78.146 27.995,78.06C28.078,77.973 28.14,77.88 28.18,77.78L29.26,78.1C29.086,78.493 28.796,78.815 28.39,79.065C27.983,79.315 27.503,79.44 26.95,79.44C26.543,79.44 26.173,79.366 25.84,79.22C25.506,79.073 25.221,78.875 24.985,78.625C24.748,78.375 24.565,78.086 24.435,77.76C24.305,77.433 24.24,77.086 24.24,76.72Z" style="fill-rule:nonzero;"/>
            <path d="M31.57,79.34L29.57,74.11L30.7,74.11L32.2,78.41L33.71,74.11L34.75,74.11L32.75,79.34L31.57,79.34Z" style="fill-rule:nonzero;"/>
        </g>
        <g transform="matrix(1,0,0,1,-9.52717,979.406)">
            <path d="M30.377,93.412C30.237,93.479 30.044,93.554 29.797,93.637C29.551,93.72 29.287,93.762 29.007,93.762C28.834,93.762 28.671,93.739 28.517,93.692C28.364,93.645 28.229,93.575 28.112,93.482C27.996,93.389 27.904,93.267 27.837,93.117C27.771,92.967 27.737,92.785 27.737,92.572L27.737,89.302L27.047,89.302L27.047,88.452L27.737,88.452L27.737,86.732L28.837,86.732L28.837,88.452L29.977,88.452L29.977,89.302L28.837,89.302L28.837,92.222C28.851,92.409 28.909,92.544 29.012,92.627C29.116,92.71 29.244,92.752 29.397,92.752C29.551,92.752 29.697,92.725 29.837,92.672C29.977,92.619 30.081,92.575 30.147,92.542L30.377,93.412Z" style="fill-rule:nonzero;"/>
            <path d="M34.077,89.402C33.651,89.415 33.272,89.514 32.942,89.697C32.612,89.88 32.377,90.142 32.237,90.482L32.237,93.682L31.137,93.682L31.137,88.452L32.157,88.452L32.157,89.622C32.337,89.262 32.572,88.974 32.862,88.757C33.152,88.54 33.464,88.422 33.797,88.402C33.864,88.402 33.919,88.402 33.962,88.402C34.006,88.402 34.044,88.405 34.077,88.412L34.077,89.402Z" style="fill-rule:nonzero;"/>
            <path d="M34.877,93.682L34.877,88.452L35.977,88.452L35.977,93.682L34.877,93.682ZM34.877,87.592L34.877,86.382L35.977,86.382L35.977,87.592L34.877,87.592Z" style="fill-rule:nonzero;"/>
            <path d="M39.367,93.732C39.014,93.732 38.691,93.66 38.397,93.517C38.104,93.374 37.852,93.179 37.642,92.932C37.432,92.685 37.269,92.402 37.152,92.082C37.036,91.762 36.977,91.425 36.977,91.072C36.977,90.699 37.037,90.347 37.157,90.017C37.277,89.687 37.444,89.4 37.657,89.157C37.871,88.914 38.126,88.72 38.422,88.577C38.719,88.434 39.047,88.362 39.407,88.362C39.827,88.362 40.196,88.462 40.512,88.662C40.829,88.862 41.091,89.122 41.297,89.442L41.297,88.452L42.267,88.452L42.267,93.532C42.267,93.912 42.197,94.249 42.057,94.542C41.917,94.835 41.722,95.084 41.472,95.287C41.222,95.49 40.927,95.645 40.587,95.752C40.247,95.859 39.881,95.912 39.487,95.912C38.907,95.912 38.426,95.814 38.042,95.617C37.659,95.42 37.337,95.145 37.077,94.792L37.697,94.212C37.897,94.492 38.156,94.705 38.472,94.852C38.789,94.999 39.127,95.072 39.487,95.072C39.714,95.072 39.929,95.042 40.132,94.982C40.336,94.922 40.514,94.829 40.667,94.702C40.821,94.575 40.942,94.415 41.032,94.222C41.122,94.029 41.167,93.799 41.167,93.532L41.167,92.732C40.981,93.052 40.724,93.299 40.397,93.472C40.071,93.645 39.727,93.732 39.367,93.732ZM39.727,92.842C39.894,92.842 40.054,92.814 40.207,92.757C40.361,92.7 40.502,92.624 40.632,92.527C40.762,92.43 40.874,92.32 40.967,92.197C41.061,92.074 41.127,91.942 41.167,91.802L41.167,90.432C41.101,90.265 41.014,90.114 40.907,89.977C40.801,89.84 40.679,89.722 40.542,89.622C40.406,89.522 40.261,89.444 40.107,89.387C39.954,89.33 39.801,89.302 39.647,89.302C39.407,89.302 39.192,89.354 39.002,89.457C38.812,89.56 38.651,89.697 38.517,89.867C38.384,90.037 38.281,90.229 38.207,90.442C38.134,90.655 38.097,90.875 38.097,91.102C38.097,91.342 38.139,91.567 38.222,91.777C38.306,91.987 38.421,92.17 38.567,92.327C38.714,92.484 38.886,92.609 39.082,92.702C39.279,92.795 39.494,92.842 39.727,92.842Z" style="fill-rule:nonzero;"/>
        </g>
        <g transform="matrix(1,0,0,1,-3.23387,964.502)">
            <path d="M24.24,76.72C24.24,76.353 24.303,76.006 24.43,75.68C24.556,75.353 24.738,75.066 24.975,74.82C25.211,74.573 25.496,74.378 25.83,74.235C26.163,74.091 26.536,74.02 26.95,74.02C27.49,74.02 27.955,74.138 28.345,74.375C28.735,74.611 29.026,74.926 29.22,75.32L28.15,75.66C28.023,75.44 27.853,75.268 27.64,75.145C27.426,75.021 27.19,74.96 26.93,74.96C26.71,74.96 26.505,75.003 26.315,75.09C26.125,75.176 25.96,75.298 25.82,75.455C25.68,75.611 25.57,75.796 25.49,76.01C25.41,76.223 25.37,76.46 25.37,76.72C25.37,76.973 25.411,77.208 25.495,77.425C25.578,77.641 25.691,77.83 25.835,77.99C25.978,78.15 26.145,78.275 26.335,78.365C26.525,78.455 26.726,78.5 26.94,78.5C27.073,78.5 27.206,78.481 27.34,78.445C27.473,78.408 27.595,78.356 27.705,78.29C27.815,78.223 27.911,78.146 27.995,78.06C28.078,77.973 28.14,77.88 28.18,77.78L29.26,78.1C29.086,78.493 28.796,78.815 28.39,79.065C27.983,79.315 27.503,79.44 26.95,79.44C26.543,79.44 26.173,79.366 25.84,79.22C25.506,79.073 25.221,78.875 24.985,78.625C24.748,78.375 24.565,78.086 24.435,77.76C24.305,77.433 24.24,77.086 24.24,76.72Z" style="fill-rule:nonzero;"/>
            <path d="M31.57,79.34L29.57,74.11L30.7,74.11L32.2,78.41L33.71,74.11L34.75,74.11L32.75,79.34L31.57,79.34Z" style="fill-rule:nonzero;"/>
        </g>
        <g transform="matrix(1,0,0,1,-12.0417,763.571)">
            <path d="M38.695,64.556C38.555,64.623 38.361,64.698 38.115,64.781C37.868,64.865 37.605,64.906 37.325,64.906C37.151,64.906 36.988,64.883 36.835,64.836C36.681,64.79 36.546,64.72 36.43,64.626C36.313,64.533 36.221,64.411 36.155,64.261C36.088,64.111 36.055,63.93 36.055,63.716L36.055,60.446L35.365,60.446L35.365,59.596L36.055,59.596L36.055,57.876L37.155,57.876L37.155,59.596L38.295,59.596L38.295,60.446L37.155,60.446L37.155,63.366C37.168,63.553 37.226,63.688 37.33,63.771C37.433,63.855 37.561,63.896 37.715,63.896C37.868,63.896 38.015,63.87 38.155,63.816C38.295,63.763 38.398,63.72 38.465,63.686L38.695,64.556Z" style="fill-rule:nonzero;"/>
            <path d="M42.395,60.546C41.968,60.56 41.59,60.658 41.26,60.841C40.93,61.025 40.695,61.286 40.555,61.626L40.555,64.826L39.455,64.826L39.455,59.596L40.475,59.596L40.475,60.766C40.655,60.406 40.89,60.118 41.18,59.901C41.47,59.685 41.781,59.566 42.115,59.546C42.181,59.546 42.236,59.546 42.28,59.546C42.323,59.546 42.361,59.55 42.395,59.556L42.395,60.546Z" style="fill-rule:nonzero;"/>
            <path d="M44.515,64.926C44.261,64.926 44.026,64.885 43.81,64.801C43.593,64.718 43.406,64.603 43.25,64.456C43.093,64.31 42.97,64.136 42.88,63.936C42.79,63.736 42.745,63.52 42.745,63.286C42.745,63.04 42.798,62.816 42.905,62.616C43.011,62.416 43.163,62.243 43.36,62.096C43.556,61.95 43.79,61.836 44.06,61.756C44.33,61.676 44.628,61.636 44.955,61.636C45.201,61.636 45.445,61.658 45.685,61.701C45.925,61.745 46.141,61.803 46.335,61.876L46.335,61.516C46.335,61.13 46.225,60.828 46.005,60.611C45.785,60.395 45.468,60.286 45.055,60.286C44.775,60.286 44.5,60.338 44.23,60.441C43.96,60.545 43.681,60.693 43.395,60.886L43.055,60.186C43.728,59.733 44.428,59.506 45.155,59.506C45.875,59.506 46.435,59.69 46.835,60.056C47.235,60.423 47.435,60.95 47.435,61.636L47.435,63.526C47.435,63.76 47.531,63.88 47.725,63.886L47.725,64.826C47.618,64.846 47.526,64.86 47.45,64.866C47.373,64.873 47.298,64.876 47.225,64.876C47.011,64.876 46.846,64.823 46.73,64.716C46.613,64.61 46.541,64.473 46.515,64.306L46.485,63.976C46.251,64.283 45.963,64.518 45.62,64.681C45.276,64.845 44.908,64.926 44.515,64.926ZM44.815,64.116C45.081,64.116 45.333,64.068 45.57,63.971C45.806,63.875 45.991,63.74 46.125,63.566C46.265,63.446 46.335,63.32 46.335,63.186L46.335,62.496C46.148,62.423 45.95,62.366 45.74,62.326C45.53,62.286 45.325,62.266 45.125,62.266C44.731,62.266 44.41,62.351 44.16,62.521C43.91,62.691 43.785,62.916 43.785,63.196C43.785,63.456 43.881,63.675 44.075,63.851C44.268,64.028 44.515,64.116 44.815,64.116Z" style="fill-rule:nonzero;"/>
            <path d="M53.455,64.826L52.355,64.826L52.355,61.896C52.355,61.403 52.276,61.045 52.12,60.821C51.963,60.598 51.731,60.486 51.425,60.486C51.265,60.486 51.105,60.516 50.945,60.576C50.785,60.636 50.635,60.721 50.495,60.831C50.355,60.941 50.23,61.071 50.12,61.221C50.01,61.371 49.925,61.536 49.865,61.716L49.865,64.826L48.765,64.826L48.765,59.596L49.765,59.596L49.765,60.646C49.965,60.293 50.255,60.015 50.635,59.811C51.015,59.608 51.435,59.506 51.895,59.506C52.208,59.506 52.465,59.563 52.665,59.676C52.865,59.79 53.023,59.945 53.14,60.141C53.256,60.338 53.338,60.565 53.385,60.821C53.431,61.078 53.455,61.35 53.455,61.636L53.455,64.826Z" style="fill-rule:nonzero;"/>
            <path d="M56.635,64.926C56.215,64.926 55.796,64.858 55.38,64.721C54.963,64.585 54.605,64.39 54.305,64.136L54.745,63.436C55.058,63.663 55.368,63.835 55.675,63.951C55.981,64.068 56.295,64.126 56.615,64.126C56.941,64.126 57.2,64.063 57.39,63.936C57.58,63.81 57.675,63.63 57.675,63.396C57.675,63.176 57.568,63.016 57.355,62.916C57.141,62.816 56.808,62.706 56.355,62.586C56.028,62.5 55.748,62.416 55.515,62.336C55.281,62.256 55.091,62.163 54.945,62.056C54.798,61.95 54.691,61.826 54.625,61.686C54.558,61.546 54.525,61.376 54.525,61.176C54.525,60.91 54.576,60.673 54.68,60.466C54.783,60.26 54.926,60.085 55.11,59.941C55.293,59.798 55.508,59.69 55.755,59.616C56.001,59.543 56.268,59.506 56.555,59.506C56.948,59.506 57.315,59.566 57.655,59.686C57.995,59.806 58.298,59.98 58.565,60.206L58.095,60.866C57.608,60.48 57.091,60.286 56.545,60.286C56.265,60.286 56.03,60.345 55.84,60.461C55.65,60.578 55.555,60.763 55.555,61.016C55.555,61.123 55.575,61.213 55.615,61.286C55.655,61.36 55.72,61.423 55.81,61.476C55.9,61.53 56.016,61.578 56.16,61.621C56.303,61.665 56.481,61.713 56.695,61.766C57.048,61.853 57.353,61.94 57.61,62.026C57.866,62.113 58.078,62.215 58.245,62.331C58.411,62.448 58.535,62.585 58.615,62.741C58.695,62.898 58.735,63.086 58.735,63.306C58.735,63.806 58.546,64.201 58.17,64.491C57.793,64.781 57.281,64.926 56.635,64.926Z" style="fill-rule:nonzero;"/>
            <path d="M62.665,64.926C62.245,64.926 61.875,64.826 61.555,64.626C61.235,64.426 60.981,64.166 60.795,63.846L60.795,66.956L59.695,66.956L59.695,59.596L60.665,59.596L60.665,60.536C60.865,60.223 61.123,59.973 61.44,59.786C61.756,59.6 62.115,59.506 62.515,59.506C62.875,59.506 63.205,59.58 63.505,59.726C63.805,59.873 64.065,60.07 64.285,60.316C64.505,60.563 64.676,60.85 64.8,61.176C64.923,61.503 64.985,61.846 64.985,62.206C64.985,62.586 64.928,62.941 64.815,63.271C64.701,63.601 64.541,63.888 64.335,64.131C64.128,64.375 63.883,64.568 63.6,64.711C63.316,64.855 63.005,64.926 62.665,64.926ZM62.305,63.986C62.538,63.986 62.75,63.936 62.94,63.836C63.13,63.736 63.293,63.603 63.43,63.436C63.566,63.27 63.671,63.08 63.745,62.866C63.818,62.653 63.855,62.433 63.855,62.206C63.855,61.966 63.813,61.74 63.73,61.526C63.646,61.313 63.533,61.126 63.39,60.966C63.246,60.806 63.075,60.68 62.875,60.586C62.675,60.493 62.458,60.446 62.225,60.446C62.085,60.446 61.938,60.473 61.785,60.526C61.631,60.58 61.488,60.653 61.355,60.746C61.221,60.84 61.105,60.948 61.005,61.071C60.905,61.195 60.835,61.33 60.795,61.476L60.795,62.846C60.861,63.006 60.948,63.156 61.055,63.296C61.161,63.436 61.28,63.556 61.41,63.656C61.54,63.756 61.681,63.836 61.835,63.896C61.988,63.956 62.145,63.986 62.305,63.986Z" style="fill-rule:nonzero;"/>
            <path d="M68.325,64.926C67.911,64.926 67.54,64.853 67.21,64.706C66.88,64.56 66.598,64.363 66.365,64.116C66.131,63.87 65.951,63.581 65.825,63.251C65.698,62.921 65.635,62.576 65.635,62.216C65.635,61.856 65.698,61.511 65.825,61.181C65.951,60.851 66.133,60.563 66.37,60.316C66.606,60.07 66.89,59.873 67.22,59.726C67.55,59.58 67.918,59.506 68.325,59.506C68.731,59.506 69.1,59.58 69.43,59.726C69.76,59.873 70.043,60.07 70.28,60.316C70.516,60.563 70.698,60.851 70.825,61.181C70.951,61.511 71.015,61.856 71.015,62.216C71.015,62.576 70.951,62.921 70.825,63.251C70.698,63.581 70.516,63.87 70.28,64.116C70.043,64.363 69.76,64.56 69.43,64.706C69.1,64.853 68.731,64.926 68.325,64.926ZM66.765,62.226C66.765,62.48 66.805,62.713 66.885,62.926C66.965,63.14 67.075,63.325 67.215,63.481C67.355,63.638 67.52,63.761 67.71,63.851C67.9,63.941 68.105,63.986 68.325,63.986C68.545,63.986 68.75,63.941 68.94,63.851C69.13,63.761 69.295,63.636 69.435,63.476C69.575,63.316 69.685,63.13 69.765,62.916C69.845,62.703 69.885,62.47 69.885,62.216C69.885,61.97 69.845,61.738 69.765,61.521C69.685,61.305 69.575,61.116 69.435,60.956C69.295,60.796 69.13,60.671 68.94,60.581C68.75,60.491 68.545,60.446 68.325,60.446C68.111,60.446 67.91,60.493 67.72,60.586C67.53,60.68 67.365,60.806 67.225,60.966C67.085,61.126 66.973,61.315 66.89,61.531C66.806,61.748 66.765,61.98 66.765,62.226Z" style="fill-rule:nonzero;"/>
            <path d="M73.895,64.926C73.475,64.926 73.056,64.858 72.64,64.721C72.223,64.585 71.865,64.39 71.565,64.136L72.005,63.436C72.318,63.663 72.628,63.835 72.935,63.951C73.241,64.068 73.555,64.126 73.875,64.126C74.201,64.126 74.46,64.063 74.65,63.936C74.84,63.81 74.935,63.63 74.935,63.396C74.935,63.176 74.828,63.016 74.615,62.916C74.401,62.816 74.068,62.706 73.615,62.586C73.288,62.5 73.008,62.416 72.775,62.336C72.541,62.256 72.351,62.163 72.205,62.056C72.058,61.95 71.951,61.826 71.885,61.686C71.818,61.546 71.785,61.376 71.785,61.176C71.785,60.91 71.836,60.673 71.94,60.466C72.043,60.26 72.186,60.085 72.37,59.941C72.553,59.798 72.768,59.69 73.015,59.616C73.261,59.543 73.528,59.506 73.815,59.506C74.208,59.506 74.575,59.566 74.915,59.686C75.255,59.806 75.558,59.98 75.825,60.206L75.355,60.866C74.868,60.48 74.351,60.286 73.805,60.286C73.525,60.286 73.29,60.345 73.1,60.461C72.91,60.578 72.815,60.763 72.815,61.016C72.815,61.123 72.835,61.213 72.875,61.286C72.915,61.36 72.98,61.423 73.07,61.476C73.16,61.53 73.276,61.578 73.42,61.621C73.563,61.665 73.741,61.713 73.955,61.766C74.308,61.853 74.613,61.94 74.87,62.026C75.126,62.113 75.338,62.215 75.505,62.331C75.671,62.448 75.795,62.585 75.875,62.741C75.955,62.898 75.995,63.086 75.995,63.306C75.995,63.806 75.806,64.201 75.43,64.491C75.053,64.781 74.541,64.926 73.895,64.926Z" style="fill-rule:nonzero;"/>
            <path d="M79.325,64.926C78.918,64.926 78.548,64.855 78.215,64.711C77.881,64.568 77.596,64.373 77.36,64.126C77.123,63.88 76.94,63.593 76.81,63.266C76.68,62.94 76.615,62.593 76.615,62.226C76.615,61.86 76.68,61.511 76.81,61.181C76.94,60.851 77.123,60.561 77.36,60.311C77.596,60.061 77.881,59.865 78.215,59.721C78.548,59.578 78.921,59.506 79.335,59.506C79.741,59.506 80.11,59.58 80.44,59.726C80.77,59.873 81.051,60.068 81.285,60.311C81.518,60.555 81.696,60.838 81.82,61.161C81.943,61.485 82.005,61.823 82.005,62.176C82.005,62.256 82.001,62.331 81.995,62.401C81.988,62.471 81.981,62.53 81.975,62.576L77.785,62.576C77.805,62.81 77.86,63.02 77.95,63.206C78.04,63.393 78.156,63.555 78.3,63.691C78.443,63.828 78.606,63.933 78.79,64.006C78.973,64.08 79.165,64.116 79.365,64.116C79.511,64.116 79.656,64.098 79.8,64.061C79.943,64.025 80.075,63.971 80.195,63.901C80.315,63.831 80.421,63.746 80.515,63.646C80.608,63.546 80.681,63.436 80.735,63.316L81.675,63.586C81.495,63.98 81.196,64.301 80.78,64.551C80.363,64.801 79.878,64.926 79.325,64.926ZM80.915,61.816C80.895,61.596 80.84,61.393 80.75,61.206C80.66,61.02 80.545,60.861 80.405,60.731C80.265,60.601 80.101,60.5 79.915,60.426C79.728,60.353 79.531,60.316 79.325,60.316C79.118,60.316 78.923,60.353 78.74,60.426C78.556,60.5 78.395,60.601 78.255,60.731C78.115,60.861 78.001,61.02 77.915,61.206C77.828,61.393 77.775,61.596 77.755,61.816L80.915,61.816Z" style="fill-rule:nonzero;"/>
        </g>
        <g transform="matrix(1,0,0,1,5.41955,751.407)">
            <path d="M16.798,37.949C16.378,37.949 15.96,37.881 15.543,37.744C15.127,37.608 14.768,37.413 14.468,37.159L14.908,36.459C15.222,36.686 15.532,36.858 15.838,36.974C16.145,37.091 16.458,37.149 16.778,37.149C17.105,37.149 17.363,37.086 17.553,36.959C17.743,36.833 17.838,36.653 17.838,36.419C17.838,36.199 17.732,36.039 17.518,35.939C17.305,35.839 16.972,35.729 16.518,35.609C16.192,35.523 15.912,35.439 15.678,35.359C15.445,35.279 15.255,35.186 15.108,35.079C14.962,34.973 14.855,34.849 14.788,34.709C14.722,34.569 14.688,34.399 14.688,34.199C14.688,33.933 14.74,33.696 14.843,33.489C14.947,33.283 15.09,33.108 15.273,32.964C15.457,32.821 15.672,32.713 15.918,32.639C16.165,32.566 16.432,32.529 16.718,32.529C17.112,32.529 17.478,32.589 17.818,32.709C18.158,32.829 18.462,33.003 18.728,33.229L18.258,33.889C17.772,33.503 17.255,33.309 16.708,33.309C16.428,33.309 16.193,33.368 16.003,33.484C15.813,33.601 15.718,33.786 15.718,34.039C15.718,34.146 15.738,34.236 15.778,34.309C15.818,34.383 15.883,34.446 15.973,34.499C16.063,34.553 16.18,34.601 16.323,34.644C16.467,34.688 16.645,34.736 16.858,34.789C17.212,34.876 17.517,34.963 17.773,35.049C18.03,35.136 18.242,35.238 18.408,35.354C18.575,35.471 18.698,35.608 18.778,35.764C18.858,35.921 18.898,36.109 18.898,36.329C18.898,36.829 18.71,37.224 18.333,37.514C17.957,37.804 17.445,37.949 16.798,37.949Z" style="fill-rule:nonzero;"/>
            <path d="M19.518,35.229C19.518,34.863 19.582,34.516 19.708,34.189C19.835,33.863 20.017,33.576 20.253,33.329C20.49,33.083 20.775,32.888 21.108,32.744C21.442,32.601 21.815,32.529 22.228,32.529C22.768,32.529 23.233,32.648 23.623,32.884C24.013,33.121 24.305,33.436 24.498,33.829L23.428,34.169C23.302,33.949 23.132,33.778 22.918,33.654C22.705,33.531 22.468,33.469 22.208,33.469C21.988,33.469 21.783,33.513 21.593,33.599C21.403,33.686 21.238,33.808 21.098,33.964C20.958,34.121 20.848,34.306 20.768,34.519C20.688,34.733 20.648,34.969 20.648,35.229C20.648,35.483 20.69,35.718 20.773,35.934C20.857,36.151 20.97,36.339 21.113,36.499C21.257,36.659 21.423,36.784 21.613,36.874C21.803,36.964 22.005,37.009 22.218,37.009C22.352,37.009 22.485,36.991 22.618,36.954C22.752,36.918 22.873,36.866 22.983,36.799C23.093,36.733 23.19,36.656 23.273,36.569C23.357,36.483 23.418,36.389 23.458,36.289L24.538,36.609C24.365,37.003 24.075,37.324 23.668,37.574C23.262,37.824 22.782,37.949 22.228,37.949C21.822,37.949 21.452,37.876 21.118,37.729C20.785,37.583 20.5,37.384 20.263,37.134C20.027,36.884 19.843,36.596 19.713,36.269C19.583,35.943 19.518,35.596 19.518,35.229Z" style="fill-rule:nonzero;"/>
            <path d="M26.838,37.949C26.585,37.949 26.35,37.908 26.133,37.824C25.917,37.741 25.73,37.626 25.573,37.479C25.417,37.333 25.293,37.159 25.203,36.959C25.113,36.759 25.068,36.543 25.068,36.309C25.068,36.063 25.122,35.839 25.228,35.639C25.335,35.439 25.487,35.266 25.683,35.119C25.88,34.973 26.113,34.859 26.383,34.779C26.653,34.699 26.952,34.659 27.278,34.659C27.525,34.659 27.768,34.681 28.008,34.724C28.248,34.768 28.465,34.826 28.658,34.899L28.658,34.539C28.658,34.153 28.548,33.851 28.328,33.634C28.108,33.418 27.792,33.309 27.378,33.309C27.098,33.309 26.823,33.361 26.553,33.464C26.283,33.568 26.005,33.716 25.718,33.909L25.378,33.209C26.052,32.756 26.752,32.529 27.478,32.529C28.198,32.529 28.758,32.713 29.158,33.079C29.558,33.446 29.758,33.973 29.758,34.659L29.758,36.549C29.758,36.783 29.855,36.903 30.048,36.909L30.048,37.849C29.942,37.869 29.85,37.883 29.773,37.889C29.697,37.896 29.622,37.899 29.548,37.899C29.335,37.899 29.17,37.846 29.053,37.739C28.937,37.633 28.865,37.496 28.838,37.329L28.808,36.999C28.575,37.306 28.287,37.541 27.943,37.704C27.6,37.868 27.232,37.949 26.838,37.949ZM27.138,37.139C27.405,37.139 27.657,37.091 27.893,36.994C28.13,36.898 28.315,36.763 28.448,36.589C28.588,36.469 28.658,36.343 28.658,36.209L28.658,35.519C28.472,35.446 28.273,35.389 28.063,35.349C27.853,35.309 27.648,35.289 27.448,35.289C27.055,35.289 26.733,35.374 26.483,35.544C26.233,35.714 26.108,35.939 26.108,36.219C26.108,36.479 26.205,36.698 26.398,36.874C26.592,37.051 26.838,37.139 27.138,37.139Z" style="fill-rule:nonzero;"/>
            <path d="M31.098,30.549L32.198,30.549L32.198,36.339C32.198,36.533 32.248,36.684 32.348,36.794C32.448,36.904 32.588,36.959 32.768,36.959C32.842,36.959 32.927,36.946 33.023,36.919C33.12,36.893 33.212,36.863 33.298,36.829L33.458,37.689C33.298,37.763 33.108,37.821 32.888,37.864C32.668,37.908 32.472,37.929 32.298,37.929C31.918,37.929 31.623,37.826 31.413,37.619C31.203,37.413 31.098,37.119 31.098,36.739L31.098,30.549Z" style="fill-rule:nonzero;"/>
            <path d="M36.468,37.949C36.062,37.949 35.692,37.878 35.358,37.734C35.025,37.591 34.74,37.396 34.503,37.149C34.267,36.903 34.083,36.616 33.953,36.289C33.823,35.963 33.758,35.616 33.758,35.249C33.758,34.883 33.823,34.534 33.953,34.204C34.083,33.874 34.267,33.584 34.503,33.334C34.74,33.084 35.025,32.888 35.358,32.744C35.692,32.601 36.065,32.529 36.478,32.529C36.885,32.529 37.253,32.603 37.583,32.749C37.913,32.896 38.195,33.091 38.428,33.334C38.662,33.578 38.84,33.861 38.963,34.184C39.087,34.508 39.148,34.846 39.148,35.199C39.148,35.279 39.145,35.354 39.138,35.424C39.132,35.494 39.125,35.553 39.118,35.599L34.928,35.599C34.948,35.833 35.003,36.043 35.093,36.229C35.183,36.416 35.3,36.578 35.443,36.714C35.587,36.851 35.75,36.956 35.933,37.029C36.117,37.103 36.308,37.139 36.508,37.139C36.655,37.139 36.8,37.121 36.943,37.084C37.087,37.048 37.218,36.994 37.338,36.924C37.458,36.854 37.565,36.769 37.658,36.669C37.752,36.569 37.825,36.459 37.878,36.339L38.818,36.609C38.638,37.003 38.34,37.324 37.923,37.574C37.507,37.824 37.022,37.949 36.468,37.949ZM38.058,34.839C38.038,34.619 37.983,34.416 37.893,34.229C37.803,34.043 37.688,33.884 37.548,33.754C37.408,33.624 37.245,33.523 37.058,33.449C36.872,33.376 36.675,33.339 36.468,33.339C36.262,33.339 36.067,33.376 35.883,33.449C35.7,33.523 35.538,33.624 35.398,33.754C35.258,33.884 35.145,34.043 35.058,34.229C34.972,34.416 34.918,34.619 34.898,34.839L38.058,34.839Z" style="fill-rule:nonzero;"/>
        </g>
        <g transform="matrix(1,0,0,1,-21,737.52)">
            <path d="M94.364,105.545C94.364,105.178 94.428,104.831 94.554,104.505C94.681,104.178 94.863,103.891 95.099,103.645C95.336,103.398 95.621,103.203 95.954,103.06C96.288,102.916 96.661,102.845 97.074,102.845C97.614,102.845 98.079,102.963 98.469,103.2C98.859,103.436 99.151,103.751 99.344,104.145L98.274,104.485C98.148,104.265 97.978,104.093 97.764,103.97C97.551,103.846 97.314,103.785 97.054,103.785C96.834,103.785 96.629,103.828 96.439,103.915C96.249,104.001 96.084,104.123 95.944,104.28C95.804,104.436 95.694,104.621 95.614,104.835C95.534,105.048 95.494,105.285 95.494,105.545C95.494,105.798 95.536,106.033 95.619,106.25C95.703,106.466 95.816,106.655 95.959,106.815C96.103,106.975 96.269,107.1 96.459,107.19C96.649,107.28 96.851,107.325 97.064,107.325C97.198,107.325 97.331,107.306 97.464,107.27C97.598,107.233 97.719,107.181 97.829,107.115C97.939,107.048 98.036,106.971 98.119,106.885C98.203,106.798 98.264,106.705 98.304,106.605L99.384,106.925C99.211,107.318 98.921,107.64 98.514,107.89C98.108,108.14 97.628,108.265 97.074,108.265C96.668,108.265 96.298,108.191 95.964,108.045C95.631,107.898 95.346,107.7 95.109,107.45C94.873,107.2 94.689,106.911 94.559,106.585C94.429,106.258 94.364,105.911 94.364,105.545Z" style="fill-rule:nonzero;"/>
            <path d="M101.694,108.165L99.694,102.935L100.824,102.935L102.324,107.235L103.834,102.935L104.874,102.935L102.874,108.165L101.694,108.165Z" style="fill-rule:nonzero;"/>
            <path d="M109.244,108.265C108.991,108.265 108.756,108.223 108.539,108.14C108.323,108.056 108.136,107.941 107.979,107.795C107.823,107.648 107.699,107.475 107.609,107.275C107.519,107.075 107.474,106.858 107.474,106.625C107.474,106.378 107.528,106.155 107.634,105.955C107.741,105.755 107.893,105.581 108.089,105.435C108.286,105.288 108.519,105.175 108.789,105.095C109.059,105.015 109.358,104.975 109.684,104.975C109.931,104.975 110.174,104.996 110.414,105.04C110.654,105.083 110.871,105.141 111.064,105.215L111.064,104.855C111.064,104.468 110.954,104.166 110.734,103.95C110.514,103.733 110.198,103.625 109.784,103.625C109.504,103.625 109.229,103.676 108.959,103.78C108.689,103.883 108.411,104.031 108.124,104.225L107.784,103.525C108.458,103.071 109.158,102.845 109.884,102.845C110.604,102.845 111.164,103.028 111.564,103.395C111.964,103.761 112.164,104.288 112.164,104.975L112.164,106.865C112.164,107.098 112.261,107.218 112.454,107.225L112.454,108.165C112.348,108.185 112.256,108.198 112.179,108.205C112.103,108.211 112.028,108.215 111.954,108.215C111.741,108.215 111.576,108.161 111.459,108.055C111.343,107.948 111.271,107.811 111.244,107.645L111.214,107.315C110.981,107.621 110.693,107.856 110.349,108.02C110.006,108.183 109.638,108.265 109.244,108.265ZM109.544,107.455C109.811,107.455 110.063,107.406 110.299,107.31C110.536,107.213 110.721,107.078 110.854,106.905C110.994,106.785 111.064,106.658 111.064,106.525L111.064,105.835C110.878,105.761 110.679,105.705 110.469,105.665C110.259,105.625 110.054,105.605 109.854,105.605C109.461,105.605 109.139,105.69 108.889,105.86C108.639,106.03 108.514,106.255 108.514,106.535C108.514,106.795 108.611,107.013 108.804,107.19C108.998,107.366 109.244,107.455 109.544,107.455Z" style="fill-rule:nonzero;"/>
            <path d="M116.364,107.895C116.224,107.961 116.031,108.036 115.784,108.12C115.538,108.203 115.274,108.245 114.994,108.245C114.821,108.245 114.658,108.221 114.504,108.175C114.351,108.128 114.216,108.058 114.099,107.965C113.983,107.871 113.891,107.75 113.824,107.6C113.758,107.45 113.724,107.268 113.724,107.055L113.724,103.785L113.034,103.785L113.034,102.935L113.724,102.935L113.724,101.215L114.824,101.215L114.824,102.935L115.964,102.935L115.964,103.785L114.824,103.785L114.824,106.705C114.838,106.891 114.896,107.026 114.999,107.11C115.103,107.193 115.231,107.235 115.384,107.235C115.538,107.235 115.684,107.208 115.824,107.155C115.964,107.101 116.068,107.058 116.134,107.025L116.364,107.895Z" style="fill-rule:nonzero;"/>
            <path d="M120.034,107.895C119.894,107.961 119.701,108.036 119.454,108.12C119.208,108.203 118.944,108.245 118.664,108.245C118.491,108.245 118.328,108.221 118.174,108.175C118.021,108.128 117.886,108.058 117.769,107.965C117.653,107.871 117.561,107.75 117.494,107.6C117.428,107.45 117.394,107.268 117.394,107.055L117.394,103.785L116.704,103.785L116.704,102.935L117.394,102.935L117.394,101.215L118.494,101.215L118.494,102.935L119.634,102.935L119.634,103.785L118.494,103.785L118.494,106.705C118.508,106.891 118.566,107.026 118.669,107.11C118.773,107.193 118.901,107.235 119.054,107.235C119.208,107.235 119.354,107.208 119.494,107.155C119.634,107.101 119.738,107.058 119.804,107.025L120.034,107.895Z" style="fill-rule:nonzero;"/>
        </g>
        <g transform="matrix(1,0,0,1,-15.9447,748.141)">
            <path d="M32.381,15.982L32.381,7.462L34.349,7.462L34.349,14.254L38.477,14.254L38.477,15.982L32.381,15.982Z" style="fill-rule:nonzero;"/>
            <path d="M41.033,16.102C40.721,16.102 40.431,16.052 40.163,15.952C39.895,15.852 39.665,15.712 39.473,15.532C39.281,15.352 39.129,15.14 39.017,14.896C38.905,14.652 38.849,14.386 38.849,14.098C38.849,13.786 38.915,13.502 39.047,13.246C39.179,12.99 39.365,12.77 39.605,12.586C39.845,12.402 40.129,12.258 40.457,12.154C40.785,12.05 41.149,11.998 41.549,11.998C41.813,11.998 42.069,12.02 42.317,12.064C42.565,12.108 42.781,12.174 42.965,12.262L42.965,11.974C42.965,11.246 42.545,10.882 41.705,10.882C41.361,10.882 41.033,10.94 40.721,11.056C40.409,11.172 40.081,11.346 39.737,11.578L39.173,10.378C39.589,10.106 40.021,9.902 40.469,9.766C40.917,9.63 41.393,9.562 41.897,9.562C42.849,9.562 43.585,9.786 44.105,10.234C44.625,10.682 44.885,11.338 44.885,12.202L44.885,13.822C44.885,14.014 44.915,14.148 44.975,14.224C45.035,14.3 45.141,14.346 45.293,14.362L45.293,15.982C45.125,16.022 44.973,16.048 44.837,16.06C44.701,16.072 44.577,16.078 44.465,16.078C44.105,16.078 43.833,16.008 43.649,15.868C43.465,15.728 43.349,15.53 43.301,15.274L43.265,14.986C42.985,15.346 42.651,15.622 42.263,15.814C41.875,16.006 41.465,16.102 41.033,16.102ZM41.597,14.722C41.805,14.722 42.007,14.686 42.203,14.614C42.399,14.542 42.561,14.446 42.689,14.326C42.873,14.182 42.965,14.03 42.965,13.87L42.965,13.27C42.797,13.206 42.615,13.156 42.419,13.12C42.223,13.084 42.041,13.066 41.873,13.066C41.521,13.066 41.231,13.146 41.003,13.306C40.775,13.466 40.661,13.674 40.661,13.93C40.661,14.162 40.749,14.352 40.925,14.5C41.101,14.648 41.325,14.722 41.597,14.722Z" style="fill-rule:nonzero;"/>
            <path d="M45.905,14.83L49.121,11.014L46.073,11.014L46.073,9.682L51.125,9.682L51.125,10.834L47.933,14.65L51.209,14.65L51.209,15.982L45.905,15.982L45.905,14.83Z" style="fill-rule:nonzero;"/>
            <path d="M52.253,16.93C52.413,16.986 52.563,17.026 52.703,17.05C52.843,17.074 52.969,17.086 53.081,17.086C53.313,17.086 53.493,17.006 53.621,16.846C53.749,16.686 53.865,16.398 53.969,15.982L51.569,9.682L53.549,9.682L55.013,14.338L56.273,9.682L58.073,9.682L55.673,17.002C55.505,17.522 55.205,17.944 54.773,18.268C54.341,18.592 53.829,18.754 53.237,18.754C53.077,18.754 52.915,18.74 52.751,18.712C52.587,18.684 52.421,18.638 52.253,18.574L52.253,16.93Z" style="fill-rule:nonzero;"/>
            <path d="M66.569,9.958C66.545,9.926 66.461,9.866 66.317,9.778C66.173,9.69 65.993,9.598 65.777,9.502C65.561,9.406 65.325,9.322 65.069,9.25C64.813,9.178 64.557,9.142 64.301,9.142C63.597,9.142 63.245,9.378 63.245,9.85C63.245,9.994 63.283,10.114 63.359,10.21C63.435,10.306 63.547,10.392 63.695,10.468C63.843,10.544 64.029,10.614 64.253,10.678C64.477,10.742 64.737,10.814 65.033,10.894C65.441,11.006 65.809,11.128 66.137,11.26C66.465,11.392 66.743,11.556 66.971,11.752C67.199,11.948 67.375,12.186 67.499,12.466C67.623,12.746 67.685,13.082 67.685,13.474C67.685,13.954 67.595,14.36 67.415,14.692C67.235,15.024 66.997,15.292 66.701,15.496C66.405,15.7 66.065,15.848 65.681,15.94C65.297,16.032 64.901,16.078 64.493,16.078C64.181,16.078 63.861,16.054 63.533,16.006C63.205,15.958 62.885,15.888 62.573,15.796C62.261,15.704 61.959,15.594 61.667,15.466C61.375,15.338 61.105,15.19 60.857,15.022L61.721,13.306C61.753,13.346 61.857,13.422 62.033,13.534C62.209,13.646 62.427,13.758 62.687,13.87C62.947,13.982 63.237,14.082 63.557,14.17C63.877,14.258 64.201,14.302 64.529,14.302C65.225,14.302 65.573,14.09 65.573,13.666C65.573,13.506 65.521,13.374 65.417,13.27C65.313,13.166 65.169,13.072 64.985,12.988C64.801,12.904 64.583,12.826 64.331,12.754C64.079,12.682 63.805,12.602 63.509,12.514C63.117,12.394 62.777,12.264 62.489,12.124C62.201,11.984 61.963,11.822 61.775,11.638C61.587,11.454 61.447,11.242 61.355,11.002C61.263,10.762 61.217,10.482 61.217,10.162C61.217,9.714 61.301,9.318 61.469,8.974C61.637,8.63 61.865,8.34 62.153,8.104C62.441,7.868 62.775,7.69 63.155,7.57C63.535,7.45 63.937,7.39 64.361,7.39C64.657,7.39 64.949,7.418 65.237,7.474C65.525,7.53 65.801,7.602 66.065,7.69C66.329,7.778 66.575,7.878 66.803,7.99C67.031,8.102 67.241,8.214 67.433,8.326L66.569,9.958Z" style="fill-rule:nonzero;"/>
            <path d="M70.589,16.102C69.941,16.102 69.451,15.9 69.119,15.496C68.787,15.092 68.621,14.498 68.621,13.714L68.621,9.682L70.541,9.682L70.541,13.294C70.541,13.678 70.617,13.972 70.769,14.176C70.921,14.38 71.137,14.482 71.417,14.482C71.673,14.482 71.921,14.414 72.161,14.278C72.401,14.142 72.613,13.906 72.797,13.57L72.797,9.682L74.717,9.682L74.717,13.822C74.717,14.014 74.747,14.148 74.807,14.224C74.867,14.3 74.973,14.346 75.125,14.362L75.125,15.982C74.941,16.022 74.785,16.048 74.657,16.06C74.529,16.072 74.413,16.078 74.309,16.078C73.621,16.078 73.229,15.81 73.133,15.274L73.097,14.89C72.809,15.306 72.451,15.612 72.023,15.808C71.595,16.004 71.117,16.102 70.589,16.102Z" style="fill-rule:nonzero;"/>
            <path d="M78.689,16.102C78.153,16.102 77.625,16.016 77.105,15.844C76.585,15.672 76.145,15.422 75.785,15.094L76.469,13.918C76.853,14.182 77.227,14.386 77.591,14.53C77.955,14.674 78.305,14.746 78.641,14.746C78.889,14.746 79.081,14.702 79.217,14.614C79.353,14.526 79.421,14.398 79.421,14.23C79.421,14.062 79.335,13.928 79.163,13.828C78.991,13.728 78.689,13.622 78.257,13.51C77.833,13.39 77.475,13.274 77.183,13.162C76.891,13.05 76.653,12.926 76.469,12.79C76.285,12.654 76.153,12.498 76.073,12.322C75.993,12.146 75.953,11.938 75.953,11.698C75.953,11.378 76.017,11.086 76.145,10.822C76.273,10.558 76.449,10.334 76.673,10.15C76.897,9.966 77.163,9.822 77.471,9.718C77.779,9.614 78.113,9.562 78.473,9.562C78.945,9.562 79.387,9.626 79.799,9.754C80.211,9.882 80.609,10.114 80.993,10.45L80.249,11.602C79.889,11.354 79.569,11.174 79.289,11.062C79.009,10.95 78.737,10.894 78.473,10.894C78.265,10.894 78.089,10.936 77.945,11.02C77.801,11.104 77.729,11.238 77.729,11.422C77.729,11.598 77.807,11.73 77.963,11.818C78.119,11.906 78.409,12.002 78.833,12.106C79.281,12.226 79.659,12.346 79.967,12.466C80.275,12.586 80.525,12.72 80.717,12.868C80.909,13.016 81.049,13.186 81.137,13.378C81.225,13.57 81.269,13.798 81.269,14.062C81.269,14.686 81.037,15.182 80.573,15.55C80.109,15.918 79.481,16.102 78.689,16.102Z" style="fill-rule:nonzero;"/>
            <path d="M83.981,16.102C83.669,16.102 83.379,16.052 83.111,15.952C82.843,15.852 82.613,15.712 82.421,15.532C82.229,15.352 82.077,15.14 81.965,14.896C81.853,14.652 81.797,14.386 81.797,14.098C81.797,13.786 81.863,13.502 81.995,13.246C82.127,12.99 82.313,12.77 82.553,12.586C82.793,12.402 83.077,12.258 83.405,12.154C83.733,12.05 84.097,11.998 84.497,11.998C84.761,11.998 85.017,12.02 85.265,12.064C85.513,12.108 85.729,12.174 85.913,12.262L85.913,11.974C85.913,11.246 85.493,10.882 84.653,10.882C84.309,10.882 83.981,10.94 83.669,11.056C83.357,11.172 83.029,11.346 82.685,11.578L82.121,10.378C82.537,10.106 82.969,9.902 83.417,9.766C83.865,9.63 84.341,9.562 84.845,9.562C85.797,9.562 86.533,9.786 87.053,10.234C87.573,10.682 87.833,11.338 87.833,12.202L87.833,13.822C87.833,14.014 87.863,14.148 87.923,14.224C87.983,14.3 88.089,14.346 88.241,14.362L88.241,15.982C88.073,16.022 87.921,16.048 87.785,16.06C87.649,16.072 87.525,16.078 87.413,16.078C87.053,16.078 86.781,16.008 86.597,15.868C86.413,15.728 86.297,15.53 86.249,15.274L86.213,14.986C85.933,15.346 85.599,15.622 85.211,15.814C84.823,16.006 84.413,16.102 83.981,16.102ZM84.545,14.722C84.753,14.722 84.955,14.686 85.151,14.614C85.347,14.542 85.509,14.446 85.637,14.326C85.821,14.182 85.913,14.03 85.913,13.87L85.913,13.27C85.745,13.206 85.563,13.156 85.367,13.12C85.171,13.084 84.989,13.066 84.821,13.066C84.469,13.066 84.179,13.146 83.951,13.306C83.723,13.466 83.609,13.674 83.609,13.93C83.609,14.162 83.697,14.352 83.873,14.5C84.049,14.648 84.273,14.722 84.545,14.722Z" style="fill-rule:nonzero;"/>
            <path d="M95.297,15.982L93.377,15.982L93.377,12.442C93.377,12.026 93.299,11.724 93.143,11.536C92.987,11.348 92.781,11.254 92.525,11.254C92.389,11.254 92.253,11.282 92.117,11.338C91.981,11.394 91.849,11.472 91.721,11.572C91.593,11.672 91.479,11.79 91.379,11.926C91.279,12.062 91.201,12.21 91.145,12.37L91.145,15.982L89.225,15.982L89.225,9.682L90.953,9.682L90.953,10.738C91.185,10.362 91.513,10.072 91.937,9.868C92.361,9.664 92.849,9.562 93.401,9.562C93.809,9.562 94.137,9.636 94.385,9.784C94.633,9.932 94.825,10.124 94.961,10.36C95.097,10.596 95.187,10.854 95.231,11.134C95.275,11.414 95.297,11.686 95.297,11.95L95.297,15.982Z" style="fill-rule:nonzero;"/>
        </g>
    </g>
</svg>
