<?xml version="1.0" encoding="UTF-8" standalone="no"?>
<!DOCTYPE svg PUBLIC "-//W3C//DTD SVG 1.1//EN" "http://www.w3.org/Graphics/SVG/1.1/DTD/svg11.dtd">
<svg width="100%" height="100%" viewBox="0 0 120 380" version="1.1" xmlns="http://www.w3.org/2000/svg" xmlns:xlink="http://www.w3.org/1999/xlink" xml:space="preserve" xmlns:serif="http://www.serif.com/" style="fill-rule:evenodd;clip-rule:evenodd;stroke-linejoin:round;stroke-miterlimit:1.41421;">
    <g id="Layer-1" serif:id="Layer 1" transform="matrix(1,0,0,1,15,-742.52)">
        <g id="background" transform="matrix(1.33333,0,0,1,-15,5.68434e-14)">
            <rect x="0" y="742.52" width="90" height="380" style="fill:rgb(240,240,240);"/>
        </g>
        <g transform="matrix(1,0,0,1,15.218,809.442)">
            <path d="M1.845,0.09C1.617,0.09 1.406,0.053 1.211,-0.023C1.016,-0.098 0.848,-0.201 0.707,-0.333C0.566,-0.465 0.454,-0.621 0.374,-0.801C0.293,-0.981 0.252,-1.176 0.252,-1.386C0.252,-1.608 0.3,-1.809 0.396,-1.989C0.492,-2.169 0.628,-2.325 0.806,-2.457C0.983,-2.589 1.193,-2.691 1.436,-2.763C1.679,-2.835 1.947,-2.871 2.241,-2.871C2.463,-2.871 2.682,-2.852 2.898,-2.813C3.114,-2.774 3.309,-2.721 3.483,-2.655L3.483,-2.979C3.483,-3.327 3.384,-3.599 3.186,-3.794C2.988,-3.988 2.703,-4.086 2.331,-4.086C2.079,-4.086 1.832,-4.04 1.588,-3.947C1.346,-3.854 1.095,-3.72 0.837,-3.546L0.531,-4.176C1.137,-4.584 1.767,-4.788 2.421,-4.788C3.069,-4.788 3.573,-4.623 3.933,-4.293C4.293,-3.963 4.473,-3.489 4.473,-2.871L4.473,-1.17C4.473,-0.96 4.56,-0.852 4.734,-0.846L4.734,0C4.638,0.018 4.556,0.03 4.487,0.036C4.417,0.042 4.35,0.045 4.284,0.045C4.092,0.045 3.943,-0.003 3.838,-0.099C3.733,-0.195 3.669,-0.318 3.645,-0.468L3.618,-0.765C3.408,-0.489 3.149,-0.278 2.84,-0.131C2.531,0.017 2.199,0.09 1.845,0.09ZM2.115,-0.639C2.355,-0.639 2.582,-0.683 2.795,-0.77C3.008,-0.857 3.174,-0.978 3.294,-1.134C3.42,-1.242 3.483,-1.356 3.483,-1.476L3.483,-2.097C3.315,-2.163 3.137,-2.214 2.948,-2.25C2.758,-2.286 2.574,-2.304 2.394,-2.304C2.04,-2.304 1.751,-2.228 1.526,-2.075C1.301,-1.922 1.188,-1.719 1.188,-1.467C1.188,-1.233 1.275,-1.037 1.449,-0.878C1.623,-0.719 1.845,-0.639 2.115,-0.639Z" style="fill-rule:nonzero;"/>
            <path d="M8.253,-0.243C8.127,-0.183 7.953,-0.116 7.731,-0.041C7.509,0.034 7.272,0.072 7.02,0.072C6.864,0.072 6.717,0.051 6.579,0.009C6.441,-0.033 6.319,-0.096 6.215,-0.18C6.11,-0.264 6.027,-0.374 5.967,-0.509C5.907,-0.644 5.877,-0.807 5.877,-0.999L5.877,-3.942L5.256,-3.942L5.256,-4.707L5.877,-4.707L5.877,-6.255L6.867,-6.255L6.867,-4.707L7.893,-4.707L7.893,-3.942L6.867,-3.942L6.867,-1.314C6.879,-1.146 6.932,-1.025 7.025,-0.95C7.118,-0.874 7.233,-0.837 7.371,-0.837C7.509,-0.837 7.641,-0.861 7.767,-0.909C7.893,-0.957 7.986,-0.996 8.046,-1.026L8.253,-0.243Z" style="fill-rule:nonzero;"/>
            <path d="M11.556,-0.243C11.43,-0.183 11.256,-0.116 11.034,-0.041C10.812,0.034 10.575,0.072 10.323,0.072C10.167,0.072 10.02,0.051 9.882,0.009C9.744,-0.033 9.623,-0.096 9.518,-0.18C9.413,-0.264 9.33,-0.374 9.27,-0.509C9.21,-0.644 9.18,-0.807 9.18,-0.999L9.18,-3.942L8.559,-3.942L8.559,-4.707L9.18,-4.707L9.18,-6.255L10.17,-6.255L10.17,-4.707L11.196,-4.707L11.196,-3.942L10.17,-3.942L10.17,-1.314C10.182,-1.146 10.235,-1.025 10.328,-0.95C10.421,-0.874 10.536,-0.837 10.674,-0.837C10.812,-0.837 10.944,-0.861 11.07,-0.909C11.196,-0.957 11.289,-0.996 11.349,-1.026L11.556,-0.243Z" style="fill-rule:nonzero;"/>
        </g>
        <g transform="matrix(1,0,0,1,-18,742.52)">
            <path d="M9.33,39.023L10.098,39.023L9.774,40.523C10.086,40.067 10.44,39.705 10.836,39.437C11.232,39.169 11.634,39.027 12.042,39.011C12.106,39.011 12.16,39.013 12.204,39.017C12.248,39.021 12.29,39.027 12.33,39.035L12.174,39.743C11.654,39.759 11.17,39.911 10.722,40.199C10.274,40.487 9.914,40.883 9.642,41.387L8.826,45.275L8.01,45.275L9.33,39.023Z" style="fill-rule:nonzero;"/>
            <path d="M14.418,45.395C14.034,45.395 13.692,45.327 13.392,45.191C13.092,45.055 12.84,44.867 12.636,44.627C12.432,44.387 12.276,44.107 12.168,43.787C12.06,43.467 12.006,43.123 12.006,42.755C12.006,42.259 12.102,41.781 12.294,41.321C12.486,40.861 12.75,40.453 13.086,40.097C13.422,39.741 13.82,39.455 14.28,39.239C14.74,39.023 15.238,38.915 15.774,38.915C16.046,38.915 16.304,38.951 16.548,39.023C16.792,39.095 17.004,39.201 17.184,39.341C17.364,39.481 17.506,39.657 17.61,39.869C17.714,40.081 17.766,40.323 17.766,40.595C17.766,41.211 17.494,41.675 16.95,41.987C16.406,42.299 15.566,42.455 14.43,42.455C14.206,42.455 13.964,42.451 13.704,42.443C13.444,42.435 13.162,42.419 12.858,42.395C12.85,42.459 12.844,42.519 12.84,42.575C12.836,42.631 12.834,42.687 12.834,42.743C12.834,43.015 12.87,43.273 12.942,43.517C13.014,43.761 13.122,43.977 13.266,44.165C13.41,44.353 13.59,44.501 13.806,44.609C14.022,44.717 14.274,44.771 14.562,44.771C14.754,44.771 14.95,44.743 15.15,44.687C15.35,44.631 15.54,44.553 15.72,44.453C15.9,44.353 16.066,44.231 16.218,44.087C16.37,43.943 16.498,43.783 16.602,43.607L17.274,43.811C17.13,44.043 16.954,44.257 16.746,44.453C16.538,44.649 16.308,44.817 16.056,44.957C15.804,45.097 15.54,45.205 15.264,45.281C14.988,45.357 14.706,45.395 14.418,45.395ZM15.69,39.551C15.33,39.551 15.002,39.615 14.706,39.743C14.41,39.871 14.146,40.039 13.914,40.247C13.682,40.455 13.486,40.695 13.326,40.967C13.166,41.239 13.046,41.519 12.966,41.807C13.254,41.823 13.52,41.837 13.764,41.849C14.008,41.861 14.242,41.867 14.466,41.867C14.938,41.867 15.338,41.835 15.666,41.771C15.994,41.707 16.258,41.619 16.458,41.507C16.658,41.395 16.802,41.259 16.89,41.099C16.978,40.939 17.022,40.767 17.022,40.583C17.022,40.223 16.89,39.961 16.626,39.797C16.362,39.633 16.05,39.551 15.69,39.551Z" style="fill-rule:nonzero;"/>
            <path d="M20.79,45.395C20.422,45.395 20.09,45.325 19.794,45.185C19.498,45.045 19.248,44.855 19.044,44.615C18.84,44.375 18.684,44.095 18.576,43.775C18.468,43.455 18.414,43.115 18.414,42.755C18.414,42.251 18.514,41.767 18.714,41.303C18.914,40.839 19.184,40.429 19.524,40.073C19.864,39.717 20.26,39.435 20.712,39.227C21.164,39.019 21.646,38.915 22.158,38.915C22.726,38.915 23.192,39.049 23.556,39.317C23.92,39.585 24.158,39.947 24.27,40.403L23.43,40.655C23.334,40.335 23.158,40.085 22.902,39.905C22.646,39.725 22.338,39.635 21.978,39.635C21.626,39.635 21.288,39.715 20.964,39.875C20.64,40.035 20.35,40.251 20.094,40.523C19.838,40.795 19.634,41.115 19.482,41.483C19.33,41.851 19.254,42.239 19.254,42.647C19.254,42.935 19.294,43.201 19.374,43.445C19.454,43.689 19.566,43.903 19.71,44.087C19.854,44.271 20.028,44.415 20.232,44.519C20.436,44.623 20.662,44.675 20.91,44.675C21.102,44.675 21.296,44.647 21.492,44.591C21.688,44.535 21.874,44.457 22.05,44.357C22.226,44.257 22.384,44.143 22.524,44.015C22.664,43.887 22.77,43.751 22.842,43.607L23.598,43.847C23.47,44.071 23.306,44.277 23.106,44.465C22.906,44.653 22.682,44.817 22.434,44.957C22.186,45.097 21.922,45.205 21.642,45.281C21.362,45.357 21.078,45.395 20.79,45.395Z" style="fill-rule:nonzero;"/>
            <path d="M27.078,45.395C26.694,45.395 26.352,45.327 26.052,45.191C25.752,45.055 25.5,44.867 25.296,44.627C25.092,44.387 24.936,44.107 24.828,43.787C24.72,43.467 24.666,43.123 24.666,42.755C24.666,42.259 24.762,41.781 24.954,41.321C25.146,40.861 25.41,40.453 25.746,40.097C26.082,39.741 26.48,39.455 26.94,39.239C27.4,39.023 27.898,38.915 28.434,38.915C28.706,38.915 28.964,38.951 29.208,39.023C29.452,39.095 29.664,39.201 29.844,39.341C30.024,39.481 30.166,39.657 30.27,39.869C30.374,40.081 30.426,40.323 30.426,40.595C30.426,41.211 30.154,41.675 29.61,41.987C29.066,42.299 28.226,42.455 27.09,42.455C26.866,42.455 26.624,42.451 26.364,42.443C26.104,42.435 25.822,42.419 25.518,42.395C25.51,42.459 25.504,42.519 25.5,42.575C25.496,42.631 25.494,42.687 25.494,42.743C25.494,43.015 25.53,43.273 25.602,43.517C25.674,43.761 25.782,43.977 25.926,44.165C26.07,44.353 26.25,44.501 26.466,44.609C26.682,44.717 26.934,44.771 27.222,44.771C27.414,44.771 27.61,44.743 27.81,44.687C28.01,44.631 28.2,44.553 28.38,44.453C28.56,44.353 28.726,44.231 28.878,44.087C29.03,43.943 29.158,43.783 29.262,43.607L29.934,43.811C29.79,44.043 29.614,44.257 29.406,44.453C29.198,44.649 28.968,44.817 28.716,44.957C28.464,45.097 28.2,45.205 27.924,45.281C27.648,45.357 27.366,45.395 27.078,45.395ZM28.35,39.551C27.99,39.551 27.662,39.615 27.366,39.743C27.07,39.871 26.806,40.039 26.574,40.247C26.342,40.455 26.146,40.695 25.986,40.967C25.826,41.239 25.706,41.519 25.626,41.807C25.914,41.823 26.18,41.837 26.424,41.849C26.668,41.861 26.902,41.867 27.126,41.867C27.598,41.867 27.998,41.835 28.326,41.771C28.654,41.707 28.918,41.619 29.118,41.507C29.318,41.395 29.462,41.259 29.55,41.099C29.638,40.939 29.682,40.767 29.682,40.583C29.682,40.223 29.55,39.961 29.286,39.797C29.022,39.633 28.71,39.551 28.35,39.551Z" style="fill-rule:nonzero;"/>
            <path d="M32.202,39.023L33.018,39.023L31.698,45.275L30.882,45.275L32.202,39.023ZM32.742,36.515L33.558,36.515L33.306,37.715L32.49,37.715L32.742,36.515Z" style="fill-rule:nonzero;"/>
            <path d="M34.026,39.023L34.878,39.023L35.646,44.519C36.342,43.623 36.934,42.707 37.422,41.771C37.91,40.835 38.274,39.919 38.514,39.023L39.306,39.023C38.706,41.127 37.57,43.211 35.898,45.275L35.022,45.275L34.026,39.023Z" style="fill-rule:nonzero;"/>
            <path d="M41.85,45.395C41.466,45.395 41.124,45.327 40.824,45.191C40.524,45.055 40.272,44.867 40.068,44.627C39.864,44.387 39.708,44.107 39.6,43.787C39.492,43.467 39.438,43.123 39.438,42.755C39.438,42.259 39.534,41.781 39.726,41.321C39.918,40.861 40.182,40.453 40.518,40.097C40.854,39.741 41.252,39.455 41.712,39.239C42.172,39.023 42.67,38.915 43.206,38.915C43.478,38.915 43.736,38.951 43.98,39.023C44.224,39.095 44.436,39.201 44.616,39.341C44.796,39.481 44.938,39.657 45.042,39.869C45.146,40.081 45.198,40.323 45.198,40.595C45.198,41.211 44.926,41.675 44.382,41.987C43.838,42.299 42.998,42.455 41.862,42.455C41.638,42.455 41.396,42.451 41.136,42.443C40.876,42.435 40.594,42.419 40.29,42.395C40.282,42.459 40.276,42.519 40.272,42.575C40.268,42.631 40.266,42.687 40.266,42.743C40.266,43.015 40.302,43.273 40.374,43.517C40.446,43.761 40.554,43.977 40.698,44.165C40.842,44.353 41.022,44.501 41.238,44.609C41.454,44.717 41.706,44.771 41.994,44.771C42.186,44.771 42.382,44.743 42.582,44.687C42.782,44.631 42.972,44.553 43.152,44.453C43.332,44.353 43.498,44.231 43.65,44.087C43.802,43.943 43.93,43.783 44.034,43.607L44.706,43.811C44.562,44.043 44.386,44.257 44.178,44.453C43.97,44.649 43.74,44.817 43.488,44.957C43.236,45.097 42.972,45.205 42.696,45.281C42.42,45.357 42.138,45.395 41.85,45.395ZM43.122,39.551C42.762,39.551 42.434,39.615 42.138,39.743C41.842,39.871 41.578,40.039 41.346,40.247C41.114,40.455 40.918,40.695 40.758,40.967C40.598,41.239 40.478,41.519 40.398,41.807C40.686,41.823 40.952,41.837 41.196,41.849C41.44,41.861 41.674,41.867 41.898,41.867C42.37,41.867 42.77,41.835 43.098,41.771C43.426,41.707 43.69,41.619 43.89,41.507C44.09,41.395 44.234,41.259 44.322,41.099C44.41,40.939 44.454,40.767 44.454,40.583C44.454,40.223 44.322,39.961 44.058,39.797C43.794,39.633 43.482,39.551 43.122,39.551Z" style="fill-rule:nonzero;"/>
            <path d="M46.974,39.023L47.742,39.023L47.418,40.523C47.73,40.067 48.084,39.705 48.48,39.437C48.876,39.169 49.278,39.027 49.686,39.011C49.75,39.011 49.804,39.013 49.848,39.017C49.892,39.021 49.934,39.027 49.974,39.035L49.818,39.743C49.298,39.759 48.814,39.911 48.366,40.199C47.918,40.487 47.558,40.883 47.286,41.387L46.47,45.275L45.654,45.275L46.974,39.023Z" style="fill-rule:nonzero;"/>
        </g>
        <g transform="matrix(1,0,0,1,-23.2553,757.663)">
            <path d="M23.01,20.41L19.97,20.41L19.97,15.674C19.97,15.258 19.876,14.956 19.69,14.77C19.503,14.583 19.271,14.49 18.994,14.49C18.898,14.49 18.783,14.519 18.65,14.578C18.516,14.636 18.383,14.716 18.25,14.818C18.116,14.919 17.991,15.044 17.874,15.194C17.756,15.343 17.66,15.508 17.586,15.69L17.586,20.41L14.546,20.41L14.546,8.73L17.586,8.73L17.586,13.242C17.884,12.783 18.274,12.434 18.754,12.194C19.234,11.954 19.772,11.834 20.37,11.834C20.956,11.834 21.426,11.935 21.778,12.138C22.13,12.34 22.396,12.594 22.578,12.898C22.759,13.202 22.876,13.53 22.93,13.882C22.983,14.234 23.01,14.564 23.01,14.874L23.01,20.41Z" style="fill-rule:nonzero;"/>
            <path d="M28.626,20.57C27.868,20.57 27.204,20.45 26.634,20.21C26.063,19.97 25.583,19.65 25.194,19.25C24.804,18.85 24.511,18.386 24.314,17.858C24.116,17.33 24.018,16.778 24.018,16.202C24.018,15.626 24.116,15.074 24.314,14.546C24.511,14.018 24.804,13.554 25.194,13.154C25.583,12.754 26.063,12.434 26.634,12.194C27.204,11.954 27.868,11.834 28.626,11.834C29.372,11.834 30.034,11.954 30.61,12.194C31.186,12.434 31.668,12.754 32.058,13.154C32.447,13.554 32.74,14.018 32.938,14.546C33.135,15.074 33.234,15.626 33.234,16.202C33.234,16.778 33.135,17.33 32.938,17.858C32.74,18.386 32.447,18.85 32.058,19.25C31.668,19.65 31.186,19.97 30.61,20.21C30.034,20.45 29.372,20.57 28.626,20.57ZM27.138,16.202C27.138,16.767 27.276,17.21 27.554,17.53C27.831,17.85 28.188,18.01 28.626,18.01C29.063,18.01 29.42,17.85 29.698,17.53C29.975,17.21 30.114,16.767 30.114,16.202C30.114,15.636 29.975,15.194 29.698,14.874C29.42,14.554 29.063,14.394 28.626,14.394C28.188,14.394 27.831,14.554 27.554,14.874C27.276,15.194 27.138,15.636 27.138,16.202Z" style="fill-rule:nonzero;"/>
            <path d="M34.242,8.73L37.282,8.73L37.282,17.066C37.282,17.706 37.543,18.026 38.066,18.026C38.194,18.026 38.332,18.004 38.482,17.962C38.631,17.919 38.77,17.86 38.898,17.786L39.282,20.026C38.919,20.196 38.511,20.33 38.058,20.426C37.604,20.522 37.175,20.57 36.77,20.57C35.959,20.57 35.335,20.362 34.898,19.946C34.46,19.53 34.242,18.927 34.242,18.138L34.242,8.73Z" style="fill-rule:nonzero;"/>
            <path d="M44.13,20.57C43.372,20.57 42.708,20.45 42.138,20.21C41.567,19.97 41.087,19.65 40.698,19.25C40.308,18.85 40.015,18.386 39.818,17.858C39.62,17.33 39.522,16.778 39.522,16.202C39.522,15.626 39.62,15.074 39.818,14.546C40.015,14.018 40.308,13.554 40.698,13.154C41.087,12.754 41.567,12.434 42.138,12.194C42.708,11.954 43.372,11.834 44.13,11.834C44.876,11.834 45.538,11.954 46.114,12.194C46.69,12.434 47.172,12.754 47.562,13.154C47.951,13.554 48.244,14.018 48.442,14.546C48.639,15.074 48.738,15.626 48.738,16.202C48.738,16.778 48.639,17.33 48.442,17.858C48.244,18.386 47.951,18.85 47.562,19.25C47.172,19.65 46.69,19.97 46.114,20.21C45.538,20.45 44.876,20.57 44.13,20.57ZM42.642,16.202C42.642,16.767 42.78,17.21 43.058,17.53C43.335,17.85 43.692,18.01 44.13,18.01C44.567,18.01 44.924,17.85 45.202,17.53C45.479,17.21 45.618,16.767 45.618,16.202C45.618,15.636 45.479,15.194 45.202,14.874C44.924,14.554 44.567,14.394 44.13,14.394C43.692,14.394 43.335,14.554 43.058,14.874C42.78,15.194 42.642,15.636 42.642,16.202Z" style="fill-rule:nonzero;"/>
            <path d="M58.274,20.41L55.234,20.41L55.234,15.674C55.234,15.258 55.14,14.956 54.954,14.77C54.767,14.583 54.551,14.49 54.306,14.49C54.05,14.49 53.778,14.602 53.49,14.826C53.202,15.05 52.988,15.338 52.85,15.69L52.85,20.41L49.81,20.41L49.81,11.994L52.546,11.994L52.546,13.242C52.844,12.783 53.263,12.434 53.802,12.194C54.34,11.954 54.978,11.834 55.714,11.834C56.29,11.834 56.746,11.938 57.082,12.146C57.418,12.354 57.674,12.612 57.85,12.922C58.026,13.231 58.14,13.562 58.194,13.914C58.247,14.266 58.274,14.586 58.274,14.874L58.274,20.41Z" style="fill-rule:nonzero;"/>
            <rect x="59.778" y="17.466" width="2.464" height="2.944"/>
            <path d="M63.81,20.41L63.81,11.994L66.85,11.994L66.85,20.41L63.81,20.41ZM63.81,11.29L63.81,8.73L66.85,8.73L66.85,11.29L63.81,11.29Z" style="fill-rule:nonzero;"/>
            <path d="M71.858,20.57C71.122,20.57 70.402,20.45 69.698,20.21C68.994,19.97 68.396,19.62 67.906,19.162L68.946,17.338C69.468,17.69 69.972,17.962 70.458,18.154C70.943,18.346 71.388,18.442 71.794,18.442C72.22,18.442 72.434,18.308 72.434,18.042C72.434,17.892 72.351,17.764 72.186,17.658C72.02,17.551 71.698,17.428 71.218,17.29C70.62,17.119 70.122,16.951 69.722,16.786C69.322,16.62 68.996,16.442 68.746,16.25C68.495,16.058 68.316,15.844 68.21,15.61C68.103,15.375 68.05,15.098 68.05,14.778C68.05,14.351 68.135,13.956 68.306,13.594C68.476,13.231 68.714,12.916 69.018,12.65C69.322,12.383 69.684,12.178 70.106,12.034C70.527,11.89 70.988,11.818 71.49,11.818C72.108,11.818 72.698,11.898 73.258,12.058C73.818,12.218 74.38,12.543 74.946,13.034L73.794,14.858C73.271,14.516 72.834,14.274 72.482,14.13C72.13,13.986 71.799,13.914 71.49,13.914C71.308,13.914 71.159,13.948 71.042,14.018C70.924,14.087 70.866,14.196 70.866,14.346C70.866,14.506 70.951,14.636 71.122,14.738C71.292,14.839 71.628,14.954 72.13,15.082C72.738,15.242 73.25,15.41 73.666,15.586C74.082,15.762 74.415,15.954 74.666,16.162C74.916,16.37 75.095,16.604 75.202,16.866C75.308,17.127 75.362,17.428 75.362,17.77C75.362,18.207 75.282,18.596 75.122,18.938C74.962,19.279 74.73,19.572 74.426,19.818C74.122,20.063 73.754,20.25 73.322,20.378C72.89,20.506 72.402,20.57 71.858,20.57Z" style="fill-rule:nonzero;"/>
            <path d="M82.21,19.946C81.783,20.127 81.327,20.279 80.842,20.402C80.356,20.524 79.879,20.586 79.41,20.586C79.068,20.586 78.743,20.543 78.434,20.458C78.124,20.372 77.855,20.234 77.626,20.042C77.396,19.85 77.215,19.599 77.082,19.29C76.948,18.98 76.882,18.596 76.882,18.138L76.882,14.282L75.842,14.282L75.842,11.994L76.882,11.994L76.882,9.354L79.922,9.354L79.922,11.994L81.57,11.994L81.57,14.282L79.922,14.282L79.922,17.066C79.922,17.343 79.98,17.538 80.098,17.65C80.215,17.762 80.375,17.818 80.578,17.818C80.727,17.818 80.898,17.794 81.09,17.746C81.282,17.698 81.474,17.631 81.666,17.546L82.21,19.946Z" style="fill-rule:nonzero;"/>
        </g>
        <g transform="matrix(1,0,0,1,-14,723.336)">
            <path d="M9.292,85.834C9.064,85.834 8.852,85.797 8.657,85.722C8.462,85.647 8.294,85.543 8.153,85.411C8.012,85.279 7.901,85.123 7.82,84.943C7.739,84.763 7.699,84.568 7.699,84.358C7.699,84.136 7.747,83.935 7.843,83.755C7.939,83.575 8.075,83.419 8.252,83.287C8.429,83.155 8.639,83.053 8.882,82.981C9.125,82.909 9.394,82.873 9.688,82.873C9.91,82.873 10.129,82.893 10.345,82.932C10.561,82.971 10.756,83.023 10.93,83.089L10.93,82.765C10.93,82.417 10.831,82.146 10.633,81.951C10.435,81.756 10.15,81.658 9.778,81.658C9.526,81.658 9.278,81.705 9.035,81.798C8.792,81.891 8.542,82.024 8.284,82.198L7.978,81.568C8.584,81.16 9.214,80.956 9.868,80.956C10.516,80.956 11.02,81.121 11.38,81.451C11.74,81.781 11.92,82.255 11.92,82.873L11.92,84.574C11.92,84.784 12.007,84.892 12.181,84.898L12.181,85.744C12.085,85.762 12.002,85.774 11.933,85.78C11.864,85.786 11.797,85.789 11.731,85.789C11.539,85.789 11.39,85.741 11.285,85.645C11.18,85.549 11.116,85.426 11.092,85.276L11.065,84.979C10.855,85.255 10.595,85.467 10.286,85.614C9.977,85.761 9.646,85.834 9.292,85.834ZM9.562,85.105C9.802,85.105 10.028,85.062 10.241,84.975C10.454,84.888 10.621,84.766 10.741,84.61C10.867,84.502 10.93,84.388 10.93,84.268L10.93,83.647C10.762,83.581 10.583,83.53 10.394,83.494C10.205,83.458 10.021,83.44 9.841,83.44C9.487,83.44 9.197,83.517 8.972,83.67C8.747,83.823 8.635,84.025 8.635,84.277C8.635,84.511 8.722,84.708 8.896,84.867C9.07,85.026 9.292,85.105 9.562,85.105Z" style="fill-rule:nonzero;"/>
            <path d="M12.811,83.386C12.811,83.056 12.868,82.744 12.982,82.45C13.096,82.156 13.259,81.898 13.472,81.676C13.685,81.454 13.942,81.279 14.242,81.15C14.542,81.021 14.878,80.956 15.25,80.956C15.736,80.956 16.154,81.063 16.505,81.276C16.856,81.489 17.119,81.772 17.293,82.126L16.33,82.432C16.216,82.234 16.063,82.08 15.871,81.969C15.679,81.858 15.466,81.802 15.232,81.802C15.034,81.802 14.849,81.841 14.678,81.919C14.507,81.997 14.359,82.107 14.233,82.248C14.107,82.389 14.008,82.555 13.936,82.747C13.864,82.939 13.828,83.152 13.828,83.386C13.828,83.614 13.865,83.826 13.94,84.021C14.015,84.216 14.117,84.385 14.246,84.529C14.375,84.673 14.525,84.786 14.696,84.867C14.867,84.948 15.049,84.988 15.241,84.988C15.361,84.988 15.481,84.972 15.601,84.939C15.721,84.906 15.83,84.859 15.929,84.799C16.028,84.739 16.115,84.67 16.19,84.592C16.265,84.514 16.321,84.43 16.357,84.34L17.329,84.628C17.173,84.982 16.912,85.272 16.546,85.497C16.18,85.722 15.748,85.834 15.25,85.834C14.884,85.834 14.551,85.768 14.251,85.636C13.951,85.504 13.694,85.326 13.481,85.101C13.268,84.876 13.103,84.616 12.986,84.322C12.869,84.028 12.811,83.716 12.811,83.386Z" style="fill-rule:nonzero;"/>
            <path d="M20.767,85.501C20.641,85.561 20.467,85.629 20.245,85.704C20.023,85.779 19.786,85.816 19.534,85.816C19.378,85.816 19.231,85.795 19.093,85.753C18.955,85.711 18.833,85.648 18.728,85.564C18.623,85.48 18.541,85.371 18.481,85.236C18.421,85.101 18.391,84.937 18.391,84.745L18.391,81.802L17.77,81.802L17.77,81.037L18.391,81.037L18.391,79.489L19.381,79.489L19.381,81.037L20.407,81.037L20.407,81.802L19.381,81.802L19.381,84.43C19.393,84.598 19.445,84.72 19.538,84.795C19.631,84.87 19.747,84.907 19.885,84.907C20.023,84.907 20.155,84.883 20.281,84.835C20.407,84.787 20.5,84.748 20.56,84.718L20.767,85.501Z" style="fill-rule:nonzero;"/>
            <rect x="21.406" y="84.592" width="0.819" height="1.152"/>
        </g>
        <g transform="matrix(1,0,0,1,56.2224,689.132)">
            <path d="M7.727,82.864C7.727,82.523 7.788,82.183 7.911,81.844C8.033,81.505 8.213,81.201 8.451,80.932C8.688,80.663 8.977,80.445 9.319,80.28C9.66,80.115 10.047,80.032 10.479,80.032C10.996,80.032 11.439,80.147 11.807,80.376C12.175,80.605 12.452,80.904 12.639,81.272L11.935,81.744C11.855,81.573 11.759,81.429 11.647,81.312C11.535,81.195 11.412,81.101 11.279,81.032C11.145,80.963 11.007,80.913 10.863,80.884C10.719,80.855 10.58,80.84 10.447,80.84C10.148,80.84 9.887,80.9 9.663,81.02C9.439,81.14 9.251,81.299 9.099,81.496C8.947,81.693 8.832,81.915 8.755,82.16C8.677,82.405 8.639,82.651 8.639,82.896C8.639,83.173 8.684,83.437 8.775,83.688C8.865,83.939 8.992,84.16 9.155,84.352C9.317,84.544 9.511,84.697 9.735,84.812C9.959,84.927 10.204,84.984 10.471,84.984C10.609,84.984 10.752,84.967 10.899,84.932C11.045,84.897 11.187,84.841 11.323,84.764C11.459,84.687 11.584,84.589 11.699,84.472C11.813,84.355 11.908,84.213 11.983,84.048L12.727,84.472C12.636,84.685 12.508,84.873 12.343,85.036C12.177,85.199 11.991,85.336 11.783,85.448C11.575,85.56 11.355,85.645 11.123,85.704C10.891,85.763 10.663,85.792 10.439,85.792C10.039,85.792 9.673,85.707 9.343,85.536C9.012,85.365 8.727,85.143 8.487,84.868C8.247,84.593 8.06,84.281 7.927,83.932C7.793,83.583 7.727,83.227 7.727,82.864Z" style="fill-rule:nonzero;"/>
        </g>
        <g transform="matrix(1,0,0,1,54.817,700.473)">
            <path d="M12.551,84.28C12.551,84.509 12.504,84.715 12.411,84.896C12.317,85.077 12.192,85.231 12.035,85.356C11.877,85.481 11.692,85.577 11.479,85.644C11.265,85.711 11.039,85.744 10.799,85.744L8.087,85.744L8.087,80.064L11.015,80.064C11.212,80.064 11.391,80.107 11.551,80.192C11.711,80.277 11.847,80.388 11.959,80.524C12.071,80.66 12.157,80.815 12.219,80.988C12.28,81.161 12.311,81.336 12.311,81.512C12.311,81.789 12.24,82.049 12.099,82.292C11.957,82.535 11.756,82.715 11.495,82.832C11.82,82.928 12.077,83.103 12.267,83.356C12.456,83.609 12.551,83.917 12.551,84.28ZM11.631,84.112C11.631,83.995 11.611,83.883 11.571,83.776C11.531,83.669 11.477,83.576 11.411,83.496C11.344,83.416 11.263,83.352 11.167,83.304C11.071,83.256 10.967,83.232 10.855,83.232L8.983,83.232L8.983,84.968L10.799,84.968C10.916,84.968 11.025,84.945 11.127,84.9C11.228,84.855 11.316,84.793 11.391,84.716C11.465,84.639 11.524,84.548 11.567,84.444C11.609,84.34 11.631,84.229 11.631,84.112ZM8.983,80.84L8.983,82.512L10.631,82.512C10.743,82.512 10.845,82.491 10.939,82.448C11.032,82.405 11.115,82.348 11.187,82.276C11.259,82.204 11.315,82.117 11.355,82.016C11.395,81.915 11.415,81.803 11.415,81.68C11.415,81.435 11.345,81.233 11.207,81.076C11.068,80.919 10.892,80.84 10.679,80.84L8.983,80.84Z" style="fill-rule:nonzero;"/>
        </g>
        <g transform="matrix(1,0,0,1,58.5711,711.456)">
            <path d="M9.759,80.064L10.543,80.064L12.783,85.744L11.839,85.744L11.239,84.2L9.047,84.2L8.455,85.744L7.503,85.744L9.759,80.064ZM11.063,83.536L10.151,81.096L9.207,83.536L11.063,83.536Z" style="fill-rule:nonzero;"/>
        </g>
        <g transform="matrix(1,0,0,1,76.5045,681.456)">
            <path d="M11.983,84.952L11.983,85.744L8.087,85.744L8.087,80.064L11.911,80.064L11.911,80.856L8.983,80.856L8.983,82.472L11.519,82.472L11.519,83.216L8.983,83.216L8.983,84.952L11.983,84.952Z" style="fill-rule:nonzero;"/>
        </g>
        <g transform="matrix(1,0,0,1,85.4052,689.614)">
            <path d="M8.087,85.744L8.087,80.064L11.871,80.064L11.871,80.856L8.983,80.856L8.983,82.552L11.399,82.552L11.399,83.296L8.983,83.296L8.983,85.744L8.087,85.744Z" style="fill-rule:nonzero;"/>
        </g>
        <g transform="matrix(1,0,0,1,86.4144,700.584)">
            <path d="M12.063,85.04C11.583,85.536 11.031,85.784 10.407,85.784C10.028,85.784 9.676,85.705 9.351,85.548C9.025,85.391 8.743,85.179 8.503,84.912C8.263,84.645 8.075,84.336 7.939,83.984C7.803,83.632 7.735,83.264 7.735,82.88C7.735,82.496 7.803,82.131 7.939,81.784C8.075,81.437 8.263,81.133 8.503,80.872C8.743,80.611 9.028,80.404 9.359,80.252C9.689,80.1 10.049,80.024 10.439,80.024C10.983,80.024 11.439,80.137 11.807,80.364C12.175,80.591 12.452,80.891 12.639,81.264L11.951,81.76C11.796,81.451 11.583,81.219 11.311,81.064C11.039,80.909 10.74,80.832 10.415,80.832C10.148,80.832 9.905,80.889 9.687,81.004C9.468,81.119 9.281,81.271 9.127,81.46C8.972,81.649 8.853,81.869 8.771,82.12C8.688,82.371 8.647,82.632 8.647,82.904C8.647,83.192 8.693,83.461 8.787,83.712C8.88,83.963 9.008,84.181 9.171,84.368C9.333,84.555 9.527,84.703 9.751,84.812C9.975,84.921 10.217,84.976 10.479,84.976C10.767,84.976 11.043,84.909 11.307,84.776C11.571,84.643 11.823,84.432 12.063,84.144L12.063,83.536L10.871,83.536L10.871,82.872L12.815,82.872L12.815,85.744L12.063,85.744L12.063,85.04Z" style="fill-rule:nonzero;"/>
        </g>
        <g transform="matrix(1,0,0,1,80.2727,712.456)">
            <path d="M12.751,80.064L12.751,85.744L11.847,85.744L11.847,83.24L8.983,83.24L8.983,85.744L8.087,85.744L8.087,80.064L8.983,80.064L8.983,82.44L11.847,82.44L11.847,80.064L12.751,80.064Z" style="fill-rule:nonzero;"/>
        </g>
        <g transform="matrix(1,0,0,1,65.0933,681.456)">
            <path d="M8.087,85.744L8.087,80.064L10.103,80.064C10.561,80.064 10.963,80.139 11.307,80.288C11.651,80.437 11.939,80.64 12.171,80.896C12.403,81.152 12.577,81.452 12.695,81.796C12.812,82.14 12.871,82.507 12.871,82.896C12.871,83.328 12.805,83.719 12.675,84.068C12.544,84.417 12.359,84.716 12.119,84.964C11.879,85.212 11.588,85.404 11.247,85.54C10.905,85.676 10.524,85.744 10.103,85.744L8.087,85.744ZM11.959,82.896C11.959,82.597 11.917,82.323 11.835,82.072C11.752,81.821 11.631,81.607 11.471,81.428C11.311,81.249 11.116,81.109 10.887,81.008C10.657,80.907 10.396,80.856 10.103,80.856L8.983,80.856L8.983,84.952L10.103,84.952C10.401,84.952 10.667,84.9 10.899,84.796C11.131,84.692 11.325,84.548 11.483,84.364C11.64,84.18 11.759,83.963 11.839,83.712C11.919,83.461 11.959,83.189 11.959,82.896Z" style="fill-rule:nonzero;"/>
        </g>
        <g transform="matrix(1,0,0,1,-38,727.412)">
            <path d="M83.799,75.458L84.789,75.458L84.789,80.669C84.789,80.843 84.834,80.979 84.924,81.078C85.014,81.177 85.14,81.227 85.302,81.227C85.368,81.227 85.444,81.215 85.531,81.191C85.618,81.167 85.701,81.14 85.779,81.11L85.923,81.884C85.779,81.95 85.608,82.002 85.41,82.041C85.212,82.08 85.035,82.1 84.879,82.1C84.537,82.1 84.271,82.007 84.082,81.821C83.893,81.635 83.799,81.371 83.799,81.029L83.799,75.458Z" style="fill-rule:nonzero;"/>
            <path d="M89.172,82.118C88.794,82.118 88.461,82.028 88.173,81.848C87.885,81.668 87.657,81.434 87.489,81.146L87.489,83.945L86.499,83.945L86.499,77.321L87.372,77.321L87.372,78.167C87.552,77.885 87.784,77.66 88.069,77.492C88.354,77.324 88.677,77.24 89.037,77.24C89.361,77.24 89.658,77.306 89.928,77.438C90.198,77.57 90.432,77.747 90.63,77.969C90.828,78.191 90.982,78.449 91.093,78.743C91.204,79.037 91.26,79.346 91.26,79.67C91.26,80.012 91.209,80.331 91.107,80.628C91.005,80.925 90.861,81.183 90.675,81.402C90.489,81.621 90.268,81.795 90.013,81.924C89.758,82.053 89.478,82.118 89.172,82.118ZM88.848,81.272C89.058,81.272 89.248,81.227 89.419,81.137C89.59,81.047 89.737,80.927 89.86,80.777C89.983,80.627 90.078,80.456 90.144,80.264C90.21,80.072 90.243,79.874 90.243,79.67C90.243,79.454 90.205,79.25 90.13,79.058C90.055,78.866 89.953,78.698 89.824,78.554C89.695,78.41 89.541,78.296 89.361,78.212C89.181,78.128 88.986,78.086 88.776,78.086C88.65,78.086 88.518,78.11 88.38,78.158C88.242,78.206 88.113,78.272 87.993,78.356C87.873,78.44 87.768,78.537 87.678,78.648C87.588,78.759 87.525,78.881 87.489,79.013L87.489,80.246C87.549,80.39 87.627,80.525 87.723,80.651C87.819,80.777 87.925,80.885 88.042,80.975C88.159,81.065 88.287,81.137 88.425,81.191C88.563,81.245 88.704,81.272 88.848,81.272Z" style="fill-rule:nonzero;"/>
            <path d="M92.349,82.028L92.349,78.203L91.719,78.203L91.719,77.438L92.349,77.438L92.349,77.249C92.349,76.667 92.484,76.208 92.754,75.872C93.024,75.536 93.39,75.368 93.852,75.368C94.044,75.368 94.233,75.393 94.419,75.444C94.605,75.495 94.782,75.566 94.95,75.656L94.734,76.394C94.644,76.34 94.537,76.295 94.414,76.259C94.291,76.223 94.173,76.205 94.059,76.205C93.825,76.205 93.646,76.292 93.523,76.466C93.4,76.64 93.339,76.892 93.339,77.222L93.339,77.438L94.545,77.438L94.545,78.203L93.339,78.203L93.339,82.028L92.349,82.028Z" style="fill-rule:nonzero;"/>
        </g>
        <g transform="matrix(1,0,0,1,-8.21412,727.052)">
            <path d="M85.905,82.118C85.533,82.118 85.198,82.052 84.901,81.92C84.604,81.788 84.351,81.611 84.141,81.389C83.931,81.167 83.769,80.907 83.655,80.61C83.541,80.313 83.484,80.003 83.484,79.679C83.484,79.355 83.541,79.044 83.655,78.747C83.769,78.45 83.932,78.191 84.145,77.969C84.358,77.747 84.613,77.57 84.91,77.438C85.207,77.306 85.539,77.24 85.905,77.24C86.271,77.24 86.602,77.306 86.899,77.438C87.196,77.57 87.451,77.747 87.664,77.969C87.877,78.191 88.041,78.45 88.155,78.747C88.269,79.044 88.326,79.355 88.326,79.679C88.326,80.003 88.269,80.313 88.155,80.61C88.041,80.907 87.877,81.167 87.664,81.389C87.451,81.611 87.196,81.788 86.899,81.92C86.602,82.052 86.271,82.118 85.905,82.118ZM84.501,79.688C84.501,79.916 84.537,80.126 84.609,80.318C84.681,80.51 84.78,80.676 84.906,80.817C85.032,80.958 85.18,81.069 85.351,81.15C85.522,81.231 85.707,81.272 85.905,81.272C86.103,81.272 86.287,81.231 86.458,81.15C86.629,81.069 86.778,80.957 86.904,80.813C87.03,80.669 87.129,80.501 87.201,80.309C87.273,80.117 87.309,79.907 87.309,79.679C87.309,79.457 87.273,79.248 87.201,79.053C87.129,78.858 87.03,78.689 86.904,78.545C86.778,78.401 86.629,78.288 86.458,78.207C86.287,78.126 86.103,78.086 85.905,78.086C85.713,78.086 85.531,78.128 85.36,78.212C85.189,78.296 85.041,78.41 84.915,78.554C84.789,78.698 84.688,78.867 84.613,79.062C84.538,79.257 84.501,79.466 84.501,79.688Z" style="fill-rule:nonzero;"/>
            <path d="M90.657,82.118C90.165,82.118 89.793,81.957 89.541,81.636C89.289,81.315 89.163,80.837 89.163,80.201L89.163,77.321L90.153,77.321L90.153,80.003C90.153,80.849 90.453,81.272 91.053,81.272C91.335,81.272 91.602,81.185 91.854,81.011C92.106,80.837 92.301,80.585 92.439,80.255L92.439,77.321L93.429,77.321L93.429,80.858C93.429,80.972 93.448,81.053 93.487,81.101C93.526,81.149 93.597,81.176 93.699,81.182L93.699,82.028C93.597,82.046 93.513,82.058 93.447,82.064C93.381,82.07 93.318,82.073 93.258,82.073C93.078,82.073 92.925,82.023 92.799,81.924C92.673,81.825 92.607,81.698 92.601,81.542L92.583,81.074C92.373,81.416 92.1,81.675 91.764,81.852C91.428,82.029 91.059,82.118 90.657,82.118Z" style="fill-rule:nonzero;"/>
            <path d="M97.308,81.785C97.182,81.845 97.008,81.912 96.786,81.987C96.564,82.062 96.327,82.1 96.075,82.1C95.919,82.1 95.772,82.079 95.634,82.037C95.496,81.995 95.374,81.932 95.269,81.848C95.164,81.764 95.082,81.654 95.022,81.519C94.962,81.384 94.932,81.221 94.932,81.029L94.932,78.086L94.311,78.086L94.311,77.321L94.932,77.321L94.932,75.773L95.922,75.773L95.922,77.321L96.948,77.321L96.948,78.086L95.922,78.086L95.922,80.714C95.934,80.882 95.986,81.003 96.079,81.078C96.172,81.153 96.288,81.191 96.426,81.191C96.564,81.191 96.696,81.167 96.822,81.119C96.948,81.071 97.041,81.032 97.101,81.002L97.308,81.785Z" style="fill-rule:nonzero;"/>
        </g>
        <g transform="matrix(1,0,0,1,-39.17,756.43)">
            <path d="M31.089,348.278C30.717,348.278 30.382,348.212 30.085,348.08C29.788,347.948 29.535,347.771 29.325,347.549C29.115,347.327 28.953,347.068 28.839,346.771C28.725,346.474 28.668,346.163 28.668,345.839C28.668,345.515 28.725,345.205 28.839,344.908C28.953,344.611 29.116,344.351 29.329,344.129C29.542,343.907 29.797,343.73 30.094,343.598C30.391,343.466 30.723,343.4 31.089,343.4C31.455,343.4 31.786,343.466 32.083,343.598C32.38,343.73 32.635,343.907 32.848,344.129C33.061,344.351 33.225,344.611 33.339,344.908C33.453,345.205 33.51,345.515 33.51,345.839C33.51,346.163 33.453,346.474 33.339,346.771C33.225,347.068 33.061,347.327 32.848,347.549C32.635,347.771 32.38,347.948 32.083,348.08C31.786,348.212 31.455,348.278 31.089,348.278ZM29.685,345.848C29.685,346.076 29.721,346.286 29.793,346.478C29.865,346.67 29.964,346.837 30.09,346.978C30.216,347.119 30.364,347.23 30.535,347.311C30.706,347.392 30.891,347.432 31.089,347.432C31.287,347.432 31.471,347.392 31.642,347.311C31.813,347.23 31.962,347.117 32.088,346.973C32.214,346.829 32.313,346.661 32.385,346.469C32.457,346.277 32.493,346.067 32.493,345.839C32.493,345.617 32.457,345.409 32.385,345.214C32.313,345.019 32.214,344.849 32.088,344.705C31.962,344.561 31.813,344.449 31.642,344.368C31.471,344.287 31.287,344.246 31.089,344.246C30.897,344.246 30.715,344.288 30.544,344.372C30.373,344.456 30.225,344.57 30.099,344.714C29.973,344.858 29.872,345.028 29.797,345.223C29.722,345.418 29.685,345.626 29.685,345.848Z" style="fill-rule:nonzero;"/>
            <path d="M36.102,348.278C35.724,348.278 35.347,348.217 34.972,348.094C34.597,347.971 34.275,347.795 34.005,347.567L34.401,346.937C34.683,347.141 34.962,347.296 35.238,347.401C35.514,347.506 35.796,347.558 36.084,347.558C36.378,347.558 36.61,347.501 36.781,347.387C36.952,347.273 37.038,347.111 37.038,346.901C37.038,346.703 36.942,346.559 36.75,346.469C36.558,346.379 36.258,346.28 35.85,346.172C35.556,346.094 35.304,346.019 35.094,345.947C34.884,345.875 34.713,345.791 34.581,345.695C34.449,345.599 34.353,345.488 34.293,345.362C34.233,345.236 34.203,345.083 34.203,344.903C34.203,344.663 34.249,344.45 34.342,344.264C34.435,344.078 34.564,343.921 34.729,343.792C34.894,343.663 35.088,343.565 35.31,343.499C35.532,343.433 35.772,343.4 36.03,343.4C36.384,343.4 36.714,343.454 37.02,343.562C37.326,343.67 37.599,343.826 37.839,344.03L37.416,344.624C36.978,344.276 36.513,344.102 36.021,344.102C35.769,344.102 35.557,344.155 35.386,344.26C35.215,344.365 35.13,344.531 35.13,344.759C35.13,344.855 35.148,344.936 35.184,345.002C35.22,345.068 35.278,345.125 35.359,345.173C35.44,345.221 35.545,345.265 35.674,345.304C35.803,345.343 35.964,345.386 36.156,345.434C36.474,345.512 36.748,345.59 36.979,345.668C37.21,345.746 37.401,345.838 37.551,345.943C37.701,346.048 37.812,346.171 37.884,346.312C37.956,346.453 37.992,346.622 37.992,346.82C37.992,347.27 37.822,347.626 37.483,347.887C37.144,348.148 36.684,348.278 36.102,348.278Z" style="fill-rule:nonzero;"/>
            <path d="M38.55,345.83C38.55,345.5 38.607,345.188 38.721,344.894C38.835,344.6 38.998,344.342 39.211,344.12C39.424,343.898 39.681,343.723 39.981,343.594C40.281,343.465 40.617,343.4 40.989,343.4C41.475,343.4 41.893,343.507 42.244,343.72C42.595,343.933 42.858,344.216 43.032,344.57L42.069,344.876C41.955,344.678 41.802,344.524 41.61,344.413C41.418,344.302 41.205,344.246 40.971,344.246C40.773,344.246 40.588,344.285 40.417,344.363C40.246,344.441 40.098,344.551 39.972,344.692C39.846,344.833 39.747,344.999 39.675,345.191C39.603,345.383 39.567,345.596 39.567,345.83C39.567,346.058 39.604,346.27 39.679,346.465C39.754,346.66 39.856,346.829 39.985,346.973C40.114,347.117 40.264,347.23 40.435,347.311C40.606,347.392 40.788,347.432 40.98,347.432C41.1,347.432 41.22,347.416 41.34,347.383C41.46,347.35 41.569,347.303 41.668,347.243C41.767,347.183 41.854,347.114 41.929,347.036C42.004,346.958 42.06,346.874 42.096,346.784L43.068,347.072C42.912,347.426 42.651,347.716 42.285,347.941C41.919,348.166 41.487,348.278 40.989,348.278C40.623,348.278 40.29,348.212 39.99,348.08C39.69,347.948 39.433,347.77 39.22,347.545C39.007,347.32 38.842,347.06 38.725,346.766C38.608,346.472 38.55,346.16 38.55,345.83Z" style="fill-rule:nonzero;"/>
            <path d="M46.11,348.188L46.11,343.481L47.1,343.481L47.1,348.188L46.11,348.188ZM46.11,342.707L46.11,341.618L47.1,341.618L47.1,342.707L46.11,342.707Z" style="fill-rule:nonzero;"/>
            <path d="M52.509,348.188L51.519,348.188L51.519,345.551C51.519,345.107 51.448,344.785 51.307,344.584C51.166,344.383 50.958,344.282 50.682,344.282C50.538,344.282 50.394,344.309 50.25,344.363C50.106,344.417 49.971,344.494 49.845,344.593C49.719,344.692 49.606,344.809 49.507,344.944C49.408,345.079 49.332,345.227 49.278,345.389L49.278,348.188L48.288,348.188L48.288,343.481L49.188,343.481L49.188,344.426C49.368,344.108 49.629,343.858 49.971,343.675C50.313,343.492 50.691,343.4 51.105,343.4C51.387,343.4 51.618,343.451 51.798,343.553C51.978,343.655 52.12,343.795 52.225,343.972C52.33,344.149 52.404,344.353 52.446,344.584C52.488,344.815 52.509,345.059 52.509,345.317L52.509,348.188Z" style="fill-rule:nonzero;"/>
            <path d="M56.334,348.278C55.956,348.278 55.623,348.188 55.335,348.008C55.047,347.828 54.819,347.594 54.651,347.306L54.651,350.105L53.661,350.105L53.661,343.481L54.534,343.481L54.534,344.327C54.714,344.045 54.946,343.82 55.231,343.652C55.516,343.484 55.839,343.4 56.199,343.4C56.523,343.4 56.82,343.466 57.09,343.598C57.36,343.73 57.594,343.907 57.792,344.129C57.99,344.351 58.144,344.609 58.255,344.903C58.366,345.197 58.422,345.506 58.422,345.83C58.422,346.172 58.371,346.492 58.269,346.789C58.167,347.086 58.023,347.344 57.837,347.563C57.651,347.782 57.43,347.956 57.175,348.085C56.92,348.214 56.64,348.278 56.334,348.278ZM56.01,347.432C56.22,347.432 56.41,347.387 56.581,347.297C56.752,347.207 56.899,347.087 57.022,346.937C57.145,346.787 57.24,346.616 57.306,346.424C57.372,346.232 57.405,346.034 57.405,345.83C57.405,345.614 57.367,345.41 57.292,345.218C57.217,345.026 57.115,344.858 56.986,344.714C56.857,344.57 56.703,344.456 56.523,344.372C56.343,344.288 56.148,344.246 55.938,344.246C55.812,344.246 55.68,344.27 55.542,344.318C55.404,344.366 55.275,344.432 55.155,344.516C55.035,344.6 54.93,344.698 54.84,344.809C54.75,344.92 54.687,345.041 54.651,345.173L54.651,346.406C54.711,346.55 54.789,346.685 54.885,346.811C54.981,346.937 55.087,347.045 55.204,347.135C55.321,347.225 55.449,347.297 55.587,347.351C55.725,347.405 55.866,347.432 56.01,347.432Z" style="fill-rule:nonzero;"/>
            <path d="M60.762,348.278C60.27,348.278 59.898,348.118 59.646,347.797C59.394,347.476 59.268,346.997 59.268,346.361L59.268,343.481L60.258,343.481L60.258,346.163C60.258,347.009 60.558,347.432 61.158,347.432C61.44,347.432 61.707,347.345 61.959,347.171C62.211,346.997 62.406,346.745 62.544,346.415L62.544,343.481L63.534,343.481L63.534,347.018C63.534,347.132 63.553,347.213 63.592,347.261C63.631,347.309 63.702,347.336 63.804,347.342L63.804,348.188C63.702,348.206 63.618,348.218 63.552,348.224C63.486,348.23 63.423,348.233 63.363,348.233C63.183,348.233 63.03,348.184 62.904,348.085C62.778,347.986 62.712,347.858 62.706,347.702L62.688,347.234C62.478,347.576 62.205,347.836 61.869,348.013C61.533,348.19 61.164,348.278 60.762,348.278Z" style="fill-rule:nonzero;"/>
            <path d="M67.413,347.945C67.287,348.005 67.113,348.073 66.891,348.148C66.669,348.223 66.432,348.26 66.18,348.26C66.024,348.26 65.877,348.239 65.739,348.197C65.601,348.155 65.479,348.092 65.374,348.008C65.269,347.924 65.187,347.815 65.127,347.68C65.067,347.545 65.037,347.381 65.037,347.189L65.037,344.246L64.416,344.246L64.416,343.481L65.037,343.481L65.037,341.933L66.027,341.933L66.027,343.481L67.053,343.481L67.053,344.246L66.027,344.246L66.027,346.874C66.039,347.042 66.091,347.164 66.184,347.239C66.277,347.314 66.393,347.351 66.531,347.351C66.669,347.351 66.801,347.327 66.927,347.279C67.053,347.231 67.146,347.192 67.206,347.162L67.413,347.945Z" style="fill-rule:nonzero;"/>
        </g>
        <g transform="matrix(1,0,0,1,18.8863,755.454)">
            <rect x="28.929" y="345.281" width="2.691" height="0.891" style="fill-rule:nonzero;"/>
            <path d="M36.003,347.297L36.003,348.188L32.565,348.188L32.565,347.297L33.843,347.297L33.843,344.156C33.789,344.228 33.705,344.303 33.591,344.381C33.477,344.459 33.351,344.531 33.213,344.597C33.075,344.663 32.931,344.719 32.781,344.764C32.631,344.809 32.499,344.831 32.385,344.831L32.385,343.904C32.505,343.904 32.644,343.868 32.803,343.796C32.962,343.724 33.115,343.64 33.262,343.544C33.409,343.448 33.538,343.352 33.649,343.256C33.76,343.16 33.825,343.091 33.843,343.049L34.86,343.049L34.86,347.297L36.003,347.297Z" style="fill-rule:nonzero;"/>
            <path d="M36.876,349.061L37.092,348.134L36.768,348.134L36.768,347.036L37.659,347.036L37.659,348.134L37.344,349.061L36.876,349.061Z" style="fill-rule:nonzero;"/>
            <path d="M44.454,347.297L44.454,348.188L41.016,348.188L41.016,347.297L42.294,347.297L42.294,344.156C42.24,344.228 42.156,344.303 42.042,344.381C41.928,344.459 41.802,344.531 41.664,344.597C41.526,344.663 41.382,344.719 41.232,344.764C41.082,344.809 40.95,344.831 40.836,344.831L40.836,343.904C40.956,343.904 41.095,343.868 41.254,343.796C41.413,343.724 41.566,343.64 41.713,343.544C41.86,343.448 41.989,343.352 42.1,343.256C42.211,343.16 42.276,343.091 42.294,343.049L43.311,343.049L43.311,347.297L44.454,347.297Z" style="fill-rule:nonzero;"/>
        </g>
        <g transform="matrix(1,0,0,1,18.4867,767.679)">
            <rect x="28.929" y="345.281" width="2.691" height="0.891" style="fill-rule:nonzero;"/>
            <path d="M36.003,347.297L36.003,348.188L32.565,348.188L32.565,347.297L33.843,347.297L33.843,344.156C33.789,344.228 33.705,344.303 33.591,344.381C33.477,344.459 33.351,344.531 33.213,344.597C33.075,344.663 32.931,344.719 32.781,344.764C32.631,344.809 32.499,344.831 32.385,344.831L32.385,343.904C32.505,343.904 32.644,343.868 32.803,343.796C32.962,343.724 33.115,343.64 33.262,343.544C33.409,343.448 33.538,343.352 33.649,343.256C33.76,343.16 33.825,343.091 33.843,343.049L34.86,343.049L34.86,347.297L36.003,347.297Z" style="fill-rule:nonzero;"/>
            <path d="M41.286,345.551C41.286,345.947 41.227,346.312 41.11,346.645C40.993,346.978 40.831,347.266 40.624,347.509C40.417,347.752 40.174,347.941 39.895,348.076C39.616,348.211 39.312,348.278 38.982,348.278C38.652,348.278 38.346,348.211 38.064,348.076C37.782,347.941 37.539,347.752 37.335,347.509C37.131,347.266 36.97,346.978 36.853,346.645C36.736,346.312 36.678,345.947 36.678,345.551C36.678,345.155 36.736,344.791 36.853,344.458C36.97,344.125 37.131,343.837 37.335,343.594C37.539,343.351 37.782,343.16 38.064,343.022C38.346,342.884 38.652,342.815 38.982,342.815C39.312,342.815 39.616,342.884 39.895,343.022C40.174,343.16 40.417,343.351 40.624,343.594C40.831,343.837 40.993,344.125 41.11,344.458C41.227,344.791 41.286,345.155 41.286,345.551ZM40.278,345.551C40.278,345.281 40.246,345.035 40.183,344.813C40.12,344.591 40.03,344.399 39.913,344.237C39.796,344.075 39.658,343.951 39.499,343.864C39.34,343.777 39.168,343.733 38.982,343.733C38.784,343.733 38.605,343.777 38.446,343.864C38.287,343.951 38.149,344.075 38.032,344.237C37.915,344.399 37.825,344.591 37.762,344.813C37.699,345.035 37.668,345.281 37.668,345.551C37.668,345.821 37.699,346.067 37.762,346.289C37.825,346.511 37.915,346.702 38.032,346.861C38.149,347.02 38.287,347.143 38.446,347.23C38.605,347.317 38.784,347.36 38.982,347.36C39.168,347.36 39.34,347.317 39.499,347.23C39.658,347.143 39.796,347.02 39.913,346.861C40.03,346.702 40.12,346.511 40.183,346.289C40.246,346.067 40.278,345.821 40.278,345.551Z" style="fill-rule:nonzero;"/>
            <path d="M42.402,349.061L42.618,348.134L42.294,348.134L42.294,347.036L43.185,347.036L43.185,348.134L42.87,349.061L42.402,349.061Z" style="fill-rule:nonzero;"/>
            <path d="M49.98,347.297L49.98,348.188L46.542,348.188L46.542,347.297L47.82,347.297L47.82,344.156C47.766,344.228 47.682,344.303 47.568,344.381C47.454,344.459 47.328,344.531 47.19,344.597C47.052,344.663 46.908,344.719 46.758,344.764C46.608,344.809 46.476,344.831 46.362,344.831L46.362,343.904C46.482,343.904 46.621,343.868 46.78,343.796C46.939,343.724 47.092,343.64 47.239,343.544C47.386,343.448 47.515,343.352 47.626,343.256C47.737,343.16 47.802,343.091 47.82,343.049L48.837,343.049L48.837,347.297L49.98,347.297Z" style="fill-rule:nonzero;"/>
            <path d="M55.263,345.551C55.263,345.947 55.204,346.312 55.087,346.645C54.97,346.978 54.808,347.266 54.601,347.509C54.394,347.752 54.151,347.941 53.872,348.076C53.593,348.211 53.289,348.278 52.959,348.278C52.629,348.278 52.323,348.211 52.041,348.076C51.759,347.941 51.516,347.752 51.312,347.509C51.108,347.266 50.947,346.978 50.83,346.645C50.713,346.312 50.655,345.947 50.655,345.551C50.655,345.155 50.713,344.791 50.83,344.458C50.947,344.125 51.108,343.837 51.312,343.594C51.516,343.351 51.759,343.16 52.041,343.022C52.323,342.884 52.629,342.815 52.959,342.815C53.289,342.815 53.593,342.884 53.872,343.022C54.151,343.16 54.394,343.351 54.601,343.594C54.808,343.837 54.97,344.125 55.087,344.458C55.204,344.791 55.263,345.155 55.263,345.551ZM54.255,345.551C54.255,345.281 54.223,345.035 54.16,344.813C54.097,344.591 54.007,344.399 53.89,344.237C53.773,344.075 53.635,343.951 53.476,343.864C53.317,343.777 53.145,343.733 52.959,343.733C52.761,343.733 52.582,343.777 52.423,343.864C52.264,343.951 52.126,344.075 52.009,344.237C51.892,344.399 51.802,344.591 51.739,344.813C51.676,345.035 51.645,345.281 51.645,345.551C51.645,345.821 51.676,346.067 51.739,346.289C51.802,346.511 51.892,346.702 52.009,346.861C52.126,347.02 52.264,347.143 52.423,347.23C52.582,347.317 52.761,347.36 52.959,347.36C53.145,347.36 53.317,347.317 53.476,347.23C53.635,347.143 53.773,347.02 53.89,346.861C54.007,346.702 54.097,346.511 54.16,346.289C54.223,346.067 54.255,345.821 54.255,345.551Z" style="fill-rule:nonzero;"/>
        </g>
    </g>
</svg>
